<?xml version="1.0" encoding="utf-8"?>
<!-- Generator: Adobe Illustrator 26.2.1, SVG Export Plug-In . SVG Version: 6.00 Build 0)  -->
<svg version="1.1" id="Layer_1" xmlns="http://www.w3.org/2000/svg" xmlns:xlink="http://www.w3.org/1999/xlink" x="0px" y="0px"
	 viewBox="0 0 612 792" style="enable-background:new 0 0 612 792;" xml:space="preserve">
<style type="text/css">
	.st0{fill:#FFFFFF;}
</style>
<path class="st0" d="M431.3,532.8c0,36-0.2,71.9,0.1,107.9c0.1,10.9-1.4,21.6-12.8,24.9c-12.1,3.5-25.4,5-34.6-7.7
	c-22.8-31.7-55.4-48.6-91.5-60.2c-19.7-6.3-24.2-12.5-24.5-33c-0.3-20.3-0.2-40.5,0-60.8c0.2-21.4,7.6-33,28.2-38.8
	c36.3-10.2,67.8-26.6,89.8-58.3c6.8-9.8,18.2-14.8,28.8-9.5c9.9,5,17.3,13.6,16.9,27.7C430.6,460.9,431.3,496.9,431.3,532.8z"/>
<path class="st0" d="M310.8,440.2c0-43.4-0.4-85.4,0.2-127.5c0.2-11.2-1.9-15.7-14.6-15.5c-42.8,0.9-85.5,0.9-128.3,0
	c-12.9-0.3-15.1,4.3-14.6,15.5c0.8,19.7-0.2,39.6,0.4,59.3c0.3,11.1-3.6,15.5-15,15.1c-19.8-0.7-39.7,0.1-59.6-0.3
	c-7.7-0.2-10.6,1.7-10.6,10c0.3,80.6,0.3,161.3,0,241.9c0,9.1,3.3,10.7,11.5,10.7c72.8-0.2,145.6-0.2,218.4,0.3
	c10.5,0.1,13.3-3.4,12.6-13c-0.3-3.6-3.1-11,3.2-10.7c5.3,0.3,13.9,1.4,13.8,10.9c-0.1,6.1-0.2,12.2,0,18.3
	c0.6,12.2-7.5,12.2-16.2,12.1c-64.7-0.2-129.3-0.2-194-0.2c-17.3,0-34.6-0.4-51.9,0.1c-10.2,0.3-14.8-2.9-14.8-13.8
	c0.2-90.3,0.2-180.5,0.1-270.8c0-5.3,1.4-9.7,4.9-13.8c22.7-26.6,45.3-53.1,67.5-80.1c5.3-6.4,10.9-9.2,19.4-9.2
	c56.5,0.4,113,0.5,169.6,0c12.4-0.1,15.8,4.5,15.6,16.1c-0.5,41.6-0.7,83.2,0.1,124.7C328.8,432.9,324.8,439,310.8,440.2z
	 M80.6,369.3c18,0,33.4,0,48.9,0c4.1,0,6.9-1.1,6.9-5.8c0-19.4,0-38.8,0-62.7C116.4,325.3,99.5,346.1,80.6,369.3z"/>
<path class="st0" d="M560.5,533.6c0.3,34.2-8.3,66.1-25.1,95.8c-5.7,10.1-13.3,18.5-25.5,11.8c-12.5-6.8-8.3-16.5-2.6-27.2
	c29.5-55,30.1-110.2-2.1-164.6c-5.5-9.4-5.4-17.6,4-23.7c9-5.8,16.7-2.2,22.3,5.8C552.8,462.3,559.8,497.1,560.5,533.6z"/>
<path class="st0" d="M501.9,537.5c0.6,15.7-4.3,34-12.7,51.6c-4.6,9.6-12.2,14.3-22.2,9.9c-10.4-4.5-11.4-13.7-6.8-23
	c13.7-28.2,13.7-56.3,0.3-84.5c-3.3-7-3.1-13.2,1.1-19.9c6.6-10.7,16.1-11.5,23-1.1C497.1,489.6,502.1,510.9,501.9,537.5z"/>
<path class="st0" d="M174.6,555c-17.3,0-34.5,0-51.8,0c-7.2,0-13.6-0.9-13.3-10.3c0.3-8.9,5.2-11.8,13.9-11.8
	c34.5,0.3,69.1,0.4,103.6,0c9.4-0.1,13.2,4.5,13.4,12.4c0.1,9-6.8,9.8-13.9,9.7C209.1,554.9,191.8,555,174.6,555z"/>
<path class="st0" d="M174.2,505c-17.3,0-34.6,0-51.9,0c-6.7,0-12.7-1.6-12.9-9.6c-0.2-8.1,5.9-9.6,12.6-9.6c35.1,0,70.3,0,105.4,0
	c6.8,0,13,1.6,13,9.4c0,7.4-5.7,9.9-12.7,9.9C209.9,505,192,505,174.2,505z"/>
<path class="st0" d="M173.9,454c-17.3,0-34.5-0.1-51.8,0c-6.8,0-12.7-1.3-12.6-9.5c0.1-8.1,6.1-9.2,12.9-9.2
	c35.1,0.1,70.1,0.1,105.2,0c7,0,12.7,1.9,12.6,9.5c-0.1,7.7-6.1,9.3-13,9.2C209.5,453.9,191.7,454,173.9,454z"/>
<path class="st0" d="M146.1,602.8c-8.6,0-17.2,0-25.8,0c-6.5,0-11-2.9-10.9-9.7c0.1-7.1,5.1-9,11.4-9c17.2,0.1,34.4,0,51.6,0
	c6.1,0,11.5,1.4,11.6,8.7c0.2,8-5.2,10.1-12.1,10C163.3,602.8,154.7,602.8,146.1,602.8z"/>
<path class="st0" d="M80.6,369.3c18.9-23.2,35.8-44,55.8-68.5c0,23.8,0,43.2,0,62.7c0,4.7-2.8,5.9-6.9,5.8
	C114,369.3,98.6,369.3,80.6,369.3z"/>
</svg>
