<?xml version="1.0" encoding="utf-8"?>
<!-- Generator: Adobe Illustrator 26.2.1, SVG Export Plug-In . SVG Version: 6.00 Build 0)  -->
<svg version="1.1" id="Layer_1" xmlns="http://www.w3.org/2000/svg" xmlns:xlink="http://www.w3.org/1999/xlink" x="0px" y="0px"
	 viewBox="0 0 792 792" style="enable-background:new 0 0 792 792;" xml:space="preserve">
<style type="text/css">
	.st0{fill:#CBAFD2;}
	.st1{fill:#1A1131;}
	.st2{fill:#181229;}
	.st3{fill:#493473;}
	.st4{fill:#2C1F55;}
	.st5{fill:#281437;}
	.st6{fill:#1B1232;}
	.st7{fill:#32224C;}
	.st8{fill:#1F0E3D;}
	.st9{fill:#402A62;}
	.st10{fill:#6155A1;}
	.st11{fill:#7565AB;}
	.st12{fill:#7566AD;}
	.st13{fill:#6657A5;}
	.st14{fill:#3A2C5A;}
	.st15{fill:#505299;}
	.st16{fill:#61519A;}
	.st17{fill:#4A3675;}
	.st18{fill:#3D2B5E;}
	.st19{fill:#46316E;}
	.st20{fill:#6656A3;}
	.st21{fill:#251139;}
	.st22{fill:#33234F;}
	.st23{fill:#4E3B7D;}
	.st24{fill:#503E81;}
	.st25{fill:#503D80;}
	.st26{fill:#6556A3;}
	.st27{fill:#4F529B;}
	.st28{fill:#F1F2F2;}
</style>
<path class="st0" d="M792.5,63c0,221.3,0,442.7,0,664c-0.7,1.7-1.5,3.3-2.1,5c-9.6,27.1-28.1,45.5-55.5,54.9
	c-5.2,1.8-10.6,2.8-15.9,4.1c-215.6,0-431.3,0-646.9,0c-0.9-0.3-1.8-0.8-2.8-1c-17.7-2.9-33-10.5-46.1-22.8
	C12.9,757.6,5.9,745.8,0.5,733c0-225.3,0-450.7,0-676c0.5-1,1.1-2,1.6-3.1C9.8,34.5,23,19.7,41.3,9.5C47.5,6.1,54.4,3.8,61,1
	C284,1,507,1,730,1c1.2,0.6,2.3,1.3,3.6,1.7c22.1,6.9,38.7,20.6,50.1,40.4C787.3,49.4,789.6,56.3,792.5,63z M11.7,200.9
	c0,1,0,2.1,0,3.1c0,24.6,0,49.3,0,73.9c-0.1,20.6-0.2,41.2-0.2,61.8c0,32.4,0.1,64.8,0.2,97.2c0,22.3,0,44.7,0,67
	c-0.1,1.8-0.2,3.7-0.2,5.5c0,51.5,0,103,0,154.5c0,2.7,0.1,5.3,0.2,8c0,3.1,0,6.1,0,9.2c-0.1,8.8-0.5,17.7-0.1,26.5
	c0.9,20.8,10.1,37.5,26,50.9c9.9,8.9,21.7,14.4,34.8,16.3c8.9,1.3,18,1.2,27.1,1.2c39.2,0.1,78.4-0.1,117.7-0.1c3-0.7,6-1.3,9.1-2
	c1.6,0.7,3.1,2.1,4.7,2.1c11.9,0.1,23.7,0,35.6-0.1c20.8,0,41.6,0,62.5,0c32.2,0,64.5,0,96.7,0c3.4,0,6.7,0,10.1,0
	c9.7,0,19.5,0,29.2,0c1.7,0,3.4,0,5.1,0c25.9,0,51.7,0,77.6,0c1,0.1,2,0.2,3,0.2c52.2,0,104.5,0,156.7,0c1.8,0,3.7-0.2,5.5-0.3
	c2-0.3,4-0.4,5.9-0.8c14.7-3,27.9-9,38.4-19.9c3.3-3.7,6.8-7.3,9.8-11.3c12.5-17.1,13.7-36.6,12.3-56.7c0-4,0-8.1,0-12.1
	c0-17.6,0-35.2,0-52.8c0.1-1.2,0.2-2.3,0.2-3.5c0-59.1,0-118.2,0-177.3c0-1.2-0.1-2.3-0.2-3.5c0.1-1.8,0.2-3.6,0.2-5.5
	c0-49.6,0-99.3,0-148.9c0-1.8-0.1-3.7-0.2-5.5c0-1.8,0.1-3.7,0.1-5.5c0-38.1,0.1-76.2,0.1-114.3c0-1.8,0.1-3.7,0.1-5.5
	c-0.1-25.8,0.4-51.5-0.6-77.3c-0.4-10.5-5.1-20.4-12.5-28.6c-1.4-2.2-2.4-4.6-4.2-6.5C745.9,22.5,725.4,14,700.9,14
	c-180,0.1-360,0-540,0.1c-27.3,0-54.6,0.8-81.9,0.9C66.3,15,55.2,19.3,44.9,26.1c-3.3,2.1-6.4,4.7-9,7.5c-4.7,5-9,10.3-13.5,15.5
	C15.3,59.4,11,70.8,10.9,83.3c-0.1,25.6,0.5,51.1,0.8,76.7C11.7,173.6,11.7,187.3,11.7,200.9z"/>
<path class="st1" d="M11.7,160c-0.3-25.6-0.8-51.1-0.8-76.7c0-12.5,4.4-23.9,11.5-34.3c1.9-1.3,4-2.3,5.6-3.9
	C38.4,35.1,50.7,30,65.1,30c220.1,0,440.3,0,660.4,0c14.3,0,26.5,4.9,36.9,14.5c1.1,1.1,2.8,1.6,4.2,2.4
	c7.4,8.2,12.1,18.1,12.5,28.6c1,25.7,0.5,51.5,0.6,77.3c0,1.8-0.1,3.7-0.1,5.5c0,38.1-0.1,76.2-0.1,114.3
	c-8.9-1.1-17.9-1.9-26.8-3.4c-8.5-1.4-14.9,0.7-20,7.9c-8.9,12.5-18.3,24.5-27.3,36.9c-1.4,1.9-3.1,4.9-2.4,6.7
	c3.1,8.5-0.4,14.7-6.1,20.4c-1,1-1.5,2.5-2.3,3.8c-0.3,0.3-0.7,0.7-1,1c-2.7,0.3-5.5,0.4-8.1,0.9c-1.3,0.3-2.5,1.4-3.8,2.1
	c0.6,1.7,1.2,3.4,1.9,5.1c-0.2,13.5-0.4,27-0.6,40.5c0,2.7,0,5.3,0,8c-0.5,2.9-1.1,5.9-1.3,8.8c-0.8,10.4-0.9,20.9-2.3,31.3
	c-3.8,26.9-27,46.7-54.5,46.4c-8.5-0.1-17-1.3-25.5-1.9c-14.3-1-28.7-2-43-3c-20-1.4-40-2.7-60-4.1c-14.3-1-28.7-2-43-3
	c-19.8-1.4-39.7-2.7-59.5-4c-19.2-1.3-38.3-2.7-57.5-4c-20.3-1.4-40.7-2.6-61-4c-16,0.3-30.4-3.9-42.5-14.8
	c-1.6-1.4-3.7-2.2-5.6-3.3c-1.4-3-2.9-6-4.3-8.9c-5.9-10.5-8-21.7-7-33.7c1.2-15.4,2-30.9,3-46.3c0.9-3.1-1.4-3.9-3.5-5.1
	c-15.9-8.7-28.7-20.7-36.8-37c-1.5-3-2.1-7.1-1.5-10.4c1.6-8.3,4-16.4,6.4-24.5c2-6.8,0.8-12.1-4.8-16.8c-12.2-10.2-24-20.8-36-31.1
	c-5.4-4.6-5.5-4.5-8.7,2.8c-3.1-1.9-6.3-3.5-9.1-5.6c-3.7-2.8-7.3-3.7-11.6-1.7c-5,2.3-10.1,4.3-15.2,6.4c-5.9,1.6-11.8,3-17.5,5
	c-4.1,1.5-7.1,1.5-8.5-3.2c0-6.7,0-13.3-0.1-20c-0.1-3.2-0.9-5.6-5-6.1c-9.1-1.1-18.1-2.7-27.2-4c-1.7-1.6-3.4-3.1-5.1-4.7
	c1.9-0.7,3.8-1.8,5.7-2c3.5-0.3,7.1-0.1,10.7-0.1c0-0.4,0.1-0.9,0.1-1.3c-1.1-0.5-2.2-1.1-3.4-1.6c-16.7-6.2-28-17.5-34.1-34.2
	C13.3,161.9,12.4,161,11.7,160z"/>
<path class="st2" d="M766.6,46.9c-1.4-0.8-3.1-1.3-4.2-2.4C752,34.9,739.8,30,725.5,30c-220.1,0-440.3,0-660.4,0
	C50.7,30,38.4,35.1,28,45.1c-1.6,1.6-3.7,2.6-5.6,3.9c4.5-5.2,8.8-10.5,13.5-15.5c2.7-2.8,5.8-5.4,9-7.5C55.2,19.3,66.3,15,79,14.9
	c27.3-0.1,54.6-0.9,81.9-0.9c180-0.1,360,0,540-0.1c24.5,0,45,8.6,61.6,26.4C764.2,42.2,765.2,44.7,766.6,46.9z"/>
<path class="st3" d="M11.7,437c-0.1-32.4-0.1-64.8-0.2-97.2c0-20.6,0.1-41.2,0.2-61.8c3.5-0.5,6.9-1.1,10.4-1.6
	c5.3-0.8,10.5-2.2,15.8-2.3c4.4-0.1,6.4-1.5,7.1-5.7c1.9-11.3,3.8-22.6,5.9-33.8c1.3-6.8,3.2-13.5,4.8-20.3
	c11.8-2.3,13.2-1,13.6,10.9c0.2,5.9,1.2,11.8,1.8,17.7c0.7,1.4,1.3,2.8,2,4.3c-0.7,1.9-1.4,3.9-2.1,5.8c0.3,12.7,0.6,25.3,0.9,38
	c-0.3,2-1,3.9-0.9,5.8c0.2,6,0.8,11.9,0.9,17.9c0.4,34.7-0.2,69.5,2.8,104.2c1.6,18.8-0.4,37.9-0.6,56.9c-0.1,4.1-1.9,4.8-5.5,3.6
	c-3.1-1-6.4-1.7-9.7-2.5c-1.8-0.3-3.6-0.7-5.4-0.9c-3.5-0.4-5.5-2.3-5.6-5.9c-1-20.4-1.9-40.8-3.1-61.3c-0.7-12-2.4-24-3.1-36.1
	c-0.6-11.1-0.5-22.3-0.8-33.4c-0.1-2.1-0.8-4.1-1.2-6.2c-0.6,0-1.1,0-1.7,0c-0.4,1.3-1,2.6-1.1,4c-1.1,15.1-2.2,30.2-3,45.3
	c-0.6,11.6-0.5,23.2-1.2,34.8c-0.4,5.9-1.8,11.7-2.8,17.6C23.7,435.6,17.7,436.3,11.7,437z M49.7,449c0.3,0,0.6,0,0.9,0
	c0-8.2,0-16.4,0-24.7c-0.3,0-0.6,0-0.9,0C49.7,432.6,49.7,440.8,49.7,449z M52,393.8c-0.2,0-0.4,0-0.5,0c0,8.6,0,17.2,0,25.8
	c0.2,0,0.4,0,0.5,0C52,411,52,402.4,52,393.8z M51.1,380.5c0.2,0,0.3,0,0.5,0c0-9.1,0-18.2,0-27.3c-0.2,0-0.3,0-0.5,0
	C51.1,362.4,51.1,371.4,51.1,380.5z"/>
<path class="st4" d="M779.3,437.9c0.1,1.2,0.2,2.3,0.2,3.5c0,59.1,0,118.2,0,177.3c0,1.2-0.2,2.3-0.2,3.5c-0.3,0-0.6-0.1-0.9-0.1
	c-1.1-1-2.1-2.6-3.3-2.8c-5.5-1-8.2-4.8-10.3-9.3c-5.9-12.5-12.1-24.9-17.7-37.5c-3.4-7.7-7.4-15.6-8.6-23.8
	c-2.9-19.7-4.4-39.5-6.3-59.3c-1.8-18.6-3.3-37.3-5-56c-0.3-3.3,1.3-4.5,4.4-4.5c5.7,0.1,11.6,0.8,17.1-0.2
	C760.6,426.5,770.7,429.3,779.3,437.9z"/>
<path class="st3" d="M11.7,681.2c0-3.1,0-6.1,0-9.2c1.3-1.5,3.1-2.9,3.9-4.6c7.3-17.8,14.4-35.7,21.4-53.6c4.1-10.5,8-21,12-31.6
	c1.2-0.4,2.4-0.7,3.6-1.1c3.2,1.7,6.3,3.5,9.5,5.2c2.5,1.4,4.9,2.8,7.5,4c3.8,1.7,7.5,4,11.5,4.6c23.7,3.8,47.5,7.2,71.2,10.7
	c-5.4,1.1-10.9,1.5-16.4,1.6c-3.9,0.1-7.7,0.1-11.6-0.3c-4.7-0.5-6.3,0.9-5.9,5.6c0.8,9.4,1.3,18.8,2,28.3c0.1,1.8,0.7,3.5,1,5.3
	c-0.4,1.6-1,3.1-1.1,4.7c-0.2,3.5,0,7-0.1,10.5c-0.1,2.5-0.8,4.5-4.1,4.4c-10.1-0.3-20.1-0.4-30.2-0.5c-12-0.1-11.9-0.1-12.1-12.4
	c-0.1-6.4-0.7-12.8-1-18.9c-1,1.9-2,3.6-2.9,5.3c0-9.5,0.1-18.9,0-28.4c-0.1-7.5-3.9-13.2-9.1-18.2c-0.8-0.8-2.3-0.7-3.5-1.1
	c-0.3,1-0.7,2-0.8,3c-0.4,4.6-0.4,9.2-1,13.8c-2.7,20.5-4.8,41.1-3.8,61.9c-0.6,4.6-1.3,9.3-1.9,13.9
	C37.2,683,24.5,682.1,11.7,681.2z"/>
<path class="st5" d="M779.3,437.9c-8.6-8.6-18.7-11.4-30.8-9.2c-5.5,1-11.4,0.2-17.1,0.2c-3.1,0-4.7,1.1-4.4,4.5
	c1.7,18.6,3.2,37.3,5,56c1.9,19.8,3.4,39.7,6.3,59.3c1.2,8.2,5.2,16.1,8.6,23.8c5.6,12.6,11.8,25,17.7,37.5
	c2.1,4.5,4.8,8.3,10.3,9.3c1.2,0.2,2.2,1.8,3.3,2.8c-7.4-1-14.8-2-22.2-3.1c-0.2-2.7,0.3-5.6-0.6-8c-3.6-9.5-7.6-18.8-11.5-28.2
	c-5.9-14.3-11.8-28.6-14-44.1c-2.4-17.6-5.1-35.1-7.6-52.7c-3.5-24.6-7.2-49.2-10.5-73.9c-1.2-8.8-2.2-17.5-8.4-24.6
	c-1.2-1.4-1.9-3.1-2.9-4.7c-5.7-9.6-11.4-19.2-17.1-28.8c-0.6-1.7-1.2-3.4-1.9-5.1c3,0.7,6,1.4,9,2.1c1.7,2.9,3.7,5.6,5,8.6
	c8.5,18.9,21.7,35.6,27.3,56c2.3,8.5,4,9.2,12.9,9.4c8.4,0.2,16.7,0.8,25.1,0.8c1.8,0,3.5-1.8,5.3-2.8c1.5,0.9,3,2,4.7,2.7
	c1.7,0.7,3.5,1.1,5.3,1.6c0-1.7,0.4-3.5,0.1-5.1c-4.6-22.2-9.4-44.5-14.1-66.7c-3.4-16.2-5.7-32.8-13.2-47.9
	c-3.9-7.9-6.3-15.6-4-24.4c0.3-1.1-0.1-2.3-0.2-3.5c0.1-2.2,0.3-4.4,0.4-6.7c11.4,1.6,22.7,3.3,34.1,4.9c0.1,1.8,0.2,3.7,0.2,5.5
	c0,49.6,0,99.3,0,148.9C779.6,434.3,779.4,436.1,779.3,437.9z"/>
<path class="st2" d="M49,582.1c-4,10.5-7.9,21.1-12,31.6c-7,17.9-14.2,35.8-21.4,53.6c-0.7,1.8-2.5,3.1-3.9,4.6
	c-0.1-2.7-0.2-5.3-0.2-8c0-51.5,0-103,0-154.5c0-1.8,0.1-3.7,0.2-5.5c3.1,0.5,6.2,0.9,9.3,1.7c4.4,1,6.3-1,6.6-5
	c0.8-10.2,1.4-20.4,2.1-30.6c1.5,0,3,0,4.5,0c7.5,0,7.7,0,7.5,7.4c-0.3,13.3,0.3,26.5,4.7,39.4c1.4,4,0.7,7.9-3.9,10.1
	c-1.4,0.6-2.5,1.9-3.7,2.9c0.1,0.5,0.3,1,0.4,1.5c2.1,0,4.2,0.2,6.2-0.1c4.7-0.7,6.2,0.3,6.4,5.1c0.4,8.3,0.6,16.6,1.1,24.9
	c0.1,1.6,0.6,3.2,1,4.8C52.3,571.4,50.6,576.7,49,582.1z"/>
<path class="st6" d="M11.7,681.2c12.7,0.9,25.5,1.8,38.2,2.8c6.4,4,13.2,3,20.1,1.9c8.4-1.1,16.8-1.9,25.1-3.4
	c6.7-1.2,13.1-3.7,19.8-4.9c2.4-0.4,5.7,0.7,7.5,2.3c1,0.9,0.1,4.4-0.6,6.6c-0.8,2.3-2.3,4.4-3.5,6.6c-13.4-1.2-25.7,3.8-38.3,7
	c-2,0.5-4.4,2.6-5,4.4c-3.9,12.5-7.4,25.1-11,37.6c-0.5,3.9,0.6,5.4,5.1,4.3c3.8-0.9,8-0.3,12-0.3c-1,1-2,2-3,2.9
	c-12,2.5-24.1,4.9-36.1,7.5c-1.5,0.3-2.9,1.3-4.4,2c-15.9-13.3-25-30.1-26-50.9C11.2,698.8,11.7,690,11.7,681.2z"/>
<path class="st5" d="M37.6,758.5c1.5-0.7,2.8-1.7,4.4-2c12-2.6,24.1-5,36.1-7.5c1.8,1,3.6,2.9,5.4,2.9c13.6-0.1,27.1-0.4,40.7-1
	c1.8-0.1,3.6-1.9,5.3-2.9c0.5,0,1,0,1.5,0.1c27.8,8.3,55.7,16.5,83.5,24.9c1.1,0.3,1.8,1.9,2.7,2.8c-39.2,0.1-78.4,0.2-117.7,0.1
	c-9,0-18.2,0.1-27.1-1.2C59.3,772.9,47.5,767.5,37.6,758.5z"/>
<path class="st2" d="M712.9,775.7c-1.8,0.1-3.7,0.3-5.5,0.3c-52.2,0-104.5,0-156.7,0c-1,0-2-0.1-3-0.2c-0.3-3.9-0.7-7.9-1-11.8
	c0-4.5,2.6-6.1,6.8-6c6.2,0,12.3-0.1,18.5-0.1c9.7,0,19.4,0,29.1,0.1c1.1,0,2.1,0,3.2,0c1.3,0,2.6,0,3.9,0c1.7,0,3.4,0,5.1,0
	c7-0.3,14.1-0.7,21.1-1c2.7,0,5.4,0,8,0c1.9,0.4,3.8,1,5.7,1c20.3-0.3,40.5-0.6,60.8-1c7.1,0.2,8.1,1.5,6.4,8.6
	C714.4,768.9,713.7,772.3,712.9,775.7z"/>
<path class="st5" d="M55.7,214.3c-1.6,6.8-3.5,13.5-4.8,20.3c-2.2,11.2-4.1,22.5-5.9,33.8c-0.7,4.2-2.7,5.6-7.1,5.7
	c-5.3,0.1-10.5,1.5-15.8,2.3c-3.5,0.5-6.9,1.1-10.4,1.6c0-24.6,0-49.3,0-73.9C26.4,207.5,41,210.9,55.7,214.3z"/>
<path class="st2" d="M425.7,775.8c-32.2,0-64.5,0-96.7,0c1.2-0.9,2.3-2.5,3.6-2.7c2.8-0.4,5.6-0.1,8.4-0.1c8.5,0,10.3-2.6,7-10
	c0.4-0.4,0.7-0.7,1.1-1.1c10.4,1.2,20.8,2.9,31.2,3.4c8.7,0.4,17.5-0.8,26.2-1.3c9-0.3,18-0.4,27-1c8.1-0.6,16.2-1.7,24.3-2.8
	c4.9-0.6,7,0.8,7.1,5.7c0.1,3.3,0,6.7,0,10c-9.7,0-19.5,0-29.2,0c-1.6-1-3.2-2.1-4.9-2.9C427.9,771.5,425.8,771.9,425.7,775.8z"/>
<path class="st1" d="M546.6,764c0.3,3.9,0.7,7.9,1,11.8c-25.9,0-51.7,0-77.6,0c0.1-14.5,0.1-14.5,13.1-17.8c13.1-1,26.2-1.9,39.3-3
	c4.4-0.4,5.9,1.4,4.7,5.5c-1.2,4.3,1.2,5.7,4.7,5.4C536.8,765.6,541.7,764.7,546.6,764z"/>
<path class="st7" d="M29.7,470c-0.7,10.2-1.3,20.4-2.1,30.6c-0.3,4-2.2,6.1-6.6,5c-3.1-0.7-6.2-1.1-9.3-1.7c0-22.3,0-44.7,0-67
	c6-0.7,12-1.3,18-2c-0.3,7.8-0.8,15.5-0.9,23.3C28.8,462.2,29.4,466.1,29.7,470z"/>
<path class="st1" d="M217.1,775.8c-0.9-1-1.6-2.5-2.7-2.8c-27.8-8.4-55.7-16.6-83.5-24.9c-0.5-0.1-1-0.1-1.5-0.1
	c-4.7-1.6-9.5-3-14.1-4.9c-1.9-0.8-3.3-2.5-5-3.7c1.9-0.8,3.7-2.2,5.6-2.3c10.7-0.5,21.3-0.9,32-1c6.6-0.1,13.3,0.3,18.7,5
	c-0.2,2-0.8,4-0.4,5.9c0.4,1.8,1.4,4.4,2.8,4.8c9.2,3,18.5,5.5,27.8,8.2c2.5,1.2,4.9,2.8,7.5,3.6c5.5,1.6,11.2,2.7,16.9,4
	c3.4,0.8,5.3,2.6,4.9,6.3C223.2,774.5,220.2,775.2,217.1,775.8z"/>
<path class="st5" d="M483.2,758c-13,3.3-13,3.3-13.1,17.8c-1.7,0-3.4,0-5.1,0c0-3.3,0.1-6.7,0-10c-0.1-4.9-2.2-6.3-7.1-5.7
	c-8.1,1.1-16.2,2.2-24.3,2.8c-9,0.6-18,0.7-27,1c1.9-1.2,3.6-2.8,5.6-3.6c5.4-2.3,10.9-4.2,16.6-6.4c-1.2-2.1-1.9-3.3-3-5.2
	c3.7-0.7,6.8-1.1,9.8-1.8c4.1-0.9,8.2-2,12.3-3c8-0.7,16.1-1.3,24.1-2c1.3,0.7,2.6,1.6,4,1.9c2.3,0.5,4.6,0.6,6.9,0.8
	c3.6,0.4,4.5,1.8,2.8,5.3C484.5,752.5,484,755.3,483.2,758z"/>
<path class="st6" d="M712.9,775.7c0.8-3.4,1.5-6.8,2.4-10.2c1.7-7.1,0.8-8.3-6.4-8.6c1-1.3,1.9-3.1,3.2-3.6c1.7-0.7,3.9-0.1,5.9-0.4
	c4.9-0.6,9.9-0.9,14.6-5.3c-3.6-0.7-6.2-1.2-8.7-1.7c0-3,0.1-6,0.1-9c7.7-1,15.5-2,23.2-3c1.7,4.8,3.1,9.8,5.2,14.5
	c1.1,2.4,3.2,4.4,4.9,6.5c-10.5,10.9-23.7,17-38.4,19.9C716.9,775.3,714.9,775.4,712.9,775.7z"/>
<path class="st6" d="M756.2,619c7.4,1,14.8,2,22.2,3.1c0.3,0,0.6,0.1,0.9,0.1c0,17.6,0,35.2,0,52.8c-5.3-1.3-10.7-2.6-16-3.9
	c0.4-2,0.9-3.9,1.3-5.9c0.6-3.1,1-6.2,1.6-9.2c3.2-7.2,2.8-8.7-3.3-14.1c-8.1-7.2-16-14.5-24-21.7c2.3-0.6,4.7-1.7,7-1.8
	C749.3,618.1,752.7,618.7,756.2,619z"/>
<path class="st5" d="M757.2,755c-1.7-2.2-3.9-4.1-4.9-6.5c-2.1-4.7-3.5-9.6-5.2-14.5c-0.2-2.1-0.3-4.3-0.7-6.4
	c-0.8-4.7,0.6-6.5,5.5-6.6c4.8-0.1,9.7-0.2,14.5,0c4.2,0.2,6.2-2.1,6.7-5.8c0.3-2.1-0.3-4.3-0.4-6.4c-0.2-7.2-0.3-14.5-0.4-21.7
	c2.3,0,4.6,0,7,0c1.4,20.1,0.2,39.6-12.3,56.7C764.1,747.7,760.5,751.2,757.2,755z"/>
<path class="st8" d="M226.2,773.8c0.4-3.6-1.5-5.5-4.9-6.3c-5.6-1.3-11.3-2.4-16.9-4c-2.6-0.8-5-2.4-7.5-3.6c1.5-0.6,3-1.8,4.5-1.9
	c5.2-0.2,10.3,0.1,15.5-0.1c4.4-0.2,8.9-0.7,13.3-1.1c7.7,1.6,8.8,0.7,9-7.5c0-1.7,0.2-3.3,0.4-5c0.5-0.1,1-0.2,1.5-0.3
	c1.2,2.3,2.7,4.4,3.6,6.8c1.7,4.3,4.4,6.3,9.1,6.1c6.9-0.2,13.7,0,20.6,0c-1.6,1-3.2,2.7-4.9,2.8c-5,0.4-10.1,0-15.1,0.2
	c-4.6,0.1-9.3,0.6-13.9,0.9c0,0.2,0,0.5-0.1,0.7c7.3,2.1,14.6,4.3,21.9,6.4c1.3,2.6,2.7,5.2,4,7.8c-11.9,0.1-23.7,0.2-35.6,0.1
	C229.4,775.9,227.8,774.6,226.2,773.8z"/>
<path class="st7" d="M266.5,775.8c-1.3-2.6-2.7-5.2-4-7.8c2.9-0.7,5.8-2.2,8.6-1.9c14.9,1.6,29.7-4.4,44.6-0.2
	c0.8,0.2,1.7,0.1,2.5,0c5.1-0.3,10.3-0.4,15.4-1.1c2.9-0.4,5.6-1.8,8.4-2.8c2,0.3,4.1,0.6,6.1,0.9c3.2,7.4,1.4,10-7,10
	c-2.8,0-5.7-0.3-8.4,0.1c-1.3,0.2-2.4,1.8-3.6,2.7C308.1,775.8,287.3,775.8,266.5,775.8z"/>
<path class="st2" d="M11.7,160c0.7,1,1.6,1.9,2.1,3c6.1,16.6,17.5,28,34.1,34.2c1.2,0.4,2.2,1,3.4,1.6c0,0.4-0.1,0.9-0.1,1.3
	c-3.6,0-7.2-0.2-10.7,0.1c-1.9,0.2-3.8,1.3-5.7,2c-2.9-1.3-5.7-2.3-7.1,1.9c-4.9-3.2-10.1-4.6-15.9-3.1
	C11.7,187.3,11.7,173.6,11.7,160z"/>
<path class="st9" d="M779.3,687c-2.3,0-4.6,0-7,0c-10.5-0.7-20.9-1.6-31.4-1.7c-1.6,0-3.7,3.2-4.8,5.3c-0.8,1.4-0.2,3.6-0.2,5.4
	c-0.8-1.8-1.6-3.6-2.3-5.5c-2.5-7.4-2.4-7.9,4.7-10.7c4.8-1.9,9.8-3.3,14.6-4.9c5.1,3,7.3-1.5,10.2-3.9c5.3,1.3,10.7,2.6,16,3.9
	C779.3,679,779.3,683,779.3,687z"/>
<path class="st10" d="M779.3,278c-11.4-1.6-22.7-3.3-34.1-4.9c-5.7-0.3-9.5,2.1-11.3,7.6c-7.7,10-15.3,20.1-23.1,30
	c-4.4,5.5-6.8,11-3.5,17.8c0.6,1.2,0.2,2.9,0.3,4.4c-4.2,4.1-8.4,8.3-12.6,12.4c-0.1-0.1-0.3-0.3-0.4-0.4c0.8-1.3,1.3-2.8,2.3-3.8
	c5.7-5.8,9.1-11.9,6.1-20.4c-0.6-1.7,1.1-4.8,2.4-6.7c9-12.4,18.4-24.5,27.3-36.9c5.1-7.2,11.5-9.2,20-7.9
	c8.9,1.5,17.9,2.3,26.8,3.4C779.4,274.4,779.4,276.2,779.3,278z"/>
<path class="st11" d="M11.7,200.9c5.8-1.5,11-0.1,15.9,3.1c4.1,0.9,8.1,1.9,12.2,2.8c9.1,1.4,18.1,3,27.2,4c4.1,0.5,5,2.8,5,6.1
	c0.1,6.7,0.1,13.3,0.1,20c-0.3,2-0.7,4-1,6c-0.6-5.9-1.6-11.8-1.8-17.7c-0.4-11.9-1.8-13.2-13.6-10.9c-14.7-3.4-29.3-6.8-44-10.3
	C11.7,203,11.7,202,11.7,200.9z"/>
<path class="st8" d="M425.7,775.8c0.1-3.9,2.2-4.3,5.2-2.9c1.7,0.8,3.3,1.9,4.9,2.9C432.4,775.8,429.1,775.8,425.7,775.8z"/>
<path class="st8" d="M753.1,674.9c-4.9,1.6-9.9,3.1-14.6,4.9c-7.1,2.8-7.2,3.3-4.7,10.7c0.6,1.9,1.5,3.6,2.3,5.5c0,0,0,0,0,0
	c0.3,1,0.7,2.1,1,3.1c1,3.3,2.1,6.7,2.8,10.1c0.7,3.4-0.3,5.8-4.6,6c-4.8,0.1-9.7,0.6-14.5,1c-0.6-4.4-1.3-8.8-1.9-13.2
	c-1.4-9.6-2.8-19.2-4.2-28.8c-1.3-12-2.5-24-3.8-35.9c-0.5-4.9-0.9-9.7-6.7-12.2c-3.8-1.6-6.9-4.6-10.4-7
	c-2-10.6-3.6-11.9-14.2-11.4c-3.3,0.2-6.7,0.1-10,0.3c-4,0.2-6.3-0.9-7.4-5.4c-0.7-2.8-4.1-7.1-6.3-7.1c-11.1-0.1-22.4-2.3-33.3,1.7
	c-7.8,2.9-13.2,0.9-17.4-6.3c-0.7-1.3-1.4-2.7-2.3-3.8c-2.6-3.1-5.3-2.7-6.7,1.2c-0.5,1.5-1.1,3.4-0.7,4.8
	c1.9,6.1,1.2,11.3-4.5,15.1c-0.2,0.1-0.5,0.2-0.7,0.3c-3.1-19.1-18.6-28.8-35.9-28.6c-45.1,0.5-90.2,0.2-135.4,0.2
	c-2.2,0-4.3,0.2-6.5,0.5c-10.9,1.8-18.2,8.6-23.9,17.4c0.2-3.8,0.4-7.6,0.5-11.4c0.2-10.6,0.8-21.3,0.5-31.9
	c-0.3-7.7-5.2-10.8-12.7-8.9c-6.8,1.7-13.6,3.5-20.3,5.4c-7.5,2.1-11,0.3-12.7-7.4c-0.9-4.4-0.8-9-1.8-13.3c-1-4.1-2-8.9-4.7-11.7
	c-13.4-13.5-27.3-26.5-41.4-39.3c-2.7-2.5-7.1-3.9-10.9-4.3c-9.1-0.8-9.1-0.5-9.5-9.6c0-0.2-0.1-0.3-0.1-0.5c20.3,1.3,40.7,2.6,61,4
	c19.2,1.3,38.3,2.7,57.5,4c19.8,1.4,39.7,2.7,59.5,4c14.3,1,28.7,2,43,3c20,1.4,40,2.7,60,4.1c14.3,1,28.7,1.9,43,3
	c8.5,0.6,17,1.8,25.5,1.9c27.4,0.3,50.7-19.5,54.5-46.4c1.4-10.3,1.5-20.8,2.3-31.3c0.2-3,0.9-5.9,1.3-8.8c3.1,14.6,6,29.3,9.3,43.9
	c12.5,54.8,25.1,109.6,38,164.3c1,4.4,3.9,8.9,7.2,12.2c6.9,7,14.8,13,21.9,19.9c2.4,2.4,3.4,6.1,5.1,9.2c-1.1,3.7-2.3,7.3-3.1,11
	C760.2,668.1,757.7,672.2,753.1,674.9z"/>
<path class="st12" d="M275.4,465.1c0,0.2,0.1,0.3,0.1,0.5c0.5,9.2,0.5,8.8,9.5,9.6c3.8,0.3,8.1,1.8,10.9,4.3
	c14.1,12.8,28,25.8,41.4,39.3c2.8,2.8,3.7,7.6,4.7,11.7c1.1,4.3,0.9,8.9,1.8,13.3c1.7,7.7,5.2,9.5,12.7,7.4
	c6.7-1.9,13.5-3.7,20.3-5.4c7.5-1.8,12.4,1.2,12.7,8.9c0.4,10.6-0.2,21.3-0.5,31.9c-0.1,3.8-0.3,7.6-0.5,11.4
	c-0.8,6.4-1.9,12.7-2.4,19.2c-0.4,5.6-0.2,11.3-0.3,16.9c-0.5,2-0.9,4.2-1.7,6.1c-0.4,1.1-1.5,2.2-2.5,2.5c-0.8,0.2-2.3-0.6-2.8-1.4
	c-0.6-0.9-0.5-2.2-0.5-3.3c-0.6-13-1.2-26-1.8-39.1c-0.3-6.9,1.6-8.9,8.8-9c0.5,0.9,1.1,1.8,2,3.3c0-7.3,0-13.8,0-20.3
	c0.3-3.9,0.5-7.8,0.9-11.8c0.6-6-1.8-10-6.9-11.3c-10.3-1.1-19.2,3.7-28.6,6.6c-4.2,1.3-5.8,3.8-5.8,8.1c0.1,8.4,0,16.9-0.1,25.3
	c-0.3,0-0.6,0-0.9,0c-5.2-0.4-5.1,3.5-5,6.7c0.2,4.8,0.9,9.5,1.8,14.2c2,11.3-0.6,15.3-10.9,16c0-3.5,0.1-7,0-10.4
	c-0.4-6.7,1.5-13.6-2.2-19.9c1-2,2-3.9,3.4-6.5c-7.6,0-14.4,0-21.2,0c-1.3-0.1-2.7-0.2-4-0.3c-3.1-19-6.2-38-9.2-57
	c-1.7-13.9-3.2-27.9-5.2-41.8c-1.9-12.9-2.2-12.9-15.7-11.8c-4.2,1.8-5,5.2-5.2,9.3c-0.9,15.6-2.1,31.1-3.1,46.7
	c-1,15.9-1.9,31.7-2.8,47.6c0,0.4,0,0.7-0.1,1.1c-0.7,0.6-1.9,1.1-2,1.7c-0.3,4.1-2.9,4.6-6.1,4.3c-1.3-0.1-2.6-0.1-3.9-0.1
	c2.3-14.6,3.2-29.3,3.9-43.9c-0.5,0-0.9-0.1-1.4-0.1c-1.1,4.7-2.3,9.4-3.4,14.1c-0.8,0-1.6-0.1-2.4-0.1c-0.6-2.1-1.7-4.1-1.8-6.2
	c-0.5-15.9-0.9-31.8-1.1-47.8c-0.2-12.8-0.1-25.6,0-38.4c0-3.3-1-5.7-4.1-7.3c-5-2.6-10.1-5.2-14.8-8.2c-1.3-0.8-1.5-3.3-2.3-5
	c1.9,1.1,4,1.9,5.6,3.3C245,461.1,259.4,465.4,275.4,465.1z M319.6,524.2c-3.5,13.4,1.1,26.5,0.6,39.8c0.6,0,1.2,0,1.8-0.1
	C321.2,550.7,320.4,537.5,319.6,524.2z"/>
<path class="st13" d="M227.3,447c0.7,1.7,1,4.1,2.3,5c4.7,3,9.8,5.6,14.8,8.2c3.1,1.6,4.1,4,4.1,7.3c-0.1,12.8-0.2,25.6,0,38.4
	c0.2,15.9,0.6,31.9,1.1,47.8c0.1,2.1,1.2,4.1,1.8,6.2c0.8,0,1.6,0.1,2.4,0.1c1.1-4.7,2.3-9.4,3.4-14.1c0.5,0,0.9,0.1,1.4,0.1
	c-0.7,14.7-1.7,29.4-3.9,43.9c-1,1.3-2.9,2.6-2.9,4c-0.2,10.4-0.1,20.8,0,31.2c0,1.6-0.1,3.3-0.1,4.9c0,3.1,0,6.2,0,9.6
	c-1.7-0.3-2.8-0.2-3.7-0.6c-10.3-4.1-20.5-8.1-30.7-12.4c-1.1-0.5-2-2.7-1.9-4.1c0.1-6.9,0.5-13.8,0.8-20.7
	c-0.1-7.2-0.1-14.4-0.2-21.6c0.4-2.5,0.8-4.9,1.1-7.4c0.1-7.3,0.1-14.5,0.2-21.8c0-5.4-0.1-10.8-0.1-16.1c2.8-8.4,3.1-16.7-0.7-24.8
	c0.6-2.2,1.8-4.3,1.8-6.5c0.1-17.2,0-34.3,0-51.5c1.6-4.7,3.3-9.4,4.9-14.1C224.4,441,225.9,444,227.3,447z"/>
<path class="st14" d="M756.2,619c-3.4-0.3-6.9-0.9-10.3-0.7c-2.4,0.1-4.7,1.2-7,1.8c-1.9-2.5-4.9-4.7-5.5-7.5
	c-13.4-57.5-26.6-115-39.8-172.5c-3.5-15.2-7-30.4-10.5-45.6c0.2-13.5,0.4-27,0.6-40.5c5.7,9.6,11.4,19.2,17.1,28.8
	c0.9,1.6,1.7,3.3,2.9,4.7c6.2,7.1,7.2,15.8,8.4,24.6c3.4,24.7,7,49.3,10.5,73.9c2.5,17.6,5.2,35.1,7.6,52.7
	c2.1,15.5,8.1,29.8,14,44.1c3.9,9.4,7.9,18.7,11.5,28.2C756.4,613.4,756,616.3,756.2,619z"/>
<path class="st15" d="M223,438c-1.6,4.7-3.3,9.4-4.9,14.1c-0.6,2.3-1.3,4.6-1.9,6.9c-4.4,0.7-2.6,4.3-3.2,6.9
	c-0.8-0.5-1.9-0.8-2.4-1.5c-5.7-8.8-11.4-17.6-16.9-26.5c-0.9-1.5-1.7-3.4-1.6-5.1c0.4-9.9,1.3-19.9,1.6-29.8
	c0.2-5.3-0.6-10.7-0.9-16.1c0.7-8.9,1.7-17.7,1.9-26.6c0.1-4.5,2.3-9.5-1.7-13.6c1-0.9,2-1.9,3-2.8c0.7,0.5,1.3,1,2,1.4
	c7,4.2,14,8.4,21,12.6c-1,15.4-1.8,30.9-3,46.3C215,416.3,217.1,427.5,223,438z"/>
<path class="st11" d="M219,358c-7-4.2-14-8.4-21-12.6c-0.7-0.4-1.3-1-2-1.4c-4.1-4.2-8.2-8.6-12.4-12.7c-1-1-2.8-1.3-4.2-1.9
	c-0.5,1.5-1.4,3-1.5,4.4c-0.2,6.7-0.1,13.4-0.1,20.1c-4.8,5.3-9.6,10.5-17.1,11.9c0.2-1.8,0.3-3.6,0.6-5.4
	c1.8-8.4,3.7-16.7,5.5-25.1c1.9-8.8,3.6-17.7,5.8-26.5c2.4-9.5,5.3-18.9,7.7-28.4c1.2-4.5,0.7-9.1-2.9-12.5
	c-6.2-5.8-12.4-11.6-18.9-17c-4.4-3.7-9.3-6.7-13.9-10.1c-1.1-0.7-2.2-2-3.2-1.9c-7.9,0.9-13.9-3.3-20.1-7.1
	c-5.5-2.5-9.6-0.3-13.1,3.9c-5.4,1.8-10.7,3.5-16.1,5.3c2-2.1,4-4.1,6-6.2c5.1-2.1,10.2-4.1,15.2-6.4c4.4-2,8-1.1,11.6,1.7
	c2.8,2.1,6,3.7,9.1,5.6c3.2-7.3,3.3-7.4,8.7-2.8c12,10.3,23.9,20.9,36,31.1c5.6,4.7,6.9,10.1,4.8,16.8c-2.4,8.1-4.8,16.2-6.4,24.5
	c-0.6,3.3,0,7.4,1.5,10.4c8.1,16.3,20.9,28.2,36.8,37C217.6,354.1,219.9,354.9,219,358z"/>
<path class="st16" d="M683,394.4c3.5,15.2,7,30.4,10.5,45.6c13.2,57.5,26.4,115,39.8,172.5c0.6,2.8,3.6,5,5.5,7.5
	c8,7.3,15.9,14.6,24,21.7c6.1,5.4,6.6,6.9,3.3,14.1c-0.6-1.3-1.1-2.6-1.7-3.9c-1.7-3.1-2.7-6.9-5.1-9.2c-7-6.9-15-12.9-21.9-19.9
	c-3.2-3.3-6.1-7.8-7.2-12.2c-12.9-54.7-25.5-109.5-38-164.3c-3.3-14.6-6.2-29.3-9.3-43.9C683,399.8,683,397.1,683,394.4z"/>
<path class="st15" d="M98.2,235.1c-2,2.1-4,4.1-6,6.2c-2.8,1.3-5.6,2.9-8.5,3.8c-3.4,1-7,1.4-10.5,2.1c-0.7-1.4-1.3-2.8-2-4.3
	c0.3-2,0.7-4,1-6c1.4,4.7,4.4,4.7,8.5,3.2C86.4,238.1,92.3,236.7,98.2,235.1z"/>
<path class="st17" d="M39.8,206.8c-4.1-0.9-8.1-1.9-12.2-2.8c1.4-4.3,4.2-3.2,7.1-1.9C36.4,203.7,38.1,205.3,39.8,206.8z"/>
<path class="st10" d="M690.7,351c-3-0.7-6-1.4-9-2.1c1.2-0.7,2.4-1.8,3.8-2.1c2.7-0.5,5.4-0.6,8.1-0.9c0.2,0.2,0.4,0.3,0.6,0.5
	C693,347.9,691.9,349.4,690.7,351z"/>
<path class="st10" d="M693.6,345.9c0.3-0.3,0.7-0.7,1-1c0.1,0.1,0.3,0.3,0.4,0.4c-0.3,0.4-0.6,0.7-0.8,1.1
	C694,346.2,693.8,346,693.6,345.9z"/>
<path class="st14" d="M73.1,247.2c3.5-0.7,7.1-1.1,10.5-2.1c2.9-0.9,5.7-2.5,8.5-3.8c5.4-1.8,10.7-3.5,16.1-5.3
	c1.9,7.1,4.4,14.2,5.5,21.5c1.2,7.3,1.4,14.9,1.3,22.3c-0.1,7.8-1.5,15.5-1.6,23.3c-0.2,20.7,0,41.4-0.1,62.2
	c-0.1,8.6-0.8,17.2-0.9,25.8c0,5.7,0.5,11.3,0.8,17c0,3,0.4,6,0,9c-1.6,10.6,1.7,18.6,11,24.4c6.1,3.8,10.3,10.6,18.3,11.6
	c0.3,1.7,0.6,3.4,1,5.1c-5-2-10-4.1-15-6.1c-1.4-1.9-2.3-4.6-4.2-5.7c-3-1.7-6.6-2.2-9.9-3.3c-4-0.4-8-0.8-12-1.1
	c-0.2-3.9-3.1-3.7-5.8-3.9c-4.4-0.4-5.4-2.1-4.2-6.2c0.5-1.9,1.1-4,0.9-5.8c-1.4-8.8-3-17.6-4.6-26.4c-0.8-4.4-0.3-7.8,4.5-9.8
	c1.6-0.6,2.7-2.5,3.1-2.9c-2.9-3.1-5.9-5.3-7.2-8.1c-1.8-3.8-2.6-8.2-3.5-12.4c-0.5-2.2-0.2-4.6-0.3-6.9c-0.3-5.6,3.2-11.5-1.4-16.9
	c-0.5-0.5-0.4-1.6-0.5-2.4c-0.6-5.3-1.1-10.5-1.7-15.8c-1.3-12.5-3.8-24.9-1.6-37.6c0.5-3.1,0.4-6.9-1-9.7c-1.8-3.7-1.3-6.5,0.2-9.9
	c4-8.9,1.8-12.7-8.1-14.3C71.8,251.1,72.5,249.1,73.1,247.2z"/>
<path class="st5" d="M102.3,441.9c4,0.4,8,0.8,12,1.1c-0.3,1.7-0.7,3.3-1,5c-0.3,0.1-0.5,0.1-0.8,0.2c-1.7-0.1-3.5-0.2-5.2-0.3
	c-7.9,0.3-15.8,0.3-23.6,1c-1.3,0.1-3.2,3-3.4,4.8c-0.8,5.1-0.7,10.2-1.2,15.4c-1.5,15.6,0,31.5-5.1,46.7c-3,0.8-6.1,1.2-9,2.3
	c-4.8,1.9-9.3,4.1-14,6.2c-0.7-5.4-1.4-10.8-2.2-16.1c-1-6.5-2.2-13-3-19.5c-0.4-3.6,1.3-5.4,5.4-5.1c5.3,0.4,7.2-1.4,7.7-6.6
	c3.2,0.8,6.5,1.4,9.7,2.5c3.6,1.2,5.4,0.4,5.5-3.6c0.3-19,2.2-38.1,0.6-56.9c-3-34.7-2.3-69.5-2.8-104.2c-0.1-6-0.7-11.9-0.9-17.9
	c0-1.9,0.6-3.9,0.9-5.8c0.7,1.2,1.8,2.3,2,3.5c2.1,19.6,3.8,39.3,6.1,58.9c2.8,22.9,5.9,45.7,9.3,68.5c0.9,5.7-0.9,9.1-5.6,12
	c-1.6,1-2.3,3.4-3.5,5.2c1.9,1,3.8,2.7,5.8,2.8C91.5,442.2,96.9,441.9,102.3,441.9z"/>
<path class="st6" d="M59,476.9c-0.5,5.2-2.4,7.1-7.7,6.6c-4.1-0.3-5.8,1.5-5.4,5.1c0.8,6.5,2,13,3,19.5c0.8,5.4,1.4,10.8,2.2,16.1
	c-0.3,4.2,2.3,5.1,5.8,4.5c4-0.7,8-1.7,12.1-2.6c-0.1,1.1,0.1,2.4-0.3,3.4c-4.8,12.1-9.7,24.2-14.6,36.4c-0.3-1.6-0.9-3.2-1-4.8
	c-0.4-8.3-0.7-16.6-1.1-24.9c-0.2-4.8-1.7-5.8-6.4-5.1c-2,0.3-4.1,0.1-6.2,0.1c-0.1-0.5-0.3-1-0.4-1.5c1.2-1,2.3-2.2,3.7-2.9
	c4.6-2.2,5.3-6.1,3.9-10.1c-4.4-12.8-5-26-4.7-39.4c0.1-7.4,0-7.4-7.5-7.4c-1.5,0-3,0-4.5,0c-0.3-3.9-0.9-7.8-0.9-11.7
	c0.1-7.8,0.5-15.5,0.9-23.3c1-5.9,2.4-11.7,2.8-17.6c0.7-11.6,0.6-23.2,1.2-34.8c0.8-15.1,1.9-30.2,3-45.3c0.1-1.3,0.7-2.6,1.1-4
	c0.6,0,1.1,0,1.7,0c0.4,2.1,1.2,4.1,1.2,6.2c0.3,11.1,0.2,22.3,0.8,33.4c0.7,12,2.4,24,3.1,36.1c1.3,20.4,2.1,40.8,3.1,61.3
	c0.2,3.5,2.1,5.4,5.6,5.9C55.4,476.2,57.1,476.6,59,476.9z"/>
<path class="st4" d="M102.3,441.9c-5.4,0-10.8,0.3-16.1,0c-2-0.1-3.9-1.8-5.8-2.8c1.1-1.8,1.9-4.2,3.5-5.2c4.8-2.9,6.5-6.3,5.6-12
	c-3.4-22.8-6.6-45.6-9.3-68.5c-2.4-19.6-4-39.3-6.1-58.9c-0.1-1.2-1.3-2.3-2-3.5c-0.3-12.7-0.6-25.3-0.9-38c9.9,1.7,12,5.4,8.1,14.3
	c-1.5,3.3-2,6.2-0.2,9.9c1.4,2.8,1.5,6.6,1,9.7c-2.2,12.7,0.3,25.1,1.6,37.6c0.5,5.3,1.1,10.5,1.7,15.8c0.1,0.8,0,1.9,0.5,2.4
	c4.6,5.3,1.1,11.2,1.4,16.9c0.1,2.3-0.2,4.6,0.3,6.9c0.9,4.2,1.7,8.5,3.5,12.4c1.4,2.9,4.3,5,7.2,8.1c-0.4,0.4-1.5,2.2-3.1,2.9
	c-4.7,2-5.3,5.4-4.5,9.8c1.7,8.8,3.3,17.6,4.6,26.4c0.3,1.9-0.3,3.9-0.9,5.8c-1.2,4.1-0.1,5.8,4.2,6.2
	C99.2,438.2,102.1,438,102.3,441.9z"/>
<path class="st18" d="M49.7,449c0-8.2,0-16.4,0-24.7c0.3,0,0.6,0,0.9,0c0,8.2,0,16.4,0,24.7C50.3,449,50,449,49.7,449z"/>
<path class="st9" d="M52,393.8c0,8.6,0,17.2,0,25.8c-0.2,0-0.4,0-0.5,0c0-8.6,0-17.2,0-25.8C51.7,393.8,51.8,393.8,52,393.8z"/>
<path class="st4" d="M51.1,380.5c0-9.1,0-18.2,0-27.2c0.2,0,0.3,0,0.5,0c0,9.1,0,18.2,0,27.3C51.5,380.5,51.3,380.5,51.1,380.5z"/>
<path class="st10" d="M121.5,645.9c-0.4-1.8-0.9-3.5-1-5.3c-0.7-9.4-1.2-18.8-2-28.3c-0.4-4.7,1.2-6.1,5.9-5.6
	c3.8,0.4,7.7,0.4,11.6,0.3c5.5-0.1,11-0.4,16.4-1.6c-23.7-3.5-47.5-6.9-71.2-10.7c-4-0.6-7.7-2.9-11.5-4.6c-2.6-1.2-5-2.6-7.5-4
	c-3.2-1.7-6.3-3.5-9.5-5.2c6.8-14.4,13.5-28.8,20.6-43.1c1.3-2.7,3.8-4.8,5.7-7.1c13,2.4,26.1,4.9,39.1,7.3c0.4,0.7,0.8,1.4,1.2,2
	c0,13.3,0.1,26.7,0,40c-0.1,5,2.1,7.5,6.9,7.9c5.2,0.4,10.3,0.6,15.5,1c3.9,0.3,5.3-1.9,5.9-5.3c2-12.5,4.1-24.9,6.3-37.3
	c0.5-3,1.4-6,2.1-9c0.5,0.1,0.9,0.2,1.4,0.3c3.9,19,3.2,37.9-2.9,56.7c0.8,0.2,1.7,0.4,2.5,0.6c1.2-3.2,2.8-6.3,3.5-9.5
	c1-4.6,3.1-8.1,7.2-10.3c11-6.1,21.9-12.2,33.1-17.9c9.2-4.7,10.4-5.4,11.1,6.8c0.4,8.4-0.3,17-0.9,25.4
	c-0.7,10.8-1.9,21.5-2.8,32.2c-0.3,4.2-3,6-6.6,7.2c-7.3,2.6-14.4,5.4-21.7,8c-5.8,2.1-11.7,4-17.5,6.2c-2,0.8-4.6,1.8-5.4,3.4
	c-2.5,5-4.3,10.4-6.4,15.6c-0.4,3,0.9,7.1-3.5,7.6c-5.7,0.6-4.2-5.6-6.8-8.7c-0.6,1.4-1.1,2.4-1.5,3.4c-2.3,6.1-5.1,7.7-12.2,6.4
	c-5.2-1-3.9-5.3-4.1-8.8C122.2,656.7,121.9,651.3,121.5,645.9z"/>
<path class="st19" d="M121.5,645.9c0.3,5.4,0.6,10.7,1,16.1c0.2,3.4-1.1,7.8,4.1,8.8c7.1,1.3,10-0.3,12.2-6.4c0.4-1,0.9-2,1.5-3.4
	c2.6,3.1,1.1,9.3,6.8,8.7c4.4-0.5,3.2-4.7,3.5-7.6c3.6,3.5,8,2,12.2,2c27.5-0.1,55,0,82.5,0c-0.1,1-0.1,1.9-0.2,2.9
	c-2.4,4-4.8,7.9-7.1,11.9c-2.3,4.4-4.6,8.8-6.9,13.2c-10.6,0.3-21.2,0.9-31.8,0.9c-19.6,0.1-39.1,0-58.7,0c0.3-3.8,0.7-7.6,0.9-11.3
	c0.1-1.6-0.1-3.5-0.9-4.8c-0.7-1-3.4-1.8-3.8-1.4c-1.1,1.1-1.9,3-2.2,4.6c-1.8,9.3-3.5,18.5-5.2,27.8c-4.1,1.3-8.2,2.5-12.2,4.1
	c-3.5,1.4-5.7,0.5-6.9-3c2.7-5.3,5.4-10.7,8.1-16c1.2-2.2,2.7-4.2,3.5-6.6c0.7-2.1,1.6-5.7,0.6-6.6c-1.8-1.6-5.1-2.7-7.5-2.3
	c-6.7,1.2-13.1,3.7-19.8,4.9c-8.3,1.5-16.7,2.3-25.1,3.4c0.7-1.5,1.8-3,1.9-4.6c0.2-3.7,0-7.5-0.1-11.3c-0.6-7-1.1-14-1.7-20.9
	c2.8-2,2.8-4,0-6c0-1.3-0.1-2.7-0.1-4c0.9-1.7,1.9-3.4,2.9-5.3c0.3,6.2,0.9,12.5,1,18.9c0.2,12.3,0.1,12.3,12.1,12.4
	c10.1,0.1,20.1,0.2,30.2,0.5c3.3,0.1,4-1.9,4.1-4.4c0.1-3.5-0.1-7,0.1-10.5C120.5,649,121.2,647.5,121.5,645.9z"/>
<path class="st20" d="M70.2,649c0.6,7,1.1,14,1.7,20.9c-6.7,0-13.3,0-20,0.1c-1-20.8,1.1-41.3,3.8-61.9c0.6-4.6,0.6-9.2,1-13.8
	c0.1-1,0.5-2,0.8-3c1.2,0.3,2.8,0.3,3.5,1.1c5.2,5,9,10.7,9.1,18.2c0.1,9.5,0,18.9,0,28.4c0,1.3,0.1,2.7,0.1,4
	C70.2,645,70.2,647,70.2,649z"/>
<path class="st4" d="M79,530.7c-1.9,2.4-4.4,4.5-5.7,7.1c-7,14.3-13.7,28.8-20.6,43.1c-1.2,0.4-2.4,0.7-3.6,1.1
	c1.6-5.4,3.3-10.7,4.9-16.1c4.9-12.1,9.8-24.2,14.6-36.4c0.4-1,0.2-2.3,0.4-3.4c3.7-2.5,5.8-5.8,5.1-10.4
	c5.1-15.2,3.5-31.1,5.1-46.7c0.5-5.1,0.4-10.3,1.2-15.4c0.3-1.8,2.1-4.6,3.4-4.8c7.8-0.7,15.8-0.8,23.6-1c-1.5,1-2.9,2.4-4.6,2.9
	c-1.5,0.5-3.4-0.1-5,0.2c-3.6,0.6-7.4,1.1-10.5,2.6c-0.9,0.5-0.1,4.5-0.1,6.8c0,0.3,0,0.7-0.1,1c-1.8,7.8-3.7,15.6-5.2,23.5
	c-0.3,1.6,0.3,4.4,1.5,5.2c3.7,2.5,5.8,5.7,6.9,9.8c-0.6,2.4-1.1,4.8-1.8,7.2c-1,3.6-2.2,7.2-3.3,10.8c-5.6,3.7,2.6,7-0.3,9.6
	C82.9,528.6,80.9,529.7,79,530.7z"/>
<path class="st15" d="M51.8,670c6.7,0,13.3,0,20-0.1c0.1,3.8,0.3,7.5,0.1,11.3c-0.1,1.6-1.3,3.1-1.9,4.6c-6.9,1.1-13.7,2.1-20.1-1.9
	C50.6,679.3,51.2,674.7,51.8,670z"/>
<path class="st14" d="M707.6,332.9c-0.1-1.5,0.3-3.2-0.3-4.4c-3.3-6.9-0.9-12.4,3.5-17.8c7.9-9.9,15.4-20,23.1-30
	c1.6,0.2,3.2,0.7,4.8,0.5c2.1-0.2,4.1-0.9,6.1-1.4c0.1,1.2,0.5,2.4,0.2,3.5c-2.3,8.7,0.1,16.5,4,24.4c7.5,15,9.8,31.6,13.2,47.9
	c4.7,22.2,9.4,44.4,14.1,66.7c0.3,1.6,0,3.4-0.1,5.1c-1.8-0.5-3.6-0.8-5.3-1.6c-1.6-0.7-3.1-1.8-4.7-2.7c-1-2.7-1.5-5.9-3.2-8.1
	c-9.9-13-20.2-25.6-30.1-38.5c-8.5-11.1-17-22.1-20.2-36.2C712.1,337.4,709.4,335.3,707.6,332.9z"/>
<path class="st4" d="M707.6,332.9c1.8,2.4,4.5,4.6,5.1,7.2c3.2,14.1,11.8,25.2,20.2,36.2c9.9,12.9,20.2,25.6,30.1,38.5
	c1.7,2.2,2.2,5.4,3.2,8.1c-1.8,1-3.5,2.8-5.3,2.8c-8.4,0-16.7-0.6-25.1-0.8c-8.9-0.2-10.6-0.9-12.9-9.4c-5.6-20.4-18.8-37-27.3-56
	c-1.4-3-3.3-5.7-5-8.6c1.2-1.5,2.3-3.1,3.5-4.6c0.3-0.4,0.6-0.7,0.8-1.1C699.2,341.2,703.4,337,707.6,332.9z"/>
<path class="st17" d="M744.8,279.8c-2,0.5-4,1.2-6.1,1.4c-1.6,0.2-3.2-0.3-4.8-0.5c1.8-5.4,5.7-7.8,11.3-7.6
	C745.1,275.4,745,277.6,744.8,279.8z"/>
<path class="st21" d="M110.3,709c1.2,3.5,3.4,4.4,6.9,3c4-1.6,8.1-2.7,12.2-4.1c3.8-0.7,7.5-1.3,11.2-2c7.7-2,15.3-4.4,23.1-5.9
	c4.2-0.8,8.8-0.1,13.2-0.1c1.3,5,2.6,9.9,4,14.9c-0.3,0.4-0.7,0.8-1,1.2c-0.4,0.2-1.2,0.3-1.3,0.6c-3,7.2-5.8,14.4-8.9,21.6
	c-0.5,1.1-1.9,1.9-2.9,2.9c-5.4-4.7-12.1-5.1-18.7-5c-10.7,0.1-21.3,0.5-32,1c-1.9,0.1-3.8,1.5-5.6,2.3c1.6,1.3,3.1,3,5,3.7
	c4.6,1.9,9.4,3.3,14.1,4.9c-1.8,1-3.5,2.8-5.3,2.9c-13.6,0.6-27.1,0.9-40.7,1c-1.8,0-3.6-1.9-5.4-2.9c1-1,2-2,3-2.9
	c14.9-3.6,20.6-14.5,23.2-28.1C104.8,714,105.6,710.2,110.3,709z"/>
<path class="st5" d="M110.3,709c-4.7,1.2-5.5,5-6,9c-4.4,3.5-8.6,7.2-13.2,10.5c-8.3,6-16.9,11.4-27.1,13.6
	c3.6-12.6,7.1-25.2,11-37.6c0.6-1.8,3-3.9,5-4.4c12.6-3.2,24.9-8.2,38.3-7C115.6,698.3,113,703.7,110.3,709z"/>
<path class="st7" d="M64,742.1c10.2-2.2,18.8-7.6,27.1-13.6c4.5-3.3,8.8-7,13.2-10.5c-2.6,13.6-8.3,24.5-23.2,28.1
	c-4,0.1-8.2-0.5-12,0.3C64.6,747.4,63.6,746,64,742.1z"/>
<path class="st7" d="M483.2,758c0.8-2.7,1.3-5.5,2.6-8c1.8-3.4,0.9-4.9-2.8-5.3c-2.3-0.2-4.7-0.3-6.9-0.8c-1.4-0.3-2.7-1.3-4-1.9
	c0.4-3.1-1.1-4.7-4.1-5c-5.4-0.7-10.9-1.1-16.2-2c-7.4-1.3-14.8-2.9-22.2-4.4c0-0.5,0.1-1.1,0.1-1.6c4.2-0.6,8.4-1.7,12.6-1.8
	c28.8-0.5,57.5-0.8,86.3-1.1c12.8,0.3,25.6,0.7,38.5,0.8c0.9,0,1.9-1.8,2.8-2.8c0.7,0,1.3,0,2,0c4.2,6,3.6,7.5-4,8.8
	c-7,1.2-14,2.2-21.1,3.3c-10.9-0.2-16,4.5-14.5,15.3c1.7-6.6,4-11.1,10.4-11.3c0.7,0,1.3,0.1,2,0.1c6.4,2.4,12.6,5.3,19.1,7.2
	c8.2,2.4,8.3,2,8.2,10.5c-6.2,0.1-12.3,0.2-18.5,0.1c-4.2,0-6.7,1.5-6.8,6c-4.9,0.7-9.9,1.6-14.8,1.9c-3.5,0.2-5.9-1.2-4.7-5.4
	c1.2-4.1-0.3-5.9-4.7-5.5C509.4,756,496.3,757,483.2,758z"/>
<path class="st9" d="M571.9,757.8c0.1-8.5,0-8.1-8.2-10.5c-6.5-1.9-12.8-4.8-19.1-7.2c-0.2-1-0.5-2-0.7-3c-0.4,1-0.9,1.9-1.3,2.9
	c-6.4,0.2-8.7,4.7-10.4,11.3c-1.5-10.8,3.6-15.5,14.5-15.3c1.8,0.3,3.5,1,5.3,0.9c8.6-0.5,17.2-1.3,25.9-1.9
	c0.8,0.1,1.6,0.2,2.5,0.3c7.6,0.5,16,3.9,20.8-5.8c0.4-0.8,1.4-1.2,2.9-2.3c-0.4,5.6,0.6,9.7,6.1,10.8c0,0.3,0,0.6,0,1
	c-0.3,1.7-0.8,3.4-1,5.2c-0.4,4.6-0.7,9.2-1.1,13.7c-1.3,0-2.6,0-3.9,0c-0.5-5.5-1-10.9-1.6-16.4c-0.7-0.1-1.4-0.1-2.1-0.2
	c-0.4,2.3-1.2,4.6-1.1,6.8c0.2,3.3,1,6.5,1.6,9.8C591.3,757.9,581.6,757.9,571.9,757.8z"/>
<path class="st22" d="M642.3,756.9c-2.7,0-5.4,0-8,0c-0.7-4.1-1.1-8.2-2.1-12.2c-0.6-2.3-1.9-4.5-2.9-6.7c-0.6-6.9-1.3-7.4-7.9-5.6
	c-1,0.3-1.9,0.5-2.9,0.6c-3.7,0.1-6.9-0.4-5.5-5.5c0.3-1,0-2.5-0.6-3.3c-3.3-4.1-6.9-8.1-10.3-12.1c0.9-0.1,1.9-0.2,2.8-0.4
	c12.2,0.1,24.3,0.3,36.5,0.4c0.3,3,0.7,5.9,1,8.9c0.3,5.4,0.6,10.7,1.1,16.1c0.1,1.3,1.2,2.6,1.8,3.9
	C645.1,746.5,647.4,752.4,642.3,756.9z"/>
<path class="st5" d="M642.3,756.9c5-4.6,2.8-10.5,3-15.9c3.4-1,6.8-2.6,10.3-2.9c6-0.5,12-0.1,18-0.1c0.4,1.3,0.8,2.5,1.2,3.8
	c2.8,7.9,7.5,11,14.5,10.1c9.6-1.2,19.2-2,28.8-3c1.9-1,3.8-1.9,5.7-2.9c2.5,0.5,5.1,1,8.7,1.7c-4.7,4.4-9.7,4.7-14.6,5.3
	c-2,0.3-4.1-0.3-5.9,0.4c-1.3,0.5-2.1,2.4-3.2,3.6c-20.3,0.3-40.5,0.7-60.8,1C646.2,758,644.3,757.3,642.3,756.9z"/>
<path class="st14" d="M629.3,738c1,2.2,2.4,4.4,2.9,6.7c1,4,1.4,8.1,2.1,12.2c-7,0.3-14.1,0.7-21.1,1c-0.3-6.4,2.4-13.3-3.1-19
	c0-0.3,0-0.6,0-1c1.3,0.3,2.6,0.8,3.8,0.8C619,738.6,624.2,738.3,629.3,738z"/>
<path class="st7" d="M610.1,739c5.4,5.6,2.7,12.5,3.1,19c-1.7,0-3.4,0-5.1,0c0.4-4.6,0.7-9.2,1.1-13.7
	C609.3,742.4,609.8,740.7,610.1,739z"/>
<path class="st7" d="M601,757.9c-0.6-3.3-1.4-6.5-1.6-9.8c-0.1-2.2,0.7-4.5,1.1-6.8c0.7,0.1,1.4,0.1,2.1,0.2
	c0.5,5.5,1,10.9,1.6,16.4C603.1,757.9,602,757.9,601,757.9z"/>
<path class="st7" d="M447.9,744c-4.1,1-8.2,2.1-12.3,3c-3,0.7-6.1,1.1-9.8,1.8c1.1,1.9,1.8,3.1,3,5.2c-5.7,2.2-11.2,4.1-16.6,6.4
	c-2,0.9-3.8,2.4-5.6,3.6c-8.7,0.5-17.5,1.7-26.2,1.3c-10.4-0.4-20.8-2.2-31.2-3.4c-1.2-1.1-2.3-2.9-3.8-3.2
	c-7.1-1.5-14.2-2.6-21.4-3.6c-1.3-0.2-2.8,1.2-4.2,1.9c-1.3-1-2.6-2-3.9-3c0-6.8-1.4-8.4-7.7-10.8c-4.9-1.8-9.7-4.1-14.5-6.2
	c4.6-1,9.3-2.8,13.9-2.9c36-0.2,72.1-0.1,108.1-0.1c1.8,0.2,3.7,0.1,5.4,0.7C430.1,737.7,439,740.9,447.9,744z"/>
<path class="st5" d="M319.9,757c1.4-0.7,2.9-2.1,4.2-1.9c7.2,0.9,14.3,2.1,21.4,3.6c1.4,0.3,2.5,2.1,3.8,3.2
	c-0.4,0.4-0.7,0.7-1.1,1.1c-2-0.3-4.1-0.6-6.1-0.9c-3.8-0.6-7.6-1.1-11.3-2C327,759.3,323.5,758.1,319.9,757z"/>
<path class="st7" d="M166.8,741c1-0.9,2.4-1.7,2.9-2.9c3.1-7.2,5.9-14.4,8.9-21.6c0.1-0.3,0.9-0.4,1.3-0.6c7.7,4,15.3,8.1,23,12.1
	c1.5,1.7,2.7,3.8,4.5,4.9c5.8,3.6,11.8,6.7,17.7,10.1c1.8,4.6,3.5,9.2,5.3,13.8c-4.4,0.4-8.9,0.9-13.3,1.1
	c-5.2,0.2-10.3-0.1-15.5,0.1c-1.5,0.1-3,1.2-4.5,1.9c-9.3-2.7-18.6-5.2-27.8-8.2c-1.3-0.4-2.4-3.1-2.8-4.8
	C166,745.1,166.6,743,166.8,741z"/>
<path class="st8" d="M447.9,744c-8.9-3.1-17.8-6.3-26.8-9.3c-1.7-0.6-3.6-0.5-5.4-0.7c-1.3-1.3-2.5-3.4-4.1-3.8
	c-5.3-1.4-10.7-2.1-16.1-3.1c-5-0.9-10-1.9-15-2.9c5.8,0.5,4.8-3.7,5-7.1c0.2-4.7,0.5-9.3,0.7-14c0-1.4,0.1-2.8,0.1-4.2
	c0.1-3.6,0.2-7.3,0.3-10.9c0.5,1.2,1.2,2.4,1.6,3.6c4.1,11.4,17.3,20.8,31.3,20.6c45.4-0.6,90.8-0.4,136.2-0.1
	c9.8,0.1,18.1-2.3,25.1-9.2c0.1,0.7,0.2,1.4,0.2,2.1c-1.1,3.2-2.3,6.4-3.3,9.6c-1.1,3.7-1.2,8-6,9.3c-0.7,0-1.3,0-2,0
	c-11.9,0-23.7-0.1-35.6,0.1c-1.9,0-3.8,1.2-5.7,1.9c-28.8,0.3-57.5,0.6-86.3,1.1c-4.2,0.1-8.4,1.2-12.6,1.8c0,0.5-0.1,1.1-0.1,1.6
	c7.4,1.5,14.8,3.1,22.2,4.4c5.4,0.9,10.8,1.4,16.2,2c3,0.4,4.5,1.9,4.1,5C464,742.7,456,743.3,447.9,744z"/>
<path class="st7" d="M720.8,716.1c4.8-0.3,9.7-0.8,14.5-1c4.2-0.1,5.2-2.5,4.6-6c-0.7-3.4-1.9-6.7-2.8-10.1c-0.3-1-0.7-2.1-1-3.1
	c0,0,0,0,0,0c0-1.8-0.6-4,0.2-5.4c1.1-2.1,3.2-5.3,4.8-5.3c10.5,0.2,20.9,1.1,31.4,1.7c0.1,7.2,0.3,14.5,0.4,21.7
	c0.1,2.1,0.7,4.3,0.4,6.4c-0.5,3.7-2.5,6-6.7,5.8c-4.8-0.2-9.7-0.1-14.5,0c-4.9,0.1-6.3,1.9-5.5,6.6c0.4,2.1,0.4,4.3,0.7,6.4
	c-7.7,1-15.5,2-23.2,3c-0.7-3.4-1.5-6.8-2.2-10.2C721.4,723.2,721.1,719.6,720.8,716.1z"/>
<path class="st9" d="M721.7,726.8c0.7,3.4,1.5,6.8,2.2,10.2c0,3-0.1,6-0.1,9c-1.9,1-3.8,1.9-5.8,2.9c-1.7-7.3-3.4-14.7-5.1-22
	C715.9,726.8,718.8,726.8,721.7,726.8z"/>
<path class="st17" d="M764.5,651.9c0.6,1.3,1.1,2.6,1.7,3.9c-0.5,3.1-1,6.2-1.6,9.2c-0.4,2-0.9,3.9-1.3,5.9c-3,2.5-5.1,7-10.2,3.9
	c4.6-2.7,7.1-6.8,8.3-12C762.2,659.2,763.4,655.6,764.5,651.9z"/>
<path class="st9" d="M230.3,756.9c-1.8-4.6-3.5-9.2-5.3-13.8c0.5,0,1,0.2,1.5,0.1c1.7-0.1,3.4-0.3,5.1-0.5c-0.6-1.5-1.1-3.2-1.8-4.6
	c-0.9-1.7-1.9-3.3-2.9-4.9c3.9,0.9,6.7,3.6,9.5,3.5c15.4-0.2,30.8-1.1,46.1-1.8c3.7,0.7,7.4,1.4,11.1,2c4.8,2.1,9.6,4.3,14.5,6.2
	c6.3,2.4,7.7,4,7.7,10.8c-11.8,0.3-23.6,0.6-35.4,1.1c-2,0.1-4,1.3-6,2c-6.9,0-13.7-0.2-20.6,0c-4.8,0.2-7.5-1.8-9.1-6.1
	c-0.9-2.4-2.4-4.5-3.6-6.8c-0.5,0.1-1,0.2-1.5,0.3c-0.1,1.7-0.3,3.3-0.4,5C239.1,757.6,238.1,758.5,230.3,756.9z"/>
<path class="st14" d="M274.6,757.1c2-0.7,4-1.9,6-2c11.8-0.5,23.6-0.8,35.4-1.1c1.3,1,2.6,2,3.9,3c3.6,1,7.2,2.3,10.8,3.1
	c3.7,0.9,7.5,1.3,11.3,2c-2.8,1-5.5,2.4-8.4,2.8c-5.1,0.7-10.3,0.8-15.4,1.1c-0.8,0.1-1.7,0.2-2.5,0c-14.9-4.3-29.7,1.8-44.6,0.2
	c-2.8-0.3-5.7,1.2-8.6,1.9c-7.3-2.1-14.6-4.3-21.9-6.4c0-0.2,0-0.5,0.1-0.7c4.6-0.3,9.3-0.8,13.9-0.9c5-0.2,10.1,0.2,15.1-0.2
	C271.4,759.7,272.9,758,274.6,757.1z"/>
<path class="st1" d="M580.8,703c-7,6.8-15.3,9.2-25.1,9.2c-45.4-0.3-90.8-0.5-136.2,0.1c-14,0.2-27.1-9.2-31.3-20.6
	c-0.4-1.2-1.1-2.4-1.6-3.6c-0.2-11.3-0.4-22.6-0.7-33.9c0-6.7,0-13.3,0-20c0.1-5.6-0.1-11.3,0.3-16.9c0.5-6.4,1.5-12.8,2.4-19.2
	c5.8-8.8,13-15.6,23.9-17.4c2.1-0.4,4.3-0.5,6.5-0.5c45.1,0,90.2,0.3,135.4-0.2c17.3-0.2,32.8,9.4,35.9,28.6c0,0.3,0.1,0.5,0.3,0.7
	c-0.1,2.2-0.2,4.5-0.2,6.7c0.1,10.4,0.1,20.8,0.2,31.3c-0.1,8-0.1,16.1-0.2,24.1c0,2.2,0.1,4.4,0.1,6.6c0,0.8,0,1.6,0,2.4
	c-0.6,3.6-1.3,7.2-1.9,10.8C586,695,583.4,699,580.8,703z"/>
<path class="st23" d="M721.7,726.8c-2.9,0-5.8,0.1-8.7,0.1c-1.3-1.7-2.2-4.4-4-5.1c-4.5-1.7-9.3-2.6-14-3.9
	c-8.5-2.3-16.9-4.7-25.3-7.1c-1.3-11.3-2.6-22.7-3.8-34c6.9,0.1,13.7,0,20.6,0.2c4.8,0.2,9.4-0.2,12.4-5.1c2.6,3.1,4.7,6.2,9.3,4.7
	c0.8-0.3,3.1,1.9,3.7,3.3c1.1,2.7,1.2,5.8,2.1,8.7c1.5,4.8,3.3,9.6,4.9,14.4c0.6,4.4,1.3,8.8,1.9,13.2
	C721.1,719.6,721.4,723.2,721.7,726.8z"/>
<path class="st13" d="M693.8,619c3.4,2.4,6.6,5.4,10.4,7c5.8,2.5,6.1,7.3,6.7,12.2c1.3,12,2.5,24,3.8,35.9c-0.9-1.8-2.1-3.5-2.7-5.5
	c-0.7-2.5-0.8-5.2-1.3-7.8c-0.8-3.8-2.6-6.4-7.2-5.9c-3.6,0.4-4.5-1.9-4.7-5c-0.2-3.6-0.4-7.3-1-10.8c-0.2-1.3-1.7-2.3-2.6-3.4
	c-0.7,1.5-2.1,3-2,4.5c0.3,5.8,1.2,11.5,1.6,17.3c0.4,5.5-0.6,6.4-6.1,6.6c-8,0.3-16,0.6-24,1c-0.1-0.6-0.2-1.3-0.4-1.9
	c-0.9-4.7-1.8-9.3-2.7-14c0-7-0.2-14,0.1-21c0.1-1.7,1.5-4,3-4.9c4.6-2.7,9.5-4.9,14.3-7.3c7.4-3.7,7.4-3.7,13.1,2.3
	C692.4,618.6,693.2,618.7,693.8,619z"/>
<path class="st12" d="M693.8,619c-0.6-0.3-1.4-0.4-1.8-0.8c-5.7-6-5.7-6-13.1-2.3c-4.8,2.4-9.7,4.5-14.3,7.3c-1.5,0.9-2.9,3.2-3,4.9
	c-0.3,7-0.1,14-0.1,21c0,0.3-0.1,0.7-0.1,1c-0.6,1.9-1.2,3.8-1.8,5.7c-1.5-1.1-2-2.2-2.1-3.3c-0.4-10.3-0.9-20.5-0.9-30.8
	c0-3.8-0.4-6.4-5.5-5.9c3.1-2.3,5.8-3.7,7.7-5.9c1.1-1.3,1.4-4.2,0.6-5.6c-0.8-1.5-3.6-3.4-4.9-3.1c-6.5,1.8-12.8,4.3-19.2,6.6
	c-10.5-1.2-21,4.5-31.6,0.2c-0.8-0.3-2,0-3,0.1c-4.6,0.5-7.6,2.6-7.1,7.7c-1.1,0-2.2-0.1-3.3-0.1c0.1-2.2,0.2-4.5,0.2-6.7
	c0.1-0.3,0.3-0.7,0.4-1c5.7-3.8,6.4-9,4.5-15.1c-0.4-1.4,0.1-3.3,0.7-4.8c1.3-3.9,4-4.3,6.7-1.2c0.9,1.1,1.6,2.5,2.3,3.8
	c4.1,7.1,9.5,9.1,17.4,6.3c10.9-4,22.2-1.8,33.3-1.7c2.2,0,5.6,4.3,6.3,7.1c1.2,4.5,3.4,5.6,7.4,5.4c3.3-0.2,6.7-0.1,10-0.3
	C690.2,607.1,691.8,608.4,693.8,619z"/>
<path class="st15" d="M664.6,665c8-0.3,16-0.7,24-1c5.5-0.2,6.5-1.1,6.1-6.6c-0.4-5.8-1.3-11.5-1.6-17.3c-0.1-1.5,1.3-3,2-4.5
	c0.9,1.1,2.4,2.2,2.6,3.4c0.6,3.6,0.8,7.2,1,10.8c0.2,3,1,5.4,4.7,5c4.5-0.5,6.4,2.1,7.2,5.9c0.5,2.6,0.6,5.3,1.3,7.8
	c0.5,1.9,1.8,3.6,2.7,5.5c1.4,9.6,2.8,19.2,4.2,28.8c-1.7-4.8-3.4-9.5-4.9-14.4c-0.9-2.8-1-5.9-2.1-8.7c-0.6-1.4-2.9-3.6-3.7-3.3
	c-4.6,1.6-6.7-1.6-9.3-4.7c-3,5-7.6,5.3-12.4,5.1c-6.9-0.2-13.7-0.2-20.6-0.2C665.5,672.9,665,668.9,664.6,665z"/>
<path class="st9" d="M736,696c0.3,1,0.7,2,1,3.1C736.7,698,736.4,697,736,696z"/>
<path class="st23" d="M591,608.1c-0.1,0.3-0.3,0.7-0.4,1c-0.2-0.2-0.3-0.4-0.3-0.7C590.5,608.3,590.7,608.2,591,608.1z"/>
<path class="st24" d="M386.3,698.9c0,1.4-0.1,2.8-0.1,4.2c-2.5,1.8-5.2,3.4-7.6,5.3c-1.6,1.3-2.9,3-4.3,4.6c-29.3,0-58.5,0-87.8,0
	c-2.3,0-4.6,0.7-6.9,1c0.4-1.7,0.4-3.6,1.3-5c2.3-3.5,5-6.8,7.6-10.1c1.2,0,2.4,0.2,3.5-0.1c13.7-3.3,27.4-6.5,40.9-10.3
	c2.1-0.6,4-4.1,4.8-6.7c1-3.1,0.8-6.6,1-9.9c0.5-9.1,1-18.1,1.5-27.2c0.3-4.9-2.4-5.6-6.4-4.3c-13.1,4.6-26.3,9-39.3,13.9
	c-2.2,0.8-3.4,4.1-4.9,6.3c-1.4,2.1-2.8,4.2-4.1,6.4c-0.6-0.3-1.2-0.6-1.8-1c0.7-2.3,1-4.8,2.1-6.9c3.3-5.7,3-11.8,2.7-18
	c-0.1-3-0.5-6-1-8.9c-0.2-1.1-1-2.2-1.6-3.2c-0.8,1-2,1.9-2.4,3c-2.3,8.3-4.5,16.7-6.6,25.1c-1,4-3.3,6-7.5,5.7
	c-6-0.4-12-0.7-18-1.1c-0.1-1.5-0.3-2.9-0.5-4.9c-2.2,2.8-3.9,4.9-5.6,7c-27.5,0-55,0-82.5,0c-4.2,0-8.6,1.5-12.2-2
	c2.1-5.2,3.9-10.6,6.4-15.6c0.8-1.6,3.4-2.7,5.4-3.4c5.8-2.2,11.7-4.1,17.5-6.2c7.2-2.6,14.4-5.4,21.7-8c3.6-1.3,6.2-3,6.6-7.2
	c0.9-10.8,2.1-21.5,2.8-32.2c0.6-8.5,1.3-17,0.9-25.4c-0.6-12.2-1.9-11.5-11.1-6.8c-11.2,5.7-22.1,11.9-33.1,17.9
	c-4,2.2-6.2,5.8-7.2,10.3c-0.7,3.3-2.3,6.4-3.5,9.5c-0.8-0.2-1.7-0.4-2.5-0.6c6-18.8,6.8-37.7,2.9-56.7c-0.5-0.1-0.9-0.2-1.4-0.3
	c-0.7,3-1.6,6-2.1,9c-2.2,12.4-4.2,24.9-6.3,37.3c-0.6,3.4-2,5.6-5.9,5.3c-5.2-0.4-10.4-0.6-15.5-1c-4.8-0.4-7-2.9-6.9-7.9
	c0.2-13.3,0-26.7,0-40c8.3,0,16.6,0.2,24.9-0.2c2.5-0.1,4.9-1.9,7.4-2.9c-0.1-3.3-0.1-3.3-5.1-4.5c-8.9-2.1-8.9-2.1-7.1-10.6
	c0-0.3,0.1-0.6,0.1-0.8c2.4-1.9,5.3-3.5,7.3-5.9c8.9-10.8,17.5-21.8,26.4-32.6c1.4-1.6,3.6-2.5,5.5-3.8c6.1,3.8,12.3,7.5,18.4,11.3
	c-1.7,3.3-3.4,6.6-5.2,9.8c-5.4,4.9-10.7,9.7-16,14.7c-0.6,0.6-1,1.9-0.9,2.7c1.4,8.8,2.7,17.7,4.5,26.4c0.2,1.2,3.2,3.1,4,2.7
	c4.7-2.1,9.1-4.8,13.6-7.3c2-1.3,4-2.6,6-3.9c3.6-1.8,7.3-3.5,10.9-5.3c1,1.6,2,3.3,3,4.9c0,5.4,0.1,10.8,0.1,16.1
	c-3.6,7-2.2,14.2-1.1,21.4c0,0.2,0.6,0.3,0.9,0.4c-0.4,2.5-0.8,4.9-1.1,7.4c-0.5,0.4-1.4,0.8-1.4,1.2c-0.1,6.3-0.2,12.6-0.1,18.8
	c0,0.5,1.1,1,1.6,1.6c-0.3,6.9-0.7,13.8-0.8,20.7c0,1.4,0.9,3.6,1.9,4.1c10.2,4.3,20.4,8.4,30.7,12.4c0.9,0.4,1.9,0.3,3.7,0.6
	c0-3.4,0-6.5,0-9.6c8,0,16.1,0.1,24.1,0c1.7,0,3.4-1.1,5.1-1.6c-0.1-0.6-0.2-1.3-0.3-1.9c-2.2-0.5-4.4-1.2-6.6-1.3
	c-4.5-0.2-6.9-2.1-6.2-6.9c0.4-0.4,0.8-0.7,1.1-1c1.9-0.9,4.2-1.4,5.8-2.7c7.7-6.1,15.3-12.3,22.9-18.6c2.2-1.8,4.2-3.8,6.2-5.7
	c1.4-0.1,2.9-0.2,4.3-0.3c1.3,0.1,2.7,0.2,4,0.3c1.2,1,2.4,2.1,3.8,2.8c3,1.5,6.2,2.8,9.3,4.1c-2.1,2.6-4.2,5.1-6.3,7.7
	c-4.6,2.8-9.3,5.5-13.8,8.5c-0.7,0.4-0.9,2.1-0.7,3.1c1.2,5.3,2.3,10.6,4,15.8c0.4,1.2,3.3,2.6,4.5,2.2c4.6-1.3,9-3.4,13.4-5.1
	c2-0.7,4-1.5,5.9-2.2c10.2-0.8,12.9-4.8,10.9-16c-0.8-4.7-1.5-9.5-1.8-14.2c-0.2-3.2-0.2-7.1,5-6.7c0.3,10.1,0.9,20.3,1,30.4
	c0,9.6,0.2,19.2-1.1,28.7c-1.4,9.8,0.9,19.8-2.4,29.5c-2,6,0.6,9.1,6.7,10.9c1.9,0.6,3.8,1.3,5.7,1.8c8.5,1.9,16.9,3.7,25.4,5.6
	C383.1,697.6,384.7,698.2,386.3,698.9z"/>
<path class="st20" d="M381.4,696.9c-8.5-1.9-17-3.7-25.4-5.6c-1.9-0.4-3.8-1.2-5.7-1.8c-6.1-1.8-8.7-4.9-6.7-10.9
	c3.2-9.7,1-19.7,2.4-29.5c1.3-9.4,1.1-19.1,1.1-28.7c0-10.1-0.6-20.3-1-30.4c0.3,0,0.6,0,0.9,0c7.3,0,14.7,0,22,0c0-0.2,0-0.3,0-0.5
	c-1.9-0.4-3.8-0.9-5.7-1.3c0-0.4,0-0.9,0-1.3c1.3-0.5,2.6-1.5,3.9-1.6c5.9-0.5,8.7-4.5,9.8-9.4c1.9-8.6,3-17.3,4.5-26
	c5.1,1.3,7.5,5.3,6.9,11.3c-0.4,3.9-0.6,7.8-0.9,11.8c-4.2,5.3-2.5,11.2-2,17c-7.2,0-9.1,2-8.8,9c0.6,13,1.2,26,1.8,39.1
	c0.1,1.1,0,2.5,0.5,3.3c0.5,0.8,2.1,1.6,2.8,1.4c1-0.3,2.1-1.5,2.5-2.5c0.8-1.9,1.1-4.1,1.7-6.1c0,6.7,0,13.3,0,20
	c-0.5,0.4-1.3,0.8-1.3,1.3c-0.8,6.8-1.5,13.7-2.2,20.6c-0.3,2.8-0.8,5.5-0.9,8.3C381.3,688.5,381.4,692.7,381.4,696.9z"/>
<path class="st15" d="M266.6,583c0.9-15.9,1.8-31.7,2.8-47.6c1-15.6,2.2-31.1,3.1-46.7c0.2-4.1,1.1-7.6,5.2-9.3
	c0.9,3.3,2.2,6.6,2.8,10c2.7,14.8,5.4,29.6,7.8,44.4c1.4,8.4,2.2,16.9,3.3,25.3c2.7,8.3,1.2,12.4-5.8,16.9c-2.5,1.6-5.5,2.8-7.5,4.9
	C274.8,584.5,270.9,584.5,266.6,583z"/>
<path class="st24" d="M381.5,550c-1.4,8.7-2.6,17.4-4.5,26c-1.1,4.8-3.8,8.9-9.8,9.4c-1.3,0.1-2.6,1-3.9,1.6c0,0.4,0,0.9,0,1.3
	c1.9,0.4,3.8,0.9,5.7,1.3c0,0.2,0,0.3,0,0.5c-7.3,0-14.7,0-22,0c0-8.4,0.2-16.9,0.1-25.3c-0.1-4.3,1.6-6.8,5.8-8.1
	C362.2,553.6,371.1,548.9,381.5,550z"/>
<path class="st24" d="M291.7,559c-1.1-8.4-2-16.9-3.3-25.3c-2.4-14.8-5.1-29.6-7.8-44.4c-0.6-3.4-1.9-6.7-2.8-10
	c13.5-1.1,13.8-1.1,15.7,11.8c2,13.9,3.5,27.9,5.2,41.8c-0.1,5.9-0.7,11.8-0.2,17.6C299.1,557,298.4,558.4,291.7,559z"/>
<path class="st13" d="M291.7,559c6.7-0.6,7.4-2,6.8-8.5c-0.6-5.8,0.1-11.7,0.2-17.6c3.1,19,6.2,38,9.2,57c-1.4,0.1-2.9,0.2-4.3,0.3
	c-10,0-20,0-30,0c-2,0-3.9,0-5.9,0c-0.4-2-0.8-4.1-1.2-6.1c0-0.4,0-0.7,0.1-1.1c4.4,1.6,8.2,1.6,11.8-2.2c2-2.1,5-3.3,7.5-4.9
	C293,571.4,294.4,567.3,291.7,559z"/>
<path class="st24" d="M266.5,584.1c0.4,2,0.8,4.1,1.2,6.1c-1.5,7.3-2.9,14.5-4.4,21.8c-0.5,1.1-1.1,2.2-1.6,3.2
	c0,1.6-0.1,3.2-0.1,4.8c-1.7,4.9-5.7,5.2-10,5.1c0-10.4-0.2-20.8,0-31.2c0-1.3,1.9-2.6,2.9-4c1.3,0,2.6,0,3.9,0.1
	c3.3,0.3,5.9-0.2,6.1-4.3C264.6,585.1,265.8,584.6,266.5,584.1z"/>
<path class="st13" d="M318.7,604.7c2.1-2.6,4.2-5.1,6.3-7.7c1.6-0.1,3.2-0.3,4.8-0.4c3.8,6.3,1.9,13.2,2.2,19.9c0.2,3.5,0,7,0,10.4
	c-2,0.7-4,1.5-5.9,2.2c-0.8-5.5-1.2-11.1-2.6-16.4C322.7,609.9,323.6,605.4,318.7,604.7z"/>
<path class="st17" d="M329.7,596.6c-1.6,0.1-3.2,0.3-4.8,0.4c-3.1-1.4-6.3-2.6-9.3-4.1c-1.4-0.7-2.5-1.9-3.8-2.8
	c6.8,0,13.6,0,21.2,0C331.8,592.7,330.8,594.7,329.7,596.6z"/>
<path class="st24" d="M319.6,524.2c0.8,13.3,1.6,26.5,2.4,39.8c-0.6,0-1.2,0-1.8,0.1C320.7,550.8,316.1,537.6,319.6,524.2z"/>
<path class="st15" d="M385.4,590c-0.5-5.8-2.2-11.7,2-17c0,6.5,0,13.1,0,20.3C386.5,591.8,386,590.9,385.4,590z"/>
<path class="st3" d="M216.9,534.9c-1-1.6-2-3.3-3-4.9c0.2-0.6,0.4-1.3,0.6-1.9c0-1,0-2.1,0-3.1c0-1.6-0.1-3.2-0.1-4.9
	c-0.1-3.3-0.2-6.7-0.3-10c-0.7-8-2.7-16.2-1.5-24c0.8-5.2,0.2-10,0.4-15c-0.1-1.7-0.1-3.4-0.2-5.1c0.6-2.5-1.2-6.1,3.2-6.8
	c0,17,0,34,0.1,51C220,518.3,219.8,526.5,216.9,534.9z"/>
<path class="st3" d="M251.5,625.1c4.3,0.2,8.3-0.2,10-5.1c2-0.6,4.1-1.2,6.1-1.8c-0.7,4.8,1.7,6.6,6.2,6.9c2.2,0.1,4.4,0.9,6.6,1.3
	c0.1,0.6,0.2,1.3,0.3,1.9c-1.7,0.6-3.4,1.6-5.1,1.6c-8,0.2-16.1,0-24.1,0C251.5,628.3,251.5,626.7,251.5,625.1z"/>
<path class="st24" d="M216.2,510.1c0-17,0-34-0.1-51c0.6-2.3,1.3-4.6,1.9-6.9c0,17.2,0.1,34.3,0,51.5
	C218,505.8,216.8,507.9,216.2,510.1z"/>
<path class="st9" d="M215.9,601.9c-0.6-0.5-1.6-1-1.6-1.6c-0.1-6.3,0-12.6,0.1-18.8c0-0.4,0.9-0.8,1.4-1.2
	C215.8,587.5,215.9,594.7,215.9,601.9z"/>
<path class="st19" d="M216.9,572.9c-0.3-0.1-0.8-0.2-0.9-0.4c-1.1-7.2-2.5-14.4,1.1-21.4C217,558.3,217,565.6,216.9,572.9z"/>
<path class="st14" d="M178.7,478.8c-1.8,1.2-4.1,2.2-5.5,3.8c-8.9,10.8-17.5,21.8-26.4,32.6c-1.9,2.3-4.8,3.9-7.3,5.9
	c-0.3-2.3-1.1-4.6-0.8-6.8c2.5-16,5-32.1,7.9-48.1c2.9-16.2,5.7-32.4,9.4-48.3c2.7-11.5,4.8-22.9,4.6-34.8c0-2.9-0.4-5.4-3.9-6
	c1.3-3.7,2.6-7.4,3.9-11.1c7.5-1.4,12.4-6.6,17.1-11.9c2.5-1,5.1-1.8,7.5-3c2.6-1.3,5.1-2.8,7.6-4.2c4,4.1,1.8,9.1,1.7,13.6
	c-0.3,8.9-1.3,17.7-1.9,26.6c-0.9,2.7-2.4,5.3-2.7,8c-1.3,11-2.2,22.1-3.4,33.1c-1.6,15.3-3.2,30.6-4.9,45.9
	C180.8,475.6,179.7,477.2,178.7,478.8z"/>
<path class="st25" d="M181.8,474c1.6-15.3,3.3-30.6,4.9-45.9c1.1-11,2.1-22.1,3.4-33.1c0.3-2.7,1.8-5.4,2.7-8
	c0.3,5.4,1.1,10.7,0.9,16.1c-0.3,9.9-1.2,19.9-1.6,29.8c-0.1,1.7,0.7,3.6,1.6,5.1c5.5,8.9,11.2,17.7,16.9,26.5
	c0.5,0.7,1.6,1,2.4,1.5c0.1,1.7,0.1,3.4,0.2,5.1c-1.3,1.5-2.8,2.8-3.9,4.4c-1.8,2.5-3.4,5.1-5,7.6c-3.2-1.7-6.4-3.6-9.7-4.9
	C190.3,476.5,186,475.3,181.8,474z"/>
<path class="st26" d="M193,346.8c-2.5,1.4-5,3-7.6,4.2c-2.4,1.2-5,2-7.5,3c0-6.7-0.1-13.4,0.1-20.1c0-1.5,0.9-3,1.5-4.4
	c1.4,0.6,3.2,0.9,4.2,1.9c4.3,4.1,8.3,8.4,12.4,12.7C195,344.9,194,345.8,193,346.8z"/>
<path class="st25" d="M160.8,366c-1.3,3.7-2.6,7.4-3.9,11.1c-1.9,9.4-4,18.7-5.7,28.1c-3,15.9-5.7,31.9-8.6,47.8
	c-8-0.9-12.1-7.8-18.3-11.6c-9.3-5.8-12.6-13.9-11-24.4c0.4-2.9,0-6,0-9c1-7,2.7-13.9,3-20.9c1.3-28.3,2.2-56.6,3.1-84.9
	c0.8-23.4,1.4-46.7,2-70.1c6.2,3.8,12.2,7.9,20.1,7.1c1-0.1,2.1,1.2,3.2,1.9c-0.7,4.9-1.9,9.8-2,14.7c-0.5,15.4-0.6,30.9-1,46.4
	c-0.6,21.4-1.1,42.9-2.2,64.3c-0.5,9.6-2.4,19.1-3.7,28.6c-1,6.9-2.3,13.7-3.2,20.6c-0.4,2.9,0,6,3.8,6.4c3.8,0.5,4.7-2.3,5.3-5.3
	c1.6-6.9,3.1-13.9,5.2-20.7c3.8-12.5,7.9-25,12-37.4c2.6-7.7,5.4-15.3,8.1-23c-1.8,8.4-3.7,16.7-5.5,25.1
	C161,362.3,161,364.2,160.8,366z"/>
<path class="st5" d="M166.9,335.5c-2.7,7.7-5.5,15.3-8.1,23c-4.1,12.4-8.2,24.9-12,37.4c-2.1,6.8-3.5,13.8-5.2,20.7
	c-0.7,2.9-1.5,5.7-5.3,5.3c-3.9-0.5-4.2-3.5-3.8-6.4c0.9-6.9,2.2-13.7,3.2-20.6c1.4-9.5,3.2-19,3.7-28.6c1.1-21.4,1.6-42.8,2.2-64.3
	c0.4-15.5,0.5-30.9,1-46.4c0.2-4.9,1.3-9.8,2-14.7c4.7,3.3,9.6,6.4,13.9,10.1c6.5,5.4,12.7,11.2,18.9,17c3.6,3.4,4.1,8,2.9,12.5
	c-2.4,9.5-5.3,18.9-7.7,28.4C170.5,317.8,168.8,326.7,166.9,335.5z"/>
<path class="st3" d="M121.4,232.1c-0.7,23.4-1.3,46.7-2,70.1c-0.9,28.3-1.8,56.6-3.1,84.9c-0.3,7-1.9,14-3,20.9
	c-0.3-5.7-0.9-11.3-0.8-17c0.1-8.6,0.8-17.2,0.9-25.8c0.1-20.7-0.1-41.5,0.1-62.2c0.1-7.8,1.5-15.5,1.6-23.3
	c0.1-7.4-0.1-15-1.3-22.3c-1.1-7.3-3.6-14.3-5.5-21.5C111.8,231.8,115.9,229.5,121.4,232.1z"/>
<path class="st25" d="M85.1,518c1.1-3.6,2.3-7.2,3.3-10.8c0.7-2.4,1.2-4.8,1.8-7.2c1.3-1.5,2.8-2.8,4-4.5c1.9-2.8,3.3-6,5.5-8.4
	c2.2-2.3,4.1-3.7,2.9-7.5c-0.7-2.3,0.5-5.5,1.4-8.1c2.7-7.9,5.7-15.6,8.5-23.4c0.3,0,0.5-0.1,0.8-0.2c5,1.3,10.1,2.6,15.1,4
	c5,2,10,4.1,15,6.1c-1.2,6.8-2.5,13.6-3.6,20.5c-2.5,15.5-5,30.9-7.4,46.4c-0.7,4.6-3.3,7.2-8.1,7c-6-0.2-12-0.7-18-1.2
	C97.2,530,88.9,527.6,85.1,518z"/>
<path class="st4" d="M132.5,525c2.5-15.5,4.9-31,7.4-46.4c1.1-6.8,2.4-13.7,3.6-20.5c-0.3-1.7-0.6-3.4-1-5.1
	c2.8-15.9,5.6-31.9,8.6-47.8c1.8-9.4,3.8-18.8,5.7-28.1c3.4,0.6,3.8,3.1,3.9,6c0.2,11.8-1.9,23.3-4.6,34.8
	c-3.7,16-6.5,32.2-9.4,48.3c-2.9,16-5.4,32-7.9,48.1c-0.3,2.2,0.5,4.5,0.8,6.8c-0.1,0.3-0.1,0.6-0.1,0.8
	C137.1,522.9,134.8,524,132.5,525z"/>
<path class="st4" d="M128.5,452c-5-1.3-10.1-2.6-15.1-4c0.3-1.7,0.7-3.3,1-5c3.3,1,6.9,1.6,9.9,3.3C126.1,447.4,127.1,450,128.5,452
	z"/>
<path class="st14" d="M112.5,448.2c-2.9,7.8-5.8,15.6-8.5,23.4c-0.9,2.6-2.1,5.7-1.4,8.1c1.2,3.8-0.8,5.2-2.9,7.5
	c-2.3,2.4-3.6,5.7-5.5,8.4c-1.1,1.6-2.6,3-4,4.5c-1-4.1-3.2-7.3-6.9-9.8c-1.2-0.8-1.8-3.6-1.5-5.2c1.5-7.9,3.5-15.7,5.2-23.5
	c0.1-0.3,0.1-0.7,0.1-1c0-2.4-0.8-6.4,0.1-6.8c3.2-1.6,6.9-2,10.5-2.6c1.6-0.3,3.5,0.3,5-0.2c1.7-0.6,3.1-1.9,4.6-2.9
	C109.1,448,110.8,448.1,112.5,448.2z"/>
<path class="st3" d="M74,515.8c0.6,4.6-1.4,7.9-5.1,10.4c-4,0.9-8,1.8-12.1,2.6c-3.4,0.6-6-0.2-5.8-4.5c4.7-2.1,9.2-4.4,14-6.2
	C67.9,517,71,516.5,74,515.8z"/>
<path class="st3" d="M132.5,525c2.3-1.1,4.6-2.1,6.9-3.2c-1.8,8.5-1.8,8.5,7.1,10.6c5,1.2,5,1.2,5.1,4.5
	c-11.2,0.4-22.3,0.7-33.5,1.1c-13-2.4-26.1-4.9-39.1-7.3c1.9-1.1,3.9-2.1,5.8-3.2c2.9-2.6-5.3-5.9,0.3-9.6
	c3.8,9.6,12.1,12,21.3,12.8c6,0.5,12,0.9,18,1.2C129.2,532.2,131.8,529.6,132.5,525z"/>
<path class="st9" d="M118.1,538.1c11.2-0.4,22.3-0.7,33.5-1.1c-2.5,1-4.9,2.7-7.4,2.9c-8.3,0.4-16.6,0.2-24.9,0.2
	C118.9,539.4,118.5,538.7,118.1,538.1z"/>
<path class="st18" d="M293.7,737c-3.7-0.7-7.4-1.4-11.1-2c-2.6-1.6-5.1-3.4-7.9-4.7c-5.3-2.6-10.8-4.8-16.2-7.2
	c-2.8-0.9-5.7-1.9-8.5-2.7c-13.9-4.4-28-7-42.7-4.5c-2,0.3-4.2-0.6-6.3-1c-0.3-1.1-0.4-2.7-1.1-3.1c-7.6-4-15.3-7.9-23-11.8
	c-4.4,0-8.9-0.7-13.2,0.1c-7.8,1.5-15.4,3.9-23.1,5.9c0-4.3,0-8.6,0-13c19.6,0,39.1,0.1,58.7,0c10.6-0.1,21.2-0.6,31.8-0.9
	c-0.9,2.8-1.7,5.6-2.6,8.5c-2,6-1,7.5,5.3,7.5c5.7,0,11.4,0,17,0c1.5,9,1.5,9,10.6,9c1.7,0,3.3-0.1,5-0.1c2.4,0,4.8,0,7.3,0
	c1.9,0,3.8,0,5.7,0c3.1,0.1,6.2,0.1,9.3,0.2c17.5,0.3,34.9,0.7,52.4,1c9.7,2,19.3,3.9,29,5.8c0.7,0.1,1.5-0.5,2.3-0.8
	c1.7,0,3.3,0,5,0.1c1,0.4,2.1,0.7,3.1,1.1c5,1,10,1.9,15,2.9c5.4,1,10.8,1.8,16.1,3.1c1.6,0.4,2.7,2.5,4.1,3.8
	c-36,0-72.1-0.1-108.1,0.1C303,734.2,298.3,736,293.7,737z"/>
<path class="st26" d="M251.5,661.9c6,0.4,12,0.7,18,1.1c4.2,0.3,6.5-1.6,7.5-5.7c2.1-8.4,4.3-16.7,6.6-25.1c0.3-1.1,1.5-2,2.4-3
	c0.5,1.1,1.4,2.1,1.6,3.2c0.5,2.9,0.9,5.9,1,8.9c0.3,6.1,0.5,12.3-2.7,18c-1.2,2-1.4,4.6-2.1,6.9c0.6,0.3,1.2,0.6,1.8,1
	c1.4-2.1,2.7-4.3,4.1-6.4c1.6-2.2,2.8-5.5,4.9-6.3c13-5,26.1-9.4,39.3-13.9c4-1.4,6.7-0.7,6.4,4.3c-0.5,9.1-0.9,18.1-1.5,27.2
	c-0.2,3.3,0,6.8-1,9.9c-0.8,2.5-2.7,6.1-4.8,6.7c-13.5,3.8-27.2,7-40.9,10.3c-1.1,0.3-2.3,0.1-3.5,0.1c0.5-4.3,0.4-8.7,1.7-12.7
	c3-8.9,1.9-11.3-7-13c-0.6-0.1-1.3,0-2-0.1c-8.1-0.6-16.2-1.3-24.3-1.8c-2.6-0.2-6.2-1.4-5.6,3.6c-0.6,1.7-1.2,4.7-2,4.8
	c-3.8,0.1-7.7-0.5-11.5-0.8c2.4-4,4.8-7.9,7.1-11.9C249,667.4,252.2,667.1,251.5,661.9z"/>
<path class="st27" d="M238,678.8c3.8,0.4,7.7,1,11.5,0.8c0.7,0,1.3-3.1,2-4.8c2.8,0,5.6,0.3,8.4,0.1c7.2-0.5,14.3-1.2,21.5-1.8
	c0.7,0,1.4-0.1,2,0.1c8.9,1.7,10,4.1,7,13c-1.3,4-1.2,8.5-1.7,12.7c-2.6,3.3-5.3,6.6-7.6,10.1c-0.9,1.4-0.9,3.3-1.3,5
	c-0.1,0.9-0.2,1.8-0.4,2.8c-1.9,0-3.8,0-5.7,0c-1-1.8-1.9-3.6-3.6-6.8c-1.6,2.9-2.6,4.9-3.6,6.8c-1.7,0-3.3,0.1-5,0.1
	c-9.2,0-9.2,0-10.6-9c-5.6,0-11.3,0-17,0c-6.3-0.1-7.3-1.5-5.3-7.5c0.9-2.8,1.8-5.6,2.6-8.5C233.4,687.6,235.7,683.2,238,678.8z"/>
<path class="st22" d="M140.6,693c0,4.3,0,8.6,0,13c-3.7,0.7-7.5,1.3-11.2,2c1.7-9.3,3.4-18.6,5.2-27.8c0.3-1.7,1-3.5,2.2-4.6
	c0.4-0.4,3.1,0.4,3.8,1.4c0.9,1.2,1,3.1,0.9,4.8C141.3,685.4,140.9,689.2,140.6,693z"/>
<path class="st11" d="M251.5,661.9c0.8,5.2-2.4,5.5-6.3,5c0.1-1,0.1-1.9,0.2-2.9c1.7-2.1,3.4-4.3,5.6-7
	C251.2,659,251.3,660.4,251.5,661.9z"/>
<path class="st3" d="M70.2,649c0-2,0-4,0-6C73,645,73,647,70.2,649z"/>
<path class="st25" d="M201,714.9c2.1,0.4,4.3,1.3,6.3,1c14.7-2.5,28.8,0.1,42.7,4.5c2.9,0.9,5.7,1.8,8.5,2.7
	c-1.4,1.3-2.5,3.3-4.1,3.6c-3.5,0.9-7.2,1.2-10.9,1.3c-13.5,0.2-27.1,0.1-40.6,0.2c-7.7-4-15.3-8.1-23-12.1c0.3-0.4,0.7-0.8,1-1.2
	C187.5,714.8,194.2,714.9,201,714.9z"/>
<path class="st7" d="M201,714.9c-6.7,0-13.4,0-20.1,0c-1.3-5-2.6-9.9-4-14.9c7.7,3.9,15.4,7.7,23,11.8
	C200.6,712.1,200.6,713.8,201,714.9z"/>
<path class="st3" d="M571.8,724c4.8-1.3,4.9-5.6,6-9.3c1-3.2,2.2-6.4,3.3-9.6c0.7-0.2,1.4-0.5,2.6-0.8c-0.4,2.1-0.7,3.7-1,5.3
	c-1.6,8.5-3.1,16.9-4.7,25.4c-8.6,0.7-17.2,1.4-25.9,1.9c-1.7,0.1-3.5-0.6-5.3-0.9c7-1.1,14.1-2.1,21.1-3.3
	C575.4,731.5,576,730,571.8,724z"/>
<path class="st9" d="M528.5,726c1.9-0.7,3.8-1.9,5.7-1.9c11.9-0.2,23.7-0.1,35.6-0.1c-0.9,1-1.9,2.8-2.8,2.8
	C554.2,726.7,541.3,726.3,528.5,726z"/>
<path class="st3" d="M542.6,740.1c0.4-1,0.9-1.9,1.3-2.9c0.2,1,0.5,2,0.7,3C543.9,740.1,543.3,740.1,542.6,740.1z"/>
<path class="st4" d="M577.9,735c1.6-8.5,3.1-16.9,4.7-25.4c0.3-1.6,0.6-3.2,1-5.3c-1.1,0.4-1.9,0.6-2.6,0.8
	c-0.1-0.7-0.2-1.4-0.2-2.1c2.6-4,5.2-8,7.8-12c0.5,5.1,1.2,10.3,1.4,15.4c0.2,5.4,1.1,6.3,6.5,5.6c1.8-0.2,3.7,0.1,5.6,0.1
	c3.5,4,7,8,10.3,12.1c0.6,0.8,0.8,2.3,0.6,3.3c-1.4,5.1,1.8,5.6,5.5,5.5c1,0,2-0.3,2.9-0.6c6.6-1.8,7.3-1.3,7.9,5.6
	c-5.1,0.3-10.2,0.6-15.4,0.8c-1.3,0-2.5-0.5-3.8-0.8c-5.5-1.2-6.5-5.3-6.1-10.8c-1.4,1.1-2.5,1.6-2.9,2.3
	c-4.7,9.7-13.2,6.3-20.8,5.8C579.5,735.2,578.7,735.1,577.9,735z"/>
<path class="st7" d="M669.7,710.8c8.4,2.4,16.9,4.8,25.3,7.1c4.7,1.3,9.5,2.1,14,3.9c1.7,0.7,2.7,3.3,4,5.1c1.7,7.3,3.4,14.7,5.1,22
	c-9.6,1-19.2,1.9-28.8,3c-7,0.8-11.7-2.2-14.5-10.1c-0.4-1.2-0.8-2.5-1.2-3.8c-0.3-3.3-0.5-6.6-1.1-9.9c-0.8-4.6-3.3-7.4-8.5-7.2
	c-7.2,0.2-14.4,0.1-21.6,0.1c-0.3-3-0.7-5.9-1-8.9c4.4-0.1,8.8-0.1,13.2-0.2c2.4-0.6,4.7-1.3,7.1-1.9
	C664.3,710.3,667,710.6,669.7,710.8z"/>
<path class="st27" d="M602.1,712.1c-1.9-0.1-3.7-0.4-5.6-0.1c-5.4,0.7-6.3-0.2-6.5-5.6c-0.2-5.2-0.9-10.3-1.4-15.4
	c0.6-3.6,1.3-7.2,1.9-10.8c4.2-0.1,8.4-0.1,12.6-0.2c6-1.8,8.8,0.4,8,6.4c-0.6,3.9-1.2,7.8-1.9,11.8c-1.3,3.6-2.6,7.3-4,10.9
	c-0.1,0.9-0.2,1.8-0.3,2.7C603.9,711.9,603,712,602.1,712.1z"/>
<path class="st8" d="M642.4,721.1c7.2,0,14.4,0.1,21.6-0.1c5.2-0.2,7.7,2.6,8.5,7.2c0.6,3.2,0.7,6.6,1.1,9.9c-6,0-12-0.4-18,0.1
	c-3.5,0.3-6.9,1.9-10.3,2.9c-0.6-1.3-1.7-2.5-1.8-3.9C643,731.8,642.7,726.4,642.4,721.1z"/>
<path class="st3" d="M604.9,711.8c0.1-0.9,0.2-1.8,0.3-2.7c16.6,0,33.2,0,49.7,0c-0.1,0.9-0.2,1.9-0.4,2.8
	c-4.4,0.1-8.8,0.1-13.2,0.2C629.2,712,617,711.9,604.9,711.8z"/>
<path class="st3" d="M202.9,728.1c13.5,0,27.1,0,40.6-0.2c3.6,0,7.4-0.4,10.9-1.3c1.6-0.4,2.8-2.4,4.1-3.6
	c5.4,2.4,10.9,4.7,16.2,7.2c2.8,1.3,5.3,3.1,7.9,4.7c-15.4,0.7-30.7,1.6-46.1,1.8c-2.8,0-5.7-2.7-9.5-3.5c1,1.6,2.1,3.2,2.9,4.9
	c0.7,1.5,1.2,3.1,1.8,4.6c-1.7,0.2-3.4,0.4-5.1,0.5c-0.5,0-1-0.1-1.5-0.1c-5.9-3.3-11.9-6.5-17.7-10.1
	C205.6,731.9,204.3,729.8,202.9,728.1z"/>
<path class="st11" d="M381.4,696.9c0-4.2-0.1-8.4,0.1-12.6c0.1-2.8,0.6-5.5,0.9-8.3c0.7-6.9,1.4-13.7,2.2-20.6
	c0.1-0.5,0.9-0.9,1.3-1.3c0.2,11.3,0.4,22.6,0.7,33.9c-0.1,3.6-0.2,7.3-0.3,10.9C384.7,698.2,383.1,697.6,381.4,696.9z"/>
<path class="st11" d="M374.4,713c1.4-1.5,2.7-3.3,4.3-4.6c2.4-1.9,5-3.6,7.6-5.3c-0.2,4.7-0.5,9.3-0.7,14c-2.7,0-5.4,0-8.1,0
	c-1.6-0.1-3.2-0.1-4.9-0.2C373.2,715.6,373.8,714.3,374.4,713z"/>
<path class="st3" d="M377.4,717.1c2.7,0,5.4,0,8.1,0c-0.2,3.4,0.8,7.6-5,7.1c-1-0.4-2.1-0.7-3.1-1.1
	C377.4,721,377.4,719.1,377.4,717.1z"/>
<path class="st24" d="M654.9,709.1c-16.6,0-33.2,0-49.7,0c1.3-3.6,2.6-7.3,4-10.9c8.1-2.5,16.2-4.9,24.3-7.5
	c0.8-0.2,1.6-1.4,1.7-2.2c0.8-10.4,1.5-20.8,2-31.3c0-0.8-3-2.8-3.4-2.5c-8.7,5.7-21.4,6.2-25,18.5c0,0.1-0.6,0.1-1.6,0.3
	c2.8-9,3.6-17.8,0.8-26.6c-1.3,4.2-2.1,8.4-2.8,12.6c-2,11.3-2,11.3-13.7,11.6c-0.3,0-0.7,0.1-1,0.1c0.1-8,0.1-16.1,0.2-24.1
	c5-0.6,10.4,1.2,16.6-2c-2.5-1.4-4-2-5.1-3c-1.2-1.2-2-2.8-3-4.2c5.7-6.2,11.3-12.5,16.9-18.8c0.7-0.8,0.9-2.1,1.3-3.2
	c4.1,1.8,8.2,3.5,12.3,5.3c-1.1,1.9-2.2,3.8-3.4,5.7c-9.1,5.3-10.6,12.2-4.3,23.5c2.5-1.4,5-2.8,7.5-4.2c1-0.6,2-1.3,3-1.9
	c4.8,0,6.3-2.6,6.1-7c-0.2-7.1-0.1-14.1-0.1-21.2c0.7,1.3,1.9,2.6,2,3.9c0.2,7.5,0.2,15,0.1,22.4c-0.3,14.4-0.8,28.7-1,43.1
	c0,1.8,1,4.7,2.3,5.3c5.5,2.4,11.2,4.1,16.9,6.1c0.9,0.7,1.9,1.3,2.8,2c0,1.1,0,2.1,0.1,3.2C659.3,704.4,657.1,706.7,654.9,709.1z"
	/>
<path class="st26" d="M590.4,671.1c0.3,0,0.7-0.1,1-0.1c11.7-0.3,11.7-0.3,13.7-11.6c0.7-4.2,1.6-8.4,2.8-12.6
	c2.8,8.8,2,17.6-0.8,26.6c1.1-0.2,1.6-0.2,1.6-0.3c3.6-12.4,16.3-12.9,25-18.5c0.4-0.3,3.4,1.7,3.4,2.5c-0.4,10.4-1.2,20.9-2,31.3
	c-0.1,0.8-0.9,2-1.7,2.2c-8.1,2.6-16.2,5-24.3,7.5c0.6-3.9,1.3-7.8,1.9-11.8c0.9-6-1.9-8.2-8-6.4c-4.2-0.7-8.4-1.5-12.6-2.2
	C590.4,675.6,590.4,673.3,590.4,671.1z"/>
<path class="st23" d="M599,637.9c1,1.4,1.8,3,3,4.2c1.1,1,2.6,1.6,5.1,3c-6.2,3.2-11.5,1.3-16.6,2c-0.1-10.4-0.1-20.8-0.2-31.3
	c1.1,0,2.2,0.1,3.3,0.1c1.8,0,3.6,0.1,5.3,0.1c-1.3,7.4-2.6,14.8-4,22.8C596.9,638.4,597.9,638.2,599,637.9z"/>
<path class="st23" d="M590.4,677.8c4.2,0.7,8.4,1.5,12.6,2.2c-4.2,0.1-8.4,0.1-12.6,0.2C590.5,679.4,590.5,678.6,590.4,677.8z"/>
<path class="st9" d="M661.5,702c0-1.1,0-2.1-0.1-3.2c0.1-11.9,0.2-23.8,0.3-35.7c0.9,0,1.7,0,2.6,0c0.1,0.6,0.2,1.3,0.4,1.9
	c0.4,4,0.9,7.9,1.3,11.9c1.3,11.3,2.6,22.7,3.8,34c-2.7-0.3-5.4-0.6-8.1-0.8C661.6,707.4,661.5,704.7,661.5,702z"/>
<path class="st17" d="M664.2,663c-0.9,0-1.7,0-2.6,0c-0.1-0.3-0.2-0.6-0.3-0.9c0-4,0-8.1,0-12.1c0-0.3,0.1-0.7,0.1-1
	C662.4,653.7,663.3,658.4,664.2,663z"/>
<path class="st13" d="M661.4,650c0,4,0,8.1,0,12.1c-0.9,11.6-1.9,23.1-2.8,34.7c-5.7-2-11.4-3.7-16.9-6.1c-1.3-0.6-2.3-3.5-2.3-5.3
	c0.2-14.4,0.7-28.7,1-43.1c0.1-7.5,0.1-15-0.1-22.4c0-1.3-1.3-2.6-2-3.9c-1,0-2,0-3.1,0c0-2.7,0-5.4,0.1-8.1
	c6.4-2.3,12.7-4.8,19.2-6.6c1.3-0.4,4.1,1.5,4.9,3.1c0.7,1.5,0.4,4.4-0.6,5.6c-1.8,2.2-4.6,3.6-7.7,5.9c5.1-0.6,5.5,2.1,5.5,5.9
	c0,10.3,0.6,20.5,0.9,30.8c0,1.1,0.6,2.2,2.1,3.3C660.2,653.8,660.8,651.9,661.4,650z"/>
<path class="st17" d="M635.3,607.9c0,2.7,0,5.4-0.1,8.1c-1.3,1.7-2.6,3.4-3.9,5.2c-0.6,0-1.2,0.1-1.8,0.1c-4.1-1.8-8.2-3.5-12.3-5.3
	c-3,0.1-5.7,0.2-7.5-3.3c-1.3-2.6-4.4-2.6-5.3,0.4c-1,3.3-3.1,2.8-5.4,2.9c-1.8,0-3.6-0.1-5.3-0.1c-0.5-5.2,2.5-7.2,7.1-7.7
	c1-0.1,2.1-0.4,3-0.1C614.3,612.4,624.8,606.7,635.3,607.9z"/>
<path class="st12" d="M197.1,539.1c-4.5,2.5-8.9,5.2-13.6,7.3c-0.8,0.4-3.8-1.5-4-2.7c-1.8-8.7-3.1-17.6-4.5-26.4
	c-0.1-0.9,0.3-2.1,0.9-2.7c5.3-5,10.7-9.8,16-14.7C193.6,513,195.4,526,197.1,539.1z"/>
<path class="st12" d="M204.1,483.1c1.7-2.5,3.3-5.2,5-7.6c1.1-1.6,2.6-2.9,3.9-4.4c-0.2,5,0.4,9.8-0.4,15c-1.2,7.7,0.9,16,1.5,24
	c0.1,3.3,0.2,6.7,0.3,10c0,1.6,0.1,3.2,0.1,4.9c0,1,0,2.1,0,3.1c-0.2,0.6-0.4,1.3-0.6,1.9c-3.6,1.8-7.3,3.5-10.9,5.3
	c-0.7-15.4-1.4-30.9-2.1-46.3C202,487,203.1,485,204.1,483.1z"/>
<path class="st11" d="M318.7,604.7c4.9,0.7,4.1,5.2,4.8,8.1c1.4,5.3,1.8,10.9,2.6,16.4c-4.5,1.8-8.8,3.8-13.4,5.1
	c-1.2,0.4-4.1-1.1-4.5-2.2c-1.7-5.1-2.8-10.5-4-15.8c-0.2-1,0.1-2.7,0.7-3.1C309.4,610.3,314.1,607.5,318.7,604.7z"/>
<path class="st14" d="M273.6,590.2c10,0,20,0,30,0c-2.1,1.9-4.1,3.9-6.2,5.7c-7.6,6.3-15.1,12.5-22.9,18.6c-1.6,1.3-3.8,1.8-5.8,2.7
	c-0.1-1.8-0.6-3.7-0.2-5.4C270,604.5,271.8,597.3,273.6,590.2z"/>
<path class="st13" d="M201,488.9c0.7,15.4,1.4,30.9,2.1,46.3c-2,1.3-4,2.6-6,3.9c-1.7-13.1-3.4-26.1-5.2-39.2
	c1.7-3.3,3.4-6.6,5.2-9.8C198.4,489.7,199.7,489.3,201,488.9z"/>
<path class="st17" d="M374.4,713c-0.6,1.3-1.3,2.6-1.9,3.9c-1.4,0-2.8,0.1-4.2,0.1c-1.5-0.7-3-1.9-4.5-1.9
	c-23.5-0.1-47.1-0.1-70.6,0c-1.5,0-3,1.2-4.5,1.9c-3.1-0.1-6.2-0.1-9.3-0.2c0.1-0.9,0.2-1.8,0.4-2.8c2.3-0.4,4.6-1,6.9-1
	C315.9,713,345.2,713,374.4,713z"/>
<path class="st3" d="M201,488.9c-1.3,0.4-2.6,0.8-3.9,1.1c-6.1-3.8-12.3-7.5-18.4-11.3c1-1.6,2.1-3.2,3.1-4.8
	c4.2,1.4,8.5,2.5,12.6,4.2c3.4,1.4,6.5,3.3,9.7,4.9C203.1,485,202,487,201,488.9z"/>
<path class="st4" d="M273.6,590.2c-1.7,7.2-3.5,14.3-5.1,21.5c-0.4,1.7,0.1,3.6,0.2,5.4c-0.4,0.4-0.8,0.7-1.1,1.1
	c-2,0.6-4.1,1.2-6.1,1.8c0-1.6,0.1-3.2,0.1-4.8c0.5-1.1,1.1-2.2,1.6-3.2c1.5-7.3,2.9-14.5,4.4-21.8
	C269.6,590.1,271.6,590.2,273.6,590.2z"/>
<path class="st3" d="M263.3,611.9c-0.5,1.1-1.1,2.2-1.6,3.2C262.2,614.1,262.7,613,263.3,611.9z"/>
<path class="st24" d="M214.5,520.1c-0.1-3.3-0.2-6.7-0.3-10C214.3,513.4,214.4,516.7,214.5,520.1z"/>
<path class="st24" d="M214.6,528.1c0-1,0-2.1,0-3.1C214.6,526,214.6,527,214.6,528.1z"/>
<path class="st3" d="M288.7,717c1.5-0.7,3-1.9,4.5-1.9c23.5-0.1,47.1-0.1,70.6,0c1.5,0,3,1.3,4.5,1.9c0,0.4-0.1,0.7-0.1,1.1
	c-2.6-0.3-5.3-0.8-7.9-0.8c-6.4,0.1-12.8,0.4-19.2,0.7C323.6,717.6,306.1,717.3,288.7,717z"/>
<path class="st9" d="M341.1,718c6.4-0.2,12.8-0.6,19.2-0.7c2.6,0,5.3,0.5,7.9,0.8c1.4,1.6,2.8,3.3,4.2,4.9c-0.8,0.3-1.6,1-2.3,0.8
	C360.4,721.9,350.7,719.9,341.1,718z"/>
<path class="st24" d="M372.4,723c-1.4-1.6-2.8-3.3-4.2-4.9c0-0.4,0.1-0.7,0.1-1.1c1.4,0,2.8-0.1,4.2-0.1c1.6,0,3.2,0.1,4.9,0.2
	c0,2,0,4,0,6C375.7,723,374,723,372.4,723z"/>
<path class="st23" d="M266.4,716.9c1-2,2.1-3.9,3.6-6.8c1.7,3.2,2.7,5,3.6,6.8C271.3,716.9,268.8,716.9,266.4,716.9z"/>
<path class="st23" d="M281.4,673.1c-7.2,0.6-14.3,1.3-21.5,1.8c-2.8,0.2-5.6,0-8.4-0.1c-0.6-5,2.9-3.7,5.6-3.6
	C265.2,671.8,273.3,672.5,281.4,673.1z"/>
<path class="st11" d="M661.5,702c0.1,2.7,0.1,5.3,0.2,8c-2.4,0.6-4.7,1.3-7.1,1.9c0.1-0.9,0.2-1.9,0.4-2.8
	C657.1,706.7,659.3,704.4,661.5,702z"/>
<path class="st14" d="M599,616c2.3-0.1,4.4,0.4,5.4-2.9c0.9-2.9,4-3,5.3-0.4c1.8,3.5,4.5,3.4,7.5,3.3c-0.4,1.1-0.6,2.4-1.3,3.2
	c-5.6,6.3-11.3,12.5-16.9,18.8c-1.1,0.2-2.2,0.4-4,0.8C596.4,630.8,597.7,623.4,599,616z"/>
<path class="st11" d="M629.4,646.1c-2.5,1.4-5,2.8-7.5,4.2c-6.2-11.3-4.8-18.2,4.3-23.5C627.2,633.3,628.3,639.7,629.4,646.1z"/>
<path class="st11" d="M631.4,621.1c1.3-1.7,2.6-3.4,3.9-5.2c1,0,2,0,3.1,0c0,7.1-0.1,14.1,0.1,21.2c0.1,4.4-1.3,7.1-6.1,7
	C632,636.5,631.7,628.8,631.4,621.1z"/>
<path class="st13" d="M631.4,621.1c0.3,7.7,0.6,15.4,1,23.1c-1,0.6-2,1.3-3,1.9c-1.1-6.4-2.1-12.8-3.2-19.2c1.1-1.9,2.2-3.8,3.4-5.7
	C630.1,621.2,630.7,621.2,631.4,621.1z"/>
<path class="st11" d="M658.6,696.8c0.9-11.6,1.9-23.1,2.8-34.7c0.1,0.3,0.2,0.6,0.3,0.9c-0.1,11.9-0.2,23.8-0.3,35.7
	C660.4,698.1,659.5,697.5,658.6,696.8z"/>
<g>
	<g>
		<path class="st28" d="M157.6,358.8V280h11.2v78.7H157.6z M167.5,334.4v-10.5h12.6c5.9,0,10.3-1.5,13.3-4.5c3-3,4.5-7.4,4.5-13.2
			c0-5.1-1.5-9-4.5-11.6c-3-2.6-7.4-3.9-13.3-3.9h-12.3V280h12.3c9.5,0,16.8,2.2,21.7,6.6c4.9,4.4,7.4,10.9,7.4,19.5
			c0,9.3-2.5,16.3-7.4,21.1c-4.9,4.8-12.2,7.2-21.7,7.2H167.5z"/>
		<path class="st28" d="M250.6,359.9c-9.7,0-17.2-2.6-22.5-7.9s-7.9-12.8-7.9-22.7c0-9.6,2.2-17.1,6.7-22.4c4.5-5.3,10.8-8,18.9-8
			c7.7,0,13.6,2.4,17.8,7.2c4.2,4.8,6.3,11.8,6.3,21c0,2.7-0.1,5.2-0.3,7.5h-39.9v-9h29.9c0-5.3-1.2-9.3-3.6-12.2
			c-2.4-2.8-5.8-4.2-10.1-4.2c-4.8,0-8.6,1.7-11.2,5.1c-2.7,3.4-4,8.2-4,14.4c0,6.8,1.8,12,5.5,15.5c3.7,3.5,8.9,5.3,15.6,5.3
			c2.4,0,4.7-0.1,7-0.4c2.3-0.3,4.6-0.7,7-1.1l1.4,10.3c-3.4,0.7-6.4,1.1-9.2,1.3C255.2,359.8,252.7,359.9,250.6,359.9z"/>
		<path class="st28" d="M282.1,358.8v-10.3h38v10.3H282.1z M284.2,310.3V300h19l1.1,10.3H284.2z M294.8,358.8V300h9.2l2.1,16.9v41.9
			H294.8z M306.1,333.5l-3.3-18.4h4.4c0.6-10.8,5.9-16.2,15.7-16.2c5.9,0,10.1,1.7,12.8,5.2c2.6,3.5,4,9.1,4,16.9h-11.3
			c0-4.3-0.6-7.4-1.9-9.3c-1.2-1.9-3.2-2.8-6-2.8c-4.8,0-8.4,2.1-10.8,6.4C307.3,319.5,306.1,325.6,306.1,333.5z"/>
		<path class="st28" d="M370,359.9c-4.3,0-8-0.1-11-0.4c-3.1-0.3-5.9-0.7-8.4-1.3l1.3-10.6c3.8,0.6,7.1,1,10,1.3
			c2.9,0.3,5.6,0.4,8.2,0.4c5.8,0,9.9-0.6,12.5-1.7c2.6-1.2,3.9-3,3.9-5.6c0-1.8-0.5-3.1-1.4-4c-0.9-0.9-2.3-1.5-4.2-2l-13.1-3.4
			c-5.6-1.5-9.7-3.3-12.4-5.5c-2.6-2.2-3.9-5.5-3.9-9.9c0-6.4,2.4-11.1,7.2-14c4.8-2.9,12.5-4.3,23.1-4.3c2.8,0,5.3,0.1,7.7,0.2
			c2.4,0.2,4.8,0.5,7.3,0.9l-1.2,10.2c-2.9-0.3-5.5-0.5-7.7-0.6s-4.4-0.2-6.5-0.2c-6.4,0-11,0.6-13.8,1.7c-2.9,1.1-4.3,3-4.3,5.5
			c0,1.7,0.6,2.9,1.8,3.7c1.2,0.8,3,1.5,5.4,2.1l10.5,2.7c6,1.5,10.3,3.5,13.1,5.9c2.8,2.5,4.2,6.1,4.2,10.8
			c0,6.3-2.2,10.9-6.7,13.8C387,358.4,379.9,359.9,370,359.9z"/>
		<path class="st28" d="M438.8,359.9c-7.9,0-14-2.7-18.3-8c-4.4-5.3-6.5-12.8-6.5-22.5c0-9.7,2.2-17.2,6.5-22.5
			c4.4-5.3,10.5-8,18.3-8c7.9,0,14,2.7,18.4,8c4.3,5.3,6.5,12.8,6.5,22.5c0,9.7-2.2,17.2-6.5,22.5S446.7,359.9,438.8,359.9z
			 M438.8,349.3c4.2,0,7.4-1.7,9.7-5.2c2.3-3.5,3.4-8.4,3.4-14.7c0-6.4-1.1-11.3-3.4-14.8c-2.3-3.5-5.5-5.2-9.7-5.2
			s-7.4,1.7-9.7,5.2c-2.3,3.5-3.4,8.4-3.4,14.8c0,6.4,1.1,11.3,3.4,14.7C431.3,347.6,434.6,349.3,438.8,349.3z"/>
		<path class="st28" d="M480,358.8V300h10.3l1.1,12.4v46.3H480z M514.9,358.8v-38.2c0-3.5-0.9-6.3-2.7-8.2c-1.8-1.9-4.3-2.9-7.5-2.9
			c-8.9,0-13.4,5.4-13.4,16.3l-3.3-15.1h4.4c0.3-4,1.7-6.9,4.2-8.8s6.1-2.9,10.8-2.9c6,0,10.7,1.9,13.9,5.7c3.3,3.8,4.9,9.1,4.9,16
			v38.2H514.9z"/>
		<path class="st28" d="M559.1,359.9c-5.9,0-10.5-1.5-13.8-4.4c-3.3-3-4.9-7.1-4.9-12.5c0-6.2,2.2-11,6.7-14.3c4.5-3.3,10.8-5,19-5
			c3.4,0,6.4,0.2,9.1,0.6c2.7,0.4,5,1.1,7.1,1.9l-2.4,8c-2.4-0.6-4.7-0.9-7-1c-2.3-0.1-4.6-0.1-7-0.1c-9.9,0-14.8,3.1-14.8,9.3
			c0,2.6,0.8,4.6,2.5,6c1.7,1.4,4.1,2.1,7.2,2.1c3.5,0,6.5-0.6,8.9-1.9c2.4-1.3,4.2-2.9,5.3-4.8c1.2-2,1.8-4,1.8-6v-6.4l3.3,15.1
			h-4.5l1.8-1.8c0,3.4-0.8,6.2-2.3,8.5c-1.5,2.3-3.7,4-6.4,5.1C566.2,359.3,562.9,359.9,559.1,359.9z M579.2,359.3l-0.8-17.4
			L577,337v-15.2c0-3.9-1.3-6.8-4-8.6s-6.6-2.8-11.9-3l-13.6-0.4l1.1-10.4l11.5,0.2c9.4,0.1,16.4,2.2,21,6.3s6.8,9.9,6.8,17.7v24.5
			l9.7,1.2v9.4L579.2,359.3z"/>
		<path class="st28" d="M605,285.9v-10.3h17.7v10.3H605z M640.4,359.9c-6.6,0-11.3-1.8-14.3-5.5c-2.9-3.7-4.4-9.6-4.4-17.7v-61h11.4
			V336c0,3.1,0.3,5.6,0.9,7.6c0.6,2,1.7,3.4,3.4,4.3c1.7,0.9,4.1,1.4,7.4,1.4c3,0,6.8-0.7,11.4-2.1l1.3,10.3
			c-2.9,0.8-5.7,1.4-8.3,1.8C646.3,359.7,643.5,359.9,640.4,359.9z"/>
		<path class="st28" d="M125.4,495v-78.7h11.2V495H125.4z M135.3,470.6v-10.5h12.6c5.9,0,10.3-1.5,13.3-4.5c3-3,4.5-7.4,4.5-13.2
			c0-5.1-1.5-9-4.5-11.6c-3-2.6-7.4-3.9-13.3-3.9h-12.3v-10.5h12.3c9.5,0,16.8,2.2,21.7,6.6c4.9,4.4,7.4,10.9,7.4,19.5
			c0,9.3-2.5,16.3-7.4,21.1c-4.9,4.8-12.2,7.2-21.7,7.2H135.3z"/>
		<path class="st28" d="M213.4,496.1c-7.9,0-14-2.7-18.3-8c-4.4-5.3-6.5-12.8-6.5-22.5c0-9.7,2.2-17.2,6.5-22.5
			c4.4-5.3,10.5-8,18.3-8c7.9,0,14,2.7,18.4,8c4.3,5.3,6.5,12.8,6.5,22.5c0,9.7-2.2,17.2-6.5,22.5S221.3,496.1,213.4,496.1z
			 M213.4,485.5c4.2,0,7.4-1.7,9.7-5.2c2.3-3.5,3.4-8.4,3.4-14.7c0-6.4-1.1-11.3-3.4-14.8c-2.3-3.5-5.5-5.2-9.7-5.2
			s-7.4,1.7-9.7,5.2c-2.3,3.5-3.4,8.4-3.4,14.8c0,6.4,1.1,11.3,3.4,14.7C206,483.8,209.2,485.5,213.4,485.5z"/>
		<path class="st28" d="M249.9,495v-10.3h38V495H249.9z M252.1,446.5v-10.3h19l1.1,10.3H252.1z M262.6,495v-58.8h9.2l2.1,16.9V495
			H262.6z M273.9,469.7l-3.3-18.4h4.4c0.6-10.8,5.9-16.2,15.7-16.2c5.9,0,10.1,1.7,12.8,5.2c2.6,3.5,4,9.1,4,16.9h-11.3
			c0-4.3-0.6-7.4-1.9-9.3c-1.2-1.9-3.2-2.8-6-2.8c-4.8,0-8.4,2.1-10.8,6.4C275.1,455.8,273.9,461.8,273.9,469.7z"/>
		<path class="st28" d="M313.8,446.5v-10.3h51.5v10.3H313.8z M328,467.3v-48.8h11.4v48.8H328z M352.5,496.1
			c-8.6,0-14.9-1.8-18.7-5.5c-3.8-3.7-5.8-9.6-5.8-17.7v-10h11.4v9.4c0,4.7,1.1,8,3.3,10.1c2.2,2.1,5.8,3.2,10.9,3.2
			c1.8,0,3.7-0.1,5.7-0.3s4.3-0.5,6.9-0.8l1.3,10.3c-2.5,0.4-4.9,0.8-7.3,1C357.7,496,355.2,496.1,352.5,496.1z"/>
		<path class="st28" d="M378,459.5v-10.3h52.6v10.3H378z M395.9,495v-53.8c0-20.3,9-30.5,26.9-30.5c4.1,0,8,0.4,11.8,1.1l-1.2,10.2
			c-2.3-0.3-4.2-0.5-6-0.6c-1.7-0.1-3.4-0.2-5-0.2c-10.2,0-15.2,6.5-15.2,19.4V495H395.9z"/>
		<path class="st28" d="M470.9,496.1c-7.9,0-14-2.7-18.3-8c-4.4-5.3-6.5-12.8-6.5-22.5c0-9.7,2.2-17.2,6.5-22.5
			c4.4-5.3,10.5-8,18.3-8c7.9,0,14,2.7,18.4,8c4.3,5.3,6.5,12.8,6.5,22.5c0,9.7-2.2,17.2-6.5,22.5S478.9,496.1,470.9,496.1z
			 M470.9,485.5c4.2,0,7.4-1.7,9.7-5.2c2.3-3.5,3.4-8.4,3.4-14.7c0-6.4-1.1-11.3-3.4-14.8c-2.3-3.5-5.5-5.2-9.7-5.2
			s-7.4,1.7-9.7,5.2c-2.3,3.5-3.4,8.4-3.4,14.8c0,6.4,1.1,11.3,3.4,14.7C463.5,483.8,466.8,485.5,470.9,485.5z"/>
		<path class="st28" d="M508.4,422.1v-10.3h17.7v10.3H508.4z M543.8,496.1c-6.6,0-11.3-1.8-14.3-5.5c-2.9-3.7-4.4-9.6-4.4-17.7v-61
			h11.4v60.4c0,3.1,0.3,5.6,0.9,7.6c0.6,2,1.7,3.4,3.4,4.3c1.7,0.9,4.1,1.4,7.4,1.4c3,0,6.8-0.7,11.4-2.1l1.3,10.3
			c-2.9,0.8-5.7,1.4-8.3,1.8C549.8,495.9,546.9,496.1,543.8,496.1z"/>
		<path class="st28" d="M576.1,495v-10.3h22.7V495H576.1z M579.3,446.5v-10.3h29.8v10.3H579.3z M603.1,426.9c-2.2,0-4-0.8-5.6-2.4
			c-1.6-1.6-2.3-3.5-2.3-5.8c0-2.3,0.8-4.2,2.3-5.8c1.6-1.6,3.4-2.4,5.6-2.4c2.2,0,4.1,0.8,5.6,2.4c1.5,1.6,2.3,3.5,2.3,5.8
			c0,2.3-0.8,4.2-2.3,5.8C607.2,426.1,605.3,426.9,603.1,426.9z M597.8,495v-55.4h11.4V495H597.8z M608.1,495v-10.3h18.6V495H608.1z
			"/>
		<path class="st28" d="M664.1,496.1c-7.9,0-14-2.7-18.3-8c-4.4-5.3-6.5-12.8-6.5-22.5c0-9.7,2.2-17.2,6.5-22.5
			c4.4-5.3,10.5-8,18.3-8c7.9,0,14,2.7,18.4,8c4.3,5.3,6.5,12.8,6.5,22.5c0,9.7-2.2,17.2-6.5,22.5S672,496.1,664.1,496.1z
			 M664.1,485.5c4.2,0,7.4-1.7,9.7-5.2c2.3-3.5,3.4-8.4,3.4-14.7c0-6.4-1.1-11.3-3.4-14.8c-2.3-3.5-5.5-5.2-9.7-5.2
			s-7.4,1.7-9.7,5.2c-2.3,3.5-3.4,8.4-3.4,14.8c0,6.4,1.1,11.3,3.4,14.7C656.7,483.8,659.9,485.5,664.1,485.5z"/>
	</g>
</g>
</svg>
