<?xml version="1.0" encoding="utf-8"?>
<!-- Generator: Adobe Illustrator 26.2.1, SVG Export Plug-In . SVG Version: 6.00 Build 0)  -->
<svg version="1.1" id="Layer_1" xmlns="http://www.w3.org/2000/svg" xmlns:xlink="http://www.w3.org/1999/xlink" x="0px" y="0px"
	 viewBox="0 0 792 792" style="enable-background:new 0 0 792 792;" xml:space="preserve">
<style type="text/css">
	.st0{clip-path:url(#SVGID_00000108281967606326026880000011890587053916890807_);}
	.st1{clip-path:url(#SVGID_00000165933746933620151510000002342204661602249891_);}
	.st2{fill:#FCBC5A;}
	.st3{fill:#EAE4D0;}
	.st4{fill:#C73849;}
	.st5{fill:#E34233;}
	.st6{fill:#56AFDD;}
	.st7{fill:#090602;}
	.st8{fill:#F6FAFD;}
	.st9{fill:#D1E7F4;}
	.st10{fill:#F3BAB4;}
	.st11{fill:#F9DDD8;}
	.st12{fill:#181715;}
	.st13{fill:#949494;}
	.st14{fill:#FEF5F3;}
	.st15{fill:#E44536;}
	.st16{fill:#CFC7AE;}
	.st17{fill:#F9AB1B;}
	.st18{fill:#CBAFD2;}
</style>
<g>
	<defs>
		<path id="SVGID_1_" d="M66.2,8h657.3c30.8,0,55.8,25.4,55.8,56.8v662.3c0,31.4-25,56.8-55.8,56.8H66.2
			c-30.8,0-55.8-25.4-55.8-56.8V64.8C10.4,33.4,35.4,8,66.2,8z"/>
	</defs>
	<clipPath id="SVGID_00000093139208068079266200000013158090098985350037_">
		<use xlink:href="#SVGID_1_"  style="overflow:visible;"/>
	</clipPath>
	<g style="clip-path:url(#SVGID_00000093139208068079266200000013158090098985350037_);">
		<defs>
			<path id="SVGID_00000150780732650060462710000010323361830059876748_" d="M88.3,8h613.1c43,0,77.9,37.9,77.9,84.6v606.7
				c0,46.7-34.9,84.6-77.9,84.6H88.3c-43,0-77.9-37.9-77.9-84.6V92.6C10.4,45.9,45.3,8,88.3,8z"/>
		</defs>
		<clipPath id="SVGID_00000054954936968400035300000012666867668982307002_">
			<use xlink:href="#SVGID_00000150780732650060462710000010323361830059876748_"  style="overflow:visible;"/>
		</clipPath>
		<g style="clip-path:url(#SVGID_00000054954936968400035300000012666867668982307002_);">
			<g>
				<path class="st2" d="M740.7,8.1c11.6,0,23.2,0.1,34.7-0.1c2.9-0.1,3.5,0.6,3.5,3.8c-0.1,64.2-0.1,128.3-0.1,192.5
					c0,26.8,0,53.5,0,80.3c-1.7-0.7-1-2.4-1.3-3.7c-3.1-12.2-13.2-21.7-23.6-22c-2-0.1-3.4-0.1-3.4,2.9c0.1,17.7,0.1,35.3,0,53
					c0,2.1,0.6,2.6,2.6,2.4c11.3-1.3,20.4-9.3,23.9-21c0.4-1.4,0-3.3,1.7-4.1c0,160.2,0,320.5,0,480.7c-7.4-4.5-14.8-9-22.1-13.6
					c-92.9-57.7-185.8-115.4-278.8-173c-10.9-6.7-21.5-14-32.8-19.8l0,0.1c-0.4-0.3-0.7-0.7-1.1-1c-1.1-1.6-2.2-3-3.1-4.7
					c-11.9-21.3-23.9-42.6-35.8-63.9c-1.3-2.3-2.1-4.4-5.5-2.7c-19.9,10.1-39.4,4.6-52.6-14.8c-1.8-2.6-2.8-2.8-5.4-1.2
					c-6.3,4-12,9.1-19,11.9c-0.9-0.7-1.9-1.4-2.8-2c-37.9-23.5-75.8-47-113.7-70.5c-19.2-11.9-38.5-23.8-57.6-35.9
					c-1.2-0.7-4.6-0.5-3-4c2.5-1.4,5-2.6,7.4-4.1c17.1-10.6,34.2-21.3,51.3-31.9c85.6-53.1,171.2-106.3,256.8-159.4
					c82.3-51.1,164.7-102.2,247-153.4C719.1,22,730.3,15.8,740.7,8.1z M407.4,449.8c23.9,0,43.3-20.9,43.4-46.7
					c0-25.5-19.7-47-43.3-47c-23.6,0-43.2,21.2-43.2,46.9C364.2,429,383.4,449.8,407.4,449.8z M572.4,303.3
					c0,13.3,0.1,26.5-0.1,39.8c0,3.3,0.6,4.7,4,4.5c8.8-0.3,17.6,0,26.4-0.2c20.8-0.6,38.2-17.8,40.1-39.4
					c2-22.9-11.4-42.8-32.4-47.8c-11.1-2.6-22.4-0.7-33.6-1.3c-3.4-0.2-4.4,0.9-4.4,4.7C572.5,276.7,572.4,290,572.4,303.3z
					 M458.8,391c0,9.2-0.1,18.4,0,27.6c0.2,17.2,13.1,30.9,29.3,31.1c16.5,0.2,30.1-13.3,30.3-30.5c0.3-19,0-37.9,0.1-56.9
					c0-3.1-1-3.9-3.7-3.9c-5.9,0.2-11.8,0.4-17.6-0.1c-4.7-0.3-6.4,0.8-6.3,6.5c0.4,17.4,0.1,34.7,0.2,52.1c0,2.9-0.6,4.4-3.5,3.8
					c-2.6-0.5-1.5-2.8-1.5-4.2c-0.1-17.7-0.2-35.4,0-53.2c0.1-4.1-1.2-5.1-4.7-5c-5.9,0.3-11.8,0.3-17.6,0c-3.9-0.2-5.4,0.8-5.2,5.4
					C459,372.9,458.8,382,458.8,391z M659.6,447.4c8.4,0,16.2-0.1,24,0c2.5,0,2.8-1.8,3.3-3.7c2.1-7.8,4.2-15.6,6.3-23.4
					c3,7.8,5.3,15.4,7.2,23.2c0.7,3.1,2,3.9,4.7,3.8c6.3-0.2,12.7-0.2,19,0c3.2,0.1,3.4-1.1,2.7-4c-7.4-27.2-14.7-54.5-21.9-81.8
					c-0.7-2.6-1.8-3.4-4.1-3.3c-4.4,0.1-8.8,0.3-13.2-0.1c-3.5-0.3-4.7,1.3-5.6,4.7c-4.1,16.1-8.5,32.2-12.7,48.3
					C666,423.3,662.9,435.1,659.6,447.4z M356,388.6c0-9.9-0.1-18,0-26.1c0-2.4-0.2-3.9-3-3.9c-13.5,0.1-27,0.1-40.6,0
					c-2.5,0-3.4,0.9-3.3,3.7c0.1,7.3,0.2,14.5,0,21.8c-0.1,3.2,1.2,3.9,3.8,3.8c3.9-0.2,7.8,0.2,11.7-0.1c3.6-0.3,4.4,1.2,4.2,4.8
					c-0.3,4.9,0,9.9-0.1,14.9c-0.1,6.4-3,10.9-8.7,12.4c-2.8,0.7-3.2,2.1-3.2,4.8c0.1,7.1,0.2,14.2,0,21.2c-0.1,3.3,0.7,4.2,3.8,4
					c15.5-0.8,30.9-15.3,34.4-32.7C357.1,407,355.5,396.9,356,388.6z M734.7,403c0,13.5,0,26.9,0,40.4c0,2.1-0.4,4.2,2.8,4.1
					c12.5-0.2,25.1-0.1,37.6,0c2.1,0,2.9-0.7,2.8-3c-0.1-4.6,0-9.2,0-13.8c0-12,0-12.3-11-11.9c-4.3,0.1-5-1.5-5-5.7
					c0.2-16.6,0-33.3,0.2-49.9c0-3.4-0.7-4.8-4-4.6c-6.5,0.2-13,0.2-19.5,0c-3-0.1-3.9,0.9-3.8,4.2
					C734.8,376.1,734.7,389.6,734.7,403z M557.3,403.4c0-13.5-0.1-26.9,0.1-40.4c0-3.5-0.9-4.6-4.1-4.5c-6.7,0.2-13.4,0.1-20,0
					c-2.2,0-3.2,0.6-3.2,3.3c0.1,27.4,0.1,54.9,0,82.3c0,3.1,1.3,3.4,3.5,3.3c6.7-0.1,13.4-0.2,20,0c3.1,0.1,3.8-1.1,3.8-4.3
					C557.3,430,557.3,416.7,557.3,403.4z M651,302.5c0,13.6,0.1,27.3-0.1,40.9c0,3.2,0.8,4.3,3.9,4.2c6.5-0.2,13-0.2,19.6,0
					c2.9,0.1,3.9-0.6,3.9-4c-0.1-26.9-0.1-53.9,0-80.8c0-3.6-1.3-4-4-4c-6.4,0.2-12.7,0.3-19.1,0c-3.6-0.2-4.3,1.3-4.3,4.9
					C651.1,276.6,651,289.6,651,302.5z M746.5,303.7c0-13.6-0.1-27.3,0.1-40.9c0-2.9-0.6-4-3.5-4c-6.7,0.2-13.4,0.2-20,0
					c-2.9-0.1-3.9,0.8-3.9,4.1c0.1,26.9,0.1,53.8,0,80.8c0,3,0.7,4,3.5,3.9c6.7-0.2,13.4-0.2,20,0c2.9,0.1,3.9-0.7,3.9-4.1
					C746.4,330.3,746.5,317,746.5,303.7z M652.6,450.1c0-30.6,0-59.6,0-88.5c0-2.9-1.4-3-3.4-3c-6.7,0-13.3,0.2-20-0.1
					c-3.3-0.1-4.1,1.1-4,4.6c0.2,14.3,0.1,28.6,0.1,43c0,2,0.2,3.7,1.4,5.4C635,423.8,643.3,436.3,652.6,450.1z M596,359.8
					c-0.3,0.1-0.7,0.3-1,0.4c0,28,0,55.9-0.1,83.9c0,3.1,1.3,3.4,3.5,3.4c6.7-0.1,13.4-0.2,20.1,0c3,0.1,3.9-0.7,3.8-4.1
					c-0.2-13.8-0.1-27.6-0.1-41.5c0-1.6,0-3.1-1-4.5C612.8,384.9,604.4,372.3,596,359.8z M586.9,447.4c-6.3-12.6-12-24.4-18-36.1
					c-1.8-3.6-1.8-5,2.1-6.6c9.7-4.1,14.8-15.1,12.9-26.4c-1.7-10.3-10.4-18.8-19.9-19.6c-2.3-0.2-3.7-0.2-3.6,3
					c0.1,27.4,0.1,54.9,0,82.3c0,2.5,0.6,3.4,3,3.4C570.9,447.3,578.4,447.4,586.9,447.4z M682.6,288.3c0,7.6,0,15.2,0,22.8
					c0,6.7,0,6.7,6,5.3c12.5-2.9,21.4-14.7,21.5-28.4c0.1-13.3-8.7-25.5-20.7-28.6c-6.1-1.6-6.7-1.1-6.8,5.5
					C682.6,272.8,682.6,280.6,682.6,288.3z"/>
				<path class="st3" d="M740.7,8.1c-10.4,7.7-21.5,13.9-32.4,20.6c-82.3,51.2-164.7,102.3-247,153.4
					C375.6,235.3,290,288.5,204.4,341.6c-17.1,10.6-34.2,21.3-51.3,31.9c-2.4,1.5-4.9,2.7-7.4,4.1c-26.1-16.2-52.2-32.4-78.4-48.5
					c-18.9-11.7-37.9-23.2-56.8-34.9c0-93.6,0-187.3-0.1-280.9c0-4,0.4-5.4,4.6-5.3c29.5,0.3,59,0.1,88.5,0.1c-2,0.9-0.4,2,0,2.7
					c6.9,10.6,16,16.5,28.3,15.3c1,0,2-0.1,3-0.1c1.1,0.1,2.2,0.1,3.2-0.7l0.4,0.2l0.3-0.3c3.2,0.2,6.1-0.7,9-2l0.4,0.1l0.3-0.3
					c2.2,0.3,4.1-0.9,6.2-1.5c0.7,0.4,1.2-0.1,1.7-0.6c3.1-0.2,6.2-0.9,9.1-2.1l0.3,0.2l0.3-0.3c6.2-0.4,12.5-0.9,18.7,0l0.3,0.3
					l0.4-0.1c7.4,2.7,13.9,6.7,19.2,13c5.6,6.8,9.8,14.5,13.5,22.6c4.9,10.8,7.8,22.3,11.5,33.6c-0.2,0.3-0.1,0.6,0.2,0.8
					c0.5,2.2,0.9,4.3,1.4,6.5c0.2,0.4,0.3,0.8,0.5,1.1c0.9,6.2,2.2,12.4,3.9,18.4l-0.2,0.3l0.2,0.2c-0.2,2,0.3,3.7,1.1,5.5
					c-0.1,0.7,0.2,1,0.8,0.8c29.1,0.2,58.3,0.4,87.4,0.7c2.6,0,3.2-1,2.4-3.5c-1.2-4-2.4-8-3.7-12c-12.8-38.6-28.3-75.2-61.7-98.8
					C421.6,8.1,581.1,8.1,740.7,8.1z M154.5,113.3c2.2,1.1,4.4,2.2,6.7,3.2c5.3,2.4,10.7,4.4,16.5,4.1c3.1-0.1,6.5-0.7,7.7-4.5
					c1.2-3.8-1.4-6.3-3.8-8.4c-3.5-3-7.5-4.9-11.9-6c-4.8-1.3-9.7-2.3-15.8-3.7c2.4-0.2,3.6-0.3,4.7-0.5c8.4-1.4,16.8-3,23.6-9.2
					c2.2-1.9,4.3-4.3,3.3-7.7c-1-3.6-4.1-4.2-7.1-4.5c-6.9-0.5-13.1,2-19.3,5c-1.6,0.8-3.2,2.4-5.5,1c6-6.4,11.7-13,14-22.1
					c0.8-3,1-6.2-1.4-8.4c-2.7-2.4-5.6-1.1-8.2,0.6c-6,4.1-9.7,10.3-13.2,16.8c-0.9,1.7-1.2,4-3.7,5.3c0.4-3.5,0.8-6.5,1.1-9.4
					c0.7-6.8,0.4-13.5-2.2-19.8c-1.1-2.7-2.8-5.1-5.8-4.9c-2.7,0.1-4.3,2.4-5.3,4.9c-2.5,5.8-2.7,12-2.3,18.2c0.3,4,0.8,8,1.2,12
					c-4.3-7.6-8-15.3-14.3-21c-3-2.7-6.7-5.8-10.5-2.8c-4,3-2.2,7.7-0.8,11.7c2.6,7.5,7.7,13,12.6,18.7c-0.3,0.4-0.7,0.7-1,1.1
					c-2.8-1.3-5.6-2.7-8.5-4c-5-2.2-10.2-3.6-15.7-2.9c-2.7,0.3-5.2,1.2-6.2,4.3c-0.9,3,0.7,5.1,2.4,7c2.6,2.8,5.8,4.5,9.1,5.9
					c6.1,2.6,12.5,3.7,19,4.7c-2.2,0.7-4.4,1.1-6.7,1.5c-6.1,1.1-12.1,2.6-17.5,6.2c-3.4,2.3-7.3,4.7-6.4,10.1
					c0.6,3.6,5.6,5.3,11.4,4.5c6.4-0.9,12.2-3.7,18-6.5c0.4,0.4,0.9,0.8,1.3,1.3c-4.1,5.2-8.8,10.1-11.3,16.5
					c-1.7,4.3-4.3,9.6,0.2,13.1c4.4,3.5,8.3-0.6,11.5-3.7c5.4-5.1,8.5-11.9,11.9-18.6c0.4,0.3,0.7,0.6,1.1,0.9
					c-1.1,8.8-2.3,17.6,0.6,26.2c1.1,3.1,2.5,6.5,6.4,6.3c3.5-0.1,4.9-3.2,6-6.2c2.1-6.1,2.4-12.4,1.6-18.8
					c-0.4-2.9-0.8-5.9-1.2-9.2c2.4,1,2.6,3,3.3,4.4c2.9,5.8,6,11.4,10.8,15.6c3.1,2.8,6.7,6.4,10.8,3.1c4.1-3.3,2-8.1,0.5-12.2
					c-2.7-7.4-7.9-12.9-12.8-18.6C154,113.9,154.3,113.6,154.5,113.3z"/>
				<path class="st4" d="M10.5,294.2c18.9,11.6,37.9,23.2,56.8,34.9c26.1,16.1,52.2,32.3,78.4,48.5c-1.6,3.5,1.8,3.3,3,4
					c19.1,12.1,38.4,24,57.6,35.9c37.9,23.5,75.8,47,113.7,70.5c1,0.6,1.9,1.4,2.8,2c-1.4,1.2-2.7,2.6-4.2,3.6
					c-37.8,25-75.6,50-113.5,75c-41.6,27.5-83.2,54.9-124.9,82.3c-3.3,2.2-3.8,4-2,7.9c8.1,17.4,4.9,37.5-7.1,51
					c-2.5,2.8-7.7,3.9-7.1,8.4c0.5,3.7,3.4,7.1,5.3,10.6c10,18.2,20.1,36.4,30.2,54.6c-28.2,0-56.4-0.1-84.6,0.1
					c-3.5,0-4.6-0.6-4.6-4.8C10.5,617.3,10.5,455.8,10.5,294.2z"/>
				<path class="st5" d="M99.6,783.5c-10.1-18.2-20.1-36.4-30.2-54.6c-1.9-3.5-4.8-6.9-5.3-10.6c-0.6-4.5,4.6-5.7,7.1-8.4
					c12-13.6,15.2-33.6,7.1-51c-1.8-3.9-1.4-5.7,2-7.9c41.7-27.4,83.3-54.8,124.9-82.3c37.8-25,75.7-50,113.5-75
					c1.5-1,2.8-2.4,4.2-3.6c6.9-2.8,12.7-7.9,19-11.9c2.5-1.6,3.6-1.4,5.4,1.2c13.2,19.4,32.7,24.9,52.6,14.8
					c3.4-1.7,4.2,0.4,5.5,2.7c11.9,21.3,23.8,42.6,35.8,63.9c0.9,1.6,2.1,3.1,3.1,4.7c0.4,0.3,0.7,0.7,1.1,1c0,0,0-0.1,0-0.1
					c0,2.3,1.2,4,2.2,5.8c6.7,12.1,13.3,24.2,20.3,36.1c1.9,3.3,1.6,4.7-1.3,7.1c-14.4,12.2-19.1,28.1-14.8,47.4
					c1.1,4.9,4.4,8.7,4.5,13.9c-14.1,2.6-28.2,5.2-42.2,7.9c-0.6,0.2-1.3,0.4-1.9,0.6c-0.7,0.1-1.4,0.2-2.1,0.3
					c-0.4-0.4-0.7-0.4-1,0.1c-0.3,0.2-0.6,0.3-0.9,0.1c-1.4,0-2.9-0.4-4,0.9c-0.4,0-0.7,0.1-1.1,0.1c-1.6,0.1-3.4-0.5-4.8,1
					c-11.4,2.8-22.9,4.5-34.3,6.5c-1.6,0.1-3.4-0.5-4.8,1c-10.6,2.1-21.2,4.2-31.8,6.4c-1.4,0.3-2.5-0.4-3.7-0.8
					c-5.8-3.6,0.2-8.5-1.4-13.5c-5.4,5.7-10.7,3.8-15.8-1.1c-0.4,2.8-1.4,5.1-0.8,6.3c2.1,4-0.3,5.9-2.6,7.1
					c-4.1,2.2-2.8,3.9-0.2,6.1c-5.6,1.8-11.4,2.7-17.2,3.3c-1.9,0.2-4.1-0.7-5.8,1.1l0,0c-0.6,0.2-1.2,0.4-1.9,0.6
					c-0.7,0.1-1.4,0.2-2.1,0.3c-0.4-0.4-0.7-0.4-1,0.1c-0.3,0.2-0.6,0.3-0.9,0.1c-1.4,0-2.9-0.4-4,0.9c-2.4,0.9-5.9-0.3-7.2,0.5
					c-7.1,3.9-14.8,3.2-22.1,5c-0.6,0.2-1.3,0.4-1.9,0.6c-0.7,0.1-1.4,0.2-2.1,0.3c-0.4-0.4-0.7-0.4-1,0.1c-0.3,0.2-0.5,0.3-0.9,0.1
					c-1.7,0-3.6-0.6-5,1c-0.2,0.3-0.5,0.3-0.7,0.1c-0.6,0.1-1.3,0.2-1.9,0.3c-0.1,0.3-0.3,0.3-0.6,0.2c-0.6,0.1-1.1,0.3-1.7,0.4
					c-2.9,1.5-6.1,1-9.1,1.8c-6.6-11.9-13.3-23.7-19.9-35.6c-1.1-1.9-2.6-5.1-4.4-2.6c-1.6,2.2-7.9,2-4.1,8.2
					c6.4,10.4,12.1,21.3,18.1,32c-1.2,0.9-2.6,0.8-3.9,0.7c-0.6,0.2-1.3,0.4-1.9,0.6c-0.7,0.1-1.4,0.2-2.1,0.3
					c-0.4-0.4-0.7-0.4-1,0.1c-0.5,0.4-1,0.7-1.5,1.1c-1.5-0.5-2.9-1-4.4-1.5c-0.8-0.7-1.4-0.5-1.9,0.4c-2.3,8.2-7.3,12.8-13.5,12.7
					c-6.2-0.2-11.5-5.3-13-12.6c0-2.2,0-4.4,0-6.6c1.8-7.5,5.8-10.6,14.6-10.5c5.5,0.1,3.1-4.6,4-7.2c1-3.1-1.3-3.3-3.4-3.5
					c-10.7-1-20.6,6.6-25.2,19.1c-0.2,0.8-0.4,1.5-0.6,2.3c0,16.6,7.8,27.6,21,28.9c10,1,17.3-4.5,22.8-13.1
					c0.1,1.1,0.2,2.1,0.2,3.2c-0.7,18.4-13,35.6-29.9,40.4c-1.9,0.6-5.2,0-3.4,4.2c-4.6,0-9.1,0-13.7,0c-0.3-3.4-1.3-6.5-5-6.5
					c-3.9,0-6.8,1.9-7.7,6.5c-5.5,0-11.1,0-16.6,0c-12-21.4-24.1-42.7-36.1-64.1c-0.6-1-1.5-2-0.3-3.2c1.6-1,3.2-2,4.3-3.7
					c1.6-1.2,3.2-2.6,3.9-4.6c-0.5-0.5-1-1-1.4-1.5c-1.1,1.6-2.2,3.3-3.2,4.9c-1.5,1.3-3,2.6-4.5,3.9c-3.5,1.6-0.7,3.5,0,4.9
					c11.7,21.2,23.6,42.3,35.4,63.4C111.3,783.5,105.5,783.5,99.6,783.5z M238.1,565.2c6.1-3.9,12.3-7.8,18.4-11.7
					c-0.3-0.5-0.5-0.9-0.8-1.4c-6,4.1-11.9,8.2-17.9,12.3c-0.9,0.2-2.4,0.5-1.8,1.6C236.6,567.3,237.2,565.2,238.1,565.2z
					 M442.7,625.7c3.2-3.1,8.3-5.7,9.1-9.4c0.8-3.8-3.8-8-6-12c-17-30.4-34.1-60.9-51-91.4c-1.6-2.9-2.8-2.8-5.3-1.3
					c-7.7,4.5-15.8,5.9-24.5,4c-2.9-0.6-5.6-3.1-8.8-1.9c-0.3-0.5-0.6-1-0.8-1.5c-0.2,0.2-0.4,0.4-0.5,0.6c0.5,0.3,0.9,0.6,1.4,0.9
					c10.7,6.2,21.6,5.6,32.2,0.2c3.7-1.9,5.1-0.8,6.7,2.4c1.8,3.6,3.8,7,5.8,10.4c11.1,19.8,22.2,39.7,33.3,59.5
					c3.5,6.3,7.2,12.6,10.8,18.8c1.2,2.3,2.2,4.7,3.6,6.8c2,3,2.6,5.1-1.1,7.3c-2.2,1.3-4.3,3.1-5.5,5.8c-0.3,0.4-0.6,0.8-0.9,1.1
					c-7,9.1-10.7,24.4-6.7,30.6c-1.1-11.5,1.5-21.2,7.6-29.8C442.2,626.3,442.4,626,442.7,625.7z M121.6,740.5
					c-1.3,0.2-3.8-1.6-2.9,2.1c0.3,1.3,0.7,2.7-0.8,3c-1.6,0.3-2.2-1.1-2.5-2.6c-0.2-1,0-2.2-1.8-2.1c-1,2.8,0,5,2,6.7
					c1.3,1.1,2.8,1.3,4,0c1.8-1.8,1.9-6.1,5.9-4.3c0.5,0.2,0.9-0.9,0.5-1.6c-1.2-2.1-1.9-4.7-4.1-6c-1.4,1.8,0.5,2.8,0.3,4.1
					C122.1,739.9,121.9,740.2,121.6,740.5z M399.2,562.3c-1.2,1.1-1.1,2.8-1.5,4.3c-0.9-0.3-1.6-3.4-2.5-1.1
					c-0.8,1.9,1.3,4.3,2.8,5.7c1.5,1.4,2.9-0.7,4.2-1.4c2-1,1.1-2.3,0.2-3.8c-0.7-1.1-1.3-2.8,0.4-3.6c1.5-0.7,2.4,0.6,2.9,2
					c0.4,1-0.1,2.7,1.8,2.7c1.1-3.1-0.2-5.5-2.6-7C402.5,558.5,400.7,560.4,399.2,562.3z M400.3,550.6c-2.8-5.7-5.2-6-8.5-1
					c-0.6,0.7-0.6,1.4,0.1,2c0.1,1.2,2.5,2.6,0.8,3.4c-2.8,1.3-1.8-3.6-4-3.9c-0.7,4.9,1.7,7.6,5.7,6.6c2.3-0.6,3.9-2.3,5.6-4
					C401.2,552.8,401.2,551.8,400.3,550.6z M345.4,690.6c0.1,1.3,0,2.7,1.8,1.6c2-7.1,6.6-10.1,13.6-8.8c-1-3-2.7-4.5-4.1-6.1
					c-1.6-1.8-2-3.5-0.6-5.6c1-0.9,1-2.2,0.9-3.4c0.1-1,0.1-2,0.2-3c0-0.2,0-0.5,0-0.7c-0.4,0.2-0.7,0.4-1.1,0.5
					c-5.6,4.6-10.6,3.2-15.3-1.7c-0.5,0.1-0.9,0.2-0.6,0.9c0,0.7,0,1.5,0,2.2c-1,1.1-1,2.2,0.1,3.2c2.5,6.4-4.9,6.8-6.1,11.6
					C340.2,681.4,344.9,683.2,345.4,690.6z M333,566.4c1.2,0.1,2.3,0.3,3.4-0.6c1.8-0.3,2.3-1.2,0.7-2.5c-4.6-3.8-4.8-8.6-2.7-14
					c0.2-0.4-0.1-1-0.3-2.2c-5.6,5.3-10.9,3.3-17.1-2.2c2.7,8.9,0.1,14.1-5.9,18.4c8.3-0.9,11.1,4.6,12.7,11.3
					C327.4,572,326.7,564.8,333,566.4z M375.5,646.3c-0.8,0.7-0.8,1.5,0.1,2.1c0.8,5.2-5.4,5-6.1,9.6c7.3-0.8,10.6,4,12.4,11.3
					c2.3-7.7,7.1-10.4,14.3-9.7c-6.2-4.8-6.5-10.8-3.8-17.6c-3.8,0.8-6.3,3.8-9.1,3.1c-2.7-0.7-5-2.9-7.9-4.7
					C375.5,642.8,375.5,644.5,375.5,646.3z M298.2,581.6c0-1.2,0-2.3,0-3.5c-0.5-2.4,1.7-4.6,0.6-7.2c-7.5,3-7.5,3-16.2-1.3
					c0,6.5-0.6,12.7-7.9,16.8c7.8,1,13.3,3.4,13.4,11.4c4-1.3,2.7-7,7.4-7.8c2.3-0.4,6.4,0.3,7-1.8
					C303.4,585.6,299,584.5,298.2,581.6z M224,688.8c1.1,0.3,2.2,0.6,3.2,1.1c7.6,3.2,15.2,6.2,22.7,9.7c4,1.8,6.3-1.2,8.5-3.2
					c1.9-1.7-0.7-3.7-1.6-5.3c-6.1-11.1-12.6-21.9-18.3-33.2c-2.5-4.9-5.1,0.6-7.3-1.1c0,2.3-3.7,3.3-1.4,6.6
					c3.5,5.1,6.2,10.7,9.2,16.2c0.6,1.1,2.1,2.4,1,3.7c-1,1.2-2.4,0.1-3.6-0.4c-7.7-3.3-15.5-6.5-23.1-9.9c-4.1-1.8-6.5,1.5-9,3.5
					c-2.4,2,0.8,3.9,1.6,5.6c1.7,3.7,3.8,7.1,5.8,10.7c4.1,7.4,8.5,14.6,12.4,22.2c2,4,3.8,1.9,5.7,0.5c1.8-1.4,5.4-1.7,2.8-6
					c-3.8-6.3-7.2-13-10.8-19.5C222.6,689.5,223.3,689.1,224,688.8z M320.5,623c4,7.1,8.2,14,12,21.2c2,3.8,3.8,1.3,5.4,0
					c1.5-1.2,5.5-1.1,3.1-5.3c-6.8-12-13.5-24.2-20.3-36.3c-0.5-0.8-0.8-1.9-2.1-1.7c-3.5,0.5-8.2,6.1-8.3,10.1c0,6.1,0,12.1,0,19
					c-5.2-2.8-9.8-4.6-13.5-7.5c-4.8-3.8-8.5-2.2-12.7,1c-2,1.5-2,2.5-0.9,4.5c6.6,11.7,13.3,23.4,19.6,35.3c2.1,4,3.7,1.9,5.6,0.6
					c2.1-1.5,5.3-2,2.6-6.4c-3.7-5.8-6.7-12.1-10-18.2c0.1-0.9,0.1-1.8,0.2-2.8c4.7,2.3,9.5,4.5,14.1,6.9c2.4,1.3,3.2,0.7,3.2-2.1
					c0.1-4.8,0.3-9.5,0.4-14.3C319.6,625.7,320,624.3,320.5,623z M269.1,689.2c0.6-0.4,1.3-0.8,2-1.3c7.8-5.1,15.5-10.4,23.4-15.3
					c3.8-2.3,1.1-4.1,0.2-6.3c-1.1-2.6-2.3-3.9-5.1-1.8c-4.8,3.6-10.1,6.5-14.9,10.1c-3,2.3-3.7-0.3-4.4-2.1
					c-0.7-1.9-4.5-3.8-0.5-6.3c4.4-2.7,8.6-5.8,13-8.5c3.5-2.1,1.1-4,0-5.9c-1-1.8-1.4-4.6-4.5-2.3c-4,3-8.4,5.4-12.4,8.4
					c-3,2.3-3.9,0.3-5-2c-1-2.2-3.5-4.1,0.3-6.3c5.2-3,10-6.6,15.1-9.8c3.6-2.2,0.8-4.1-0.1-5.9c-0.9-1.8-1.4-4.5-4.5-2.3
					c-7.8,5.4-15.8,10.6-23.7,15.8c-1.8,1.1-2.1,2.1-1,4.1c6.7,11.9,13.3,23.8,20,35.8C267.4,688,267.7,689.2,269.1,689.2z
					 M388.1,610.8c-12.9-10-25.4-19.7-37.8-29.4c-1.1-0.9-2-0.6-3.1,0c-3.9,2.2-6.5,4.2-5.4,10.4c2.5,13.6,3.7,27.5,5.5,41.2
					c0.2,1.3-0.2,3.1,1.4,3.6c2.1,0.7,8.1-5.7,7.3-8c-2.5-7.2,0.9-10.7,6.3-13.2c1.5-0.7,2.9-1.6,4.1-2.8c3.5-3.4,6.5-2.2,9,1.2
					c2,2.7,4,3,6.5,1.2C383.8,613.7,385.8,612.4,388.1,610.8z M254.5,621c2.6-7.4,7.4-10.2,14.5-9.8c-6.6-4.9-6.4-11-4.1-18
					c-6,5-11.4,3.9-16.9-2c0.9,8,0.2,14.1-6.4,17.9C248.7,609.6,253,613,254.5,621z M144.2,660.7c2.6,8.1-1.2,12.8-7,17
					c5.5,1.4,10.8,1.3,11.6,8.2c0.1,1-0.6,2.7,1.3,2.9c1.5,0.2,1.9-1.3,2.3-2.3c1.8-5.2,5.4-6.5,10-6.1c0.7,0.1,1.6,0.4,2.2-1.2
					c-4.4-4.5-7.5-9.7-3.1-17.1C155.2,666,149.7,666.6,144.2,660.7z M200,656.6c-1.9-2.6-4.3-4.8-5.3-7.6c-1.1-3.1,1.4-6.3,1.3-10.7
					c-5.8,5.1-11.3,3.9-16.9-0.7c2.9,8.1-0.8,12.7-6.3,16.4c3,1.9,6,1.7,8.5,3.6c2.7,2.1,2,6.1,4.5,8.1
					C191.1,658.1,191.1,658.1,200,656.6z M206.2,632.1c7.4,0.3,11.4,4.5,13.2,12.2c2.1-8.1,7.5-9.9,14.2-10
					c-6.1-4.7-6.5-10.5-3.8-17.5c-6.1,4.2-11.4,3.9-17.4-2.9C214.1,622.5,213.3,628.4,206.2,632.1z M95.7,664.6
					c-0.2-2.3,0.2-3.8,1.8-5.4c4-4,8.9-6.5,13.4-9.5c30.8-20.4,61.7-40.6,92.6-60.9c2.7-1.8,5.2-3.9,7.8-5.9
					c-1.2-0.4-1.9-0.1-2.6,0.4c-37.7,24.8-75.3,49.8-113,74.5C91.6,660.4,93.8,662.1,95.7,664.6z M125.5,752.3
					c-1.8-0.4-3.4-0.7-3.3,0.5c0.2,3,2.6,5.6,1.2,8.9c1,0.4,2.1,1,3.1,1c0.5,0,1.2-1.2,1.4-1.9c0.2-0.9,0.5-1.5,1.2-2.1
					c1.5-1.4,4.9-1.7,4.1-4.1c-0.7-2.2-3.9-1.7-6.1-2C126.2,752.4,125.4,752.2,125.5,752.3z M413.9,593.9c2.8,2.5,5.2-4.6,8.1,0.2
					c0.3-0.4,0.8-0.7,0.8-1.1c0.3-2.7-0.5-5-2.8-6.1c-2-0.9-4.2-0.3-4.7,2.2c-0.5,2.6-1.3,2.9-3.5,2.2c-1.7-0.5-2.4,0.8-1.3,2.5
					c1.1,1.7,2.2,3.4,3.3,5.1c0.1,0.1,0.5-0.1,0.8-0.2C415.6,597.1,413.7,596.3,413.9,593.9z M413.4,574.6c-0.3-0.9-0.6-1.3-1.8-1.5
					c-3.8-0.8-4,4-6.7,4.7c-0.9,0.2-2.3,0.8-2,2.5c0.3,1.3,1.5,1,2.4,1.3c0.7,0.2,1.4,0.6,2.1,1.1c2.2,1.4,4.6,0.4,6.2-0.4
					c1.9-1-0.4-3-1.1-4.3C411.7,576.4,412.2,575.6,413.4,574.6z M141.7,769c-0.6-1-1.2-2-1.7-3.1c-1-2-1.8-3.7-4.4-1.9
					c-1.9,1.3-4,2.1-1.6,5c1,1.3,1.1,2.7-0.5,3.4c-1.6,0.7-2.2-0.7-2.7-2.1c-0.3-1,0.1-3.1-1.7-2.4c-1.8,0.7-0.7,2.4-0.2,3.6
					c0.9,2,2.1,3.7,4.4,3.5c1.8-0.1,3.4-1,3.6-2.9C137.1,768.2,139.1,768.9,141.7,769z M423.1,611.1c0.2-1.4-0.2-1.8-0.9-2.1
					c-1.3-0.6-2.4-1.5-1.7-3.2c0.7-1.6,2.2-1.1,3.4-0.8c1.7,0.5,3.3,1.3,5.1,1.7c1.3,0.3,2.5-0.2,1.6-1.9c-1.2-2.3-2-5.1-4.3-6.5
					c-1.7,1.8,0.9,3,0,4.5c-2.9,1-7.5-3.3-8.5,2.8C417.5,608.8,419.4,611.1,423.1,611.1z M90.5,708.1c9.4-9.6,11.7-25.8,7.9-34.2
					C98.5,688.1,98.5,688.1,90.5,708.1z M109.7,736.7c1.9-2.2-1.2-3.5,0.1-5.2c2.6,0.4,5.4,2.4,7.8-0.5c1.1-1.3,1-3.1,0.3-4.5
					c-0.9-1.8-2.3-3.4-4.8-2.5c0.2,0.7,0.2,1.4,0.5,1.6c1.1,0.9,3.1,1.2,2.1,3.4c-1,2.1-2.7,0.9-4.3,0.6c-2-0.5-3.8-2.3-6.5-0.8
					C106.4,731.5,107.5,734.3,109.7,736.7z M394.7,538c-5.5-2.1-9.7-0.5-13.8-0.1c-1,0.1-0.9,1.3-0.5,2.1c1.3,2.1,2,4.7,4.2,6.4
					c1.4-2.7-1.6-4-0.9-6.3C386.8,539.4,390.3,540.2,394.7,538z M429.6,678.8c4.3-0.8,6.6-3.2,9.2-4.8c0.7-0.4,0.8-1.2,0.5-1.9
					c-1.7-4.3-3.4-8.5-5.3-13.1c-0.8,2.4,0.2,4,0.6,5.6c0.8,2.8,3.4,6,2.7,8C436.5,674.9,433,676.2,429.6,678.8z M111.7,715.9
					c-0.4-1.3-1.3-2-2.3-2.6c-0.3-0.2-1.2,0.2-1.2,0.2c0.3,4.4-2.9,4.4-5.5,5.5c-0.7,0.3-1.6,2.1-1.4,2.8c0.6,1.9,1.8,0.6,2.7,0
					c2.1-1.3,4.2-2.7,6.2-4.1C111,717.4,111.7,717,111.7,715.9z M234,568.2c-0.2-0.4-0.5-0.8-0.7-1.3c-5.9,3.9-11.8,7.8-17.7,11.7
					c0.2,0.4,0.5,0.8,0.7,1.2C222.2,576,228.1,572.1,234,568.2z M283.1,534.1c-5.4,3.5-10.7,7-16.1,10.6c-0.6,0.4-1.6,0.8-1.1,1.9
					c0.4,0.9,1.2,0.8,1.6,0.3C272.1,541.7,278.8,539.7,283.1,534.1z M288.2,530.8c0.2,0.4,0.4,0.8,0.7,1.2
					c5.8-3.9,11.7-7.7,17.5-11.6c-0.2-0.4-0.4-0.8-0.6-1.1C299.8,523.1,294,526.9,288.2,530.8z M427,621.7c2.7-0.5-0.1-2.5,1.3-3.3
					c2-1.2,3.8-2.6,5.8-3.8c0.8-0.5,1.5-1,1-2c-0.5-0.9-1.4-0.7-2.1-0.2c-2.5,1.6-4.9,3.3-7.4,4.9c-0.8,0.5-1.3,1.2-0.6,2.1
					C425.5,620.3,426.4,621.1,427,621.7z M315.5,512.8c0.2,0.4,0.4,0.7,0.6,1.1c4.3-2.8,8.5-5.6,12.8-8.4c-0.2-0.4-0.4-0.8-0.6-1.2
					C324,507.2,319.7,510,315.5,512.8z M258.1,552.1c1.5-1.1,2.9-1.2,3.7-3C259.8,548.8,258.7,549.4,258.1,552.1z M344.8,503
					c-0.1-0.3-0.2-0.6-0.3-0.8c0-0.1-0.4,0-0.4,0.1c-0.1,0.3-0.1,0.6-0.1,0.9C344.2,503.1,344.5,503.1,344.8,503z M349.7,507.9
					c-0.2-0.2-0.5-0.3-0.7-0.5c0,0-0.3,0.3-0.3,0.4c0.1,0.3,0.3,0.5,0.4,0.7C349.3,508.3,349.5,508.1,349.7,507.9z M263.9,548.1
					c-0.1-0.3-0.2-0.5-0.3-0.7c-0.1,0.2-0.3,0.4-0.4,0.7c0,0.1,0.1,0.3,0.1,0.4C263.5,548.3,263.7,548.2,263.9,548.1z"/>
				<path class="st6" d="M234.8,718.7c0.3,0.2,0.6,0.1,0.9-0.1c0.3,0,0.6-0.1,1-0.1c0.7-0.1,1.4-0.2,2.1-0.3
					c0.6-0.2,1.3-0.4,1.9-0.6c7.3-1.7,15-1.1,22.1-5c1.4-0.8,4.8,0.4,7.2-0.5c1.4,0.1,2.8,0.1,4-0.9c0.3,0.2,0.6,0.1,0.9-0.1
					c0.3,0,0.6-0.1,1-0.1c0.7-0.1,1.4-0.2,2.1-0.3c0.6-0.2,1.2-0.4,1.9-0.6c0,0,0,0,0,0c2,0.1,4,0.1,5.8-1.1
					c5.8-0.6,11.6-1.5,17.2-3.3c6.6-0.3,12.9-2.3,19.4-3.2c1-0.1,1.4-0.8,1.4-1.7c1.2,0.4,2.3,1.1,3.7,0.8
					c10.6-2.2,21.2-4.3,31.8-6.4c1.7,0.2,3.3,0,4.8-1c11.5-2,23-3.7,34.3-6.5c1.7,0.2,3.3-0.1,4.8-1c0.4,0,0.7-0.1,1.1-0.1
					c1.4,0.2,2.8,0.1,4-0.9c0.3,0.2,0.6,0.1,0.9-0.1c0.3,0,0.6-0.1,1-0.1c0.7-0.1,1.4-0.2,2.1-0.3c0.6-0.2,1.3-0.4,1.9-0.6
					c14.1-2.6,28.2-5.2,42.2-7.9c15.2-2.8,30.5-5.6,45.7-8.6c2.8-0.5,3.5,0,4.2,3c5.3,22.9,22.1,36.3,43.5,34.8
					c2.9-0.2,4.2,0.2,4.7,3.8c1.9,13.6,4.4,27.2,6.5,40.8c1.7,11,4.3,21.8,4.9,32.9c-5.5,0-11.1,0-16.6,0c0-1.4,0.1-2.9-0.2-4.2
					c-2.9-18.3-6-36.5-8.7-54.8c-0.8-5.3-2.3-7.9-7.7-6.1c-1.9,0.6-4.2-0.1-6.3-0.3c-4.8-0.5-9.3-2.7-13.9-4
					c6.3,5,13.5,6.7,21.2,6.1c2.2-0.2,4.3-1.1,4.9,2.9c3.1,20.2,6.4,40.4,9.7,60.5c-21.2,0-42.4,0-63.6,0c-2.5-4.2-5-8.3-7.4-12.5
					c-1.6-2.7-2.8-5.1-6.8-4.4c-4.2,0.7-5.7,2.9-6.3,7c-0.5,3.3-1.3,6.6-2,9.8c-6.9,0-13.7,0-20.6,0c-0.8-10.6-2-11.7-9.7-8.9
					c-4.1,1.5-3.6,5.8-5,8.9c-5.5,0-11.1,0-16.6,0c-3.8-5.1-10.3-5.1-13.7,0c-42.7,0-85.5,0-128.2,0c-1.1-4.5-1.8-8.7,1.8-12.7
					c2.3-2.5,0.2-3.4-1.9-3c-4.7,0.9-7.7-1.3-9.8-5.6c-0.3-0.7-0.7-1.6-2.3-1c-0.3,7-4.2,10.9-11.1,11.6c2.9,4.1,8.7,4.6,7.7,10.8
					c-20.2,0-40.5,0-60.7,0c0.2-1.1,2-1.1,1.4-3.3c-1.8,1.1-3.5,2.2-5.3,3.3c-8.5,0-17,0-25.4,0c-1.8-4.2,1.5-3.7,3.4-4.2
					c16.9-4.9,29.2-22,29.9-40.4c0-1.1-0.1-2.1-0.2-3.2c0.3-2.9,0.4-5.7-0.4-8.6c0.5-0.4,1-0.7,1.5-1.1c0.3,0,0.6-0.1,1-0.1
					c0.7-0.1,1.4-0.2,2.1-0.3c0.6-0.2,1.3-0.4,1.9-0.6c1.4,0.1,2.7,0.2,3.9-0.7c3.5-0.3,7-0.7,10.4-1.9c3-0.8,6.2-0.3,9.1-1.8
					c0.6-0.1,1.1-0.3,1.7-0.4c0.2,0.1,0.4,0.1,0.6-0.2c0.7,0.8,1.3,0.2,1.9-0.3c0.3,0.2,0.5,0.1,0.7-0.1
					C231.5,719.8,233.3,719.8,234.8,718.7z M198.8,776.5c0.3-0.4,0.7-0.7,1-1.1c0.3-0.4,0.7-0.7,1-1.1c1.4-0.7,2.3-1.9,2.7-3.5
					c0.7-0.8,1.8-1.4,1.3-3c-1.6-0.1-1.4,1.5-2,2.4c-1.3,0.8-2.2,1.9-2.7,3.4c-0.3,0.4-0.6,0.7-1,1.1c-0.3,0.4-0.7,0.7-1,1.1
					c-0.3,0.3-0.7,0.7-1,1c-1.2,0.6-2.4,1.2-2.5,3.1c1.8-0.2,2.6-1.2,3.1-2.4C198.2,777.2,198.5,776.8,198.8,776.5z M501.8,704.9
					c0.3,0.4,0.6,0.7,0.9,1.1c0.7,2.1,2.1,3.5,3.9,4.3c0.2,0.2,0.6,0.6,0.6,0.5c0.6-0.4,0.1-0.7-0.2-1c-0.9-1.9-2.2-3.4-4-4.2
					c-0.3-0.4-0.6-0.7-1-1.1c-0.4-0.7-0.7-1.3-1.1-2c-0.1-0.7-0.3-1.3-1.1-1.4c-0.1,0-0.3,0.2-0.3,0.3c-0.1,0.8,0.4,1.2,1.1,1.4
					C501,703.5,501.4,704.2,501.8,704.9z M468.6,747.3c0.1,0.1,0.2,0.2,0.3,0.3C468.8,747.5,468.7,747.4,468.6,747.3
					c-2.2-6.1-2.5-12,3-16.9c-3.6-1.6-6.7,1-9.3-0.7c-2.5-1.6-3.3-5.4-6.6-7.6c-0.1,7.9-4.1,11.5-11.1,12.6c3.6,3.9,9,5.6,7.5,12
					c-0.2,1.1-0.5,2.7,0.7,3.4c1.5,0.8,2.4-0.7,3.2-1.6c2.6-2.9,5.4-3.5,8.7-1.7C466,747.4,467.3,747.7,468.6,747.3z M496,693.3
					c-1.9-2.8,1.9-9.8-5.4-8.4c-24,4.6-48.1,9.1-72.1,13.7c-67.8,13-135.5,26-203.3,38.8c-5.1,1-7,2.3-6.1,8.1
					c1,6.2-1.3,12.2-2.3,18.3c3.5-6.1,4.7-12.7,3.8-19.7c-0.4-3,0.2-3.9,2.9-4.4c14.3-2.6,28.5-5.5,42.8-8.2
					c42.1-8,84.3-16,126.4-24c34.6-6.6,69.2-13,103.8-19.9C491.9,686.5,494.9,687.1,496,693.3z M364.4,750.5c7.4,2.8,8.3,8.9,8,15.9
					c4.8-6,10.3-6.2,16.5-3.3c-3.4-6.7-2.7-12.3,2.1-17.8c-7.2,1.7-11.7-1.7-15.1-9.7C375,744.4,372,749.3,364.4,750.5z M293.1,781
					c8.4-4.9,8.4-4.9,12.5-3.7c1,0.3,2.2,1.4,3.1,0.1c0.8-1.1,0.2-2.4-0.4-3.5c-1.8-3.6-1.3-6.7,1.2-9.6c0.8-1,1.9-2,1.5-4.5
					c-6.5,2.5-10.8-1.2-14.5-7.4c-0.1,8.3-4.6,11.4-11,12.5C292,772.5,292,772.5,293.1,781z M323.9,758.1c6.4,3.3,8.9,8.3,8,16
					c4.7-6,10.2-5.9,16.3-3.5c-2.7-5.8-3.2-10.7,1-15.2c1.2-1.3,0.7-3-1.2-2.5c-6,1.4-9.3-2.3-12.7-7.9
					C335.1,753.2,330.7,756.6,323.9,758.1z M404.1,743c7.3,2.7,8.4,8.6,8.2,15.7c4.7-6,10-6.1,16.2-3.2c-3.8-6.7-2.3-12.2,2-18
					c-7.4,2.7-11.1-2.1-15-7.5C415,738,410.9,741.4,404.1,743z M520.3,754.4c-1.2,2.7-1.2,4.9,0.5,6.8c2.4,2.6,5.4,2.1,8.2,0.8
					c2.4-1.1,3.3-3.3,2.6-6.1c-0.7-2.6-2.3-3.8-4.8-3.2c-2.5,0.6-3.3,2.6-2.8,5.2c0.1,0.7,0.3,1.4-0.3,1.9
					C520.3,759.9,522.4,756.1,520.3,754.4z M522.4,770.2c-1.5,1.5-0.5,2.9-0.4,4.2c0.3,2.2,0.7,4.3,3.5,3.7c2.3-0.5,4.1-1.1,2.9-4.5
					c-0.4-1.2,0-2.6,1.5-2.6c1.1,0,1.7,0.8,2,1.9c0.3,1.2-0.7,2.9,1.3,3.8c1.4-3.2,1.9-6.4-1.4-8c-5.1-2.5-5.2,3-6.5,6.3
					C523.8,773.5,524.3,771.2,522.4,770.2z M529.2,744.3c-1.1-2.8-3.7-2.6-5.6-3.3c-2.1-0.8-4.5-3-6.3-1.3c-2.1,2,0.2,4.9,0.4,7.4
					c0,0.3,0.6,0.6,1.3,1.3C519.5,737.5,526,747.1,529.2,744.3z M510.5,712.6c-0.2-0.3-0.3-0.7-0.5-0.8c-0.4-0.3-0.9-0.3-0.9,0.5
					c0,0.3,0.4,0.6,0.6,0.7C509.9,713,510.2,712.7,510.5,712.6z M205.8,766.2l0.2-0.4l-0.3,0L205.8,766.2z"/>
				<path class="st4" d="M565.5,783.5c-0.6-11.2-3.2-22-4.9-32.9c-2.1-13.6-4.5-27.2-6.5-40.8c-0.5-3.6-1.8-4-4.7-3.8
					c-21.4,1.5-38.2-11.9-43.5-34.8c-0.7-3-1.4-3.5-4.2-3c-15.2,3-30.5,5.7-45.7,8.6c-0.1-5.1-3.4-9-4.5-13.9
					c-4.2-19.3,0.4-35.2,14.8-47.4c2.8-2.4,3.2-3.9,1.3-7.1c-6.9-11.9-13.6-24-20.3-36.1c-1-1.8-2.2-3.6-2.2-5.8
					c11.4,5.8,22,13.1,32.8,19.8c92.9,57.6,185.9,115.3,278.8,173c7.4,4.6,14.7,9.1,22.1,13.6c0,3.5,1.3,8.5-0.4,10.2
					s-6.2,0.4-9.4,0.4C701.2,783.5,633.3,783.5,565.5,783.5z"/>
				<path class="st7" d="M236.7,120.9c-0.8-1.7-1.3-3.5-1.1-5.5c0,0-0.1-0.5-0.1-0.5c-1.7-6-3-12.1-3.9-18.4
					c-0.2-0.4-0.3-0.8-0.5-1.1c-0.5-2.2-0.9-4.3-1.4-6.5c0-0.3-0.1-0.5-0.2-0.8c-3.7-11.3-6.6-22.8-11.5-33.6
					c-3.7-8.1-7.8-15.9-13.5-22.6c-5.3-6.3-11.8-10.3-19.2-13c-0.2-0.1-0.4-0.2-0.7-0.1c-6.2-0.9-12.5-0.4-18.7,0
					c-0.2,0-0.4,0-0.6,0.1c-2.9,1.2-6,1.9-9.1,2.1c-0.6,0.2-1.2,0.4-1.7,0.6c-2,0.6-4,1.8-6.2,1.5c-0.2,0-0.5,0-0.7,0.2
					c-2.9,1.2-5.9,2.1-9,2c-0.3,0-0.5,0-0.7,0.1c-1,0.8-2.1,0.8-3.2,0.7c-0.1-1.5,0.5-3.4-1.1-4.1c-0.8-0.4-2.4,0-3,0.8
					c-1.1,1.4,1.4,2,1.1,3.5c-12.3,1.2-21.4-4.7-28.3-15.3c-0.5-0.7-2.1-1.8,0-2.7c20.2,0,40.5,0,60.7,0c0.7,3.6,3.3,3.1,5.6,3.1
					c2.2,0.3,3.3-0.6,3.2-3.1c1,0,2,0,2.9,0c3.3,2.7,6.5,3.9,9.8,0c9.5,0,18.9,0,28.4,0c-0.2,1.8-1.5,3.8,1.1,4.8
					c0.8,0.3,1.7,0.6,2.2-0.2c1.3-2.1-1.5-2.8-1.4-4.6c1.3,0,2.6,0,3.9,0c0.1,1.5-0.2,3.7,1.9,3.6c1.7-0.2,0.8-2.3,1.1-3.6
					c1,0,2,0,2.9,0c0.1,1.3,0.7,2.4,2,2.3c1.4,0,0.8-1.5,1-2.3c1.3,0,2.6,0,3.9,0c1.3,3,2.6,3,3.9,0c2,0,3.9,0,5.9,0
					c0.1,0.7,0.2,1.5,1,1.5c0.8,0,0.9-0.8,1-1.5c5.9,0,11.7,0,17.6,0c33.3,23.5,48.9,60.1,61.7,98.8c1.3,4,2.5,8,3.7,12
					c0.8,2.5,0.1,3.5-2.4,3.5c-29.1-0.3-58.3-0.5-87.4-0.7C237.3,121.4,237,121.2,236.7,120.9z M294.4,61.4c0-0.2,0.1-0.3,0.1-0.5
					c-0.1,0.1-0.2,0.2-0.3,0.3c0,0.2-0.1,0.3-0.1,0.5C294.2,61.6,294.3,61.5,294.4,61.4z M296.7,65.3c-0.3-0.6-0.5-1.2-0.8-1.8
					c-0.2,0.2-0.5,0.4-0.6,0.6c-0.1,0.8,0.3,1.3,0.9,1.6c-0.1,0.9,0.2,1.7,1,2.1c0.3,2.2,1.4,4,2.6,5.7c0.4,1.7-0.5,2.2-1.8,2.3
					c-2.6,0.2-5.2,0.4-7.8,0.6c-4.5,0-9,0-13.4,0.1c-6.4,0-12.8,0-19.2,0c0,0.6,0,1.2,0,1.8c6.4,0.6,12.8-0.2,19.2-1
					c4.5,0,9,0,13.4,0c2.9,0,5.8,0.2,8.8,0c3.6-0.2,3.2-1.9,1.2-4.1c-0.2-2.2-1.4-3.9-2.5-5.7C297.4,66.6,297.1,65.9,296.7,65.3z
					 M120.1,13.5c0.1,0.1,0.3,0.1,0.4,0.2C120.4,13.6,120.3,13.5,120.1,13.5c-0.1-0.7,0.1-1.5-0.9-1.3c-0.1,0-0.3,0.2-0.3,0.3
					C118.8,13.5,119.6,13.3,120.1,13.5z M223.9,38c0.3,0.7,0.7,1.5,1,2.2c0,0,0.7-0.2,0.7-0.3C225.8,38.5,224.9,38.1,223.9,38
					c-0.1-1,0.3-2.2-1-2.6c-0.1,0-0.3,0.1-0.4,0.3C222.1,36.9,223.1,37.4,223.9,38z M254.2,15.6c1.1,1.2,2.2,2.1,3.8,1.1
					c-0.8-1.3-0.4-2.1,0.9-1.5c1.8,0.8,3.3,0.6,5.5-0.3c-2.1-2.3-3.7-3.8-6.5-2.6c-3.2,1.4,2.3,2.8-0.1,4.1
					c-1.2-0.3-2.4-0.6-3.6-0.9c-0.4-2-1.5-2.8-3.5-2.6C251.3,15.2,252.9,15.3,254.2,15.6z M204.9,20.1c0.7-0.4,1.8-0.9,1.5-1.5
					c-1-1.6-2.1,0-3.1,0.3c-1.9-0.3-3.5,0.6-5.3,1.5c1.1,0.9,2.1,2.2,3.2,2.3C202.7,22.8,205.5,24,204.9,20.1z M287.8,44.7
					c1.4,2,3.4,2.2,4.3,0.2c0.7-1.4-1.2-3.3-2.4-4.1c-1.3-0.8-3.5-1.2-3.2,2c-2.5,3.5-1.4,6.9,3.5,10.1
					C290,49.9,286.6,48,287.8,44.7z M192.1,13.3c-2.5,0.5-5.3-0.6-7.4,2.1c3.4,0.3,6.9,2.5,9.4-1.8c0.6-0.3,1.3-0.6,1.9-0.9
					c-0.1-0.1-0.1-0.3-0.2-0.4c-0.6,0.4-1.2,0.9-1.8,1.3C193.2,14.9,192.7,13.7,192.1,13.3c0.1-0.3,0-0.5,0-0.8
					C192.1,12.7,192.1,13,192.1,13.3z M272.9,30.4c-0.1-0.1-0.3-0.1-0.4-0.2c0.1,0.1,0.2,0.2,0.3,0.3c1.6,1.9,3.1,3.9,4.7,5.8
					c1.5,1.7,2.7,1.7,3.3-0.9c1.5,0.6,2.9,0.7,4.6-0.6c-2.5-3-3.6-7.5-8.5-5.4C275.5,29.8,274.2,30.1,272.9,30.4z M228.3,43.5
					c-0.2-0.1-0.4-0.3-0.6-0.4c0.2,0.2,0.3,0.3,0.5,0.5c0.3,1.2-0.8,4,0.2,3.3c4.3-2.7,8.7-0.9,13-1.6c0.8-0.1,1.3-0.8,0.9-1.3
					c-0.4-0.6-1.3-0.7-2-1c-0.1-1.4-0.9-2.1-2.1-2.2c-0.2,0-0.6,0.4-0.6,0.6c0.3,1.6,1.8,0.9,2.6,1.5
					C236.3,44.7,232.3,44.8,228.3,43.5z M214.1,29.4c2.6-0.9,3.8,2.9,7.3,2.4c-3.3-3.6-5.1-8.2-10.3-5.6c-1.4,0.5-2.8,1.1-4.4,1.7
					C209.1,31.3,211.2,33.6,214.1,29.4z M270,42.1c4.6,0.1,9.3-1,13.9,2.1c-0.4-3.2-1.6-4.6-4.2-4.3c-2.7,0.3-5.4,0.4-8.1,0.6
					c-2.2-0.7,3.4-2.5-0.4-3.1c-1.1-0.2-2.4-0.9-2.9,0.7C267.7,39.9,267.7,41.7,270,42.1z M271.1,25.1c1.6,0.1,3-0.1,4.1-1.8
					c-1.5-1.3-2.7-2.8-4.2-3.8c-2.1-1.3-4.4-2-4.6,2.1c-0.6,0.6-1.9-0.3-2.1,1.2c1,0.2,1.6-0.4,2.2-1c1.7-0.6,2.3,1,3.3,2
					c-0.7,0.5-2.4,0.6-1.7,1.8C268.8,26.9,270.1,25.3,271.1,25.1z M242.5,87.9c-0.4-2.9,0.2-4.3,3.5-4.3c14.1-0.1,28.2-0.7,42.3-1.1
					c2.1-0.3,4.5,1,6.8-1.4c-2.7-0.7-4.8-1.3-6.7,0.5c-14.6,0.3-29.1,0.8-43.7,1c-4,0-3.4,2.6-3.2,5.3c0.1,0.8,0.1,1.9,1.1,1.5
					C243.4,89.1,243,88.4,242.5,87.9z M244.4,114.2c0.7-1.1,2.1-1.3,2.3-0.2c0.8,4,3.5,3.4,6,3.4c20.5,0.1,41,0.2,61.5,0.3
					c0.8,0,2.4,1,2.4-1c-21.6,0-43.2-0.1-64.7,0.1c-3.3,0-4.2-1.8-4.6-4.7c-0.2-1.3,0.6-2.8-0.8-3.9c-0.1,1.7,0,3.4-0.5,4.8
					c-0.4,1.3-1.2,0.4-1.7-0.3c-0.3-1.7-0.6-3.4-1-5.1c-0.2-1.4-1.1-1.6-2.1-1.3c-0.9,0.3-2.4,1-2.3,1.3c0.3,2.4,0.6,4.9,1.7,6.9
					C241.4,116.1,243.1,114.7,244.4,114.2z M323,114.8c-2.1-6.3-4.1-12.5-6.3-18.8c-0.3-1-1.4-0.8-2.1-0.6c-1.1,0.3-1,1.3-0.7,2.1
					c1.9,5.9,3.9,11.9,5.9,17.8c0.4,1.3,1.4,1.4,2.3,1.2C322.9,116.3,323,115.6,323,114.8z M241.3,97.6c-1.5-1.9,0.1-6.1-3.3-7.2
					c-1-0.3-3.7,0.5-2.5,3.1c1.1,2.4-0.7,6.9,3.8,7.1C240.9,100.7,241.8,99.9,241.3,97.6z M228.6,67.2c1.8-0.6,3.9-0.6,3-2.9
					c-0.8-2.1-0.5-5.5-3.6-5.8c-0.7-0.1-3.6-0.3-2.8,2.2C226,63.1,226.1,66.2,228.6,67.2z M233.8,73.9c-1.3,1-3.8,0.7-2.9,2.9
					c0.9,2.3,0,6,3.4,6.5c0.9,0.1,3.3-0.3,2.5-2.8C236,78.3,236.4,75.2,233.8,73.9z M219.2,47.1c1.9,2.2,1.3,7.5,6.4,5.6
					c2.3-0.9,0.5-2.4,0.2-3.4C224.6,45.5,222.5,44.1,219.2,47.1z M295.6,51.7c-0.4,0.3-1.3,0.5-1.7,1.2c-0.7,1.1,3.7,7.6,5,7.4
					c0.6-0.1,1.3-0.5,1.5-1.1C301,58,297.2,51.8,295.6,51.7z M307.3,72c-1.3-2-1.3-5.1-3.8-6.3c-0.8-0.4-2.4,0.7-2.1,1.5
					c0.9,2.5,1.3,5.6,4,6.7C306.1,74.3,307.1,73.4,307.3,72z M221,40.3c-1.4-2.4-1.9-5.8-5.6-4.2c-1.4,0.6-1.4,1.4-0.8,2.8
					C216.1,42.4,218.2,42,221,40.3z M310.2,80.3c-1.3,0.3-2.6,0.7-2.2,1.9c0.7,2.1,0.8,4.9,3.2,5.8c0.8,0.3,2.1-0.2,1.7-1.7
					C312.5,84.1,311.9,81.7,310.2,80.3z M118.1,20.4c4.5,2.2,4.5,2.2,9.1-0.7C124,18.3,121.2,18.2,118.1,20.4z M197.6,13.1
					c1.7,2,3.5,2.2,5.2,2.7c1.4,0.5,2.3-0.2,2.3-1.8c0-1.4-1.2-1.8-2.1-1.3C201.4,13.7,199.8,12.7,197.6,13.1z M174.5,13.6
					c3.7,1.3,5.6-0.1,8.5-1.2C179.6,10.7,177.6,11.9,174.5,13.6z M109.5,12.9c1.7,2.7,3.2,5.4,6.7,2.3
					C114.1,13.6,112.5,11.2,109.5,12.9z M246.2,42.7c2.5,1.4,4.6,2.2,8,0.7C251,43.4,249.1,41.5,246.2,42.7z M128.6,16.4
					c2.8,1.8,4.5,1.5,6.3,0.5C133.2,17.1,131.4,15.9,128.6,16.4z M162.4,15.4c2.9,0.8,4.4-0.7,7-1.7
					C166.4,13.1,164.7,13.6,162.4,15.4z M297.5,82.4c1.8,0,3.7,0,5.5,0C301.2,81.8,299.5,80.6,297.5,82.4z M240.8,78.9
					c1.8,0,3.5,0,6.5,0C244.3,77.4,242.6,78.5,240.8,78.9z M156.9,17.2c2,1,3.7,0.4,5.9-1.5C160.1,15.1,158.7,16.7,156.9,17.2z
					 M211.1,11.8c-0.7-0.4-1.2-0.8-1.7-0.9c-0.1,0-0.6,0.7-0.6,1c0.1,0.7,0.6,1.2,1.3,1.1C210.4,12.9,210.6,12.3,211.1,11.8z
					 M146.5,18.8c0.1-1-0.4-1-0.9-1c-0.5,0.1-1,0.2-1.3,0.5c-0.4,0.5,0,1.1,0.5,1C145.4,19.3,146,19,146.5,18.8z M135.7,21.8
					c0.5,0.3,0.8,0.6,1.2,0.7c0.1,0,0.5-0.6,0.4-0.7c-0.1-0.4-0.5-0.7-0.7-1C136.3,21,136.1,21.3,135.7,21.8z M244.2,92.7
					c-0.4-0.3-0.7-0.5-1.1-0.8c-0.1,0.3-0.5,0.7-0.4,0.9c0.2,0.4,0.6,0.6,0.9,0.9C243.8,93.4,243.9,93.2,244.2,92.7z M232.9,40.1
					c-0.2,0.4-0.5,0.8-0.7,1.2c0.3,0.2,0.7,0.5,0.8,0.4c0.4-0.3,0.6-0.7,0.9-1C233.6,40.5,233.3,40.4,232.9,40.1z M261.1,40.1
					c0.6-0.2,1.3-0.2,0.9-0.9c-0.2-0.4-0.8-0.6-1.2-0.6c-0.5,0-1,0.4-0.7,1C260.1,39.9,260.8,39.9,261.1,40.1z M245.1,103.4
					c0.4-0.2,0.9-0.3,0.9-0.4c0-0.4-0.1-1-0.4-1.3c-0.4-0.4-0.9-0.2-0.9,0.4C244.6,102.5,244.9,103,245.1,103.4z M249.4,40
					c-0.3,0.2-0.7,0.4-1.1,0.6c0.2,0.2,0.5,0.5,0.7,0.4c0.4,0,0.8-0.3,1.2-0.5C250,40.4,249.8,40.2,249.4,40z M173.2,15.1
					c0.1-0.3,0.2-0.5,0.3-0.8c-0.2-0.1-0.5-0.4-0.7-0.3c-0.2,0.1-0.2,0.5-0.3,0.8C172.7,14.9,173,15,173.2,15.1z M126.9,15.1
					c-0.2,0.2-0.3,0.5-0.5,0.7c0,0.1,0.2,0.4,0.3,0.4c0.3-0.1,0.5-0.3,0.7-0.4C127.3,15.5,127.1,15.3,126.9,15.1z M315.4,112.3
					c-0.2-0.2-0.4-0.4-0.7-0.5c-0.1,0-0.4,0.2-0.3,0.3c0.1,0.3,0.2,0.5,0.4,0.8C315,112.7,315.2,112.5,315.4,112.3z M311.5,99.5
					c-0.2-0.2-0.5-0.3-0.7-0.4c0,0-0.3,0.3-0.3,0.3c0.1,0.3,0.3,0.5,0.4,0.7C311.2,99.9,311.3,99.7,311.5,99.5z M261.7,41.9
					c-0.2-0.1-0.6-0.4-0.7-0.3c-0.2,0.1-0.2,0.5-0.3,0.8c0.2,0.1,0.6,0.4,0.7,0.3C261.5,42.6,261.6,42.2,261.7,41.9z M238.5,72.5
					c-0.2,0.2-0.4,0.5-0.5,0.7c0,0.1,0.2,0.4,0.3,0.4c0.3-0.1,0.5-0.3,0.7-0.4C238.9,72.9,238.7,72.7,238.5,72.5z M233.6,58.6
					c-0.1,0.3-0.3,0.5-0.4,0.8c0,0.1,0.3,0.3,0.3,0.3c0.2-0.1,0.5-0.3,0.7-0.5C234,59,233.8,58.8,233.6,58.6z M291.4,55.5
					c-0.2,0.2-0.4,0.5-0.5,0.7c0,0.1,0.2,0.4,0.3,0.4c0.3-0.1,0.5-0.3,0.7-0.4C291.7,55.9,291.5,55.7,291.4,55.5z M116.8,10.6
					c0-0.2,0-0.3,0-0.5c-0.3,0-0.5,0.1-0.8,0.2c0,0,0,0.3,0,0.5C116.3,10.7,116.5,10.7,116.8,10.6z M163.4,10.8
					c-0.8-0.2-1.2-0.5-1.7-0.5c-0.3,0-0.6,0.2-0.9,0.4c0.3,0.2,0.6,0.7,0.9,0.7C162.2,11.4,162.6,11.1,163.4,10.8z M230.4,49.8
					c0-0.2-0.1-0.3-0.1-0.5c-0.2,0.1-0.5,0.2-0.7,0.4c0,0,0.1,0.3,0.1,0.4C229.9,50.1,230.1,50,230.4,49.8z M310.6,96.9
					c-0.1-0.2-0.1-0.5-0.2-0.7c0,0-0.3,0-0.4,0.1c-0.1,0.2-0.1,0.5-0.1,0.7C310.1,96.9,310.3,96.9,310.6,96.9z M210.3,21.5
					c-0.2-0.2-0.4-0.4-0.6-0.5c-0.1,0-0.3,0.1-0.4,0.1c0.1,0.2,0.1,0.6,0.2,0.6C209.7,21.7,210,21.6,210.3,21.5z M139.6,20.5
					c-0.1-0.2-0.3-0.5-0.4-0.7c-0.1,0.1-0.3,0.2-0.3,0.3c0,0.3,0.1,0.6,0.2,0.9C139.3,20.8,139.4,20.6,139.6,20.5z M240.1,76.6
					c-0.1-0.3-0.1-0.5-0.2-0.7c0,0-0.3,0-0.4,0.1c-0.1,0.2-0.1,0.5-0.1,0.8C239.6,76.7,239.9,76.7,240.1,76.6z M238.3,69.9
					c-0.2-0.1-0.4-0.2-0.7-0.3c-0.1,0-0.3,0.3-0.2,0.3c0.1,0.2,0.3,0.4,0.4,0.6C237.9,70.3,238.1,70.1,238.3,69.9z M305.4,83.4
					c-0.2,0.2-0.4,0.5-0.6,0.7c0.1,0.1,0.3,0.3,0.4,0.3c0.2-0.2,0.4-0.4,0.6-0.7C305.6,83.5,305.5,83.4,305.4,83.4z M123.4,15.2
					c0.1-0.2,0.2-0.5,0.3-0.7c-0.2,0-0.5-0.1-0.7-0.1c-0.1,0-0.2,0.3-0.2,0.4C123,14.9,123.2,15.1,123.4,15.2z M153.1,18.9
					c-0.2,0.1-0.5,0.2-0.7,0.4c0.2,0.1,0.4,0.3,0.6,0.4c0.1,0,0.3-0.1,0.4-0.2C153.3,19.3,153.2,19.1,153.1,18.9z M244.8,97
					c-0.2,0-0.4,0-0.6-0.1c0.1,0.1,0.2,0.2,0.3,0.3C244.5,97.2,244.6,97,244.8,97z M306.4,86.4c-0.2-0.1-0.4-0.1-0.5-0.2
					c0,0.1,0.1,0.2,0.1,0.3C306.1,86.5,306.2,86.5,306.4,86.4z M143.2,15.3c0,0.2,0,0.4-0.1,0.7c0.1-0.1,0.2-0.2,0.2-0.3
					C143.4,15.5,143.2,15.4,143.2,15.3z M257.4,41.7l-0.4-0.2l0,0.4L257.4,41.7z M189.1,10.6c0.1-0.2,0.1-0.4,0.2-0.6
					c-0.1,0-0.2,0.1-0.3,0.1C189,10.2,189,10.4,189.1,10.6z M156.8,12.2c0,0.1-0.1,0.2-0.1,0.4c0.1,0,0.3,0.1,0.3,0.1
					c0.1-0.1,0.1-0.2,0.1-0.4C157,12.2,156.9,12.2,156.8,12.2z"/>
				<path class="st7" d="M778.8,292.1c-1.7,0.8-1.3,2.7-1.7,4.1c-3.5,11.7-12.7,19.8-23.9,21c-2,0.2-2.6-0.3-2.6-2.4
					c0-17.7,0.1-35.3,0-53c0-2.9,1.4-2.9,3.4-2.9c10.3,0.3,20.4,9.8,23.6,22c0.3,1.2-0.4,3,1.3,3.7
					C778.8,287.2,778.8,289.6,778.8,292.1z"/>
				<path class="st8" d="M252.3,783.5c1-6.2-4.8-6.7-7.7-10.8c6.9-0.7,10.8-4.6,11.1-11.6c1.6-0.6,2,0.4,2.3,1
					c2.1,4.4,5.1,6.5,9.8,5.6c2.1-0.4,4.1,0.5,1.9,3c-3.6,3.9-2.9,8.2-1.8,12.7C262.7,783.5,257.5,783.5,252.3,783.5z"/>
				<path class="st8" d="M461.7,783.5c0.7-3.3,1.5-6.5,2-9.8c0.6-4.1,2.2-6.3,6.3-7c4-0.7,5.2,1.6,6.8,4.4c2.4,4.2,4.9,8.3,7.4,12.5
					C476.7,783.5,469.2,783.5,461.7,783.5z"/>
				<path class="st9" d="M547.8,783.5c-3.3-20.2-6.6-40.3-9.7-60.5c-0.6-4-2.6-3-4.9-2.9c-7.7,0.6-14.9-1-21.2-6.1
					c4.7,1.3,9.1,3.5,13.9,4c2.1,0.2,4.4,0.9,6.3,0.3c5.4-1.8,6.9,0.8,7.7,6.1c2.7,18.3,5.8,36.5,8.7,54.8c0.2,1.4,0.1,2.8,0.2,4.2
					C548.5,783.5,548.2,783.5,547.8,783.5z"/>
				<path class="st10" d="M82.8,716.2c-1.3,1.2-0.3,2.2,0.3,3.2c12,21.4,24.1,42.7,36.1,64.1c-0.7,0-1.3,0-2,0
					c-11.8-21.1-23.7-42.2-35.4-63.4c-0.8-1.4-3.6-3.3,0-4.9C82.1,715.5,82.5,715.8,82.8,716.2z"/>
				<path class="st8" d="M426.5,783.5c1.4-3.2,1-7.5,5-8.9c7.7-2.8,8.9-1.7,9.7,8.9C436.3,783.5,431.4,783.5,426.5,783.5z"/>
				<path class="st11" d="M135.8,783.5c0.9-4.5,3.8-6.4,7.7-6.5c3.8,0,4.7,3,5,6.5C144.3,783.5,140,783.5,135.8,783.5z"/>
				<path class="st8" d="M396.1,783.5c3.4-5.1,9.9-5.1,13.7,0C405.3,783.5,400.7,783.5,396.1,783.5z"/>
				<path class="st12" d="M185.7,8.1c-3.3,3.9-6.5,2.7-9.8,0C179.2,8.1,182.5,8.1,185.7,8.1z"/>
				<path class="st13" d="M169.8,11.2c-2.4,0-4.9,0.5-5.6-3.1c2.3,0,4.6,0,6.9,0C170.6,9.2,170.2,10.2,169.8,11.2z"/>
				<path class="st12" d="M216.1,8.1c-0.2,1.8,2.6,2.5,1.4,4.6c-0.5,0.9-1.4,0.5-2.2,0.2c-2.6-1-1.3-3.1-1.1-4.8
					C214.8,8.1,215.4,8.1,216.1,8.1z"/>
				<path class="st12" d="M222.9,8.1c-0.2,1.3,0.7,3.4-1.1,3.6c-2,0.2-1.7-2-1.9-3.6C221,8.1,221.9,8.1,222.9,8.1z"/>
				<path class="st9" d="M187.7,783.5c1.7-1.1,3.5-2.1,5.3-3.3c0.7,2.1-1.1,2.2-1.4,3.3C190.3,783.5,189,783.5,187.7,783.5z"/>
				<path class="st12" d="M169.8,11.2c0.4-1,0.8-2.1,1.2-3.1c0.7,0,1.3,0,2,0C173.1,10.6,172,11.6,169.8,11.2z"/>
				<path class="st12" d="M236.6,8.1c-1.3,3-2.6,3-3.9,0C234,8.1,235.3,8.1,236.6,8.1z"/>
				<path class="st12" d="M228.8,8.1c-0.2,0.9,0.5,2.3-1,2.3c-1.2,0-1.9-1-2-2.3C226.8,8.1,227.8,8.1,228.8,8.1z"/>
				<path class="st12" d="M244.4,8.1c-0.1,0.7-0.2,1.5-1,1.5c-0.8,0-0.9-0.8-1-1.5C243.1,8.1,243.8,8.1,244.4,8.1z"/>
				<path class="st7" d="M407.4,449.8c-24,0-43.2-20.8-43.2-46.7c0-25.7,19.6-47,43.2-46.9c23.6,0,43.4,21.5,43.3,47
					C450.7,428.9,431.3,449.8,407.4,449.8z M407.4,417.4c7.3,0,13.3-6.6,13.2-14.6c-0.1-7.7-5.9-14-13.1-14.1
					c-7.3-0.1-13.4,6.6-13.3,14.5C394.4,410.9,400.4,417.4,407.4,417.4z"/>
				<path class="st7" d="M572.4,303.3c0-13.3,0.1-26.5-0.1-39.8c-0.1-3.8,1-4.9,4.4-4.7c11.2,0.7,22.5-1.3,33.6,1.3
					c21.1,5,34.4,24.9,32.4,47.8c-1.9,21.6-19.2,38.8-40.1,39.4c-8.8,0.3-17.6-0.1-26.4,0.2c-3.4,0.1-4-1.2-4-4.5
					C572.5,329.8,572.4,316.6,572.4,303.3z M599.7,303.3c0,3.7,0.1,7.4,0,11.2c-0.1,2.6,0.5,3.5,3.1,2.8c5.7-1.6,10-7.5,10-14.1
					c0-6.5-4.4-12.5-10.1-14c-2-0.5-3-0.2-2.9,2.4C599.8,295.5,599.7,299.4,599.7,303.3z"/>
				<path class="st7" d="M458.8,391c0-9,0.3-18.1-0.1-27.1c-0.2-4.7,1.3-5.7,5.2-5.4c5.9,0.3,11.7,0.3,17.6,0c3.5-0.2,4.8,0.8,4.7,5
					c-0.2,17.7-0.1,35.4,0,53.2c0,1.5-1.1,3.7,1.5,4.2c2.9,0.6,3.5-0.9,3.5-3.8c-0.1-17.4,0.2-34.7-0.2-52.1
					c-0.1-5.7,1.6-6.8,6.3-6.5c5.8,0.4,11.7,0.2,17.6,0.1c2.7-0.1,3.7,0.7,3.7,3.9c-0.1,19,0.1,37.9-0.1,56.9
					c-0.2,17.3-13.8,30.7-30.3,30.5c-16.1-0.2-29.1-13.9-29.3-31.1C458.7,409.5,458.8,400.2,458.8,391z"/>
				<path class="st7" d="M659.6,447.4c3.3-12.3,6.4-24.1,9.6-35.9c4.3-16.1,8.6-32.2,12.7-48.3c0.9-3.4,2.1-5,5.6-4.7
					c4.4,0.4,8.8,0.2,13.2,0.1c2.3-0.1,3.4,0.7,4.1,3.3c7.2,27.3,14.6,54.5,21.9,81.8c0.8,2.8,0.5,4.1-2.7,4c-6.3-0.3-12.7-0.2-19,0
					c-2.7,0.1-4-0.8-4.7-3.8c-1.9-7.8-4.2-15.5-7.2-23.2c-2.1,7.8-4.2,15.6-6.3,23.4c-0.5,1.9-0.7,3.7-3.3,3.7
					C675.8,447.4,668,447.4,659.6,447.4z"/>
				<path class="st7" d="M356,388.6c-0.6,8.3,1,18.5-1,28.5c-3.5,17.4-18.9,31.9-34.4,32.7c-3.1,0.2-3.9-0.7-3.8-4
					c0.2-7.1,0.1-14.2,0-21.2c0-2.6,0.4-4,3.2-4.8c5.7-1.5,8.6-6,8.7-12.4c0.1-5-0.2-9.9,0.1-14.9c0.2-3.6-0.6-5.1-4.2-4.8
					c-3.9,0.3-7.8,0-11.7,0.1c-2.6,0.1-3.9-0.5-3.8-3.8c0.2-7.3,0.2-14.5,0-21.8c-0.1-2.8,0.8-3.7,3.3-3.7c13.5,0.1,27,0.1,40.6,0
					c2.9,0,3.1,1.5,3,3.9C356,370.6,356,378.7,356,388.6z"/>
				<path class="st7" d="M734.7,403c0-13.5,0.1-26.9-0.1-40.4c0-3.3,0.8-4.3,3.8-4.2c6.5,0.2,13,0.2,19.5,0c3.3-0.1,4,1.3,4,4.6
					c-0.1,16.6,0.1,33.3-0.2,49.9c-0.1,4.2,0.7,5.8,5,5.7c11-0.3,11-0.1,11,11.9c0,4.6-0.1,9.2,0,13.8c0.1,2.4-0.7,3-2.8,3
					c-12.5-0.1-25.1-0.1-37.6,0c-3.2,0-2.8-2-2.8-4.1C734.7,429.9,734.7,416.5,734.7,403z"/>
				<path class="st7" d="M557.3,403.4c0,13.3-0.1,26.6,0.1,39.8c0,3.1-0.6,4.4-3.8,4.3c-6.7-0.3-13.4-0.1-20,0
					c-2.3,0-3.5-0.2-3.5-3.3c0.1-27.4,0.1-54.9,0-82.3c0-2.6,0.9-3.3,3.2-3.3c6.7,0.1,13.4,0.2,20,0c3.2-0.1,4.2,1,4.1,4.5
					C557.2,376.5,557.3,389.9,557.3,403.4z"/>
				<path class="st7" d="M651,302.5c0-12.9,0.1-25.9-0.1-38.8c0-3.5,0.7-5.1,4.3-4.9c6.3,0.3,12.7,0.2,19.1,0c2.7-0.1,4,0.4,4,4
					c-0.1,26.9-0.1,53.9,0,80.8c0,3.4-1.1,4.1-3.9,4c-6.5-0.2-13-0.2-19.6,0c-3,0.1-3.9-1-3.9-4.2C651,329.8,651,316.1,651,302.5z"
					/>
				<path class="st7" d="M746.5,303.7c0,13.3-0.1,26.6,0.1,39.8c0,3.4-0.9,4.2-3.9,4.1c-6.7-0.2-13.4-0.2-20,0
					c-2.8,0.1-3.6-0.9-3.5-3.9c0.1-26.9,0.1-53.8,0-80.8c0-3.4,1-4.2,3.9-4.1c6.7,0.2,13.4,0.2,20,0c2.9-0.1,3.5,1,3.5,4
					C746.5,276.4,746.5,290.1,746.5,303.7z"/>
				<path class="st7" d="M652.6,450.1c-9.2-13.8-17.5-26.2-25.9-38.6c-1.2-1.7-1.4-3.5-1.4-5.4c0-14.3,0.1-28.7-0.1-43
					c0-3.4,0.8-4.7,4-4.6c6.7,0.2,13.3,0.1,20,0.1c2,0,3.4,0.1,3.4,3C652.5,390.5,652.6,419.5,652.6,450.1z"/>
				<path class="st7" d="M596,359.8c8.4,12.6,16.9,25.1,25.3,37.7c1,1.4,1,2.9,1,4.5c0,13.8-0.1,27.6,0.1,41.5
					c0,3.4-0.9,4.2-3.8,4.1c-6.7-0.2-13.4-0.1-20.1,0c-2.3,0-3.6-0.3-3.5-3.4c0.1-28,0.1-55.9,0.1-83.9
					C595.3,360.1,595.6,359.9,596,359.8z"/>
				<path class="st7" d="M586.9,447.4c-8.5,0-16-0.1-23.5,0.1c-2.4,0-3-0.9-3-3.4c0.1-27.4,0.1-54.9,0-82.3c0-3.2,1.4-3.2,3.6-3
					c9.6,0.8,18.2,9.3,19.9,19.6c1.9,11.2-3.3,22.3-12.9,26.4c-3.9,1.6-4,3-2.1,6.6C574.9,423,580.6,434.8,586.9,447.4z"/>
				<path class="st7" d="M682.6,288.3c0-7.8,0-15.6,0-23.3c0-6.6,0.6-7.1,6.8-5.5c12,3.1,20.8,15.3,20.7,28.6
					c-0.1,13.7-8.9,25.4-21.5,28.4c-6,1.4-6,1.4-6-5.3C682.6,303.5,682.6,295.9,682.6,288.3z"/>
				<path class="st4" d="M445.2,566.5c-0.4-0.3-0.7-0.7-1.1-1C444.4,565.8,444.8,566.2,445.2,566.5z"/>
				<path class="st4" d="M126.5,122.6c-3.4,6.7-6.5,13.5-11.9,18.6c-3.3,3.1-7.1,7.2-11.5,3.7c-4.4-3.5-1.8-8.8-0.2-13.1
					c2.5-6.5,7.1-11.3,11.3-16.5c0.6-0.3,1.1-0.9,0.7-1.5c-0.6-0.8-1.4-0.3-2,0.2c-5.8,2.8-11.6,5.6-18,6.5
					c-5.8,0.8-10.8-0.9-11.4-4.5c-0.8-5.4,3-7.8,6.4-10.1c5.3-3.6,11.3-5.1,17.5-6.2c2.2-0.4,4.4-0.8,6.7-1.5
					c-6.5-1-12.9-2.1-19-4.7c-3.4-1.4-6.6-3.1-9.1-5.9c-1.7-1.9-3.4-4-2.4-7c1-3.1,3.5-4,6.2-4.3c5.5-0.6,10.7,0.7,15.7,2.9
					c2.9,1.3,5.7,2.6,8.5,4c0.7,0.4,1.3,0.8,2,1.2c0.3,0.4,0.3,1.6,1.1,0.8c0.4-0.4,0.1-1.3-0.7-1.4c-0.4-0.6-0.9-1.1-1.3-1.7
					c-4.9-5.7-10-11.2-12.6-18.7c-1.4-4-3.2-8.6,0.8-11.7c3.9-3,7.5,0.1,10.5,2.8c6.3,5.7,10,13.4,14.3,21c-0.4-4-0.9-8-1.2-12
					c-0.5-6.2-0.2-12.4,2.3-18.2c1.1-2.5,2.6-4.8,5.3-4.9c3-0.2,4.7,2.3,5.8,4.9c2.7,6.3,2.9,13,2.2,19.8c-0.3,3-0.7,5.9-1.1,9.4
					c2.5-1.3,2.8-3.6,3.7-5.3c3.5-6.5,7.2-12.7,13.2-16.8c2.6-1.7,5.5-3,8.2-0.6c2.5,2.2,2.2,5.4,1.4,8.4c-2.3,9-8,15.6-14,22.1
					c2.3,1.4,3.8-0.2,5.5-1c6.1-3,12.4-5.5,19.3-5c3.1,0.2,6.1,0.9,7.1,4.5c1,3.4-1.1,5.8-3.3,7.7c-6.8,6.1-15.2,7.7-23.6,9.2
					c-1.1,0.2-2.3,0.2-4.7,0.5c6.1,1.4,11,2.5,15.8,3.7c4.3,1.1,8.4,3,11.9,6c2.4,2.1,5,4.6,3.8,8.4c-1.2,3.8-4.6,4.3-7.7,4.5
					c-5.8,0.3-11.2-1.8-16.5-4.1c-2.2-1-4.5-2.1-6.7-3.2c-0.8-1-1.7-1.2-2.7-0.4c0.6,0.4,1.2,0.9,1.8,1.3c4.9,5.7,10,11.2,12.8,18.6
					c1.5,4.1,3.6,8.9-0.5,12.2c-4.1,3.3-7.7-0.3-10.8-3.1c-4.7-4.2-7.9-9.8-10.8-15.6c-0.7-1.4-0.9-3.4-3.3-4.4
					c0.5,3.3,0.9,6.3,1.2,9.2c0.8,6.4,0.5,12.7-1.6,18.8c-1,3-2.5,6.1-6,6.2c-3.8,0.1-5.3-3.2-6.4-6.3c-2.9-8.6-1.7-17.4-0.6-26.2
					c0.3-1,0.5-2,0-3C127.3,121.2,126.9,121.9,126.5,122.6z M145.6,98.4c0-6.8-4.8-12.2-11-12.4c-5.8-0.1-11.3,5.6-11.4,12.1
					c-0.1,6.6,4.9,12.1,11.1,12.2C140.7,110.4,145.6,105.2,145.6,98.4z M140.7,77c0.7,0.1,0.8-0.5,0.8-0.9c0-0.2-0.2-0.5-0.3-0.7
					c-0.3,0.4-0.6,0.7-0.9,1.1C140.3,76.5,140.6,76.8,140.7,77z"/>
				<path class="st12" d="M131.9,26.1c0.3-1.4-2.2-2.1-1.1-3.5c0.6-0.7,2.2-1.1,3-0.8c1.6,0.7,0.9,2.6,1.1,4.1
					C133.9,26,132.9,26.1,131.9,26.1z"/>
				<path class="st12" d="M138,25.3c0.2-0.1,0.5-0.2,0.7-0.1c0,0-0.3,0.3-0.3,0.3L138,25.3z"/>
				<path class="st12" d="M154.7,21.5c0.6-0.2,1.2-0.4,1.7-0.6C155.9,21.4,155.4,21.9,154.7,21.5z"/>
				<path class="st12" d="M229.6,88.1c0.1,0.2,0.2,0.5,0.2,0.8C229.5,88.7,229.4,88.5,229.6,88.1z"/>
				<path class="st12" d="M184.8,18.8c0.2,0,0.4,0,0.7,0.1c0,0-0.4,0.1-0.4,0.1L184.8,18.8z"/>
				<path class="st12" d="M165.5,18.8c0.2-0.1,0.4-0.1,0.6-0.1c0,0-0.3,0.3-0.3,0.3L165.5,18.8z"/>
				<path class="st12" d="M236.7,120.9c0.3,0.3,0.6,0.5,0.8,0.8C236.9,121.9,236.6,121.6,236.7,120.9z"/>
				<path class="st12" d="M231.2,95.4c0.2,0.4,0.3,0.8,0.5,1.1C231.5,96.2,231.4,95.8,231.2,95.4z"/>
				<polygon class="st12" points="235.6,114.9 235.7,115.4 235.5,115.2 				"/>
				<path class="st12" d="M147.8,23.2c0.2-0.1,0.4-0.2,0.7-0.2c0,0-0.3,0.3-0.3,0.3L147.8,23.2z"/>
				<path class="st14" d="M301.1,639.3c3.3,6.1,6.3,12.4,10,18.2c2.8,4.3-0.5,4.9-2.6,6.4c-1.9,1.4-3.6,3.4-5.6-0.6
					c-6.3-11.9-13-23.6-19.6-35.3c-1.2-2.1-1.1-3,0.9-4.5c4.2-3.2,7.8-4.8,12.7-1c3.8,2.9,8.3,4.7,13.5,7.5c0-6.9,0-12.9,0-19
					c0-4,4.7-9.6,8.3-10.1c1.3-0.2,1.6,0.9,2.1,1.7c6.8,12.1,13.5,24.2,20.3,36.3c2.4,4.3-1.5,4.1-3.1,5.3c-1.6,1.3-3.4,3.8-5.4,0
					c-3.8-7.2-8-14.2-12-21.2c-0.3-0.7-0.9-1.9-1.3-0.4c-0.4,1.4-0.1,3-0.1,4.5c-0.2,4.8-0.4,9.5-0.4,14.3c0,2.8-0.8,3.4-3.2,2.1
					c-4.6-2.5-9.4-4.6-14.1-6.9c-0.5-0.6-1.4-1.4-1.8-0.5C299,637.4,300.2,638.4,301.1,639.3z"/>
				<path class="st14" d="M222,689.9c3.6,6.5,6.9,13.2,10.8,19.5c2.6,4.3-1,4.6-2.8,6c-1.9,1.4-3.6,3.6-5.7-0.5
					c-3.8-7.6-8.2-14.8-12.4-22.2c-2-3.5-4.1-7-5.8-10.7c-0.8-1.8-4-3.7-1.6-5.6c2.4-2,4.9-5.3,9-3.5c7.7,3.4,15.4,6.6,23.1,9.9
					c1.2,0.5,2.6,1.6,3.6,0.4c1.1-1.3-0.3-2.6-1-3.7c-3-5.5-5.8-11.1-9.2-16.2c-2.3-3.4,1.3-4.4,1.4-6.6c2.2,1.7,4.8-3.8,7.3,1.1
					c5.7,11.3,12.2,22.1,18.3,33.2c0.9,1.6,3.5,3.6,1.6,5.3c-2.3,2-4.6,5-8.5,3.2c-7.5-3.4-15.1-6.5-22.7-9.7
					c-1-0.4-2.2-0.7-3.2-1.1c-0.8-0.8-1.8-1.7-2.8-0.8C220.5,688.6,221.4,689.4,222,689.9z M240.5,681.6c-0.5,1.5-0.7,1.9-0.7,2.3
					c0,0.2,0.5,0.5,0.7,0.5c0.4,0,1,0,0.7-0.8C241.1,683.2,240.9,682.7,240.5,681.6z"/>
				<path class="st14" d="M269.1,689.2c-1.4,0-1.6-1.2-2.1-2c-6.7-11.9-13.3-23.9-20-35.8c-1.2-2-0.8-3,1-4.1
					c8-5.2,15.9-10.3,23.7-15.8c3.1-2.2,3.6,0.5,4.5,2.3c0.9,1.8,3.7,3.7,0.1,5.9c-5.1,3.1-9.9,6.8-15.1,9.8
					c-3.8,2.2-1.3,4.1-0.3,6.3c1.1,2.3,2.1,4.3,5,2c4-3,8.4-5.4,12.4-8.4c3.1-2.3,3.6,0.5,4.5,2.3c1,1.9,3.5,3.8,0,5.9
					c-4.4,2.7-8.6,5.7-13,8.5c-4,2.5-0.2,4.4,0.5,6.3c0.7,1.9,1.4,4.4,4.4,2.1c4.8-3.6,10.1-6.5,14.9-10.1c2.8-2.1,4-0.8,5.1,1.8
					c0.9,2.1,3.6,3.9-0.2,6.3c-7.9,4.9-15.6,10.2-23.4,15.3C270.4,688.4,269.7,688.8,269.1,689.2z"/>
				<path class="st14" d="M388.1,610.8c-2.4,1.6-4.3,2.9-6.2,4.2c-2.5,1.8-4.5,1.5-6.5-1.2c-2.5-3.4-5.5-4.6-9-1.2
					c-1.2,1.2-2.7,2.1-4.1,2.8c-5.4,2.6-8.8,6-6.3,13.2c0.8,2.4-5.2,8.7-7.3,8c-1.6-0.5-1.2-2.3-1.4-3.6c-1.8-13.8-3-27.6-5.5-41.2
					c-1.1-6.2,1.5-8.2,5.4-10.4c1.1-0.6,2-0.9,3.1,0C362.7,591.1,375.2,600.7,388.1,610.8z M353.5,610.2c3.6-2.3,6.5-4.3,9.9-6.5
					c-4.3-3.4-7.9-6.4-12.2-9.8C352,599.7,352.7,604.5,353.5,610.2z"/>
				<path class="st14" d="M195,727.1c0.8,2.8,0.7,5.7,0.4,8.6c-5.5,8.6-12.8,14.1-22.8,13.1c-13.2-1.3-21-12.3-21-28.9
					c0.2-0.8,0.4-1.5,0.6-2.3c4.6-12.6,14.5-20.1,25.2-19.1c2.1,0.2,4.4,0.4,3.4,3.5c-0.8,2.6,1.5,7.2-4,7.2
					c-8.7-0.1-12.8,3-14.6,10.5c-1.1,2.2-1.1,4.4,0,6.6c1.5,7.3,6.8,12.4,13,12.6c6.3,0.2,11.2-4.5,13.5-12.7
					c0.6-0.1,1.2-0.3,1.9-0.4C192,726.1,193.5,726.6,195,727.1z"/>
				<path class="st14" d="M215.8,722.4c-3.4,1.2-6.9,1.6-10.4,1.9c-6-10.7-11.7-21.6-18.1-32c-3.8-6.2,2.5-6,4.1-8.2
					c1.8-2.5,3.4,0.7,4.4,2.6C202.5,698.7,209.1,710.6,215.8,722.4z"/>
				<path class="st14" d="M298.2,581.6c0.8,2.9,5.2,4.1,4.4,6.7c-0.6,2.1-4.7,1.4-7,1.8c-4.8,0.8-3.4,6.5-7.4,7.8
					c-0.2-8-5.6-10.3-13.4-11.4c7.3-4.1,7.9-10.3,7.9-16.8c8.6,4.3,8.6,4.3,16.2,1.3c1.1,2.5-1.1,4.7-0.6,7.2
					C297.5,579.2,296.7,580.4,298.2,581.6z"/>
				<path class="st14" d="M254.5,621c-1.5-8.1-5.8-11.4-13-12c6.6-3.8,7.3-9.8,6.4-17.9c5.6,5.9,10.9,7,16.9,2
					c-2.3,7-2.5,13.2,4.1,18C261.9,610.8,257.1,613.7,254.5,621z"/>
				<path class="st14" d="M144.2,660.7c5.5,5.9,11,5.3,17.3,1.4c-4.4,7.4-1.3,12.6,3.1,17.1c-0.6,1.6-1.5,1.2-2.2,1.2
					c-4.6-0.4-8.2,0.9-10,6.1c-0.4,1-0.7,2.5-2.3,2.3c-1.9-0.2-1.1-1.9-1.3-2.9c-0.9-6.9-6.1-6.8-11.6-8.2
					C143,673.5,146.8,668.8,144.2,660.7z"/>
				<path class="st14" d="M200,656.6c-8.9,1.5-8.9,1.5-14.2,9.2c-2.5-2-1.8-6.1-4.5-8.1c-2.5-1.9-5.5-1.7-8.5-3.6
					c5.5-3.7,9.2-8.3,6.3-16.4c5.6,4.6,11.1,5.8,16.9,0.7c0.1,4.4-2.4,7.6-1.3,10.7C195.7,651.8,198.1,654,200,656.6z"/>
				<path class="st14" d="M206.2,632.1c7.1-3.7,7.9-9.6,6.2-18.2c6,6.8,11.4,7,17.4,2.9c-2.7,6.9-2.3,12.7,3.8,17.5
					c-6.8,0.1-12.1,1.9-14.2,10C217.7,636.6,213.7,632.4,206.2,632.1z"/>
				<path class="st14" d="M375.5,646.3c0-1.7,0-3.5,0-5.9c2.9,1.8,5.3,4,7.9,4.7c2.9,0.7,5.3-2.3,9.1-3.1
					c-2.8,6.8-2.5,12.7,3.8,17.6c-7.2-0.7-12,2-14.3,9.7c-1.9-7.2-5.2-12-12.4-11.3c0.7-4.6,6.9-4.4,6.1-9.6
					C375.6,647.7,375.6,647,375.5,646.3z"/>
				<path class="st14" d="M333,566.4c-6.2-1.6-5.6,5.6-9.2,8.3c-1.6-6.7-4.4-12.2-12.7-11.3c6-4.4,8.6-9.5,5.9-18.4
					c6.2,5.4,11.5,7.5,17.1,2.2c0.2,1.2,0.4,1.8,0.3,2.2c-2.1,5.4-1.9,10.1,2.7,14c1.6,1.3,1,2.2-0.7,2.5
					C335.2,565.7,334,565.6,333,566.4z"/>
				<path class="st14" d="M340.7,663.4c4.7,4.9,9.7,6.3,15.3,1.7c0.3,0.1,0.7,0.1,1,0.2c-0.1,1-0.1,2-0.2,3c-0.9,1-1,2.2-0.9,3.4
					c-1.4,2.1-0.9,3.8,0.6,5.6c1.4,1.6,3.1,3,4.1,6.1c-7-1.3-11.5,1.7-13.6,8.8c-0.6-0.5-1.2-1.1-1.8-1.6c-0.5-7.3-5.2-9.2-11.1-9.3
					c1.2-4.8,8.6-5.2,6.1-11.6c0-1.1-0.1-2.1-0.1-3.2c0-0.7,0-1.5,0-2.2C340.3,664,340.5,663.7,340.7,663.4z"/>
				<path class="st14" d="M323.5,700.8c-0.1,1-0.5,1.6-1.4,1.7c-6.5,0.9-12.8,2.9-19.4,3.2c-2.5-2.1-3.8-3.9,0.2-6.1
					c2.3-1.2,4.8-3.1,2.6-7.1c-0.7-1.2,0.4-3.6,0.8-6.3c5.1,4.9,10.4,6.8,15.8,1.1C323.6,692.2,317.7,697.1,323.5,700.8z"/>
				<path class="st10" d="M95.7,664.6c-1.9-2.5-4.1-4.2,0-6.9c37.7-24.7,75.4-49.6,113-74.5c0.7-0.4,1.4-0.8,2.6-0.4
					c-2.6,2-5.1,4.1-7.8,5.9c-30.9,20.3-61.8,40.5-92.6,60.9c-4.5,3-9.4,5.5-13.4,9.5C95.9,660.8,95.5,662.3,95.7,664.6z"/>
				<path class="st10" d="M356.2,513.6c3.3-1.2,5.9,1.3,8.8,1.9c8.7,1.9,16.8,0.6,24.5-4c2.5-1.5,3.7-1.6,5.3,1.3
					c16.9,30.5,34,60.9,51,91.4c-0.3,0.2-0.6,0.5-0.9,0.7c-3.6-6.3-7.3-12.5-10.8-18.8c-11.1-19.8-22.2-39.7-33.3-59.5
					c-1.9-3.5-4-6.9-5.8-10.4c-1.6-3.2-2.9-4.3-6.7-2.4C377.8,519.1,366.9,519.8,356.2,513.6z"/>
				<path class="st11" d="M125.5,752.3c-0.1,0,0.7,0.2,1.5,0.3c2.2,0.3,5.4-0.3,6.1,2c0.8,2.4-2.7,2.7-4.1,4.1
					c-0.6,0.6-1,1.2-1.2,2.1c-0.2,0.8-0.9,1.9-1.4,1.9c-1,0-2.1-0.6-3.1-1c1.5-3.3-1-5.9-1.2-8.9
					C122.1,751.6,123.7,751.8,125.5,752.3z"/>
				<path class="st11" d="M413.9,593.9c-0.2,2.4,1.7,3.3,0.7,4.9c-0.3,0.1-0.7,0.3-0.8,0.2c-1.1-1.7-2.3-3.4-3.3-5.1
					c-1.1-1.7-0.4-3,1.3-2.5c2.2,0.6,3,0.3,3.5-2.2c0.5-2.5,2.6-3.1,4.7-2.2c2.4,1.1,3.1,3.4,2.8,6.1c0,0.4-0.5,0.8-0.8,1.1
					C419.1,589.2,416.7,596.3,413.9,593.9z"/>
				<path class="st11" d="M413.4,574.6c-1.2,1-1.7,1.7-0.9,3.2c0.7,1.3,2.9,3.3,1.1,4.3c-1.6,0.9-4.1,1.9-6.2,0.4
					c-0.7-0.4-1.4-0.8-2.1-1.1c-0.9-0.3-2.1,0-2.4-1.3c-0.4-1.7,1-2.2,2-2.5c2.8-0.7,3-5.5,6.7-4.7
					C412.8,573.3,413.1,573.7,413.4,574.6z"/>
				<path class="st11" d="M141.7,769c-2.6-0.1-4.6-0.8-4.9,3.1c-0.1,1.9-1.8,2.8-3.6,2.9c-2.3,0.1-3.5-1.5-4.4-3.5
					c-0.5-1.2-1.5-2.9,0.2-3.6c1.8-0.7,1.3,1.4,1.7,2.4c0.5,1.4,1.1,2.8,2.7,2.1c1.6-0.7,1.6-2.2,0.5-3.4c-2.3-2.9-0.3-3.6,1.6-5
					c2.6-1.8,3.4-0.1,4.4,1.9C140.5,766.9,141.1,767.9,141.7,769z"/>
				<path class="st11" d="M391.9,549.6c3.3-4.9,5.7-4.6,8.5,1c-0.1,1-0.2,2.1-0.3,3.1c-1.6,1.7-3.3,3.4-5.6,4
					c-3.9,1-6.3-1.7-5.7-6.6c2.3,0.3,1.3,5.2,4,3.9c1.7-0.8-0.7-2.2-0.8-3.4C391.9,550.9,391.9,550.2,391.9,549.6z M398.1,550.8
					c-0.2-1.1-0.8-2.3-2.1-2.2c-1.4,0.1-2,1.1-1.7,2.5c0.2,1.4,1.1,2.3,2.3,2.1C397.6,553.2,398.2,552.3,398.1,550.8z"/>
				<path class="st11" d="M399.2,562.3c1.6-1.9,3.3-3.7,5.8-2.2c2.4,1.5,3.6,3.8,2.6,7c-1.9,0-1.5-1.7-1.8-2.7
					c-0.5-1.4-1.3-2.7-2.9-2c-1.7,0.7-1.1,2.5-0.4,3.6c0.9,1.5,1.8,2.8-0.2,3.8c-1.3,0.7-2.7,2.8-4.2,1.4c-1.5-1.4-3.6-3.8-2.8-5.7
					c0.9-2.3,1.6,0.8,2.5,1.1c0.4,0.9,0.5,2.3,1.9,1.9c1.2-0.3,0.8-1.4,0.4-2.1C399.4,565.1,399.1,563.7,399.2,562.3z"/>
				<path class="st11" d="M423.1,611.1c-3.7,0-5.7-2.3-5.2-5.5c1-6.2,5.6-1.9,8.5-2.8c0.9-1.5-1.7-2.7,0-4.5c2.3,1.5,3,4.3,4.3,6.5
					c1,1.8-0.3,2.2-1.6,1.9c-1.7-0.4-3.4-1.3-5.1-1.7c-1.2-0.3-2.7-0.8-3.4,0.8c-0.7,1.7,0.4,2.6,1.7,3.2
					C422.9,609.3,423.3,609.7,423.1,611.1z"/>
				<path class="st11" d="M122.3,739.6c0.2-1.3-1.8-2.3-0.3-4.1c2.2,1.3,2.9,3.9,4.1,6c0.4,0.7,0,1.8-0.5,1.6
					c-4.1-1.8-4.2,2.5-5.9,4.3c-1.2,1.2-2.7,1.1-4,0c-2-1.8-3-4-2-6.7c1.8-0.1,1.6,1.1,1.8,2.1c0.2,1.4,0.9,2.9,2.5,2.6
					c1.6-0.3,1.1-1.7,0.8-3c-0.9-3.7,1.6-1.9,2.9-2.1c0.4,0,0.7,0.1,1.1,0.1C122.6,740.3,122.5,740,122.3,739.6z"/>
				<path class="st10" d="M90.5,708.1c7.9-20,7.9-20,7.9-34.2C102.3,682.3,99.9,698.4,90.5,708.1z"/>
				<path class="st11" d="M109.7,736.7c-2.2-2.4-3.4-5.2-4.7-8c2.6-1.5,4.5,0.3,6.5,0.8c1.6,0.4,3.3,1.5,4.3-0.6
					c1.1-2.1-1-2.5-2.1-3.4c-0.3-0.2-0.3-0.9-0.5-1.6c2.5-0.8,3.8,0.7,4.8,2.5c0.7,1.4,0.8,3.1-0.3,4.5c-2.4,2.9-5.1,0.9-7.8,0.5
					C108.5,733.2,111.6,734.5,109.7,736.7z"/>
				<path class="st11" d="M394.7,538c-4.4,2.2-7.9,1.4-11,2.2c-0.7,2.3,2.4,3.6,0.9,6.3c-2.2-1.8-2.9-4.3-4.2-6.4
					c-0.5-0.8-0.6-2,0.5-2.1C385,537.5,389.2,535.9,394.7,538z"/>
				<path class="st10" d="M441.9,626.6c-6.1,8.6-8.7,18.3-7.6,29.8c-4-6.1-0.4-21.5,6.7-30.6C441.3,626.2,441.6,626.4,441.9,626.6z"
					/>
				<path class="st10" d="M445.8,604.2c2.2,4,6.8,8.2,6,12c-0.8,3.7-5.9,6.3-9.1,9.4c-0.2-0.3-0.5-0.6-0.7-0.9
					c1.2-2.6,3.3-4.5,5.5-5.8c3.7-2.1,3.1-4.3,1.1-7.3c-1.4-2.1-2.4-4.5-3.6-6.8C445.2,604.7,445.5,604.5,445.8,604.2z"/>
				<path class="st10" d="M429.6,678.8c3.4-2.5,6.9-3.8,7.7-6.2c0.7-2-1.9-5.2-2.7-8c-0.5-1.6-1.5-3.2-0.6-5.6
					c1.9,4.6,3.6,8.9,5.3,13.1c0.3,0.7,0.2,1.4-0.5,1.9C436.2,675.6,433.9,677.9,429.6,678.8z"/>
				<path class="st11" d="M111.7,715.9c0,1-0.8,1.4-1.5,1.9c-2.1,1.3-4.1,2.8-6.2,4.1c-0.9,0.6-2.1,1.9-2.7,0
					c-0.2-0.7,0.7-2.6,1.4-2.8c2.6-1,5.8-1.1,5.5-5.5c0-0.1,0.9-0.4,1.2-0.2C110.5,713.9,111.4,714.7,111.7,715.9z"/>
				<path class="st10" d="M234,568.2c-5.9,3.9-11.8,7.8-17.7,11.7c-0.2-0.4-0.5-0.8-0.7-1.2c5.9-3.9,11.8-7.8,17.7-11.7
					C233.5,567.4,233.8,567.8,234,568.2z"/>
				<path class="st10" d="M283.1,534.1c-4.4,5.5-11,7.6-15.6,12.9c-0.4,0.5-1.2,0.5-1.6-0.3c-0.5-1.2,0.5-1.5,1.1-1.9
					C272.4,541.2,277.8,537.7,283.1,534.1z"/>
				<path class="st10" d="M288.2,530.8c5.8-3.8,11.7-7.7,17.5-11.5c0.2,0.4,0.4,0.8,0.6,1.1c-5.8,3.9-11.7,7.7-17.5,11.6
					C288.6,531.6,288.4,531.2,288.2,530.8z"/>
				<path class="st11" d="M427,621.7c-0.6-0.6-1.5-1.3-2.1-2.2c-0.6-0.9-0.1-1.6,0.6-2.1c2.5-1.6,4.9-3.3,7.4-4.9
					c0.7-0.5,1.7-0.7,2.1,0.2c0.5,0.9-0.2,1.5-1,2c-1.9,1.2-3.8,2.6-5.8,3.8C426.9,619.2,429.7,621.2,427,621.7z"/>
				<path class="st10" d="M237.8,564.4c6-4.1,11.9-8.2,17.9-12.3c0.3,0.5,0.5,0.9,0.8,1.4c-6.1,3.9-12.3,7.8-18.4,11.7
					C238.1,564.9,238,564.6,237.8,564.4z"/>
				<path class="st10" d="M315.5,512.8c4.3-2.8,8.5-5.6,12.8-8.4c0.2,0.4,0.4,0.8,0.6,1.2c-4.3,2.8-8.5,5.6-12.8,8.4
					C315.9,513.5,315.7,513.1,315.5,512.8z"/>
				<path class="st15" d="M399.2,562.3c-0.1,1.4,0.2,2.8,0.8,4.1c0.4,0.7,0.8,1.8-0.4,2.1c-1.4,0.4-1.5-1-1.9-1.9
					C398,565.1,398,563.4,399.2,562.3z"/>
				<path class="st15" d="M258.1,552.1c0.7-2.7,1.8-3.3,3.7-3C260.9,550.9,259.6,551,258.1,552.1z"/>
				<path class="st10" d="M87.1,712.5c-1.1,1.6-2.7,2.7-4.3,3.7c-0.3-0.3-0.7-0.6-1-1c1.5-1.3,3-2.6,4.5-3.9
					C86.6,711.7,86.9,712.1,87.1,712.5z"/>
				<path class="st10" d="M86.3,711.3c1.1-1.6,2.2-3.3,3.2-4.9c0.5,0.5,1,1,1.4,1.5c-0.7,2-2.2,3.4-3.9,4.6
					C86.9,712.1,86.6,711.7,86.3,711.3z"/>
				<path class="st15" d="M319.1,627.1c0-1.5-0.3-3.2,0.1-4.5c0.5-1.5,1-0.3,1.3,0.4C320,624.3,319.6,625.7,319.1,627.1z"/>
				<path class="st15" d="M162.2,726.2c-1.1-2.2-1.1-4.4,0-6.6C162.2,721.8,162.2,724,162.2,726.2z"/>
				<path class="st15" d="M285.5,709c-1.8,1.2-3.8,1.2-5.8,1.1C281.4,708.3,283.5,709.3,285.5,709z"/>
				<path class="st15" d="M301.1,639.3c-0.9-0.9-2.1-1.9-1.6-3.3c0.4-0.9,1.3-0.1,1.8,0.5C301.2,637.5,301.1,638.4,301.1,639.3z"/>
				<path class="st15" d="M222,689.9c-0.6-0.5-1.4-1.3-0.7-1.9c1-0.9,2,0,2.8,0.8C223.3,689.1,222.6,689.5,222,689.9z"/>
				<path class="st15" d="M234.8,718.7c-1.5,1.2-3.3,1.1-5,1C231.2,718.1,233.1,718.7,234.8,718.7z"/>
				<path class="st15" d="M402.9,686.7c-1.5,0.9-3.1,1.2-4.8,1C399.5,686.2,401.3,686.8,402.9,686.7z"/>
				<path class="st15" d="M363.8,694.1c-1.5,0.9-3.1,1.2-4.8,1C360.4,693.7,362.1,694.3,363.8,694.1z"/>
				<path class="st15" d="M237.8,564.4c0.2,0.2,0.3,0.5,0.3,0.8c-0.8,0-1.4,2.1-2.1,0.8C235.4,564.9,236.9,564.6,237.8,564.4z"/>
				<path class="st15" d="M273.9,711.2c-1.2,1-2.6,1-4,0.9C271.1,710.9,272.5,711.2,273.9,711.2z"/>
				<path class="st15" d="M344.8,503c-0.3,0-0.5,0.1-0.8,0.1c0-0.3,0-0.6,0.1-0.9c0-0.1,0.4-0.1,0.4-0.1
					C344.6,502.4,344.7,502.7,344.8,503z"/>
				<path class="st15" d="M349.7,507.9c-0.2,0.2-0.4,0.4-0.6,0.6c-0.2-0.2-0.3-0.5-0.4-0.7c0-0.1,0.2-0.4,0.3-0.4
					C349.2,507.6,349.5,507.7,349.7,507.9z"/>
				<path class="st15" d="M408,685.7c-1.2,1-2.6,1-4,0.9C405.2,685.3,406.6,685.7,408,685.7z"/>
				<path class="st15" d="M298.2,581.6c-1.5-1.2-0.7-2.3,0-3.5C298.2,579.2,298.2,580.4,298.2,581.6z"/>
				<path class="st15" d="M345.4,690.6c0.6,0.5,1.2,1.1,1.8,1.6C345.4,693.3,345.4,691.9,345.4,690.6z"/>
				<path class="st15" d="M400,553.7c0.1-1,0.2-2.1,0.3-3.1C401.2,551.8,401.2,552.8,400,553.7z"/>
				<path class="st15" d="M333,566.4c1-0.8,2.2-0.8,3.4-0.6C335.3,566.7,334.1,566.5,333,566.4z"/>
				<path class="st15" d="M263.9,548.1c-0.2,0.1-0.4,0.2-0.6,0.3c-0.1-0.1-0.2-0.3-0.1-0.4c0.1-0.2,0.2-0.4,0.4-0.7
					C263.7,547.6,263.8,547.8,263.9,548.1z"/>
				<path class="st15" d="M356,671.8c-0.1-1.3,0-2.4,0.9-3.4C357,669.7,357,670.9,356,671.8z"/>
				<path class="st15" d="M340.2,666.5c0,1.1,0.1,2.1,0.1,3.2C339.3,668.7,339.2,667.6,340.2,666.5z"/>
				<path class="st15" d="M356.2,513.6c-0.5-0.3-0.9-0.6-1.4-0.9c0.2-0.2,0.4-0.4,0.5-0.6C355.7,512.6,355.9,513.1,356.2,513.6z"/>
				<path class="st15" d="M190.5,725.6c-0.6,0.1-1.2,0.3-1.9,0.4C189.1,725.1,189.7,724.9,190.5,725.6z"/>
				<path class="st15" d="M201.4,725c-0.6,0.2-1.3,0.4-1.9,0.6C200.2,725.5,200.8,725.2,201.4,725z"/>
				<path class="st15" d="M391.9,549.6c0,0.7,0.1,1.3,0.1,2C391.3,551,391.2,550.3,391.9,549.6z"/>
				<path class="st15" d="M375.5,646.3c0,0.7,0.1,1.4,0.1,2.1C374.8,647.7,374.7,647,375.5,646.3z"/>
				<path class="st15" d="M357.1,665.4c-0.3-0.1-0.7-0.1-1-0.2c0.4-0.2,0.7-0.4,1.1-0.5C357.1,664.9,357.1,665.1,357.1,665.4z"/>
				<path class="st15" d="M413.8,684.6c-0.6,0.2-1.3,0.4-1.9,0.6C412.5,685,413.2,684.8,413.8,684.6z"/>
				<path class="st15" d="M279.7,710.1c-0.6,0.2-1.2,0.4-1.9,0.6C278.4,710.5,279.1,710.3,279.7,710.1z"/>
				<path class="st15" d="M152.2,717.6c-0.2,0.8-0.4,1.5-0.6,2.3C151.8,719.1,152,718.3,152.2,717.6z"/>
				<path class="st15" d="M240.6,717.6c-0.6,0.2-1.3,0.4-1.9,0.6C239.3,718,239.9,717.8,240.6,717.6z"/>
				<path class="st15" d="M340.7,663.4c-0.2,0.3-0.4,0.6-0.6,0.9C339.9,663.7,340.2,663.5,340.7,663.4z"/>
				<path class="st15" d="M226.6,720.3c-0.6,0.1-1.1,0.3-1.7,0.4C225.4,720.5,226,720.4,226.6,720.3z"/>
				<path class="st15" d="M197.4,725.9c-0.3,0-0.6,0.1-1,0.1C196.8,725.5,197.1,725.5,197.4,725.9z"/>
				<path class="st15" d="M275.7,711c-0.3,0-0.6,0.1-1,0.1C275.1,710.6,275.4,710.6,275.7,711z"/>
				<path class="st10" d="M441,625.9c0.3-0.4,0.6-0.8,0.9-1.1c0.2,0.3,0.5,0.6,0.7,0.9c-0.2,0.3-0.5,0.6-0.7,0.9
					C441.6,626.4,441.3,626.2,441,625.9z"/>
				<path class="st15" d="M409.8,685.5c-0.3,0-0.6,0.1-1,0.1C409.2,685.1,409.5,685.1,409.8,685.5z"/>
				<path class="st15" d="M236.6,718.5c-0.3,0-0.6,0.1-1,0.1C235.9,718.1,236.2,718,236.6,718.5z"/>
				<path class="st15" d="M229,719.8c-0.6,0.5-1.2,1-1.9,0.3C227.8,720,228.4,719.9,229,719.8z"/>
				<path class="st9" d="M496,693.3c-1.1-6.3-4.1-6.9-9.4-5.8c-34.6,6.9-69.2,13.3-103.8,19.9c-42.1,8-84.3,16-126.4,24
					c-14.3,2.7-28.5,5.6-42.8,8.2c-2.8,0.5-3.3,1.4-2.9,4.4c0.9,6.9-0.4,13.6-3.8,19.7c1-6.1,3.3-12.1,2.3-18.3
					c-0.9-5.7,1-7.1,6.1-8.1c67.8-12.7,135.5-25.8,203.3-38.8c24-4.6,48.1-9,72.1-13.7C497.9,683.5,494.1,690.6,496,693.3z"/>
				<path class="st8" d="M364.4,750.5c7.6-1.2,10.6-6.1,11.5-14.9c3.4,8.1,7.9,11.4,15.1,9.7c-4.9,5.5-5.5,11.1-2.1,17.8
					c-6.2-2.9-11.6-2.7-16.5,3.3C372.6,759.4,371.8,753.3,364.4,750.5z"/>
				<path class="st8" d="M293.1,781c-1.1-8.5-1.1-8.5-7.6-16.1c6.4-1.1,10.9-4.2,11-12.5c3.7,6.2,8,9.9,14.5,7.4
					c0.3,2.5-0.7,3.6-1.5,4.5c-2.5,3-3,6.1-1.2,9.6c0.5,1,1.2,2.4,0.4,3.5c-0.9,1.3-2.1,0.1-3.1-0.1
					C301.5,776.1,301.5,776.1,293.1,781z"/>
				<path class="st8" d="M468.6,747.3c-1.3,0.4-2.6,0.1-3.8-0.5c-3.3-1.9-6.1-1.2-8.7,1.7c-0.8,0.9-1.8,2.4-3.2,1.6
					c-1.2-0.7-0.9-2.3-0.7-3.4c1.4-6.4-3.9-8.1-7.5-12c7-1.1,11-4.7,11.1-12.6c3.3,2.1,4,5.9,6.6,7.6c2.6,1.7,5.7-0.9,9.3,0.7
					C466.1,735.3,466.4,741.2,468.6,747.3L468.6,747.3z"/>
				<path class="st8" d="M323.9,758.1c6.7-1.5,11.2-4.9,11.4-13.2c3.4,5.6,6.7,9.3,12.7,7.9c1.9-0.4,2.4,1.2,1.2,2.5
					c-4.2,4.5-3.7,9.4-1,15.2c-6.1-2.4-11.6-2.5-16.3,3.5C332.8,766.4,330.3,761.3,323.9,758.1z"/>
				<path class="st8" d="M404.1,743c6.8-1.6,10.9-5,11.4-13c3.9,5.4,7.5,10.2,15,7.5c-4.4,5.8-5.8,11.3-2,18
					c-6.2-2.9-11.4-2.8-16.2,3.2C412.5,751.6,411.4,745.7,404.1,743z"/>
				<path class="st8" d="M520.3,754.4c2.1,1.7,0,5.5,3.4,5.4c0.6-0.5,0.4-1.2,0.3-1.9c-0.5-2.6,0.3-4.6,2.8-5.2
					c2.4-0.6,4.1,0.7,4.8,3.2c0.7,2.8-0.2,4.9-2.6,6.1c-2.8,1.3-5.7,1.9-8.2-0.8C519.1,759.3,519,757.1,520.3,754.4z M529.8,757.4
					c-0.3-1.2-0.7-2.5-2.1-2.4c-1.3,0-2,1.1-1.9,2.4c0.1,1.3,0.7,2.4,2.1,2.4C529.2,759.9,529.8,758.8,529.8,757.4z"/>
				<path class="st9" d="M522.4,770.2c1.9,1,1.4,3.3,3.1,4.8c1.3-3.3,1.3-8.8,6.5-6.3c3.3,1.6,2.8,4.8,1.4,8c-2.1-0.9-1-2.6-1.3-3.8
					c-0.3-1.1-0.8-2-2-1.9c-1.6,0.1-2,1.4-1.5,2.6c1.2,3.3-0.6,4-2.9,4.5c-2.8,0.6-3.2-1.4-3.5-3.7C521.9,773,521,771.7,522.4,770.2
					z"/>
				<path class="st9" d="M529.2,744.3c-3.2,2.8-9.7-6.8-10.2,4.1c-0.7-0.7-1.3-1-1.3-1.3c-0.2-2.5-2.5-5.5-0.4-7.4
					c1.8-1.7,4.2,0.5,6.3,1.3C525.6,741.7,528.1,741.5,529.2,744.3z"/>
				<path class="st9" d="M503,705.6c1.9,0.8,3.1,2.3,4,4.2c-0.2,0.2-0.3,0.3-0.5,0.5c-1.9-0.8-3.2-2.2-3.9-4.3
					C502.8,705.9,502.9,705.7,503,705.6z"/>
				<path class="st9" d="M203.5,770.9c-0.4,1.6-1.3,2.7-2.7,3.4c-0.2-0.2-0.4-0.4-0.6-0.6c0.5-1.5,1.4-2.6,2.7-3.4
					C203.1,770.5,203.3,770.7,203.5,770.9z"/>
				<path class="st9" d="M197.9,777.5c-0.6,1.3-1.3,2.3-3.1,2.4c0.1-1.9,1.4-2.5,2.5-3.1C197.5,777.1,197.7,777.3,197.9,777.5z"/>
				<path class="st9" d="M202.9,770.3c0.5-0.9,0.3-2.5,2-2.4c0.5,1.5-0.6,2.1-1.3,3C203.3,770.7,203.1,770.5,202.9,770.3z"/>
				<path class="st9" d="M510.5,712.6c-0.3,0.1-0.6,0.4-0.8,0.3c-0.3-0.1-0.6-0.4-0.6-0.7c0-0.8,0.5-0.7,0.9-0.5
					C510.2,711.9,510.3,712.3,510.5,712.6z"/>
				<path class="st9" d="M500.6,702.9c-0.7-0.2-1.1-0.6-1-1.4c0-0.1,0.2-0.3,0.3-0.3c0.8,0,0.9,0.7,1.1,1.4L500.6,702.9z"/>
				<path class="st9" d="M501,702.6c0.4,0.7,0.7,1.3,1.1,2l-0.3,0.4c-0.4-0.7-0.8-1.3-1.1-2C500.6,702.9,501,702.6,501,702.6z"/>
				<path class="st9" d="M502.1,704.5c0.3,0.4,0.6,0.7,1,1.1c-0.1,0.1-0.2,0.3-0.4,0.4c-0.3-0.4-0.6-0.7-0.9-1.1
					C501.8,704.9,502.1,704.5,502.1,704.5z"/>
				<path class="st8" d="M468.5,747.3c0.1,0.1,0.2,0.1,0.3,0.2C468.8,747.5,468.7,747.4,468.5,747.3
					C468.6,747.3,468.5,747.3,468.5,747.3z"/>
				<path class="st9" d="M507.1,709.8c0.3,0.3,0.8,0.6,0.2,1c-0.1,0.1-0.4-0.3-0.6-0.5C506.7,710.1,506.9,709.9,507.1,709.8z"/>
				<polygon class="st9" points="205.8,766.2 205.6,765.8 206,765.8 				"/>
				<path class="st9" d="M199.2,774.8c0.3-0.4,0.6-0.7,1-1.1c0.2,0.2,0.4,0.4,0.6,0.6c-0.3,0.4-0.7,0.7-1,1.1
					C199.6,775.2,199.4,775,199.2,774.8z"/>
				<path class="st9" d="M199.8,775.4c-0.3,0.4-0.7,0.7-1,1.1c-0.2-0.2-0.4-0.4-0.6-0.6c0.3-0.4,0.7-0.7,1-1.1
					C199.4,775,199.6,775.2,199.8,775.4z"/>
				<path class="st9" d="M197.3,776.9c0.3-0.3,0.7-0.7,1-1c0.2,0.2,0.4,0.4,0.6,0.6c-0.3,0.4-0.6,0.7-1,1.1
					C197.7,777.3,197.5,777.1,197.3,776.9z"/>
				<path class="st13" d="M244.4,112.6c0.5,0.8,1.3,1.6,1.7,0.3c0.5-1.4,0.3-3.1,0.5-4.8c1.4,1.2,0.7,2.7,0.8,3.9
					c0.4,2.9,1.3,4.7,4.6,4.7c21.6-0.1,43.1-0.1,64.7-0.1c-0.1,2-1.6,1-2.4,1c-20.5,0-41-0.1-61.5-0.3c-2.5,0-5.2,0.6-6-3.4
					c-0.2-1.1-1.6-0.9-2.3,0.2C244.4,113.6,244.4,113.1,244.4,112.6z"/>
				<path class="st16" d="M323,114.8c0,0.8-0.1,1.6-0.9,1.7c-1,0.2-1.9,0.2-2.3-1.2c-1.9-5.9-3.9-11.9-5.9-17.8
					c-0.3-0.8-0.4-1.8,0.7-2.1c0.8-0.2,1.8-0.4,2.1,0.6C318.9,102.2,320.9,108.5,323,114.8z"/>
				<path class="st13" d="M288.3,82.5c-14.1,0.4-28.2,0.9-42.3,1.1c-3.3,0-3.9,1.4-3.5,4.3c-0.3,0-0.6-0.1-1-0.1
					c-0.1-2.6-0.7-5.2,3.2-5.3c14.6-0.2,29.1-0.6,43.7-1C288.5,81.9,288.4,82.2,288.3,82.5z"/>
				<path class="st16" d="M241.3,97.6c0.5,2.3-0.5,3.1-2,3.1c-4.5-0.2-2.7-4.7-3.8-7.1c-1.2-2.6,1.5-3.4,2.5-3.1
					C241.5,91.4,239.9,95.6,241.3,97.6z"/>
				<path class="st16" d="M244.4,112.6c0,0.5,0,1,0,1.6c-1.3,0.5-3,1.9-3.8,0.3c-1-2-1.3-4.5-1.7-6.9c0-0.3,1.5-1,2.3-1.3
					c1-0.4,1.9-0.1,2.1,1.3C243.7,109.2,244.1,110.9,244.4,112.6z"/>
				<path class="st16" d="M228.6,67.2c-2.5-1-2.6-4.1-3.3-6.4c-0.8-2.5,2-2.3,2.8-2.2c3.1,0.2,2.7,3.6,3.6,5.8
					C232.5,66.6,230.4,66.5,228.6,67.2z"/>
				<path class="st16" d="M233.8,73.9c2.6,1.3,2.2,4.3,3,6.6c0.9,2.5-1.5,2.9-2.5,2.8c-3.4-0.5-2.6-4.2-3.4-6.5
					C230,74.6,232.5,74.9,233.8,73.9z"/>
				<path class="st16" d="M219.2,47.1c3.4-3,5.4-1.5,6.5,2.2c0.3,1,2.1,2.5-0.2,3.4C220.5,54.6,221,49.3,219.2,47.1z"/>
				<path class="st16" d="M276.8,29.4c4.9-2.1,6,2.5,8.5,5.4c-1.6,1.3-3.1,1.2-4.6,0.6C279.9,33.1,277.3,32.1,276.8,29.4z"/>
				<path class="st16" d="M269.8,23.8c-1-0.9-1.6-2.5-3.3-2l-0.1-0.2c0.2-4.1,2.4-3.4,4.6-2.1c1.5,0.9,2.7,2.4,4.2,3.8
					c-1.1,1.6-2.6,1.8-4.1,1.8C270.7,24.6,270.2,24.2,269.8,23.8z"/>
				<path class="st13" d="M276.9,77.2c-6.4,0.8-12.8,1.6-19.2,1c0-0.6,0-1.2,0-1.8c6.4,0,12.8,0,19.2,0
					C276.9,76.7,276.9,76.9,276.9,77.2z"/>
				<path class="st16" d="M295.6,51.7c1.6,0.2,5.4,6.3,4.8,7.5c-0.3,0.5-1,0.9-1.5,1.1c-1.3,0.3-5.7-6.2-5-7.4
					C294.3,52.2,295.2,52,295.6,51.7z"/>
				<path class="st13" d="M271.5,40.5c2.7-0.2,5.4-0.3,8.1-0.6c2.6-0.3,3.8,1.1,4.2,4.3c-4.6-3-9.3-1.9-13.9-2.1
					C269.9,41,271,41.1,271.5,40.5z"/>
				<path class="st12" d="M211.1,26.3c5.2-2.6,7,1.9,10.3,5.6c-3.5,0.5-4.7-3.3-7.3-2.4C213.1,28.4,212.1,27.3,211.1,26.3z"/>
				<path class="st16" d="M307.3,72c-0.1,1.5-1.2,2.3-2,2c-2.7-1.1-3-4.3-4-6.7c-0.3-0.8,1.3-1.9,2.1-1.5
					C305.9,66.9,306,70,307.3,72z"/>
				<path class="st16" d="M221,40.3c-2.7,1.7-4.8,2.1-6.4-1.3c-0.7-1.5-0.6-2.3,0.8-2.8C219.1,34.5,219.5,37.9,221,40.3z"/>
				<path class="st13" d="M240.3,43c0.7,0.3,1.6,0.5,2,1c0.4,0.5-0.1,1.1-0.9,1.3c-4.3,0.7-8.7-1.1-13,1.6c-1.1,0.7,0-2.1-0.2-3.3
					l0.1-0.1C232.3,44.8,236.3,44.7,240.3,43C240.2,42.9,240.3,43,240.3,43z"/>
				<path class="st16" d="M257.9,16.4c2.3-1.3-3.1-2.7,0.1-4.1c2.8-1.2,4.4,0.3,6.5,2.6c-2.2,0.9-3.7,1.2-5.5,0.3
					c-1.3-0.6-1.7,0.2-0.9,1.5C258,16.7,257.9,16.4,257.9,16.4z"/>
				<path class="st12" d="M276.8,29.4c0.5,2.6,3.1,3.7,3.9,6c-0.6,2.6-1.8,2.5-3.3,0.9c-1.6-1.9-3.2-3.9-4.7-5.8
					c0,0,0.1-0.1,0.1-0.1C274.2,30.1,275.5,29.8,276.8,29.4z"/>
				<path class="st16" d="M194,13.6c-2.4,4.3-6,2.1-9.4,1.8c2.1-2.7,5-1.7,7.4-2.1c0,0,0.1,0,0.1,0C192.7,13.7,193.2,14.9,194,13.6
					L194,13.6z"/>
				<path class="st16" d="M310.2,80.3c1.7,1.5,2.2,3.8,2.8,6.1c0.4,1.5-0.9,2-1.7,1.7c-2.5-0.9-2.5-3.7-3.2-5.8
					C307.6,80.9,308.9,80.6,310.2,80.3z"/>
				<path class="st16" d="M286.5,42.9c-0.3-3.3,1.9-2.8,3.2-2c1.3,0.7,3.1,2.6,2.4,4.1c-0.9,2-2.9,1.8-4.3-0.2
					C287.3,44.1,286.9,43.5,286.5,42.9z"/>
				<path class="st12" d="M286.5,42.9c0.4,0.6,0.9,1.2,1.3,1.8c-1.1,3.3,2.2,5.2,2.2,8.3C285.1,49.8,283.9,46.4,286.5,42.9z"/>
				<path class="st16" d="M211.1,26.3c1,1.1,2,2.1,3,3.2c-2.9,4.2-5,1.9-7.4-1.5C208.3,27.3,209.7,26.8,211.1,26.3z"/>
				<path class="st16" d="M204.9,20.1c0.6,3.9-2.2,2.8-3.8,2.6c-1.1-0.1-2-1.5-3.2-2.3c1.8-0.9,3.4-1.8,5.3-1.5
					C203.5,19.7,204.2,19.9,204.9,20.1z"/>
				<path class="st13" d="M300.3,73c2,2.2,2.4,4-1.2,4.1c-2.9,0.1-5.8,0-8.8,0c0-0.3,0-0.5,0-0.8c2.6-0.2,5.2-0.4,7.8-0.6
					c1.3-0.1,2.2-0.6,1.8-2.3C300,73.3,300.1,73.1,300.3,73z"/>
				<path class="st16" d="M118.1,20.4c3.1-2.2,5.9-2.1,9.1-0.7C122.7,22.6,122.7,22.6,118.1,20.4z"/>
				<path class="st12" d="M197.6,13.1c2.2-0.4,3.8,0.6,5.4-0.3c0.9-0.5,2.1-0.1,2.1,1.3c0,1.6-0.9,2.2-2.3,1.8
					C201.1,15.3,199.3,15.2,197.6,13.1z"/>
				<path class="st12" d="M174.5,13.6c3.1-1.7,5.1-2.9,8.5-1.2C180.1,13.5,178.2,15,174.5,13.6z"/>
				<path class="st16" d="M109.5,12.9c3-1.7,4.6,0.7,6.7,2.3C112.6,18.3,111.1,15.6,109.5,12.9z"/>
				<path class="st12" d="M271.5,40.5c-0.5,0.6-1.6,0.5-1.5,1.6c-2.3-0.4-2.3-2.3-1.7-4c0.5-1.6,1.7-0.9,2.9-0.7
					C274.9,38,269.3,39.8,271.5,40.5z"/>
				<path class="st12" d="M288.3,82.5c0.1-0.3,0.1-0.6,0.1-0.9c1.9-1.8,4-1.3,6.7-0.5C292.8,83.6,290.4,82.2,288.3,82.5z"/>
				<path class="st16" d="M290.3,76.4c0,0.3,0,0.5,0,0.8c-4.5,0-9,0-13.4,0c0-0.2,0-0.5,0-0.7C281.4,76.4,285.8,76.4,290.3,76.4z"/>
				<path class="st12" d="M246.2,42.7c2.9-1.2,4.8,0.7,8,0.7C250.8,44.9,248.7,44.1,246.2,42.7z"/>
				<path class="st12" d="M128.6,16.4c2.7-0.4,4.5,0.7,6.3,0.5C133.2,17.8,131.4,18.2,128.6,16.4z"/>
				<path class="st13" d="M162.4,15.4c2.3-1.9,4-2.3,7-1.7C166.8,14.7,165.3,16.2,162.4,15.4z"/>
				<path class="st12" d="M297.5,82.4c2-1.8,3.7-0.6,5.5,0C301.1,82.4,299.3,82.4,297.5,82.4z"/>
				<path class="st12" d="M240.8,78.9c1.8-0.4,3.5-1.5,6.5,0C244.3,78.9,242.6,78.9,240.8,78.9z"/>
				<path class="st12" d="M254.2,15.6c-1.3-0.4-2.9-0.4-3.4-2.7c2-0.2,3.1,0.6,3.5,2.6C254.3,15.5,254.2,15.6,254.2,15.6z"/>
				<path class="st13" d="M156.9,17.2c1.8-0.6,3.2-2.2,5.9-1.5C160.6,17.6,158.9,18.2,156.9,17.2z"/>
				<path class="st12" d="M211.1,11.8c-0.5,0.6-0.7,1.1-1,1.2c-0.7,0.1-1.2-0.4-1.3-1.1c-0.1-0.3,0.5-1.1,0.6-1
					C209.9,11,210.4,11.4,211.1,11.8z"/>
				<path class="st13" d="M297.8,67.3c1,1.8,2.2,3.5,2.5,5.7c-0.1,0.2-0.3,0.3-0.4,0.5c-1.2-1.7-2.3-3.5-2.6-5.7
					C297.5,67.6,297.6,67.4,297.8,67.3z"/>
				<path class="st12" d="M204.9,20.1c-0.7-0.1-1.4-0.4-1.6-1.2c1.1-0.3,2.1-1.9,3.1-0.3C206.7,19.1,205.5,19.7,204.9,20.1z"/>
				<path class="st12" d="M146.5,18.8c-0.5,0.2-1,0.6-1.6,0.6c-0.6,0-0.9-0.6-0.5-1c0.3-0.3,0.8-0.5,1.3-0.5
					C146,17.7,146.6,17.8,146.5,18.8z"/>
				<path class="st12" d="M269.8,23.8c0.4,0.4,0.9,0.9,1.3,1.3c-1,0.3-2.2,1.8-3,0.5C267.4,24.4,269.1,24.3,269.8,23.8z"/>
				<path class="st12" d="M135.7,21.8c0.4-0.5,0.6-0.8,0.9-1.1c0.3,0.3,0.6,0.7,0.7,1c0.1,0.2-0.3,0.8-0.4,0.7
					C136.6,22.4,136.2,22.1,135.7,21.8z"/>
				<path class="st12" d="M223.9,38c-0.8-0.6-1.7-1-1.4-2.4c0-0.1,0.3-0.3,0.4-0.3C224.2,35.7,223.8,36.9,223.9,38L223.9,38z"/>
				<path class="st12" d="M240.3,43C240.3,43,240.2,42.9,240.3,43c-0.9-0.7-2.4,0-2.7-1.6c0-0.2,0.4-0.6,0.6-0.6
					C239.4,40.9,240.2,41.5,240.3,43z"/>
				<path class="st12" d="M244.2,92.7c-0.2,0.4-0.4,0.7-0.5,1c-0.3-0.3-0.7-0.6-0.9-0.9c-0.1-0.1,0.2-0.6,0.4-0.9
					C243.4,92.2,243.8,92.5,244.2,92.7z"/>
				<path class="st12" d="M232.9,40.1c0.4,0.3,0.7,0.4,1,0.6c-0.3,0.4-0.5,0.8-0.9,1c-0.1,0.1-0.5-0.3-0.8-0.4
					C232.4,40.9,232.7,40.5,232.9,40.1z"/>
				<path class="st12" d="M261.1,40.1c-0.3-0.1-0.9-0.2-1.1-0.5c-0.3-0.6,0.2-1,0.7-1c0.4,0,1,0.3,1.2,0.6
					C262.4,39.9,261.7,39.9,261.1,40.1z"/>
				<path class="st12" d="M245.1,103.4c-0.2-0.4-0.4-0.9-0.4-1.3c0-0.6,0.5-0.8,0.9-0.4c0.3,0.3,0.3,0.8,0.4,1.3
					C245.9,103.1,245.4,103.2,245.1,103.4z"/>
				<path class="st12" d="M223.9,37.9c1,0.2,1.9,0.6,1.7,2c0,0.2-0.7,0.4-0.7,0.3C224.5,39.4,224.2,38.7,223.9,37.9
					C223.9,38,223.9,37.9,223.9,37.9z"/>
				<path class="st12" d="M249.4,40c0.4,0.2,0.6,0.4,0.9,0.6c-0.4,0.2-0.8,0.4-1.2,0.5c-0.2,0-0.5-0.3-0.7-0.4
					C248.7,40.4,249.1,40.2,249.4,40z"/>
				<path class="st12" d="M173.2,15.1c-0.2-0.1-0.5-0.2-0.7-0.3c0.1-0.3,0.2-0.7,0.3-0.8c0.2-0.1,0.5,0.2,0.7,0.3
					C173.4,14.6,173.3,14.9,173.2,15.1z"/>
				<path class="st12" d="M126.9,15.1c0.2,0.2,0.3,0.4,0.5,0.7c-0.2,0.1-0.5,0.3-0.7,0.4c0,0-0.3-0.3-0.3-0.4
					C126.6,15.5,126.8,15.3,126.9,15.1z"/>
				<path class="st12" d="M257.9,16.4c0,0,0.2,0.3,0.2,0.3c-1.6,1-2.8,0.1-3.8-1.1c0,0,0.1-0.1,0.1-0.1
					C255.5,15.8,256.7,16.1,257.9,16.4z"/>
				<path class="st12" d="M315.4,112.3c-0.2,0.2-0.4,0.4-0.6,0.6c-0.1-0.3-0.3-0.5-0.4-0.8c0-0.1,0.3-0.3,0.3-0.3
					C315,111.9,315.2,112.1,315.4,112.3z"/>
				<path class="st12" d="M311.5,99.5c-0.2,0.2-0.4,0.4-0.6,0.6c-0.2-0.2-0.3-0.5-0.4-0.7c0-0.1,0.2-0.4,0.3-0.3
					C311.1,99.1,311.3,99.3,311.5,99.5z"/>
				<path class="st12" d="M261.7,41.9c-0.1,0.3-0.2,0.7-0.3,0.8c-0.2,0.1-0.5-0.2-0.7-0.3c0.1-0.3,0.2-0.7,0.3-0.8
					C261.1,41.6,261.4,41.8,261.7,41.9z"/>
				<path class="st12" d="M241.5,87.8c0.3,0,0.6,0.1,1,0.1c0.5,0.5,0.9,1.2,0.2,1.5C241.7,89.7,241.6,88.6,241.5,87.8z"/>
				<path class="st12" d="M238.5,72.5c0.2,0.2,0.4,0.4,0.5,0.7c-0.2,0.1-0.5,0.3-0.7,0.4c0,0-0.3-0.3-0.3-0.4
					C238.2,72.9,238.4,72.7,238.5,72.5z"/>
				<path class="st12" d="M233.6,58.6c0.2,0.2,0.4,0.4,0.6,0.6c-0.2,0.2-0.4,0.4-0.7,0.5c-0.1,0-0.3-0.3-0.3-0.3
					C233.3,59.1,233.4,58.9,233.6,58.6z"/>
				<path class="st12" d="M291.4,55.5c0.2,0.2,0.4,0.4,0.5,0.7c-0.2,0.1-0.5,0.3-0.7,0.4c0,0-0.3-0.3-0.3-0.4
					C291,55.9,291.2,55.7,291.4,55.5z"/>
				<path class="st12" d="M116.8,10.6c-0.3,0-0.5,0.1-0.8,0.1c0-0.2,0-0.4,0-0.5c0.2-0.1,0.5-0.1,0.8-0.2
					C116.8,10.3,116.8,10.5,116.8,10.6z"/>
				<path class="st13" d="M163.4,10.8c-0.8,0.3-1.2,0.6-1.6,0.6c-0.3,0-0.6-0.4-0.9-0.7c0.3-0.1,0.6-0.4,0.9-0.4
					C162.2,10.3,162.6,10.5,163.4,10.8z"/>
				<path class="st12" d="M120.1,13.5c-0.5-0.2-1.3,0-1.2-1c0-0.1,0.2-0.3,0.3-0.3C120.2,12,120,12.9,120.1,13.5L120.1,13.5z"/>
				<path class="st12" d="M230.4,49.8c-0.2,0.1-0.5,0.2-0.7,0.4c0-0.1-0.2-0.4-0.1-0.4c0.2-0.2,0.5-0.3,0.7-0.4
					C230.3,49.5,230.3,49.7,230.4,49.8z"/>
				<path class="st12" d="M310.6,96.9c-0.2,0-0.5,0.1-0.7,0.1c0-0.3,0.1-0.5,0.1-0.7c0-0.1,0.4-0.1,0.4-0.1
					C310.5,96.4,310.5,96.6,310.6,96.9z"/>
				<path class="st12" d="M210.3,21.5c-0.3,0.1-0.5,0.2-0.8,0.2c-0.1,0-0.1-0.4-0.2-0.6c0.1,0,0.3-0.2,0.4-0.1
					C209.9,21.2,210.1,21.4,210.3,21.5z"/>
				<path class="st12" d="M139.6,20.5c-0.2,0.2-0.4,0.3-0.5,0.5c-0.1-0.3-0.1-0.6-0.2-0.9c0-0.1,0.2-0.2,0.3-0.3
					C139.3,20,139.5,20.2,139.6,20.5z"/>
				<path class="st12" d="M240.1,76.6c-0.2,0-0.5,0.1-0.7,0.1c0-0.3,0.1-0.5,0.1-0.8c0-0.1,0.4-0.1,0.4-0.1
					C240,76.1,240,76.4,240.1,76.6z"/>
				<path class="st12" d="M238.3,69.9c-0.2,0.2-0.3,0.4-0.5,0.6c-0.1-0.2-0.3-0.4-0.4-0.6c0-0.1,0.2-0.3,0.2-0.3
					C237.8,69.7,238,69.8,238.3,69.9z"/>
				<path class="st12" d="M305.4,83.4c0.1,0.1,0.2,0.2,0.3,0.3c-0.2,0.2-0.4,0.5-0.6,0.7c0,0-0.2-0.2-0.4-0.3
					C305,83.8,305.2,83.6,305.4,83.4z"/>
				<path class="st12" d="M123.4,15.2c-0.2-0.1-0.4-0.3-0.5-0.4c0,0,0.1-0.3,0.2-0.4c0.2,0,0.5,0,0.7,0.1
					C123.6,14.7,123.5,15,123.4,15.2z"/>
				<path class="st12" d="M266.5,21.8c-0.6,0.6-1.2,1.2-2.2,1c0.2-1.4,1.5-0.6,2.1-1.2C266.4,21.6,266.5,21.8,266.5,21.8z"/>
				<path class="st12" d="M194,13.5c0.6-0.4,1.2-0.9,1.8-1.3c0.1,0.1,0.1,0.3,0.2,0.4C195.3,13,194.7,13.3,194,13.5
					C194,13.6,194,13.5,194,13.5z"/>
				<path class="st12" d="M153.1,18.9c0.1,0.2,0.2,0.4,0.3,0.6c-0.1,0.1-0.3,0.2-0.4,0.2c-0.2-0.1-0.4-0.3-0.6-0.4
					C152.6,19.2,152.8,19,153.1,18.9z"/>
				<path class="st12" d="M244.8,97c-0.1,0.1-0.2,0.2-0.3,0.2c-0.1,0-0.2-0.2-0.3-0.3C244.4,96.9,244.6,97,244.8,97z"/>
				<path class="st12" d="M306.4,86.4c-0.2,0.1-0.3,0.1-0.4,0.1c0-0.1-0.1-0.2-0.1-0.3C306,86.3,306.2,86.3,306.4,86.4z"/>
				<path class="st12" d="M143.2,15.3c0.1,0.1,0.2,0.2,0.2,0.4c0,0.1-0.1,0.2-0.2,0.3C143.1,15.7,143.1,15.5,143.2,15.3z"/>
				<polygon class="st12" points="257.4,41.7 257,41.8 257.1,41.4 				"/>
				<path class="st13" d="M297.3,67.7c-0.8-0.4-1.1-1.2-1-2.1c0.1-0.1,0.3-0.2,0.4-0.3c0.4,0.7,0.7,1.4,1.1,2
					C297.6,67.4,297.5,67.6,297.3,67.7z"/>
				<path class="st13" d="M296.3,65.6c-0.6-0.3-1-0.8-0.9-1.6c0-0.2,0.4-0.4,0.6-0.6c0.3,0.6,0.5,1.2,0.8,1.8
					C296.6,65.4,296.4,65.5,296.3,65.6z"/>
				<path class="st12" d="M189.1,10.6c-0.1-0.2-0.1-0.4-0.1-0.5c0.1,0,0.2-0.1,0.3-0.1C189.2,10.2,189.2,10.3,189.1,10.6z"/>
				<path class="st12" d="M156.8,12.2c0.1,0,0.2,0.1,0.3,0.1c0,0.1-0.1,0.3-0.1,0.4c0,0-0.2-0.1-0.3-0.1
					C156.7,12.4,156.7,12.3,156.8,12.2z"/>
				<path class="st12" d="M294.3,61.3c0.1-0.1,0.2-0.2,0.3-0.3c0,0.2-0.1,0.3-0.1,0.5C294.4,61.4,294.3,61.3,294.3,61.3z"/>
				<path class="st12" d="M294.4,61.4c-0.1,0.1-0.2,0.2-0.3,0.3c0-0.2,0.1-0.3,0.1-0.5C294.3,61.3,294.4,61.4,294.4,61.4z"/>
				<path class="st12" d="M228.2,43.6c-0.2-0.2-0.3-0.3-0.5-0.5c0.2,0.1,0.4,0.3,0.6,0.4C228.3,43.5,228.2,43.6,228.2,43.6z"/>
				<path class="st12" d="M120.2,13.4c0.1,0.1,0.2,0.2,0.3,0.2C120.4,13.6,120.2,13.6,120.2,13.4C120.1,13.5,120.2,13.4,120.2,13.4z
					"/>
				<path class="st12" d="M272.8,30.5c-0.1-0.1-0.2-0.2-0.3-0.3c0.1,0.1,0.3,0.1,0.4,0.2C272.9,30.4,272.8,30.5,272.8,30.5z"/>
				<path class="st12" d="M192.1,13.2C192.1,13.2,192.1,13.3,192.1,13.2c-0.1-0.3-0.1-0.5-0.1-0.8C192.1,12.7,192.1,13,192.1,13.2z"
					/>
				<path class="st2" d="M407.4,417.4c-7,0-13-6.5-13.1-14.2c-0.1-7.9,6-14.5,13.3-14.5c7.2,0.1,13,6.3,13.1,14.1
					C420.7,410.8,414.7,417.4,407.4,417.4z"/>
				<path class="st2" d="M599.7,303.3c0-3.9,0.1-7.8,0-11.7c-0.1-2.6,0.9-2.9,2.9-2.4c5.7,1.4,10.1,7.5,10.1,14
					c0,6.6-4.3,12.5-10,14.1c-2.5,0.7-3.2-0.2-3.1-2.8C599.8,310.8,599.7,307,599.7,303.3z"/>
				<path class="st17" d="M145.6,98.4c0,6.8-4.9,12-11.3,11.9c-6.3-0.1-11.3-5.6-11.1-12.2c0.1-6.5,5.6-12.2,11.4-12.1
					C140.8,86.2,145.7,91.6,145.6,98.4z"/>
				<path class="st3" d="M153.7,114.2c-0.6-0.4-1.2-0.9-1.8-1.3c1-0.8,1.9-0.6,2.7,0.4C154.3,113.6,154,113.9,153.7,114.2z"/>
				<path class="st3" d="M140.7,77c-0.1-0.2-0.4-0.5-0.4-0.6c0.3-0.4,0.6-0.7,0.9-1.1c0.1,0.2,0.4,0.5,0.3,0.7
					C141.5,76.5,141.4,77.1,140.7,77z"/>
				<path class="st3" d="M126.5,122.6c0.4-0.7,0.7-1.4,1.1-2.1c0.5,1,0.4,2,0,3C127.3,123.2,126.9,122.9,126.5,122.6z"/>
				<path class="st3" d="M116.3,83.6c0.8,0.2,1.1,1,0.7,1.4c-0.8,0.8-0.8-0.4-1.1-0.8C116,84,116.1,83.8,116.3,83.6z"/>
				<path class="st3" d="M114.9,81.9c0.4,0.6,0.9,1.1,1.3,1.7c-0.1,0.2-0.3,0.4-0.4,0.6c-0.7-0.4-1.3-0.8-2-1.2
					C114.2,82.7,114.6,82.3,114.9,81.9z"/>
				<path class="st3" d="M112.9,114c0.6-0.6,1.4-1,2-0.2c0.4,0.6-0.1,1.2-0.7,1.5C113.7,114.8,113.3,114.4,112.9,114z"/>
				<path class="st15" d="M240.5,681.6c0.5,1.1,0.6,1.5,0.8,1.9c0.3,0.8-0.4,0.8-0.7,0.8c-0.2,0-0.7-0.3-0.7-0.5
					C239.8,683.5,240,683.1,240.5,681.6z"/>
				<path class="st15" d="M353.5,610.2c-0.8-5.7-1.5-10.6-2.3-16.2c4.2,3.4,7.9,6.3,12.2,9.8C360,606,357.1,607.9,353.5,610.2z"/>
				<path class="st15" d="M398.1,550.8c0.1,1.5-0.5,2.4-1.5,2.5c-1.2,0.1-2.1-0.7-2.3-2.1c-0.2-1.4,0.4-2.5,1.7-2.5
					C397.3,548.6,397.9,549.7,398.1,550.8z"/>
				<path class="st5" d="M122.3,739.6c0.1,0.3,0.3,0.6,0.4,0.9c-0.4,0-0.7-0.1-1.1-0.1C121.9,740.2,122.1,739.9,122.3,739.6z"/>
				<path class="st6" d="M529.8,757.4c0,1.4-0.6,2.4-1.9,2.4c-1.4,0-2-1.2-2.1-2.4c-0.1-1.4,0.6-2.4,1.9-2.4
					C529.1,755,529.5,756.2,529.8,757.4z"/>
			</g>
		</g>
	</g>
</g>
<path class="st18" d="M792,63c0,221.3,0,442.7,0,664c-0.7,1.7-1.5,3.3-2.1,5c-9.6,27.1-28.1,45.5-55.5,54.9
	c-5.2,1.8-10.6,2.8-15.9,4.1c-215.6,0-431.3,0-646.9,0c-0.9-0.3-1.8-0.8-2.8-1c-17.7-2.9-33-10.5-46.1-22.8
	C12.3,757.6,5.4,745.8,0,733C0,507.7,0,282.3,0,57c0.5-1,1.1-2,1.6-3.1C9.3,34.5,22.5,19.7,40.8,9.5C47,6.1,53.9,3.8,60.5,1
	c223,0,446,0,669.1,0c1.2,0.6,2.3,1.3,3.6,1.7c22.1,6.9,38.7,20.6,50.1,40.4C786.8,49.4,789.1,56.3,792,63z M11.2,200.9
	c0,1,0,2.1,0,3.1c0,24.6,0,49.3,0,73.9c-0.1,20.6-0.2,41.2-0.2,61.8c0,32.4,0.1,64.8,0.2,97.2c0,22.3,0,44.7,0,67
	c-0.1,1.8-0.2,3.7-0.2,5.5c0,51.5,0,103,0,154.5c0,2.7,0.1,5.3,0.2,8c0,3.1,0,6.1,0,9.2c-0.1,8.8-0.5,17.7-0.1,26.5
	c0.9,20.8,10.1,37.5,26,50.9c9.9,8.9,21.7,14.4,34.8,16.3c8.9,1.3,18,1.2,27.1,1.2c39.2,0.1,78.4-0.1,117.7-0.1c3-0.7,6-1.3,9.1-2
	c1.6,0.7,3.1,2.1,4.7,2.1c11.9,0.1,23.7,0,35.6-0.1c20.8,0,41.6,0,62.5,0c32.2,0,64.5,0,96.7,0c3.4,0,6.7,0,10.1,0
	c9.7,0,19.5,0,29.2,0c1.7,0,3.4,0,5.1,0c25.9,0,51.7,0,77.6,0c1,0.1,2,0.2,3,0.2c52.2,0,104.5,0,156.7,0c1.8,0,3.7-0.2,5.5-0.3
	c2-0.3,4-0.4,5.9-0.8c14.7-3,27.9-9,38.4-19.9c3.3-3.7,6.8-7.3,9.8-11.3c12.5-17.1,13.7-36.6,12.3-56.7c0-4,0-8.1,0-12.1
	c0-17.6,0-35.2,0-52.8c0.1-1.2,0.2-2.3,0.2-3.5c0-59.1,0-118.2,0-177.3c0-1.2-0.1-2.3-0.2-3.5c0.1-1.8,0.2-3.6,0.2-5.5
	c0-49.6,0-99.3,0-148.9c0-1.8-0.1-3.7-0.2-5.5c0-1.8,0.1-3.7,0.1-5.5c0-38.1,0.1-76.2,0.1-114.3c0-1.8,0.1-3.7,0.1-5.5
	c-0.1-25.8,0.4-51.5-0.6-77.3c-0.4-10.5-5.1-20.4-12.5-28.6c-1.4-2.2-2.4-4.6-4.2-6.5C745.4,22.5,724.8,14,700.4,14
	c-180,0.1-360,0-540,0.1c-27.3,0-54.6,0.8-81.9,0.9C65.8,15,54.7,19.3,44.4,26.1c-3.3,2.1-6.4,4.7-9,7.5c-4.7,5-9,10.3-13.5,15.5
	c-7.1,10.4-11.5,21.8-11.5,34.3c-0.1,25.6,0.5,51.1,0.8,76.7C11.2,173.6,11.2,187.3,11.2,200.9z"/>
</svg>
