<?xml version="1.0" encoding="utf-8"?>
<!-- Generator: Adobe Illustrator 26.2.1, SVG Export Plug-In . SVG Version: 6.00 Build 0)  -->
<svg version="1.1" id="Layer_1" xmlns="http://www.w3.org/2000/svg" xmlns:xlink="http://www.w3.org/1999/xlink" x="0px" y="0px"
	 viewBox="0 0 792 792" style="enable-background:new 0 0 792 792;" xml:space="preserve">
<style type="text/css">
	.st0{fill:url(#SVGID_1_);}
	.st1{fill:url(#SVGID_00000007419193819951453360000018017076072469915546_);}
	.st2{fill:#FFFFFF;}
	.st3{fill:url(#SVGID_00000078042165094001911590000013099779928104656554_);}
</style>
<linearGradient id="SVGID_1_" gradientUnits="userSpaceOnUse" x1="-1" y1="395" x2="791" y2="395">
	<stop  offset="0" style="stop-color:#25093F"/>
	<stop  offset="0.1717" style="stop-color:#320F49"/>
	<stop  offset="0.4893" style="stop-color:#541F63"/>
	<stop  offset="0.9149" style="stop-color:#8B388D"/>
	<stop  offset="1" style="stop-color:#973E96"/>
</linearGradient>
<path class="st0" d="M707,791H83c-46.4,0-84-37.6-84-84V83C-1,36.6,36.6-1,83-1h624c46.4,0,84,37.6,84,84v624
	C791,753.4,753.4,791,707,791z"/>
<linearGradient id="SVGID_00000031899203608668174580000013040257048210074774_" gradientUnits="userSpaceOnUse" x1="576.4222" y1="330.8935" x2="1128.0457" y2="330.8935" gradientTransform="matrix(0.2512 0.9679 -0.9679 0.2512 678.1195 -86.553)">
	<stop  offset="0" style="stop-color:#25093F"/>
	<stop  offset="0.1717" style="stop-color:#320F49"/>
	<stop  offset="0.4893" style="stop-color:#541F63"/>
	<stop  offset="0.9149" style="stop-color:#8B388D"/>
	<stop  offset="1" style="stop-color:#973E96"/>
</linearGradient>
<path style="fill:url(#SVGID_00000031899203608668174580000013040257048210074774_);" d="M834.1,753.4
	C795.9,606,647.5,516.9,502.6,554.5c-144.8,37.6-231.2,187.6-193,335s186.7,236.5,331.5,198.9C786,1050.9,872.4,900.9,834.1,753.4z
	 M806.2,773.6c-0.1,0.8-0.1,1.6-0.2,2.4c-0.2,1.4-0.8,2.6-1.7,3.4c-1.9,4.4-4.6,8.6-7.7,12.4c1.5,0.1,2.9,0.1,4.4,0.2
	c6.4,0.3,6.4,10.3,0,10c-4.9-0.3-9.9-0.4-14.8-0.7c-1.7,0.8-3.7,0.7-5.1-0.3c-2.6-0.1-5.1-0.3-7.6-0.5c-1.9,1.8-5,1.5-6.9,0
	c-6,8.3-13.2,16.1-22,20.7c-3.6,1.9-8.9-1.3-7.3-5.6c0.7-1.9,1.4-3.8,2.2-5.7c-1.1-0.6-2.1-1.4-3.1-2.4c-5.3-5.2-3.5-10.1,1.3-14.2
	c-0.2-0.3-0.3-0.6-0.5-1c-1.8,1.8-3.7,3.4-5.6,5c-4.9,4-11.5-2.2-7.1-7.1c3.7-4,7.6-7.9,11.7-11.6c7.8-9.1,14.3-19.3,21.5-29
	c5.3-7.2,10.9-14.1,17.6-20.1c1.1-1,2.2-1.9,3.3-2.8c1.6-3.2,3.3-6.4,5.1-9.5c1.1-2,3.7-2.7,5.8-2.2c1.9-2.2,4.2-4.2,7-5.6
	c3.4-1.7,7.4,0.4,7.5,4.3c0,0,0,0.1,0,0.1c1.2,1.4,1.6,3.4,0.3,5.4c-0.2,0.3-0.4,0.6-0.6,1c-0.8,6.7-2.9,13.2-5.7,19.5
	c3.4-2.4,9.3,0.7,7.8,5.4c-0.8,2.4-1.8,4.8-2.8,7c1.4,4.1,2.4,8.3,2.9,12.4c0.7,0.8,1.1,1.9,1.1,3.2
	C806.9,769.9,806.6,771.7,806.2,773.6z"/>
<g>
	<g>
		<path class="st2" d="M222.9,292l-19.7-78.7h14.6l15.6,65.6h1l15.6-65.6h14.6L244.9,292H222.9z"/>
		<path class="st2" d="M273.8,292v-13.9h22.1V292H273.8z M277,247.1v-13.9h32.3v13.9H277z M301.4,225.3c-2.8,0-5-0.9-6.7-2.7
			s-2.6-4.1-2.6-6.9c0-2.8,0.9-5.2,2.6-6.9c1.7-1.8,4-2.7,6.7-2.7c2.8,0,5,0.9,6.7,2.7s2.6,4.1,2.6,6.9c0,2.8-0.9,5.2-2.6,6.9
			S304.2,225.3,301.4,225.3z M294.8,292v-55.4h14.5V292H294.8z M308.2,292v-13.9h17.9V292H308.2z"/>
		<path class="st2" d="M358.3,293.1c-4.3,0-8.2-0.1-11.5-0.4s-6.3-0.7-8.8-1.2l1.7-14.4c4.5,0.6,8.3,1,11.4,1.3s5.5,0.4,7.2,0.4
			c4.9,0,8.4-0.3,10.6-1s3.3-1.8,3.3-3.3c0-0.9-0.3-1.6-0.8-2.1s-1.4-1-2.6-1.3l-18.5-5.5c-3.8-1.1-6.6-2.9-8.6-5.2
			c-1.9-2.3-2.9-5.5-2.9-9.5c0-6.3,2.6-11,7.7-14.1c5.2-3.1,13-4.6,23.4-4.6c2.4,0,5,0.1,7.6,0.3s5.4,0.5,8.3,0.8l-1.6,13.9
			c-3.3-0.3-6.1-0.5-8.5-0.6s-4.5-0.2-6.2-0.2c-5.6,0-9.7,0.3-12.2,1s-3.8,1.7-3.8,3.2c0,0.9,0.3,1.6,0.8,2.1s1.3,0.9,2.4,1.2
			l15.9,4.5c4.9,1.4,8.6,3.4,11,6s3.6,6,3.6,10.2c0,6.2-2.4,10.9-7.2,13.9C375.4,291.6,368.1,293.1,358.3,293.1z"/>
		<path class="st2" d="M418.8,293.1c-5.4,0-9.6-1.8-12.6-5.5s-4.5-8.9-4.5-15.5v-38.8h14.5v35.1c0,3.4,0.7,6,2.2,7.8
			s3.5,2.7,6.1,2.7c3.4,0,6-1.4,7.7-4.1s2.6-7.3,2.6-13.7l2.9,19.6h-4.4c-0.9,4-2.6,7.1-5.2,9.2S422.5,293.1,418.8,293.1z
			 M435,275.4v-42.1h14.5V272L435,275.4z M436,292.5l-1-14.1v-10.3h14.5v10.4l7.8,1.2V292L436,292.5z"/>
		<path class="st2" d="M482.6,293.1c-6,0-10.7-1.5-14.1-4.6s-5-7.4-5-13.1c0-6.6,2.2-11.6,6.6-15.1s10.6-5.3,18.7-5.3
			c3.1,0,5.8,0.2,8.1,0.5s4.6,0.9,6.9,1.6l-2.4,11.7c-2.3-0.6-4.3-0.9-6.2-1c-1.8-0.1-3.7-0.1-5.7-0.1c-7.5,0-11.3,2.2-11.3,6.7
			c0,2,0.7,3.5,2,4.6c1.4,1.1,3.3,1.6,6,1.6c3.1,0,5.8-0.6,7.9-1.8c2.1-1.2,3.7-2.8,4.7-4.7c1.1-1.9,1.6-3.8,1.6-5.8v-3.7l2,15.1
			h-4.6l1.9-1.8c-0.1,3.4-0.9,6.2-2.3,8.5s-3.4,4-5.9,5.1C489.2,292.5,486.1,293.1,482.6,293.1z M501.9,292.5l-1.2-17.4l-0.2-7.6
			V256c0-3.1-1.3-5.4-3.9-6.9s-6.4-2.3-11.6-2.4l-14.5-0.4l1.1-13.6l12.4,0.2c10.3,0.1,18,2.2,23,6.3c5,4,7.5,9.9,7.5,17.7v21.7
			l7.9,1.2V292L501.9,292.5z"/>
		<path class="st2" d="M528,222.6v-13.8h17v13.8H528z M564.3,293.1c-7.2,0-12.3-2-15.5-6.1s-4.7-10.6-4.7-19.5v-58.6h14.5V267
			c0,2.4,0.2,4.4,0.8,6c0.5,1.6,1.5,2.7,2.9,3.4c1.4,0.7,3.6,1.1,6.4,1.1c3.1,0,7.1-0.7,11.9-2.1l1.7,15.4c-3,0.8-6,1.4-8.8,1.8
			C570.5,292.9,567.5,293.1,564.3,293.1z"/>
		<path class="st2" d="M111.8,428.2v-78.7H126v78.7H111.8z M125.2,428.2v-14h6c7,0,12.2-2.1,15.7-6.2s5.2-10.2,5.2-18.1
			c0-8.7-1.7-15.3-5.2-19.8s-8.7-6.7-15.7-6.7h-5.7l-1.3-14h7c23.9,0,35.8,13.5,35.8,40.5c0,25.5-11.9,38.2-35.8,38.2h-6V428.2z"/>
		<path class="st2" d="M206.2,429.3c-9.8,0-17.4-2.6-22.8-7.9c-5.4-5.3-8-12.8-8-22.7c0-9.6,2.3-17.1,6.8-22.4c4.6-5.3,11-8,19.3-8
			c8.1,0,14.4,2.5,18.8,7.4c4.4,4.9,6.7,12.1,6.7,21.5c0,2.7-0.1,5.2-0.3,7.6H185v-10.4h27.8c0-4-1-7-2.9-9.1s-4.7-3.2-8.2-3.2
			c-3.8,0-6.7,1.4-8.8,4.2c-2.1,2.8-3.1,6.8-3.1,11.9c0,5.5,1.5,9.8,4.6,12.6c3.1,2.9,7.5,4.3,13.2,4.3c2.6,0,5.1-0.1,7.6-0.4
			s5.1-0.7,7.7-1.1l1.4,14.2c-3.6,0.7-7,1.1-10,1.3C211.2,429.2,208.6,429.3,206.2,429.3z"/>
		<path class="st2" d="M261.7,429.3c-4.3,0-8.2-0.1-11.5-0.4s-6.3-0.7-8.8-1.2l1.7-14.4c4.5,0.6,8.3,1,11.4,1.3
			c3.1,0.3,5.5,0.4,7.2,0.4c4.9,0,8.4-0.3,10.6-1s3.3-1.8,3.3-3.3c0-0.9-0.3-1.6-0.8-2.1s-1.4-1-2.6-1.3l-18.5-5.5
			c-3.8-1.1-6.6-2.9-8.6-5.2s-2.9-5.5-2.9-9.5c0-6.3,2.6-11,7.7-14.1c5.2-3.1,13-4.6,23.4-4.6c2.4,0,5,0.1,7.6,0.3
			c2.6,0.2,5.4,0.5,8.3,0.8l-1.6,13.9c-3.3-0.3-6.1-0.5-8.5-0.6s-4.5-0.2-6.2-0.2c-5.6,0-9.7,0.3-12.2,1c-2.5,0.6-3.8,1.7-3.8,3.2
			c0,0.9,0.3,1.6,0.8,2.1s1.3,0.9,2.4,1.2l15.9,4.5c4.9,1.4,8.6,3.4,11,6s3.6,6,3.6,10.2c0,6.2-2.4,10.9-7.2,13.9
			C278.9,427.8,271.5,429.3,261.7,429.3z"/>
		<path class="st2" d="M330.5,429.3c-2.7,0-5-1-6.9-3s-2.8-4.4-2.8-7.1c0-2.8,0.9-5.2,2.8-7.2s4.2-2.9,6.9-2.9c2.7,0,5,1,6.9,2.9
			c1.9,2,2.8,4.3,2.8,7.2c0,2.8-0.9,5.1-2.8,7.1S333.2,429.3,330.5,429.3z"/>
		<path class="st2" d="M402.8,429.3c-24.3,0-36.4-13.5-36.4-40.6c0-12.8,3.1-22.8,9.2-29.8s14.8-10.6,26-10.6c5,0,9.5,0.8,13.4,2.5
			s6.8,4.1,8.9,7.2l-7.9,10.8c-1.6-2.1-3.7-3.7-6.1-4.8c-2.5-1.1-5.2-1.7-8.1-1.7c-6.2,0-11.1,2.2-14.8,6.7
			c-3.7,4.5-5.6,10.9-5.6,19.1c0,18.1,7.8,27.2,23.3,27.2c5.2,0,10.3-1.1,15.3-3.3l2.5,13.5C416.2,428.1,409.7,429.3,402.8,429.3z"
			/>
		<path class="st2" d="M459.2,429.3c-8.2,0-14.5-2.7-19-8s-6.8-12.8-6.8-22.5s2.3-17.2,6.8-22.5s10.9-8,19-8s14.5,2.7,19,8
			s6.8,12.8,6.8,22.5s-2.3,17.2-6.8,22.5S467.4,429.3,459.2,429.3z M459.2,415.1c3.5,0,6.2-1.4,8.1-4.2c1.9-2.8,2.8-6.8,2.8-12
			s-0.9-9.2-2.8-12s-4.6-4.2-8.1-4.2s-6.2,1.4-8.1,4.2s-2.9,6.8-2.9,12s1,9.2,2.9,12C453.1,413.7,455.8,415.1,459.2,415.1z"/>
		<path class="st2" d="M496.5,428.2v-58.8h13l1.3,12.4v46.3h-14.3V428.2z M518.4,428.2v-40.9c0-3.3-1.1-5-3.4-5
			c-2.7,0-4.1,2.2-4.1,6.6l-3.3-12.1h4.1c0.8-5.6,3.7-8.4,8.6-8.4c2.8,0,4.9,1.1,6.5,3.2s2.4,5.3,2.4,9.6v47.1h-10.8V428.2z
			 M536.4,428.2v-39.8c0-4.1-1.1-6.1-3.4-6.1c-2.6,0-3.9,2.2-3.9,6.6l-3.9-12.1h4.8c0.3-2.6,1.3-4.7,3-6.2s3.9-2.2,6.6-2.2
			c3.8,0,6.6,1.1,8.4,3.3c1.8,2.2,2.7,5.7,2.7,10.6v46L536.4,428.2L536.4,428.2z"/>
		<path class="st2" d="M560.9,428.2v-58.8h13l1.3,12.4v46.3h-14.3V428.2z M582.7,428.2v-40.9c0-3.3-1.1-5-3.4-5
			c-2.7,0-4.1,2.2-4.1,6.6l-3.3-12.1h4.1c0.8-5.6,3.7-8.4,8.6-8.4c2.8,0,4.9,1.1,6.5,3.2s2.4,5.3,2.4,9.6v47.1h-10.8V428.2z
			 M600.8,428.2v-39.8c0-4.1-1.1-6.1-3.4-6.1c-2.6,0-3.9,2.2-3.9,6.6l-3.9-12.1h4.8c0.3-2.6,1.3-4.7,3-6.2s3.9-2.2,6.6-2.2
			c3.8,0,6.6,1.1,8.4,3.3c1.8,2.2,2.7,5.7,2.7,10.6v46L600.8,428.2L600.8,428.2z"/>
		<path class="st2" d="M652.4,429.3c-2.7,0-5-1-6.9-3s-2.8-4.4-2.8-7.1c0-2.8,0.9-5.2,2.8-7.2c1.9-2,4.2-2.9,6.9-2.9s5,1,6.9,2.9
			c1.9,2,2.8,4.3,2.8,7.2c0,2.8-0.9,5.1-2.8,7.1C657.4,428.3,655.1,429.3,652.4,429.3z"/>
		<path class="st2" d="M200.3,565.5c-8.7,0-15.3-2.4-20-7.3c-4.7-4.9-7.1-11.8-7.1-20.6H188c0,4.4,1.1,7.9,3.3,10.3
			c2.2,2.5,5.3,3.7,9.3,3.7s7.2-1.2,9.4-3.7c2.2-2.4,3.3-5.9,3.3-10.4v-51.9h14.2v51.9c0,8.9-2.4,15.7-7.2,20.6
			S208.8,565.5,200.3,565.5z M195.8,499.2v-13.5h25v13.5H195.8z"/>
		<path class="st2" d="M266.1,565.5c-19.3,0-29-13.3-29-39.9c0-27.3,9.7-41,29-41s29,13.7,29,41
			C295.1,552.2,285.5,565.5,266.1,565.5z M266.1,551.6c9.4,0,14.2-8.6,14.2-25.9c0-18-4.7-27-14.2-27s-14.2,9-14.2,27
			C251.9,542.9,256.7,551.6,266.1,551.6z"/>
		<path class="st2" d="M330.3,565.5c-16.9,0-25.4-8.8-25.4-26.4v-53.4h14.2v53.4c0,4.1,0.9,7.2,2.8,9.3c1.8,2.1,4.7,3.1,8.7,3.1
			c7.6,0,11.4-4.1,11.4-12.4v-53.4h14.2v53.4c0,8.8-2.2,15.4-6.6,19.8S338.7,565.5,330.3,565.5z"/>
		<path class="st2" d="M369.3,564.4v-78.7h14.2v78.7H369.3z M382.7,535.6v-13.5h13.7c3.3,0,5.8-1,7.7-3c1.8-2,2.7-4.8,2.7-8.5
			s-0.9-6.5-2.7-8.5c-1.8-2-4.4-3-7.7-3h-13.5l-1.3-13.5h14.8c8.2,0,14.5,2.1,19,6.2s6.7,10,6.7,17.6c0,8.2-2.2,14.6-6.7,19.2
			s-10.8,6.8-19,6.8h-13.7V535.6z M408,564.4l-14.4-37h14.9l16.4,37H408z"/>
		<path class="st2" d="M434.1,564.4v-78.7h13.6v78.7H434.1z M463.1,564.4l-13.4-61.5h-5.8v-17.2h11.5l13.4,61.5h3.6v17.2H463.1z
			 M470.8,564.4v-78.7h13.6v78.7H470.8z"/>
		<path class="st2" d="M492.9,564.4l22-78.7h17.4l22,78.7H539l-14.9-59.5h-1l-14.9,59.5H492.9z M504,549.5V536h38.6v13.5H504z"/>
		<path class="st2" d="M563.5,564.4v-78.7h14.2v78.7H563.5z M563.5,564.4V551h52.3v13.5L563.5,564.4L563.5,564.4z"/>
	</g>
</g>
<linearGradient id="SVGID_00000148620295711670414760000012132710533335838122_" gradientUnits="userSpaceOnUse" x1="575.2" y1="82.1" x2="942.7" y2="82.1">
	<stop  offset="0" style="stop-color:#25093F"/>
	<stop  offset="0.1717" style="stop-color:#320F49"/>
	<stop  offset="0.4893" style="stop-color:#541F63"/>
	<stop  offset="0.9149" style="stop-color:#8B388D"/>
	<stop  offset="1" style="stop-color:#973E96"/>
</linearGradient>
<path style="fill:url(#SVGID_00000148620295711670414760000012132710533335838122_);" d="M759-98.4c-101.5,0-183.8,80.8-183.8,180.5
	S657.5,262.6,759,262.6s183.8-80.8,183.8-180.5S860.4-98.4,759-98.4z M813,27c-4.4,0-9.1,0-13.8-0.1c-0.2,0.2-0.3,0.5-0.5,0.7
	c3.8,4.9,6.6,10.6,8.2,17.1c1.1,4.6-4.9,8.8-8.4,4.9c-1-1.2-2-2.3-3.1-3.5c-0.1,0-0.1,0-0.2,0c1.3,2.2,2.6,4.3,4.1,6.4
	c3.4,4.6-4.1,10.2-7.9,6.1c-9.2-10.1-20.3-18.4-29-29c-2.5-3.1-0.9-8.4,3-8.6c-2.6-2.3-5.3-4.4-8.1-6.4c-7.1-3.1-14.5-5.8-20.9-10.2
	c-3.7-2.5-2.6-7.8,0.9-9c-0.7-2.9,0.9-6.3,4.7-6.3c2,0,3.9,0.1,5.8,0.3c3.1-0.4,6.2,0,9,1.3c6.4,1.3,12.8,3.3,19,5.8
	c6.6-1.2,13.7-1,19,3.3c3,2.4,4.7,5.6,5.6,9c4.5,2.6,8.8,5.3,13.1,8c0.2,0.1,0.4,0.3,0.6,0.4C819.4,18.2,819,27,813,27z"/>
<path class="st2" d="M792,63c0,221.3,0,442.7,0,664c-0.7,1.7-1.5,3.3-2.1,5c-9.6,27.1-28.1,45.5-55.5,54.9
	c-5.2,1.8-10.6,2.8-15.9,4.1c-215.6,0-431.3,0-646.9,0c-0.9-0.3-1.8-0.8-2.8-1c-17.7-2.9-33-10.5-46.1-22.8
	C12.3,757.6,5.4,745.8,0,733C0,507.7,0,282.3,0,57c0.5-1,1.1-2,1.6-3.1C9.3,34.5,22.5,19.7,40.8,9.5C47,6.1,53.9,3.8,60.5,1
	c223,0,446,0,669.1,0c1.2,0.6,2.3,1.3,3.6,1.7c22.1,6.9,38.7,20.6,50.1,40.4C786.8,49.4,789.1,56.3,792,63z M11.2,200.9
	c0,1,0,2.1,0,3.1c0,24.6,0,49.3,0,73.9c-0.1,20.6-0.2,41.2-0.2,61.8c0,32.4,0.1,64.8,0.2,97.2c0,22.3,0,44.7,0,67
	c-0.1,1.8-0.2,3.7-0.2,5.5c0,51.5,0,103,0,154.5c0,2.7,0.1,5.3,0.2,8c0,3.1,0,6.1,0,9.2c-0.1,8.8-0.5,17.7-0.1,26.5
	c0.9,20.8,10.1,37.5,26,50.9c9.9,8.9,21.7,14.4,34.8,16.3c8.9,1.3,18,1.2,27.1,1.2c39.2,0.1,78.4-0.1,117.7-0.1c3-0.7,6-1.3,9.1-2
	c1.6,0.7,3.1,2.1,4.7,2.1c11.9,0.1,23.7,0,35.6-0.1c20.8,0,41.6,0,62.5,0c32.2,0,64.5,0,96.7,0c3.4,0,6.7,0,10.1,0
	c9.7,0,19.5,0,29.2,0c1.7,0,3.4,0,5.1,0c25.9,0,51.7,0,77.6,0c1,0.1,2,0.2,3,0.2c52.2,0,104.5,0,156.7,0c1.8,0,3.7-0.2,5.5-0.3
	c2-0.3,4-0.4,5.9-0.8c14.7-3,27.9-9,38.4-19.9c3.3-3.7,6.8-7.3,9.8-11.3c12.5-17.1,13.7-36.6,12.3-56.7c0-4,0-8.1,0-12.1
	c0-17.6,0-35.2,0-52.8c0.1-1.2,0.2-2.3,0.2-3.5c0-59.1,0-118.2,0-177.3c0-1.2-0.1-2.3-0.2-3.5c0.1-1.8,0.2-3.6,0.2-5.5
	c0-49.6,0-99.3,0-148.9c0-1.8-0.1-3.7-0.2-5.5c0-1.8,0.1-3.7,0.1-5.5c0-38.1,0.1-76.2,0.1-114.3c0-1.8,0.1-3.7,0.1-5.5
	c-0.1-25.8,0.4-51.5-0.6-77.3c-0.4-10.5-5.1-20.4-12.5-28.6c-1.4-2.2-2.4-4.6-4.2-6.5C745.4,22.5,724.8,14,700.4,14
	c-180,0.1-360,0-540,0.1c-27.3,0-54.6,0.8-81.9,0.9c-12.7,0-23.8,4.3-34.1,11.1c-3.3,2.1-6.4,4.7-9,7.5c-4.7,5-9,10.3-13.5,15.5
	c-7.1,10.4-11.5,21.8-11.5,34.3c-0.1,25.6,0.5,51.1,0.8,76.7C11.2,173.6,11.2,187.3,11.2,200.9z"/>
</svg>
