<?xml version="1.0" encoding="utf-8"?>
<!-- Generator: Adobe Illustrator 26.2.1, SVG Export Plug-In . SVG Version: 6.00 Build 0)  -->
<svg version="1.1" id="Layer_1" xmlns="http://www.w3.org/2000/svg" xmlns:xlink="http://www.w3.org/1999/xlink" x="0px" y="0px"
	 viewBox="0 0 792 792" style="enable-background:new 0 0 792 792;" xml:space="preserve">
<style type="text/css">
	.st0{clip-path:url(#SVGID_00000132780506670819881620000012121585511853326752_);}
	.st1{fill:#343434;}
	.st2{fill:#FAC31A;}
	.st3{fill:#F8B419;}
	.st4{fill:#EBEAE9;}
	.st5{fill:#E7E6E5;}
	.st6{fill:#EFEEED;}
	.st7{fill:#E9E8E7;}
	.st8{fill:#E2E1E0;}
	.st9{fill:#F6F5F5;}
	.st10{fill:#FFFDF6;}
	.st11{fill:#FFFBF2;}
	.st12{fill:#FFFCF4;}
	.st13{fill:#FFFBF0;}
	.st14{fill:#3D3D3D;}
	.st15{fill:#373737;}
	.st16{fill:#474646;}
	.st17{fill:#FBC936;}
	.st18{fill:#FAC524;}
	.st19{fill:#CBAFD2;}
</style>
<g>
	<defs>
		<path id="SVGID_1_" d="M94,0h604c51.9,0,94,42.1,94,94v604c0,51.9-42.1,94-94,94H94c-51.9,0-94-42.1-94-94V94C0,42.1,42.1,0,94,0z
			"/>
	</defs>
	<clipPath id="SVGID_00000155835563434851652290000012434015716943068857_">
		<use xlink:href="#SVGID_1_"  style="overflow:visible;"/>
	</clipPath>
	<g style="clip-path:url(#SVGID_00000155835563434851652290000012434015716943068857_);">
		<g>
			<path class="st1" d="M734.5,791.9c-243,0-486,0-729,0.1c-4.4,0-5.5-0.8-5.5-5.6C0.2,612,0.1,437.6,0.1,263.2
				c263.9,0,527.8,0,791.8,0c0,87.3,0,174.6,0,262c-0.9,1.9-2,3.8-2.8,5.7c-8.4,19.2-15.7,38.9-22.2,58.9
				c-13.8,42.5-23,86.1-28,130.7C736.2,744.2,735.2,768,734.5,791.9z M401.5,400.8c0.3,0.1,0.7,0.1,1,0.2
				c3.1,10.8,6.2,21.7,9.2,32.5c0.5,1.9,0.9,3.7,3.5,3.6c2.6,0,2.9-1.5,3.4-3.6c2.1-8.7,4.4-17.3,6.6-26c1.4-5.3,3.3-10.5,3.7-15.9
				c-4.1-1.6-5.3,0.5-6.1,3.9c-2.3,9.9-4.8,19.8-7.2,29.7c-4-9.9-6.9-19.8-9.9-29.7c-0.6-2.1-0.8-4.5-4.1-4.4
				c-3.3,0.1-3.3,2.3-4,4.5c-3,9.8-5,19.9-9.2,30.3c-2.6-10.7-5.2-20.4-7.3-30.2c-0.9-4.3-2.7-5.5-6.5-3.8
				c3.4,13.5,6.7,26.9,10.2,40.3c0.5,1.9,0.1,4.9,3.6,5c3.7,0.2,3.5-2.9,4.2-5.1C395.7,421.6,398.6,411.2,401.5,400.8z M659.8,579
				c0.3-0.5,0.6-1,0.9-1.5c-2.5-2.3-6.5-4.2-7.2-6.9c-0.6-2.6,2.4-6.1,3.6-9.3c0.5-1.4,2.4-3.4-0.1-4.5c-2.1-0.9-3.6,0.1-4.6,2.7
				c-2.8,7.5-3,7.5-8.4,2c-0.7-0.7-1.3-1.4-2-2c-3.7-2.9-5.1-5.2-0.2-8.8c4.8-3.6,5.2-10.4,1.8-14.5c-3.2-4-11-4.7-15.5-1.5
				c-4.3,3.1-5.8,9.1-2.2,13.9c3.3,4.5,2,6.2-1.6,9.3c-7,5.9-5.3,17.8,2.7,20.7c5.6,2,11.6,1.9,16.9-1.3c3.5-2.1,6.2-4.1,9.2,0.5
				C654.6,580.2,657.4,579.2,659.8,579z M434.9,640.2c-0.3,0.1-0.7,0.2-1,0.3c-2.9-4.7-5.9-9.3-8.8-14c-4-6.4-8.1-12.7-11.9-19.2
				c-1.4-2.4-3.4-2.7-5.7-2.5c-1.8,0.1-2,1.2-2,2.8c0,13.3,0,26.6,0,39.9c0,1.8,0.5,3,2.5,3.1c2.3,0.1,2.9-1.2,2.8-3.3
				c-0.1-1.4,0-2.7,0-4.1c0-9.4,0-18.8,0-29.7c1.7,2.6,2.7,4,3.6,5.4c5.9,9.5,11.9,19,17.7,28.5c1.5,2.5,3.4,3.5,6,3.1
				c3.3-0.6,1.9-3.4,1.9-5.2c0.1-12.1,0.1-24.3,0-36.4c0-1.7,1-4.1-2.2-4.2c-3.5-0.1-2.7,2.4-2.7,4.4
				C434.9,619.5,434.9,629.8,434.9,640.2z M424.4,470.4c3.9,6.2,6.9,11,10,15.9c4.1,6.5,8.2,13.1,12.2,19.7c1.4,2.3,3.3,2.2,5.4,2.1
				c1.8-0.1,1.9-1.4,1.9-2.9c0-13.3,0-26.6,0-39.9c0-1.8-0.5-2.9-2.5-3c-2.5-0.1-2.6,1.6-2.6,3.5c0,3.5,0,7,0,10.6
				c0,7.2,0,14.5,0,23.4c-1.9-3-2.9-4.4-3.8-5.9c-5.8-9.3-11.7-18.6-17.4-28c-1.6-2.7-3.5-4.2-6.4-3.4c-3.2,0.9-1.6,4-1.6,5.9
				c-0.2,11.9-0.1,23.9-0.1,35.8c0,1.7-0.8,4.1,2.4,4c3.1-0.1,2.3-2.4,2.4-4.2C424.4,493.3,424.4,482.7,424.4,470.4z M523,555.1
				c6.1-2.7,8.2-7.5,6.6-13.7c-1.7-6.5-7.2-7.3-12.5-7.8c-3.9-0.4-7.9,0.1-11.8-0.2c-3.2-0.2-4.2,1-4.1,4.3
				c0.2,8.4,0.1,16.8,0.1,25.2c0,17.6,0,17.6,17,16.4c7.4-0.5,11.7-3.9,13-10.5C532.6,562.5,530.6,559.1,523,555.1z M314.1,612.8
				c1.5,2.2,2.1,3.1,2.7,4c6.4,10.3,13,20.5,19.2,30.9c1.6,2.7,3.7,3.3,6.1,2.7c2.6-0.6,1.6-3.2,1.6-4.9c0.1-12.1,0.1-24.2,0-36.4
				c0-2,0.7-4.5-2.7-4.4c-3.1,0.1-2.3,2.4-2.3,4.2c-0.1,7.6,0.1,15.2-0.1,22.9c-0.1,2.9,1,5.9-0.7,9.1
				c-7.1-11.4-14.1-22.3-20.7-33.3c-1.6-2.7-3.6-3.2-6.1-2.7c-2.9,0.5-1.6,3.1-1.7,4.8c-0.1,12.1-0.1,24.2,0,36.4
				c0,2-0.8,4.7,2.6,4.6c3.1-0.2,2-2.8,2-4.5C314.1,635.5,314.1,624.9,314.1,612.8z M370.4,555.6c0-0.9,0-2.9-0.3-4.8
				c-1.3-10.4-7.9-17.1-17.7-18.1c-10.1-1-18,3.9-21,13.6c-2.5,8.1-2.2,16.2,1.7,23.9c2.6,5.2,6.8,8.2,12.3,9.1
				C360.8,581.7,370.3,573.1,370.4,555.6z M417.7,555.9c0,6.4,0,12.9,0,19.3c0,2-0.2,4.1,2.7,4c6-0.2,12,0.7,17.9-1
				c9.4-2.7,14.2-9.9,14.5-21.6c0.3-11.4-4.2-18.7-13.2-21.9c-5.8-2.1-11.9-0.9-17.8-1.3c-3.3-0.3-4.1,1.2-4,4.4
				C417.9,543.8,417.7,549.8,417.7,555.9z M274.6,413.7c0,6.5,0,12.9,0,19.4c0,2-0.4,4,2.7,3.9c6.5-0.2,13.1,0.5,19.4-1.9
				c9.8-3.7,14.4-13.1,12.8-26.3c-1.3-10.1-8.2-16.9-18.1-17.6c-4.1-0.3-8.3,0.1-12.4-0.2c-3.3-0.2-4.7,0.6-4.5,4.5
				C274.8,401.6,274.6,407.7,274.6,413.7z M353.5,424.1c0-12,0-12-11.3-11.4c-1.6,0.1-3.5-0.6-3.6,2.3c-0.1,3.4,2.2,2.2,3.9,2.6
				c1.9,0.4,4.7-1.4,5.7,1.9c2.7,8.9-0.3,13.2-9.1,13.1c-0.7,0-1.5,0-2.2-0.1c-8.8-0.8-13.6-6.5-14-16.6
				c-0.5-11.7,3.9-18.6,12.9-20.1c4.4-0.7,8.6-0.3,12.7,1.3c2.2,0.8,3.1-0.3,3.8-2.1c0.9-2.4-0.9-2.6-2.3-3
				c-7.6-2.2-15.2-2.6-22.4,1.4c-8.7,4.9-12.7,16.9-9.8,28.2c2.7,10.3,9.5,15.7,20.2,15.8C352.7,437.6,353.5,436.9,353.5,424.1z
				 M342.3,485.1c0-15.6-7.7-24-21.7-23.4c-12.2,0.5-19.5,10.2-18.5,24.9c0.1,1.4,0.3,2.7,0.5,4.1c1.3,11.3,8.3,17.9,19.2,18
				C334.6,508.9,342.2,500.1,342.3,485.1z M557.9,637.5c0-11.5,0-11.5-10.9-11.2c-1.6,0.1-4.1-1-4.2,2.2c-0.2,3.7,2.5,2.4,4.3,2.8
				c1.8,0.4,4.3-1.3,5.3,1.7c2.8,8-0.5,13.2-8.4,13.1c-1.1,0-2.3,0-3.4-0.1c-8.5-1.1-13.2-6.8-14-16.9c-0.7-9.6,4.2-17.2,11.9-19.4
				c5-1.4,9.6-0.3,14.3,1.1c1.8,0.5,2.7,0,3.4-1.8c0.7-1.8-0.1-2.3-1.5-3c-11.1-6-27.7,0.1-31.9,11.7c-6.7,18.7,3.5,33.9,22.4,33.4
				C557.9,650.6,557.9,650.6,557.9,637.5z M519.7,414.1c0-6.5,0-12.9,0-19.4c0-1.8,0.2-3.5-2.4-3.6c-2.7-0.1-3,1.4-3,3.7
				c0.1,4.1,0,8.2,0,12.3c0,1.3,0.4,3-1.6,3c-6.7,0-13.9,1.4-20-0.8c-2.9-1-0.6-9-1-13.8c0-0.2,0-0.4,0-0.6c0-1.9,0.4-3.9-2.6-3.9
				c-2.7,0-3,1.5-2.9,3.7c0,12.9,0.1,25.8,0,38.7c0,2.3,0.4,3.7,3.1,3.6c2.6,0,2.5-1.7,2.5-3.5c0-4.7,0.1-9.4-0.1-14.1
				c-0.1-3,0.7-4.2,3.7-4.1c5,0.2,10.1,0.2,15.2,0c2.9-0.1,4,0.8,3.9,3.9c-0.2,4.7,0,9.4-0.1,14.1c0,2.3,0.3,3.8,3,3.6
				c2.7-0.1,2.4-1.9,2.4-3.7C519.7,427,519.7,420.5,519.7,414.1z M135.1,555.8c0,6.6,0,13.3,0,19.9c0,2.2,0.3,3.7,3,3.6
				c2.5-0.1,2.6-1.5,2.6-3.4c0-4.7,0.2-9.4-0.1-14.1c-0.1-3,0.7-4.1,3.7-4c5,0.2,10.1,0.2,15.1,0c2.9-0.1,4,0.7,3.8,3.9
				c-0.2,4.5-0.1,9,0,13.5c0,1.8-0.6,4,2.5,4.1c2.8,0.1,2.9-1.6,2.9-3.8c0-12.9,0-25.8,0-38.7c0-1.9-0.1-3.4-2.6-3.5
				c-2.9-0.1-2.8,1.7-2.8,3.7c0,4.3,0,8.6,0,12.9c0,1.3,0.3,3-1.7,3c-6.7,0-14,1.4-20-0.9c-2.9-1.1-0.6-9.3-0.9-14.3
				c0-0.2,0-0.4,0-0.6c0-2,0.3-3.9-2.7-3.9c-2.8,0-2.9,1.5-2.9,3.7C135.2,543.3,135.1,549.5,135.1,555.8z M516.3,649.8
				c-3.2-5.5-5.9-10.6-9-15.5c-1.9-2.9-2.2-4.5,1.3-6.5c5.2-3,5.4-8.5,4.4-14c-0.9-5.2-4.6-7.7-9-8.4c-5.2-0.7-10.5-0.5-15.7-0.7
				c-2-0.1-2.6,0.9-2.6,2.9c0,13.3,0,26.6,0,39.9c0,1.7,0.3,3,2.4,3c2.3,0,2.9-1.2,2.8-3.3c-0.1-3.1,0-6.3,0-9.4
				c0-6.3,1.3-7.4,7.2-6.3c2,0.3,2.8,1.7,3.6,3.2c2.2,4.1,4.7,8,6.7,12.2C510.2,650.4,512.4,651.3,516.3,649.8z M259,484.5
				c0,6.7,0.1,13.3,0,20c0,2.4,0.5,3.7,3.1,3.6c2.7-0.1,2.3-1.9,2.3-3.7c0-4.7,0.1-9.4,0-14.1c-0.1-2.6,0.5-3.9,3.4-3.8
				c5.2,0.2,10.5,0.3,15.7,0c3.2-0.2,3.7,1.4,3.6,4.2c-0.2,4.7,0,9.4-0.1,14.1c0,2.1,0.4,3.3,2.7,3.3c2.2,0,2.9-0.9,2.9-3.2
				c-0.1-13.1,0-26.2,0-39.3c0-1.9-0.1-3.4-2.6-3.5c-2.7-0.1-3,1.4-3,3.7c0.1,4.1,0.1,8.2,0,12.3c0,1.4,0.7,3.5-1.7,3.5
				c-6.7,0-14,1.4-19.9-0.8c-2.9-1.1-0.6-9.3-1-14.3c0-0.2,0-0.4,0-0.6c-0.1-1.7,0.4-3.6-2.3-3.8c-2.6-0.1-3.2,1.2-3.1,3.6
				C259.1,472,259,478.3,259,484.5z M385.6,484.9c0,6.4,0,12.9,0,19.3c0,1.6-0.7,3.8,2.1,3.8c6.7,0,13.5,0,20.2,0
				c1.7,0,2.2-1.1,2.2-2.7c-0.1-1.8-1-2.3-2.5-2.3c-1.9,0-3.7,0-5.6,0c-11.9,0-11.8,0-11.3-12.6c0.1-3,0.9-4.2,3.9-4
				c3.9,0.2,7.9,0,11.8,0.1c1.7,0,2.3-0.7,2.4-2.4c0-1.7-0.5-2.5-2.3-2.4c-2.1,0.1-4.1,0-6.2,0c-9.8,0-9.7,0-9.6-10.1
				c0-3.6,1-4.9,4.5-4.7c3.7,0.3,7.5,0.1,11.2,0c1.6,0,3.6,0.6,3.7-2.2c0.1-3.1-2.1-2.6-3.9-2.6c-5.6,0-11.2,0.2-16.8-0.1
				c-3-0.1-3.8,1.1-3.7,4C385.8,472.4,385.6,478.6,385.6,484.9z M410.6,578.6c-3.2-5.5-6.1-10.7-9.1-15.8c-1.5-2.5-2.7-4.1,1.1-6.1
				c4.7-2.4,5.8-7.3,5.2-12.6c-0.6-5.3-3.6-8.3-8.4-9.8c-5.5-1.7-11.2-0.6-16.7-1c-2.1-0.1-2.5,1.1-2.5,2.9c0,13.3,0,26.6,0,39.9
				c0,1.7,0.1,3,2.3,3.1c2.6,0.1,2.6-1.6,2.6-3.4c0-2.9,0-5.9,0-8.8c0-7,0.7-7.5,7.3-6.7c2.1,0.3,2.8,1.6,3.6,3.1
				c2.2,3.9,4.5,7.7,6.4,11.7C404.1,578.5,406.2,580.2,410.6,578.6z M451.6,627.3c0,6.1,0.2,12.1-0.1,18.2c-0.2,4.3,1.4,5.4,5.2,5.2
				c4.1-0.3,8.3,0.3,12.3-0.2c2.3-0.3,6.6,2.5,6.8-2.2c0.2-5.3-4.5-2.6-6.8-2.7c-13.2-0.3-13.1-0.1-12.2-13.6c0.2-2.6,1-3.4,3.3-3.3
				c3.9,0.1,7.9,0.1,11.8,0c1.4,0,3.1,0.4,3.1-2.1c0-2.6-1.5-2.7-3.3-2.7c-1.9,0.1-3.7,0-5.6,0c-9.5,0-9.3,0-9.3-9.9
				c0-3.9,1.3-4.6,4.5-4.4c3.7,0.2,7.5,0.1,11.2,0c1.5,0,3.5,0.7,3.5-2.3c0.1-3.2-1.9-2.8-3.7-2.8c-5.6,0-11.2,0.2-16.9-0.1
				c-3.4-0.2-4.1,1.4-4,4.5C451.7,615.1,451.6,621.2,451.6,627.3z M563.6,434.9c-0.1-0.4-0.2-0.8-0.3-1.1
				c-5.1-13.4-10.1-26.8-15.1-40.3c-0.6-1.7-1.5-2.4-3.2-2.5c-2.3-0.1-2.8,1.5-3.4,3.1c-4.7,12.5-9.5,25-14.1,37.6
				c-0.6,1.6-3.2,3.8-0.1,5.2c2.6,1.2,3.8-1,4.8-3.4c4.4-11.3,4.5-11.2,16.1-11.2c0.4,0,0.8,0.1,1.1,0c3.1-0.5,4.8,0.9,5.8,4
				c1,3.1,2.3,6.2,3.5,9.2c0.8,2,2.4,1.4,3.9,1.4C563.9,436.9,563.8,435.9,563.6,434.9z M248.8,604.7c-3,0-6,0.1-9,0
				c-2.2-0.1-3.4,0.4-3.4,3.2c0.1,13.1,0.1,26.2,0,39.3c0,2.1,0.5,3.3,2.8,3.3c6.4-0.1,12.7,0,19.1,0c1.8,0,2.8-0.4,2.8-2.6
				c0-2.2-1.2-2.5-2.9-2.5c-3.6,0-7.2-0.3-10.7,0.1c-4.9,0.6-5.9-1.4-5.7-6.2c0.3-10.6,0.1-10.4,9.8-10.7c2.7-0.1,7.8,2.4,7.9-1.9
				c0.1-5.4-5.3-2.4-8-2.5c-9.9-0.4-9.7-0.2-9.7-10.3c0-3.4,1.1-4.4,4.2-4.2c4.1,0.2,8.2,0,12.4,0.1c1.8,0,2.7-0.4,2.7-2.6
				c0-2.2-1.1-2.5-2.8-2.5C255.2,604.7,252,604.7,248.8,604.7z M371.3,627.7c0,6.1,0.2,12.1-0.1,18.2c-0.1,3.5,0.8,5,4.3,4.7
				c4.3-0.3,8.6,0.3,12.9-0.2c2.5-0.3,7.2,2.6,7.3-2.2c0.1-5.4-4.8-2.6-7.4-2.6c-12-0.3-11.9-0.1-11.6-12.9c0.1-3,0.7-4.2,3.8-4
				c3.7,0.3,7.5,0.1,11.2,0c1.4,0,3.1,0.3,3.1-2.2c0-2.2-1.3-2.5-2.9-2.5c-3.9,0-7.9-0.1-11.8,0c-2.3,0.1-3.2-0.6-3.3-3.2
				c-0.7-11.1-0.8-11.1,9.8-11.1c2.1,0,4.1,0,6.2,0c1.7,0,3.3,0.2,3.3-2.5c0-2.8-1.7-2.5-3.4-2.5c-6,0-12,0.1-18-0.1
				c-2.7-0.1-3.5,0.9-3.5,3.7C371.4,614.8,371.3,621.3,371.3,627.7z M303,649c-0.2-0.9-0.3-1.1-0.3-1.3
				c-5.2-13.8-10.3-27.6-15.7-41.2c-1.4-3.4-4.3-3.3-5.6,0.1c-5.3,13.5-10.4,27.1-15.5,40.7c-0.4,1-1,2.5,0.4,3
				c1.2,0.5,2.7,0.6,3.7-0.6c0.7-0.9,1.3-2,1.5-3.1c1.4-10.2,7.7-12.4,16.3-10.9c0.4,0.1,0.8,0.1,1.1,0c2.8-0.5,4.5,0.7,5.3,3.7
				c0.9,3.2,2.2,6.2,3.4,9.2c0.8,2.1,2.6,2,4.3,1.7C303,650.3,303.1,649.4,303,649z M606.6,414c0,1.8-0.1,3.5,0,5.3
				c0.4,5.8-2.4,13.5,1.2,16.8c3.1,2.9,10.3,1.2,15.7,0.8c2.5-0.2,7.5,2.8,7.3-2.6c-0.1-4.8-4.8-2.1-7.2-2.2
				c-12.5-0.3-12.4-0.1-11.8-13.3c0.1-2.9,1.1-3.6,3.6-3.5c3.9,0.2,7.9,0,11.8,0c1.7,0,2.9-0.4,2.8-2.6c0-2.2-1.2-2.5-2.9-2.5
				c-2.1,0-4.1,0-6.2,0c-9.3,0-9.1,0-9.2-9.9c0-3.8,1.2-4.6,4.5-4.4c3.9,0.3,7.8,0.1,11.8,0.1c1.6,0,2.9-0.1,3-2.4
				c0.1-2.4-1.3-2.4-2.9-2.4c-6.2,0-12.3,0.1-18.5-0.1c-3.1-0.1-3.2,1.7-3.1,4.1C606.7,401.5,606.6,407.7,606.6,414z M436.5,414.1
				c0,6.5,0.1,12.9-0.1,19.4c-0.1,2.8,0.8,3.7,3.5,3.6c5.8-0.2,11.6,0,17.4-0.1c1.8,0,3.9,0.5,3.8-2.7c-0.1-2.8-1.9-2.3-3.5-2.4
				c-1.5-0.1-3,0-4.5,0c-12.4,0-12.3,0-11.5-13.1c0.2-2.9,1.1-3.7,3.7-3.6c3.9,0.1,7.9,0,11.8,0c1.9,0,2.8-0.7,2.7-2.8
				c-0.1-1.8-1.1-2.3-2.6-2.3c-2.1,0-4.1,0-6.2,0c-10.2,0-10.2,0-9.4-11c0.2-2.5,0.8-3.5,3.3-3.4c4.3,0.1,8.6,0,12.9,0
				c1.8,0,3.4-0.2,3.3-2.7c-0.1-2.5-1.9-2-3.3-2c-6-0.1-12,0.1-18-0.1c-2.7-0.1-3.5,0.8-3.5,3.6
				C436.6,401.2,436.5,407.6,436.5,414.1z M191.2,414c0,6.5,0.1,12.9,0,19.4c-0.1,2.8,0.8,3.8,3.5,3.7c5.8-0.2,11.6,0,17.4-0.1
				c1.7,0,3.5,0.3,3.6-2.4c0.1-3.1-2.1-2.7-3.9-2.7c-4.1,0-8.2-0.1-12.4,0c-2.3,0-3.4-0.9-3.3-3.4c0.1-3.1,0.2-6.3,0-9.4
				c-0.2-3.3,1.3-4,4-3.9c3.9,0.1,7.9,0,11.8,0c1.5,0,2.6-0.3,2.6-2.2c0.1-2-0.7-2.9-2.6-2.8c-2.8,0.1-5.6,0-8.4,0
				c-7.4,0-7.1,0-7.5-7.7c-0.3-5.3,1.1-7.4,6.4-6.7c3.1,0.4,6.4,0.1,9.5,0.1c1.6,0,3.5,0.4,3.7-2.3c0.2-2.9-1.8-2.4-3.4-2.4
				c-5.8,0-11.6,0.2-17.4-0.1c-3.2-0.1-3.7,1.3-3.6,4.1C191.3,401.5,191.2,407.8,191.2,414z M243.8,565.2c7.1-2.4,10.3,1.4,11.8,8.1
				c0.4,1.7,1.2,3.3,1.9,4.8c0.9,1.8,2.6,1.3,4,1c2.3-0.5,0.9-2.2,0.5-3.2c-4.9-13.3-9.9-26.5-14.9-39.7c-0.6-1.7-1.3-3.1-3.5-3
				c-2.3,0.1-2.6,1.8-3.3,3.4c-4.9,12.9-9.7,25.7-14.5,38.6c-0.5,1.2-2.1,3,0.3,3.8c1.6,0.6,3.4,0.4,4.2-1.7
				c0.5-1.3,1.2-2.5,1.4-3.8C233.1,566.6,236.5,562.8,243.8,565.2z M495.1,578.5c-5.3-14.2-10.6-28.3-15.9-42.4
				c-0.7-1.8-1.5-2.9-3.6-2.9c-2,0-2.5,1.4-3.1,2.8c-5.3,14.1-10.6,28.3-15.9,42.6c6.8,2.3,6.9-3.7,7.7-7c1.5-5.5,4.1-7.2,9.5-6.9
				c10.6,0.5,10.8,0.1,14.4,10.4C489.5,578.7,491.2,580.4,495.1,578.5z M146,413.9c0,6.7,0,13.3,0,20c0,1.6,0.1,3.1,2.3,3.1
				c2.3,0.1,2.9-1.1,2.8-3.2c-0.1-4.9,0.1-9.8-0.1-14.7c-0.1-2.8,0.9-3.9,3.5-3.8c5.2,0.1,10.5,0.2,15.7,0c3.4-0.2,4.1,1.5,4,4.6
				c-0.2,4.7,0,9.4,0,14.1c0,1.7,0.1,3,2.3,3.1c2.1,0,2.5-1,2.5-2.9c0-13.3,0-26.6,0-39.9c0-1.6,0-3-2.2-3.1
				c-2.6-0.1-2.6,1.4-2.6,3.3c0,4.1-0.1,8.2,0,12.3c0.1,2.5-0.6,3.5-3.1,3.5c-5.6-0.1-11.2-0.1-16.9,0c-2.4,0.1-3.3-0.9-3.2-3.4
				c0.1-4.1,0-8.2,0-12.3c0-1.9,0-3.4-2.6-3.4c-2.6,0-2.5,1.6-2.5,3.4C146,401,146,407.5,146,413.9z M572.6,556.4
				c0,1.8-0.1,3.5,0,5.3c0.3,5.6-2.3,13,0.9,16.4c3.5,3.7,10.6,1.1,16.2,1c2.4,0,7.2,2.6,7.2-2.3c0-4.8-4.7-2.2-7.2-2.2
				c-12.6-0.3-12.5-0.1-11.8-13.3c0.2-2.9,1.1-3.6,3.7-3.5c3.5,0.2,7.1,0.1,10.7,0c1.7,0,4,0.7,3.9-2.5c-0.1-3.3-2.6-2-4.2-2.2
				c-1.5-0.2-3,0-4.5,0c-9.8,0-9.6,0-9.6-10.2c0-3.5,0.7-4.9,4.3-4.6c3.9,0.3,7.9,0.1,11.8,0.1c1.4,0,3.1,0.5,3.2-2
				c0.1-2.5-1.3-2.8-3.2-2.8c-6,0-12,0.1-18,0c-2.7-0.1-3.6,0.9-3.5,3.7C572.7,543.5,572.6,549.9,572.6,556.4z M180.3,556.2
				c0,1.6-0.1,3.1,0,4.7c0.4,6-2.5,14,1.3,17.4c3.3,2.9,10.7,1.2,16.3,0.8c2.3-0.1,6.7,2.3,6.8-2.1c0-4.8-4.6-2.4-7-2.4
				c-12.7-0.3-12.6-0.1-12.1-13c0.1-3.3,1.3-3.9,4-3.8c3.9,0.2,7.9,0,11.8,0c1.6,0,2.3-0.6,2.4-2.4c0-1.8-0.7-2.4-2.3-2.4
				c-2.2,0.1-4.5,0-6.7,0c-9.1,0-9,0-9.1-9.6c-0.1-3.9,0.7-5.7,4.9-5.3c3.5,0.4,7.1,0.1,10.7,0c1.7,0,4,0.9,3.9-2.5
				c-0.1-3.3-2.5-2.3-4.1-2.3c-5.4-0.1-10.9,0.2-16.3-0.1c-3.6-0.2-4.4,1.3-4.3,4.8C180.5,544.1,180.3,550.2,180.3,556.2z
				 M239,430.5c-1.5,4,0,5.7,3.1,6.3c3.7,0.7,7.4,0.8,11.2,0.5c6.5-0.6,11.4-4.6,12.4-9.9c1.2-6.7-1.5-11.4-8.5-14.5
				c-3.1-1.4-6.3-2.5-9.3-4.1c-2.9-1.6-4.3-4.4-3.6-7.8c0.6-3.3,2.9-4.7,6-5.2c3.6-0.6,7.1,0,10.5,1.2c2,0.7,2.7-0.2,3.3-1.8
				c1-2.2-0.5-2.8-2-3.2c-4.6-1-9-2.2-13.8-0.9c-5,1.3-8.6,4-9.4,9.5c-0.8,5.6,1.3,10,6.1,12.7c2.6,1.5,5.4,2.6,8.2,3.7
				c4.2,1.8,8.1,3.9,7,9.6c-1.1,5.8-5.7,5.9-10.1,6.1C246.3,432.7,242.7,431.4,239,430.5z M360.3,508.9c9.4-0.2,15.3-4.1,16.5-11
				c1.2-6.8-2.5-11.4-11.9-15.2c-1.9-0.8-3.8-1.6-5.6-2.6c-3.1-1.7-4.8-4.4-4-8.1c0.8-3.8,3.7-5.1,7.1-5.4c3.2-0.4,6.4,0.4,9.4,1.5
				c2,0.7,2.5,0.2,3.2-1.7c0.8-2.1-0.1-2.9-1.7-3.3c-5.3-1.5-10.7-2.2-16-0.3c-7.2,2.6-9.9,11.4-5.5,17.8c2.1,3.1,5.4,4.7,8.7,6.1
				c2.6,1.1,5.2,2.2,7.7,3.6c2.7,1.4,3.5,3.9,3.3,6.9c-0.2,3.2-2,4.9-4.6,6c-4.6,1.9-9.2,0.7-13.8-0.3c-1.4-0.3-3.3-2.4-3.8,0.9
				c-0.4,2.3,0.6,3.8,2.9,4.1C354.7,508.1,357.5,508.5,360.3,508.9z M564.5,391.9c4.9,14.1,9.8,28.2,14.6,42.3
				c0.7,2,1.5,2.9,3.5,2.9c1.8,0,2.8-0.8,3.3-2.4c4.9-14.3,9.7-28.5,14.6-42.8c-3.9-1.6-5.7-0.3-6.9,3.5
				c-3.4,10.9-7.2,21.6-11.2,33.3c-2.1-6.3-3.8-11.5-5.6-16.8c-1.9-5.5-3.9-11-5.6-16.6C570.2,391.6,568.4,390,564.5,391.9z
				 M506.1,508.8c2.4-0.1,3.7-0.1,5-0.3c6.8-0.9,11.3-4.7,12-10.3c0.9-7-1.2-10.8-8.2-14.2c-3.1-1.5-6.2-2.7-9.3-4.1
				c-3.1-1.5-4.3-4.3-3.8-7.7c0.6-3.6,3.2-5.1,6.4-5.6c3.4-0.5,6.8,0.1,9.9,1.4c2.2,0.9,3,0.2,3.7-1.8c0.7-2.2-0.7-2.7-2.2-3.2
				c-3.6-1.2-7.4-1.4-11.1-1.2c-6.4,0.4-10.8,3.9-12,9.5c-1.1,5.1,1.5,10.4,6.9,13.4c3.5,1.9,7.2,3.3,10.7,5.1
				c2.9,1.5,4.8,4,4.2,7.5c-0.5,3.4-2.9,5.2-6,6.2c-4.4,1.3-8.5,0.1-12.7-0.8c-1.2-0.3-2.9-2.4-3.5,0.5c-0.5,2-0.2,4,2.3,4.4
				C501.3,508.1,504.2,508.5,506.1,508.8z M218.3,485.2c0,17.9,11.5,27,28.3,22.6c2.2-0.6,3.6-1.4,3.1-3.8c-0.6-2.9-2.7-0.9-4.1-1
				c-1.5,0-2.9,0.7-4.4,0.8c-5.9,0.4-11.2-1.3-14.6-6.8c-4-6.5-3.7-18.6,0.6-24.5c5.1-6.9,12-7.4,19.2-4.7c2.5,0.9,3.4,0.1,4.2-1.9
				c1.1-2.8-1.3-2.7-2.7-3.2C231.7,457.2,218.3,467.4,218.3,485.2z M164.2,627.5c0,0.6,0,1.2,0,1.8c0.2,18.6,13.4,24.5,28.7,20.7
				c2-0.5,3.1-1.5,2.6-3.6c-0.6-2.4-2.4-1.1-3.7-1c-1.9,0.1-3.7,0.7-5.6,0.7c-9.9,0.4-15.6-5-16.4-15.6c-1-12.6,4-20.3,13.8-21.5
				c3.1-0.4,6,0.6,8.8,1.5c2.1,0.7,3,0.2,3.9-1.8c1.2-3-1.4-2.8-2.6-3.3C177.8,599.3,164.2,609.6,164.2,627.5z M269.1,556.3
				c0,6.5,0,12.9,0,19.4c0,1.8,0,3.5,2.5,3.6c2.8,0.1,3-1.5,2.9-3.7c0-0.8,0-1.6,0-2.3c0.1-4.3-1.3-9.9,0.8-12.5
				c2.5-3,8.1-0.5,12.3-1.1c1.8-0.2,5,1.7,5-2.5c0-4.2-3.2-1.9-5-2.5c-0.5-0.2-1.1,0-1.7,0c-12.1,0-12,0-11.5-12.9
				c0.1-2.8,0.9-3.7,3.6-3.6c4.1,0.2,8.2,0.1,12.4,0c1.6,0,3.5,0.4,3.4-2.5c-0.1-2.3-1.5-2.4-3-2.4c-6.2,0-12.4,0.1-18.5,0
				c-2.6-0.1-3.1,1.3-3.1,3.6C269.1,543.4,269.1,549.9,269.1,556.3z M300.5,556.4c0,6.5,0,12.9,0,19.4c0,0.2,0,0.4,0,0.6
				c-0.2,2.4,1,3,3,3c2.1,0,2.5-1.1,2.5-2.9c0-4.3,0.1-8.6-0.1-12.9c-0.1-2.7,0.7-3.9,3.5-3.7c3.9,0.2,7.9,0,11.8,0
				c1.7,0,2.8-0.4,2.8-2.6c0-2.3-1.3-2.5-2.9-2.4c-1.1,0-2.2,0-3.4,0c-12.7,0-12.6,0-11.8-13.1c0.2-2.5,0.7-3.5,3.2-3.4
				c4.3,0.2,8.6,0.1,12.9,0c1.4,0,3,0.4,3.1-2.1c0.1-2.6-1.3-2.7-3.2-2.7c-6,0.1-12,0.2-18,0c-3.2-0.1-3.6,1.5-3.6,4.2
				C300.6,543.8,300.5,550.1,300.5,556.4z M596.1,605.6c-0.5-0.5-1-1-1.5-1.5c-9.2,3.9-9,15.9-15.7,22.3c-3.2-6.4-6.4-12.3-9.3-18.5
				c-1.7-3.6-3.8-4-7.1-2.5c1.1,2.1,2.1,3.7,2.9,5.5c5.4,11.5,13.9,22,11.3,36.3c-0.4,2.2,0.6,3.2,2.8,3.2c2.6,0,2.6-1.9,2.3-3.7
				c-1.6-11,2.4-20.2,7.8-29.1C592.1,613.9,594,609.7,596.1,605.6z M120.4,416.4c0,5.5,0,10.9,0,16.4c0,2-0.6,4.5,2.8,4.3
				c3-0.2,2.4-2.4,2.5-4.2c0-9,0-18,0-26.9c0-9.8,0-9.8,9.1-10c0.6,0,1.1,0,1.7,0c1.6,0,2.9-0.1,3-2.4c0.1-2.3-1.2-2.5-2.8-2.5
				c-9.2,0-18.3,0-27.5,0c-1.4,0-2.5,0.2-2.5,2.2c0,2.1,0.9,2.7,2.7,2.7c2.2-0.1,4.5,0.2,6.7-0.1c3.6-0.5,4.4,1.2,4.3,4.7
				C120.2,405.8,120.4,411.1,120.4,416.4z M109.9,558.7c0,5.3-0.1,10.5,0.1,15.8c0.1,1.8-1.2,4.6,2.4,4.7c3.6,0.1,2.5-2.6,2.5-4.5
				c0.1-8.6,0-17.2,0-25.8c0-10.3,0-10.3,10.1-10.7c0.6,0,1.1,0,1.7,0c1.4,0,2-0.6,2-2.1c0-1.5-0.2-2.7-2.1-2.7
				c-9.5,0-19.1,0-28.6,0c-1.8,0-2.1,1.1-2.1,2.7c0,1.5,0.7,2.1,2,2.1c1.3,0,2.6,0,3.9,0c8.1,0,8.1,0,8.1,8.8
				C109.9,550.9,109.9,554.8,109.9,558.7z M204.8,626.9c0,6.7,0.1,13.3,0,20c0,2.3,0.5,3.7,3,3.7c6.2-0.1,12.4,0,18.6,0
				c1.6,0,3-0.2,3.1-2.4c0.1-2.6-1.5-2.8-3.3-2.7c-3.6,0-7.1-0.3-10.7,0.1c-4.1,0.4-5.5-0.8-5.4-5.4c0.4-10.4,0.1-20.7,0.1-31.1
				c0-2.1,0.4-4.4-2.9-4.3c-3,0.1-2.5,2.2-2.5,4.1C204.8,614.8,204.8,620.9,204.8,626.9z M541,556.4c0,6.4,0,12.9,0,19.3
				c0,2.3,0.3,3.6,3,3.6c6.2-0.2,12.3-0.1,18.5,0c1.6,0,3,0,3.1-2.3c0.1-2.3-1.3-2.4-2.9-2.4c-1.3,0-2.6,0-3.9,0
				c-12.6,0-12.6,0-12.6-13.5c0-8,0-16,0-24c0-2.2-0.2-3.7-3-3.6c-2.9,0.1-2.1,2.2-2.1,3.7C541,543.5,541,549.9,541,556.4z
				 M487.1,485.5c0-6.4,0-12.9,0-19.3c0-2.3,0.2-4.2-3-4.1c-2.9,0.1-2.7,1.8-2.7,3.8c0,12.9,0,25.7,0,38.6c0,2.1-0.1,3.7,2.8,3.8
				c3.3,0.1,3-1.9,3-4.1C487.1,498,487.1,491.8,487.1,485.5z"/>
			<path class="st2" d="M791.9,263.2c-263.9,0-527.8,0-791.8,0C0.1,177.1,0.2,91,0,4.8C0,0.8,0.8,0,4.6,0
				c260.9,0.1,521.8,0.1,782.8,0c3.9,0,4.6,0.8,4.6,4.8C791.9,91,791.9,177.1,791.9,263.2z M152,45.3c-8.4,0-16.9,0.2-25.3-0.1
				c-4-0.1-5.3,1.4-5,5.4c0.3,4.3,0.3,8.6,0,12.9c-0.2,3.7,1.3,4.7,4.6,4.6c9-0.2,18,0.1,27-0.1c4.3-0.1,6,0.6,4.8,5.8
				c-4.1,16.9-7.8,33.8-11.6,50.8c-6.2,27.6-12.3,55.2-18.6,82.8c-1,4.2-0.2,5.7,4,5.4c4.5-0.3,9-0.4,13.5,0
				c4.3,0.4,5.7-1.6,6.6-5.6c7.1-32.2,14.5-64.3,21.6-96.4c4.4-19.7,10.6-39.1,9-59.9c-0.3-4.2-1-5.9-5.3-5.7
				C168.9,45.5,160.4,45.3,152,45.3z M617.5,82.6c-2.7-4.3-3.1-7.6-4-10.7c-2.1-7.3-4.2-14.6-6-22c-1.2-5.1-4.9-3.1-7.7-3.4
				c-3.6-0.3-3,2.6-3,4.9c0,20,0,39.9-0.1,59.9c0,3.3,0.5,5,4.3,5c3.7,0,4.2-1.7,4.2-5c-0.1-11.9-0.1-23.8-0.1-35.7
				c1.3,1.4,1.7,3,2.2,4.6c2.9,10.7,6.1,21.4,8.7,32.2c1.1,4.6,4.1,3.6,6.9,3.7c3.7,0.1,3-2.7,3-4.9c0-20,0-39.9,0.1-59.9
				c0-3.3-0.6-5-4.3-5c-3.5,0-4.4,1.4-4.4,4.8C617.6,61.1,617.5,71.1,617.5,82.6z M467.6,80.7c0,6.6,0,13.3,0,19.9
				c0,16,0,16,15.4,15.4c4-0.1,7.9-0.8,10.8-4.1c5.2-5.9,4.5-25.1-1.1-30.6c-1.3-1.2-2-1.5-0.5-3.4c4.1-5.2,4.6-20.6,1.3-26.2
				c-1.9-3.2-4.8-4.9-8.4-5.1c-4.5-0.2-9-0.1-13.5-0.3c-3.3-0.2-4.2,1.3-4.1,4.5C467.7,60.8,467.6,70.8,467.6,80.7z M385.7,177.4
				c-2.5-2.1-2.5-4.2-3-5.9c-2.4-8.4-4.9-16.9-6.8-25.4c-1.3-5.7-5.3-3.7-8.5-3.9c-3.7-0.2-2.7,3-2.7,5.1c-0.1,19.8,0,39.5-0.1,59.3
				c0,3.5,0.5,5.3,4.5,5.3c4.3,0,4.3-2.4,4.3-5.6c-0.1-11.1,0-22.2,0-33.2c1.6,1.6,2.2,3.3,2.7,5.1c2.7,10,5.7,19.9,8.1,29.9
				c1.1,4.7,4.1,3.6,6.9,3.7c3.7,0.1,2.8-2.9,2.8-5c0.1-19.8,0-39.5,0.1-59.3c0-3.3,0-5.5-4.3-5.4c-4,0.1-4,2.3-4,5.2
				C385.7,157,385.7,166.7,385.7,177.4z M524.2,211.1c-2.5-8.2-5-16.4-7.6-24.5c-1.1-3.4-2.4-6.5,2.2-8.7c2.9-1.4,3.7-4.9,3.8-8.1
				c0.2-5.1,0.4-10.2-0.1-15.2c-0.8-8.3-4.9-12-13-12.3c-3.7-0.2-7.5,0.1-11.2-0.1c-3.1-0.2-4.3,0.9-4.3,4.3
				c0.1,20.4,0.1,40.7,0,61.1c0,3.4,1.1,4.1,4.2,4.4c5,0.5,6.6-1.2,6.2-6.5c-0.4-6.4-0.1-12.8-0.1-19.2c0.6,0,1.1-0.1,1.7-0.1
				c1.8,5.9,3.7,11.8,5.5,17.7C514.3,212.7,514.3,212.7,524.2,211.1z M428.6,81.5C428.6,81.5,428.6,81.5,428.6,81.5
				c0-6.8,0.3-13.7-0.1-20.5c-0.6-9.8-5.6-14.4-14.9-14.6c-3.4-0.1-6.8,0.2-10.1-0.1c-4-0.3-5.1,1.3-5.1,5.4
				c0.2,16.4,0.1,32.8,0.1,49.3c0,15.4,0,15.4,14.6,15.2c9.8-0.1,14.9-4.9,15.5-15.3C428.9,94.4,428.6,87.9,428.6,81.5z M375.8,88.5
				c0.3-0.1,0.7-0.1,1-0.2c0.3,0.8,0.8,1.6,1,2.5c2.2,7.3,4.4,14.5,6.5,21.9c1.6,5.9,6.3,3.7,9.3,3.2c3.6-0.6,0.8-3.8,0.3-5.7
				c-1.7-6.2-3.6-12.4-5.6-18.4c-1.4-4.1-2.4-7.6,2.5-10.2c2.2-1.1,2.9-4,3.1-6.6c0.2-4.5,0.5-9,0.3-13.5
				c-0.5-10.9-4.6-14.9-15.2-15c-3.2,0-6.4,0.1-9.6,0c-2.9-0.1-3.9,1.2-3.9,4.2c0.1,20.5,0.1,41.1,0,61.6c0,4.4,2.5,3.9,5.2,4
				c2.9,0.1,5.1-0.1,4.9-4.2C375.6,104.1,375.8,96.3,375.8,88.5z M659.7,81.3c0-6.6,0.5-13.3-0.1-19.9c-1.1-11.3-5.5-14.9-16.2-15
				c-2.2,0-4.5,0.3-6.7-0.1c-5.3-0.8-7.1,1.1-7,6.9c0.4,15.8,0.1,31.7,0.1,47.5c0,16.1,0,16.1,15.6,15.3c8-0.4,12.3-4.3,13.9-12.5
				C660.8,96.2,659.8,88.7,659.7,81.3z M442.1,171.5c2.1,1.7,2,3.7,2.5,5.5c2.8,10.3,5.8,20.6,8.4,31c1,4.2,3.7,3.6,6.4,3.7
				c2.4,0.1,3.3-0.9,3.3-3.4c0-20.9,0-41.9,0-62.8c0-2.5-1.1-3.3-3.4-3.4c-3.6-0.3-5,1-4.9,4.9c0.2,10.2,0.1,20.4,0.1,30.5
				c-1.7-1.5-2.2-3.1-2.7-4.7c-2.4-8.8-5.2-17.6-7.1-26.5c-1.2-5.4-4.6-4-7.7-4.2c-4.1-0.3-3.1,3-3.1,5.3c-0.1,19.8,0,39.5-0.1,59.3
				c0,3,0,5.1,4,5.2c4.3,0.1,4.3-2.2,4.3-5.5C442.1,194.9,442.1,183.4,442.1,171.5z M331.7,81.3C331.7,81.3,331.7,81.3,331.7,81.3
				c0,6.4-0.2,12.9,0,19.3c0.4,9.5,5.4,15.5,13.1,16.1c9.5,0.8,15.6-3.7,16.6-13.9c1.4-14.4,1.4-28.9,0-43.2
				c-1-10.1-6.9-14.4-16.1-13.8c-8,0.5-13.1,6.1-13.6,15.6C331.5,68,331.7,74.6,331.7,81.3z M548,207.9c0.3,4.6,3.4,4.3,6.1,3.6
				c2.9-0.7,1.6-3.6,1.6-5.4c0.2-7.2,0.2-14.5,0-21.7c-0.2-10.9,2-9.5-9.2-9.5c-1.8,0-4.7-1.2-5,2.1c-0.2,2.5-1.9,6.2,2.6,7
				c2,0.4,1.9,2.1,1.9,3.7c0,2.9,0.1,5.9,0,8.8c-0.1,3.4-1.1,6.5-5,6.3c-3.9-0.1-4.8-3.2-4.8-6.6c0-8,0-16,0-24.1
				c0-5.1-0.1-10.2,0.1-15.3c0.1-3.4,1.9-5.5,5.4-5.4c3.3,0.1,4.5,2.4,4.7,5.4c0.1,1.8,0.1,3.5,0.1,5.3c-0.1,2.4,1.2,3.2,3.2,2.9
				c2-0.3,4.7,1.3,5.9-1.7c3.9-10.3-3.9-22-14.4-21.9c-8.7,0.1-14.3,5.8-14.8,15.7c-0.4,9.2-0.3,18.4-0.2,27.6
				c0,5.7-0.6,11.4,0.9,16.9C530.2,213.1,538.8,215.9,548,207.9z M576.6,46.6c-4.9-1.7-6,1.3-6.7,6c-2.9,19.1-6.2,38.2-9.3,57.3
				c-1,6.2-0.4,6.6,5.5,6.4c3.9-0.2,3.1-3.1,3.8-5.3c0.8-2.5-0.7-5.8,2.2-7.4c5-2.6,9.8,0.3,10.5,6.3c0.1,1,0.2,1.9,0.4,2.9
				c1,5.7,5.2,3.1,8.1,3.2c3.7,0.2,2.2-2.8,1.9-4.7c-3.2-19.8-6.6-39.7-9.6-59.5C582.8,47.3,581.2,45.5,576.6,46.6z M258.7,46.6
				c-3.5-0.9-5.8-0.1-6.5,4.5c-3,19.7-6.3,39.3-9.4,59c-1,6.1-0.4,6.6,5.5,6.1c4.9-0.4,3.5-4.3,3.8-7c0.5-3.6,0.9-6.3,5.5-6
				c3.9,0.2,7.2,0.1,6.9,5.6c-0.1,1.1,0.6,2.3,0.7,3.4c0.5,6.4,5.2,3.7,8.1,3.7c3.9,0,2-3.4,1.7-5.3c-3.1-19.3-6.4-38.5-9.4-57.8
				C265,48,263.9,45.3,258.7,46.6z M447.3,46.6c-3.4-0.8-5.6-0.1-6.3,4.6c-2.9,19.7-6.3,39.3-9.5,58.9c-1,6.1-0.3,6.6,5.6,6.1
				c4.4-0.4,3.5-3.9,3.8-6.5c0.4-3.7,0.4-6.7,5.6-6.6c4.6,0.1,7.2,1.1,7,6.3c0,1.1,0.4,2.3,0.6,3.5c1.1,5.7,5.4,2.9,8.2,3
				c3.6,0.1,1.9-3,1.6-4.8c-3.2-19.8-6.5-39.7-9.5-59.5C453.6,46.8,451.4,45.7,447.3,46.6z M356.8,211.6c4.1,0.9,5.2-0.6,4.4-4.9
				c-3.4-19.8-6.7-39.6-9.7-59.5c-0.6-4.3-2.3-5.2-6.2-5.3c-4.4-0.1-7.1,0.7-7.2,6.1c0,2.7-0.8,5.4-1.2,8.1
				c-2.7,16.7-5.4,33.5-8.3,50.2c-0.7,3.8-0.2,5.5,4.2,5.6c4.3,0.1,4.5-2.3,5.4-5.5c0.7-2.5-1.1-6.3,3-7.3c6.4-1.6,9.1,0.1,9.6,6.8
				C351.2,210.1,352.2,212.8,356.8,211.6z M253.3,177.5C253.3,177.5,253.3,177.5,253.3,177.5c0.1-6.8-0.1-13.7,0.1-20.5
				c0.1-3.1,1.6-5.7,5.2-5.6c3.8,0,4.6,2.6,4.7,5.9c0,1.4,0.2,2.7,0,4.1c-0.3,3.6,0.1,5.8,4.6,5.7c4.4,0,5-2,4.7-5.7
				c-0.2-1.9,0-3.9-0.2-5.9c-0.7-10.4-6.7-15.5-16.6-14c-7.2,1-12.1,6.4-12.4,15.7c-0.5,13.1-0.2,26.2-0.1,39.3
				c0,2.3,0.8,4.6,1.6,6.8c2.6,7,8.2,10.2,15.8,9.2c6.7-0.9,10.9-5.3,11.6-12.9c0.4-3.7,0.1-7.4,0.3-11.1c0.2-3.5-0.5-5.3-4.5-5.3
				c-4.3-0.1-5.1,1.8-4.8,5.6c0.2,2.3,0,4.7,0,7c0,3.6-0.5,7.1-4.9,7c-4.1-0.1-5.1-3.4-5.1-7C253.2,189.6,253.3,183.6,253.3,177.5z
				 M301.1,177c0,4.9-0.2,9.8,0,14.7c0.3,6.6-2.8,15.5,1.3,19c4,3.3,12.2,1,18.5,1.1c0.2,0,0.4,0,0.6,0c3.7,0.6,3.7-1.9,3.7-4.7
				c0-2.6,0.2-4.8-3.6-5c-10.4-0.5-10.4-0.7-10.4-11.8c0-1.2,0.1-2.4,0-3.5c-0.5-4.2,0.8-6.4,5.2-5.7c3.6,0.6,4.8-1,4.9-4.8
				c0.1-4.2-1.7-5.1-5.1-4.6c-3.9,0.6-5.5-1.1-5-5.2c0.1-1.2,0-2.3,0-3.5c0-10.7,0-11,10-11.1c4,0,4-2,4-5.1c0-2.9-0.2-4.9-3.8-4.7
				c-5.4,0.3-10.9,0.2-16.3,0c-3.3-0.1-4.2,1.2-4.1,4.4C301.2,156.6,301.1,166.8,301.1,177z M525.4,81c0,10.2,0.1,20.3-0.1,30.5
				c-0.1,3.6,1.1,4.8,4.5,4.7c5-0.2,10.1-0.3,15.1,0c3.7,0.2,4.3-1.6,4.3-4.9c0.1-3.6-1-4.7-4.4-4.8c-9.5-0.2-9.5-0.3-9.5-10.5
				c0-0.6,0-1.2,0-1.8c-0.5-5.5-0.5-10.3,7.1-9c3.5,0.6,2.8-2.7,2.9-5c0.1-2.2,0.1-4.8-3-4.3c-7,1.2-7.3-2.9-7.1-8.5
				c0.3-10.9,0.1-11.1,10.2-11.6c3.6-0.2,3.7-2,3.8-4.8c0-2.9-0.3-4.9-3.9-4.8c-5.2,0.2-10.5,0.2-15.7,0c-3.5-0.2-4.5,1.3-4.4,4.8
				C525.5,61.1,525.4,71.1,525.4,81z M406.1,176.6c0,10.2,0.1,20.4-0.1,30.5c-0.1,3.7,1.1,4.8,4.5,4.6c5.2-0.2,10.5-0.2,15.7,0
				c3.3,0.1,4.3-1.2,4.2-4.4c-0.1-2.9,0-5.2-4-5.3c-10.2-0.3-10.2-0.5-10.2-11.3c0-0.6,0.1-1.2,0-1.8c-0.7-5.5,0.2-9.2,6.8-8
				c4,0.7,3.2-2.6,3.3-5c0.1-2.6,0-5-3.4-4.3c-6.1,1.2-7.4-1.9-6.8-7.4c0.4-3.9-0.9-8.6,0.8-11.4c1.8-2.9,6.6-1,10.1-1
				c4-0.1,3.2-2.8,3.4-5.3c0.2-2.7-0.3-4.5-3.6-4.4c-5.4,0.2-10.9,0.2-16.3,0c-3.4-0.1-4.6,1-4.5,4.6
				C406.3,156.7,406.1,166.6,406.1,176.6z M466.9,176.3c0,10.4,0.1,20.7-0.1,31.1c0,3.3,1,4.5,4.2,4.4c5.4-0.2,10.8-0.2,16.3,0
				c3.4,0.1,3.6-1.8,3.5-4.4c-0.1-2.4,0.7-5.1-3.3-5.3c-3.4-0.1-8.1,2-10-1.3c-1.6-2.8-0.5-7.2-0.6-10.9c0-0.4,0-0.8,0-1.2
				c-0.6-5.2,0.2-8.9,6.6-7.7c3.8,0.7,3.4-2.5,3.4-5c0.1-2.6-0.3-5-3.5-4.4c-6.5,1.3-7.1-2.6-6.5-7.7c0.4-3.8-1.5-8.5,0.9-11.3
				c2.1-2.5,6.4-0.9,9.7-0.9c4.1,0,3.1-2.9,3.3-5.3c0.2-2.6-0.1-4.6-3.4-4.4c-5.4,0.2-10.8,0.2-16.3,0c-3.2-0.1-4.2,1.1-4.2,4.4
				C467,156.4,466.9,166.4,466.9,176.3z M574.5,165.5c-0.5,0-0.9-0.1-1.4-0.1c-1.5-6.4-3.3-12.8-4.5-19.3c-1.1-6.4-5.8-4.2-8.8-3.8
				c-4.1,0.5-1.4,3.9-0.9,5.9c4.7,19.3,11.7,38.1,9.4,58.6c-0.5,4.6,1.8,4.9,5.3,5c4.1,0.2,5.3-1.3,4.9-5.4
				c-1.2-14.6,1.2-28.8,5.4-42.7c1.8-6,3.2-12,4.8-18.1c0.3-1,1.1-2.1,0-3.2c-2-1.9-8.6,0-9.3,2.8
				C577.7,152,576.1,158.8,574.5,165.5z M305.2,80.9c0,10.2,0.2,20.4-0.1,30.5c-0.1,4.8,2.3,4.6,5.6,4.8c3.7,0.2,4.9-1.1,4.8-5
				c-0.3-6.8,0.1-13.7-0.1-20.5c-0.2-4.1,1.1-5.8,5.1-5.4c3.2,0.4,5.1-0.2,5.1-4.6c0-4.6-1.9-5.3-5.4-4.9c-3.6,0.4-5.2-1.2-4.8-5
				c0.2-1.5,0-3.1,0-4.7c0-10,0-10.2,9.2-10.3c3.8,0,4.1-1.7,4.2-4.9c0.1-3.7-1.1-4.8-4.5-4.7c-4.7,0.2-9.4,0.3-14,0
				c-3.8-0.2-5.3,1-5.2,5.2C305.4,61.3,305.2,71.1,305.2,80.9z M278.9,81.3c0,10.2,0.2,20.4-0.1,30.5c-0.1,4,1.7,4.4,4.8,4.4
				c3.1,0,5.5,0,5.3-4.5c-0.3-6.1,0.2-12.1-0.1-18.2c-0.3-5.4,0.1-9.4,6.9-8.2c3.3,0.6,3.6-1.9,3.4-4.5c-0.1-2.3,0.5-5.4-3.1-4.8
				c-6.8,1.1-7.5-2.6-7.3-8.4c0.4-10.8,0.1-11,10.2-11.7c3.3-0.2,3.5-1.9,3.5-4.5c0-2.7,0.1-5.1-3.6-5c-5.2,0.2-10.5,0.2-15.7,0
				c-3.2-0.1-4.3,1.1-4.2,4.4C279,60.9,278.9,71.1,278.9,81.3z M500.3,81.1c0,10.2,0.1,20.4,0,30.5c0,3.1,0.6,4.7,4,4.6
				c4.9-0.3,9.7-0.2,14.6,0c2.7,0.1,3.4-1.1,3.6-3.8c0.4-4.5-1-6.6-5.5-5.8c-5.7,1.1-6.8-1.7-6.7-7.2c0.3-16.2,0-32.5,0.2-48.7
				c0.1-4.6-2.4-4.3-5.4-4.4c-2.9,0-5,0.1-4.9,4.2C500.4,60.8,500.3,70.9,500.3,81.1z M276,176.8c0,10,0.1,19.9-0.1,29.9
				c-0.1,3.6,0.7,5.4,4.6,5.2c4.5-0.3,9-0.2,13.5,0c3.2,0.1,4.1-1.1,4.2-4.4c0.1-4.1-1.2-6-5.1-5.2c-6.1,1.1-7.4-1.8-7.3-7.7
				c0.4-15.8,0-31.6,0.2-47.5c0-3.8-1-5.2-4.7-5c-3.4,0.1-5.6,0.2-5.5,4.9C276.2,156.8,276,166.8,276,176.8z"/>
			<path class="st3" d="M734.5,791.9c0.7-23.8,1.7-47.7,4.3-71.4c5-44.6,14.2-88.2,28-130.7c6.5-20,13.8-39.6,22.2-58.9
				c0.8-1.9,1.9-3.8,2.8-5.7c0,87.3,0,174.6,0.1,262c0,4-0.7,4.9-4.6,4.8C769.8,791.7,752.2,791.9,734.5,791.9z"/>
			<path class="st4" d="M401.5,400.8c-2.9,10.4-5.8,20.8-8.9,31.2c-0.6,2.2-0.4,5.2-4.2,5.1c-3.4-0.2-3-3.1-3.6-5
				c-3.5-13.3-6.8-26.7-10.2-40.3c3.8-1.7,5.6-0.5,6.5,3.8c2.1,9.8,4.7,19.5,7.3,30.2c4.3-10.4,6.3-20.5,9.2-30.3
				c0.7-2.2,0.7-4.4,4-4.5c3.3-0.1,3.5,2.3,4.1,4.4c3,9.9,5.8,19.8,9.9,29.7c2.4-9.9,4.9-19.8,7.2-29.7c0.8-3.3,2-5.4,6.1-3.9
				c-0.5,5.4-2.3,10.6-3.7,15.9c-2.3,8.6-4.5,17.3-6.6,26c-0.5,2.1-0.9,3.6-3.4,3.6c-2.6,0-3-1.8-3.5-3.6
				c-3.1-10.8-6.2-21.7-9.2-32.5C402.2,400.9,401.9,400.8,401.5,400.8z"/>
			<path class="st4" d="M659.8,579c-2.4,0.2-5.2,1.2-6.8-1.2c-3.1-4.6-5.8-2.6-9.2-0.5c-5.3,3.2-11.2,3.3-16.9,1.3
				c-8-2.9-9.7-14.8-2.7-20.7c3.6-3.1,5-4.8,1.6-9.3c-3.6-4.8-2.1-10.9,2.2-13.9c4.5-3.2,12.3-2.5,15.5,1.5c3.4,4.2,3,11-1.8,14.5
				c-4.9,3.6-3.5,5.9,0.2,8.8c0.7,0.6,1.4,1.3,2,2c5.4,5.5,5.6,5.6,8.4-2c1-2.6,2.5-3.6,4.6-2.7c2.5,1,0.6,3.1,0.1,4.5
				c-1.1,3.2-4.2,6.7-3.6,9.3c0.6,2.8,4.7,4.7,7.2,6.9C660.4,578,660.1,578.5,659.8,579z M645,570.6c-3.5-3.8-7-7.6-10.5-11.4
				c-0.8-0.8-1.6-1.9-2.8-1.2c-3.7,2-6.5,4.7-6.3,9.4c0.1,4.3,2.4,6.9,6.4,7.4C636.8,575.4,641.4,574.5,645,570.6z M640.5,543.1
				c0-3.7-1.8-5.8-5.4-5.9c-3.4-0.1-6,1.9-5.9,5.5c0.1,3.5,1.5,7.8,5.1,7.8C637.4,550.4,640.1,547.1,640.5,543.1z"/>
			<path class="st5" d="M434.9,640.2c0-10.4,0-20.7,0-31.1c0-2-0.8-4.5,2.7-4.4c3.2,0.1,2.2,2.6,2.2,4.2c0.1,12.1,0.1,24.3,0,36.4
				c0,1.8,1.4,4.6-1.9,5.2c-2.7,0.5-4.5-0.6-6-3.1c-5.8-9.6-11.8-19-17.7-28.5c-0.9-1.4-1.8-2.8-3.6-5.4c0,10.8,0,20.2,0,29.7
				c0,1.4-0.1,2.7,0,4.1c0.1,2.1-0.4,3.4-2.8,3.3c-2-0.1-2.5-1.3-2.5-3.1c0-13.3,0-26.6,0-39.9c0-1.6,0.3-2.7,2-2.8
				c2.4-0.2,4.3,0.1,5.7,2.5c3.8,6.5,7.9,12.8,11.9,19.2c2.9,4.7,5.9,9.4,8.8,14C434.2,640.4,434.5,640.3,434.9,640.2z"/>
			<path class="st6" d="M424.4,470.4c0,12.3,0,22.9,0,33.5c0,1.8,0.8,4.1-2.4,4.2c-3.2,0.1-2.4-2.3-2.4-4
				c-0.1-11.9-0.1-23.9,0.1-35.8c0-2-1.6-5,1.6-5.9c2.9-0.8,4.8,0.7,6.4,3.4c5.7,9.4,11.6,18.7,17.4,28c0.9,1.5,1.9,2.9,3.8,5.9
				c0-8.9,0-16.1,0-23.4c0-3.5,0-7,0-10.6c0-1.9,0-3.6,2.6-3.5c2,0.1,2.5,1.2,2.5,3c0,13.3,0,26.6,0,39.9c0,1.5-0.1,2.8-1.9,2.9
				c-2.1,0.1-4,0.2-5.4-2.1c-4-6.6-8.1-13.1-12.2-19.7C431.4,481.4,428.3,476.6,424.4,470.4z"/>
			<path class="st6" d="M523,555.1c7.5,4,9.6,7.5,8.3,13.6c-1.3,6.6-5.6,10-13,10.5c-17,1.2-17,1.2-17-16.4c0-8.4,0.1-16.8-0.1-25.2
				c-0.1-3.3,0.9-4.5,4.1-4.3c3.9,0.3,7.9-0.2,11.8,0.2c5.2,0.5,10.8,1.3,12.5,7.8C531.2,547.6,529.1,552.4,523,555.1z M506.3,566.2
				c-0.1,4.5-1.6,9.3,6.2,8.6c9.9-0.9,13.6-2.6,13.5-9.1c-0.1-6-3.7-7.4-13.6-8.2C504.5,556.8,506.4,561.9,506.3,566.2z M506.2,544
				c0.3,5.3-1.6,10,5.6,9.5c9.4-0.7,13.1-2.4,13-8.1c-0.1-5.1-3.8-6.7-12.5-7.4C506.2,537.6,505.5,540.4,506.2,544z"/>
			<path class="st5" d="M314.1,612.8c0,12.1,0.1,22.7-0.1,33.2c0,1.6,1.2,4.3-2,4.5c-3.4,0.2-2.6-2.6-2.6-4.6
				c0-12.1-0.1-24.2,0-36.4c0-1.7-1.3-4.2,1.7-4.8c2.5-0.5,4.5,0,6.1,2.7c6.7,11.1,13.6,21.9,20.7,33.3c1.8-3.2,0.7-6.3,0.7-9.1
				c0.2-7.6,0-15.2,0.1-22.9c0-1.8-0.8-4.1,2.3-4.2c3.4-0.1,2.7,2.4,2.7,4.4c0,12.1,0.1,24.2,0,36.4c0,1.8,1,4.3-1.6,4.9
				c-2.5,0.6-4.5,0.1-6.1-2.7c-6.3-10.4-12.8-20.6-19.2-30.9C316.2,615.9,315.5,615,314.1,612.8z"/>
			<path class="st4" d="M370.4,555.6c-0.1,17.5-9.6,26.1-24.9,23.7c-5.6-0.9-9.7-3.9-12.3-9.1c-3.8-7.7-4.1-15.8-1.7-23.9
				c3-9.7,10.9-14.6,21-13.6c9.8,1,16.3,7.7,17.7,18.1C370.3,552.8,370.3,554.7,370.4,555.6z M364.7,555.8c0.1-2.7-0.1-6.2-1.3-9.5
				c-2-5.5-6.5-8.5-12.8-8.6c-6.5-0.1-11.3,2.9-13.3,8.6c-2.4,6.6-2.4,13.4,0,20c1.7,4.8,5,7.6,9.9,8.4
				C358.5,576.5,364.6,570.3,364.7,555.8z"/>
			<path class="st7" d="M417.7,555.9c0-6.1,0.1-12.1-0.1-18.2c-0.1-3.2,0.7-4.7,4-4.4c5.9,0.5,12-0.7,17.8,1.3
				c9.1,3.2,13.5,10.5,13.2,21.9c-0.3,11.8-5.1,19-14.5,21.6c-5.9,1.7-11.9,0.8-17.9,1c-2.9,0.1-2.7-2.1-2.7-4
				C417.7,568.8,417.7,562.3,417.7,555.9z M423,555.8c0,3.7,0,7.4,0,11.1c0,8,0,8,7.9,7.6c10.4-0.5,16.7-7.5,16.6-18.6
				c-0.1-11.2-5.9-17.4-16.6-17.7c-7.9-0.3-7.9-0.3-7.9,7.6C423,549.1,423,552.4,423,555.8z"/>
			<path class="st7" d="M274.6,413.7c0-6.1,0.2-12.1-0.1-18.2c-0.2-3.8,1.2-4.7,4.5-4.5c4.1,0.3,8.2-0.1,12.4,0.2
				c9.9,0.6,16.8,7.5,18.1,17.6c1.7,13.2-3,22.6-12.8,26.3c-6.4,2.4-12.9,1.7-19.4,1.9c-3,0.1-2.7-2-2.7-3.9
				C274.6,426.7,274.6,420.2,274.6,413.7z M280,414c0,4.9,0,9.7,0,14.6c0,1.3-0.3,2.7,1.3,3.5c5.6,2.8,19-2.6,21.2-9.2
				c2.4-7.2,3-14.7-1.6-21.2c-4.6-6.6-11.7-5.8-18.4-5.8c-2.6,0-2.4,1.8-2.4,3.5C280,404.2,280,409.1,280,414z"/>
			<path class="st4" d="M353.5,424.1c0,12.9-0.8,13.6-15.6,13.3c-10.7-0.2-17.6-5.5-20.2-15.8c-2.9-11.3,1.1-23.3,9.8-28.2
				c7.2-4,14.8-3.6,22.4-1.4c1.4,0.4,3.2,0.6,2.3,3c-0.7,1.9-1.6,3-3.8,2.1c-4.1-1.6-8.3-2-12.7-1.3c-8.9,1.5-13.3,8.4-12.9,20.1
				c0.4,10.1,5.2,15.8,14,16.6c0.7,0.1,1.5,0.1,2.2,0.1c8.8,0.2,11.9-4.2,9.1-13.1c-1-3.4-3.7-1.5-5.7-1.9c-1.6-0.4-4,0.8-3.9-2.6
				c0.1-2.9,2.1-2.2,3.6-2.3C353.5,412.1,353.5,412.1,353.5,424.1z"/>
			<path class="st4" d="M342.3,485.1c0,15.1-7.6,23.8-20.5,23.6c-10.9-0.2-17.9-6.8-19.2-18c-0.2-1.4-0.4-2.7-0.5-4.1
				c-1-14.6,6.3-24.4,18.5-24.9C334.6,461.1,342.3,469.4,342.3,485.1z M336.7,484.6c-0.1-1.2-0.1-3.6-0.4-5.9
				c-1.1-7.2-5.9-11.8-12.3-12.3c-8-0.6-13.3,3-15.5,10.5c-1.6,5.6-1.6,11.2,0.1,16.8c2,6.7,7.2,10.5,14,10.3
				C331.7,503.7,336.5,497.4,336.7,484.6z"/>
			<path class="st4" d="M557.9,637.5c0,13.1,0,13.1-12.5,13.5c-18.9,0.5-29.1-14.7-22.4-33.4c4.2-11.6,20.8-17.7,31.9-11.7
				c1.4,0.7,2.1,1.3,1.5,3c-0.7,1.8-1.6,2.4-3.4,1.8c-4.7-1.4-9.3-2.5-14.3-1.1c-7.8,2.2-12.6,9.9-11.9,19.4
				c0.7,10.1,5.5,15.9,14,16.9c1.1,0.1,2.2,0.1,3.4,0.1c7.9,0,11.3-5.2,8.4-13.1c-1-2.9-3.5-1.3-5.3-1.7c-1.8-0.4-4.5,0.9-4.3-2.8
				c0.2-3.2,2.6-2.2,4.2-2.2C557.9,626,557.9,626,557.9,637.5z"/>
			<path class="st8" d="M519.7,414.1c0,6.5,0,12.9,0,19.4c0,1.7,0.3,3.6-2.4,3.7c-2.7,0.1-3.1-1.4-3-3.6c0.1-4.7-0.1-9.4,0.1-14.1
				c0.1-3.2-1-4-3.9-3.9c-5,0.2-10.1,0.2-15.2,0c-3-0.1-3.9,1.1-3.7,4.1c0.2,4.7,0,9.4,0.1,14.1c0,1.8,0.1,3.4-2.5,3.5
				c-2.6,0-3.1-1.3-3.1-3.6c0.1-12.9,0.1-25.8,0-38.7c0-2.2,0.2-3.7,2.9-3.7c3,0,2.6,2,2.6,3.9c0,0.2,0,0.4,0,0.6
				c0.4,4.8-1.9,12.7,1,13.8c6,2.2,13.3,0.8,20,0.8c2,0,1.6-1.8,1.6-3c0-4.1,0.1-8.2,0-12.3c0-2.2,0.3-3.7,3-3.7
				c2.6,0.1,2.4,1.8,2.4,3.6C519.7,401.1,519.7,407.6,519.7,414.1z"/>
			<path class="st7" d="M135.1,555.8c0-6.3,0-12.5,0-18.8c0-2.1,0.1-3.7,2.9-3.7c3,0,2.7,1.9,2.7,3.9c0,0.2,0,0.4,0,0.6
				c0.4,5-1.9,13.2,0.9,14.3c6,2.3,13.2,0.8,20,0.9c2,0,1.7-1.7,1.7-3c0-4.3,0-8.6,0-12.9c0-2.1-0.1-3.9,2.8-3.7
				c2.5,0.1,2.6,1.6,2.6,3.5c0,12.9,0,25.8,0,38.7c0,2.1-0.1,3.8-2.9,3.8c-3.1-0.1-2.5-2.3-2.5-4.1c0-4.5-0.2-9,0-13.5
				c0.2-3.2-1-4-3.8-3.9c-5,0.2-10.1,0.2-15.1,0c-3-0.1-3.9,1-3.7,4c0.2,4.7,0,9.4,0.1,14.1c0,1.9-0.1,3.3-2.6,3.4
				c-2.7,0.1-3-1.4-3-3.6C135.2,569.1,135.1,562.4,135.1,555.8z"/>
			<path class="st6" d="M516.3,649.8c-3.9,1.5-6.1,0.7-7.8-2.8c-2-4.2-4.5-8.1-6.7-12.2c-0.8-1.5-1.6-2.9-3.6-3.2
				c-5.9-1-7.2,0-7.2,6.3c0,3.1-0.1,6.3,0,9.4c0,2.1-0.5,3.3-2.8,3.3c-2.1,0-2.4-1.3-2.4-3c0-13.3,0-26.6,0-39.9
				c0-1.9,0.6-2.9,2.6-2.9c5.2,0.2,10.5-0.1,15.7,0.7c4.4,0.6,8.1,3.1,9,8.4c0.9,5.5,0.8,10.9-4.4,14c-3.5,2-3.2,3.6-1.3,6.5
				C510.4,639.1,513.1,644.2,516.3,649.8z M496.3,609.6c-4.4-1.3-6.2,1.2-5.4,6.5c0.2,1.7,0.3,3.5,0,5.2c-0.7,4.9,1.4,6.3,5.6,5.6
				c1.8-0.3,3.7-0.2,5.5-0.7c5.3-1.3,7.9-7.3,5.4-12.3C505.3,609.5,501.2,609.8,496.3,609.6z"/>
			<path class="st4" d="M259,484.5c0-6.3,0.1-12.5,0-18.8c0-2.4,0.6-3.7,3.1-3.6c2.7,0.1,2.2,2.1,2.3,3.8c0,0.2,0,0.4,0,0.6
				c0.4,5-1.9,13.2,1,14.3c6,2.3,13.2,0.9,19.9,0.8c2.4,0,1.7-2.1,1.7-3.5c0.1-4.1,0.1-8.2,0-12.3c0-2.3,0.3-3.8,3-3.7
				c2.5,0.1,2.6,1.6,2.6,3.5c0,13.1,0,26.2,0,39.3c0,2.2-0.6,3.2-2.9,3.2c-2.3,0-2.8-1.2-2.7-3.3c0.1-4.7-0.1-9.4,0.1-14.1
				c0.1-2.8-0.4-4.3-3.6-4.2c-5.2,0.3-10.5,0.2-15.7,0c-2.9-0.1-3.4,1.2-3.4,3.8c0.1,4.7,0,9.4,0,14.1c0,1.7,0.3,3.6-2.3,3.7
				c-2.6,0.1-3.1-1.3-3.1-3.6C259.1,497.8,259,491.2,259,484.5z"/>
			<path class="st6" d="M385.6,484.9c0-6.3,0.1-12.5-0.1-18.8c-0.1-3,0.7-4.2,3.7-4c5.6,0.2,11.2,0.1,16.8,0.1c1.8,0,4-0.5,3.9,2.6
				c-0.1,2.8-2.1,2.2-3.7,2.2c-3.7,0.1-7.5,0.2-11.2,0c-3.4-0.2-4.5,1.1-4.5,4.7c-0.1,10.1-0.2,10.1,9.6,10.1c2.1,0,4.1,0.1,6.2,0
				c1.7-0.1,2.3,0.7,2.3,2.4c0,1.7-0.7,2.4-2.4,2.4c-3.9-0.1-7.9,0.1-11.8-0.1c-3-0.2-3.8,1-3.9,4c-0.5,12.6-0.6,12.6,11.3,12.6
				c1.9,0,3.7,0,5.6,0c1.6,0,2.5,0.5,2.5,2.3c0.1,1.6-0.4,2.7-2.2,2.7c-6.7,0-13.5,0-20.2,0c-2.8,0-2.1-2.2-2.1-3.8
				C385.6,497.8,385.6,491.4,385.6,484.9z"/>
			<path class="st6" d="M410.6,578.6c-4.4,1.6-6.5-0.1-8.2-3.6c-1.9-4-4.2-7.8-6.4-11.7c-0.8-1.4-1.5-2.8-3.6-3.1
				c-6.6-0.8-7.3-0.3-7.3,6.7c0,2.9,0,5.9,0,8.8c0,1.8,0.1,3.5-2.6,3.4c-2.2-0.1-2.3-1.4-2.3-3.1c0-13.3,0-26.6,0-39.9
				c0-1.8,0.4-3,2.5-2.9c5.6,0.4,11.2-0.7,16.7,1c4.8,1.5,7.7,4.5,8.4,9.8c0.6,5.3-0.5,10.1-5.2,12.6c-3.8,1.9-2.6,3.6-1.1,6.1
				C404.5,567.9,407.4,573.1,410.6,578.6z M384.9,546.9c0.8,3.8-2.4,9.5,5.5,8.9c8.5-0.6,12.4-3.1,12.2-9.4
				c-0.2-5.9-3.8-7.8-12.4-8.4C382,537.5,386,543.7,384.9,546.9z"/>
			<path class="st8" d="M451.6,627.3c0-6.1,0.1-12.1-0.1-18.2c-0.1-3.1,0.6-4.6,4-4.5c5.6,0.3,11.2,0.1,16.9,0.1
				c1.8,0,3.8-0.4,3.7,2.8c-0.1,2.9-2,2.3-3.5,2.3c-3.7,0.1-7.5,0.2-11.2,0c-3.2-0.2-4.6,0.5-4.5,4.4c0.1,9.9-0.1,9.9,9.3,9.9
				c1.9,0,3.7,0.1,5.6,0c1.8-0.1,3.4,0.1,3.3,2.7c0,2.5-1.7,2.1-3.1,2.1c-3.9,0-7.9,0.1-11.8,0c-2.4-0.1-3.1,0.7-3.3,3.3
				c-0.9,13.4-1,13.3,12.2,13.6c2.3,0.1,7-2.6,6.8,2.7c-0.2,4.6-4.5,1.9-6.8,2.2c-4.1,0.5-8.2-0.1-12.3,0.2
				c-3.8,0.3-5.4-0.9-5.2-5.2C451.8,639.4,451.6,633.4,451.6,627.3z"/>
			<path class="st4" d="M563.6,434.9c0.2,1,0.3,2-1.1,2.1c-1.4,0-3.1,0.5-3.9-1.4c-1.2-3.1-2.5-6.1-3.5-9.2c-1-3.1-2.7-4.6-5.8-4
				c-0.4,0.1-0.7,0-1.1,0c-11.6-0.1-11.7-0.1-16.1,11.2c-0.9,2.4-2.1,4.6-4.8,3.4c-3.1-1.4-0.5-3.6,0.1-5.2
				c4.6-12.6,9.4-25.1,14.1-37.6c0.6-1.6,1.1-3.3,3.4-3.1c1.7,0.1,2.6,0.8,3.2,2.5c5,13.5,10.1,26.9,15.1,40.3
				C563.5,434.1,563.5,434.5,563.6,434.9z M538.4,416.8c4.7,0,8.8,0,13.3,0c-2.3-6.4-4.4-12.2-6.7-18.9
				C542.6,404.7,540.5,410.6,538.4,416.8z"/>
			<path class="st5" d="M248.8,604.7c3.2,0,6.4,0,9.6,0c1.7,0,2.8,0.3,2.8,2.5c0,2.2-1,2.6-2.7,2.6c-4.1-0.1-8.3,0.2-12.4-0.1
				c-3.1-0.2-4.1,0.8-4.2,4.2c-0.1,10.2-0.2,9.9,9.7,10.3c2.7,0.1,8.1-2.9,8,2.5c-0.1,4.3-5.2,1.8-7.9,1.9
				c-9.7,0.4-9.5,0.2-9.8,10.7c-0.1,4.7,0.9,6.8,5.7,6.2c3.5-0.4,7.1,0,10.7-0.1c1.7,0,2.9,0.3,2.9,2.5c0,2.2-1,2.6-2.8,2.6
				c-6.4,0-12.7-0.1-19.1,0c-2.3,0-2.8-1.2-2.8-3.3c0-13.1,0.1-26.2,0-39.3c0-2.8,1.2-3.3,3.4-3.2
				C242.8,604.8,245.8,604.7,248.8,604.7z"/>
			<path class="st5" d="M371.3,627.7c0-6.5,0.1-12.9-0.1-19.3c-0.1-2.8,0.8-3.8,3.5-3.7c6,0.2,12,0,18,0.1c1.7,0,3.4-0.3,3.4,2.5
				c0,2.8-1.6,2.6-3.3,2.5c-2.1,0-4.1,0-6.2,0c-10.6,0-10.5,0-9.8,11.1c0.2,2.6,1,3.3,3.3,3.2c3.9-0.1,7.9,0,11.8,0
				c1.7,0,2.9,0.3,2.9,2.5c0,2.5-1.6,2.2-3.1,2.2c-3.7,0-7.5,0.2-11.2,0c-3-0.2-3.7,1-3.8,4c-0.3,12.8-0.4,12.6,11.6,12.9
				c2.5,0.1,7.5-2.8,7.4,2.6c-0.1,4.7-4.8,1.9-7.3,2.2c-4.2,0.5-8.6-0.1-12.9,0.2c-3.6,0.2-4.5-1.2-4.3-4.7
				C371.5,639.8,371.3,633.8,371.3,627.7z"/>
			<path class="st7" d="M303,649c0.1,0.4,0,1.3-1.3,1.5c-1.7,0.2-3.5,0.4-4.3-1.7c-1.2-3.1-2.6-6.1-3.4-9.2c-0.8-3-2.4-4.1-5.3-3.7
				c-0.4,0.1-0.8,0.1-1.1,0c-8.6-1.6-14.9,0.6-16.3,10.9c-0.2,1.1-0.8,2.2-1.5,3.1c-1,1.2-2.5,1.1-3.7,0.6c-1.4-0.6-0.8-2-0.4-3
				c5.1-13.6,10.2-27.2,15.5-40.7c1.3-3.4,4.3-3.5,5.6-0.1c5.4,13.7,10.5,27.5,15.7,41.2C302.7,647.9,302.8,648.1,303,649z
				 M284.2,611.8c-1.4,3.6-2.5,6.6-3.6,9.6c-3.7,10-3.3,10.5,7.1,9.7c2.8-0.2,3.1-1.2,2.2-3.5C288,622.5,286.2,617.5,284.2,611.8z"
				/>
			<path class="st7" d="M606.6,414c0-6.3,0-12.5,0-18.8c0-2.4,0-4.2,3.1-4.1c6.2,0.2,12.3,0.1,18.5,0.1c1.6,0,3,0,2.9,2.4
				c-0.1,2.3-1.4,2.4-3,2.4c-3.9,0-7.9,0.2-11.8-0.1c-3.3-0.2-4.5,0.6-4.5,4.4c0.1,9.9-0.1,9.9,9.2,9.9c2.1,0,4.1,0,6.2,0
				c1.7,0,2.9,0.3,2.9,2.5c0,2.2-1.1,2.6-2.8,2.6c-3.9,0-7.9,0.1-11.8,0c-2.5-0.1-3.5,0.6-3.6,3.5c-0.6,13.1-0.7,13,11.8,13.3
				c2.4,0.1,7.1-2.6,7.2,2.2c0.1,5.5-4.8,2.4-7.3,2.6c-5.4,0.4-12.6,2-15.7-0.8c-3.7-3.3-0.8-11-1.2-16.8
				C606.5,417.5,606.6,415.7,606.6,414z"/>
			<path class="st4" d="M436.5,414.1c0-6.5,0.1-12.9-0.1-19.4c-0.1-2.8,0.8-3.7,3.5-3.6c6,0.2,12,0,18,0.1c1.4,0,3.1-0.5,3.3,2
				c0.1,2.6-1.4,2.8-3.3,2.7c-4.3,0-8.6,0.1-12.9,0c-2.4-0.1-3.1,0.9-3.3,3.4c-0.8,11-0.9,11,9.4,11c2.1,0,4.1,0,6.2,0
				c1.5,0,2.5,0.5,2.6,2.3c0.1,2-0.8,2.8-2.7,2.8c-3.9,0-7.9,0.1-11.8,0c-2.6-0.1-3.5,0.7-3.7,3.6c-0.8,13.1-0.9,13.1,11.5,13.1
				c1.5,0,3,0,4.5,0c1.6,0.1,3.5-0.4,3.5,2.4c0.1,3.2-2,2.7-3.8,2.7c-5.8,0-11.6-0.1-17.4,0.1c-2.7,0.1-3.6-0.8-3.5-3.6
				C436.6,427,436.5,420.5,436.5,414.1z"/>
			<path class="st6" d="M191.2,414c0-6.3,0.1-12.5-0.1-18.8c-0.1-2.8,0.4-4.3,3.6-4.1c5.8,0.3,11.6,0,17.4,0.1
				c1.6,0,3.6-0.5,3.4,2.4c-0.2,2.7-2.1,2.3-3.7,2.3c-3.2,0-6.4,0.4-9.5-0.1c-5.3-0.7-6.6,1.4-6.4,6.7c0.4,7.7,0.1,7.7,7.5,7.7
				c2.8,0,5.6,0,8.4,0c1.9,0,2.7,0.9,2.6,2.8c-0.1,1.9-1.2,2.2-2.6,2.2c-3.9,0-7.9,0.1-11.8,0c-2.7-0.1-4.3,0.6-4,3.9
				c0.2,3.1,0.2,6.3,0,9.4c-0.1,2.6,1,3.5,3.3,3.4c4.1-0.1,8.2,0,12.4,0c1.8,0,3.9-0.5,3.9,2.7c-0.1,2.7-1.9,2.4-3.6,2.4
				c-5.8,0-11.6-0.1-17.4,0.1c-2.7,0.1-3.6-0.9-3.5-3.7C191.3,426.9,191.2,420.5,191.2,414z"/>
			<path class="st7" d="M243.8,565.2c-7.3-2.4-10.7,1.4-12.1,8.4c-0.3,1.3-0.9,2.5-1.4,3.8c-0.8,2.1-2.6,2.3-4.2,1.7
				c-2.3-0.9-0.7-2.6-0.3-3.8c4.8-12.9,9.7-25.8,14.5-38.6c0.6-1.6,1-3.3,3.3-3.4c2.2-0.1,2.9,1.3,3.5,3c5,13.2,10,26.4,14.9,39.7
				c0.4,1,1.8,2.7-0.5,3.2c-1.3,0.3-3.1,0.9-4-1c-0.8-1.6-1.6-3.2-1.9-4.8C254.2,566.6,251,562.8,243.8,565.2z M243.8,540.3
				c-2.1,5.9-3.9,11.2-5.9,16.5c-0.9,2.3-0.4,3.3,2,3.2c2.6-0.1,5.2,0,7.9,0c1.9,0,2.8-0.7,2-2.8
				C247.9,551.7,245.9,546.2,243.8,540.3z"/>
			<path class="st7" d="M495.1,578.5c-3.9,1.8-5.6,0.2-6.8-3.4c-3.6-10.3-3.7-10-14.4-10.4c-5.4-0.2-8,1.4-9.5,6.9
				c-0.9,3.3-1,9.4-7.7,7c5.3-14.3,10.6-28.5,15.9-42.6c0.5-1.4,1.1-2.8,3.1-2.8c2.1,0,2.9,1,3.6,2.9
				C484.5,550.3,489.8,564.4,495.1,578.5z M476,540.5c-1.5,4.1-2.7,7.1-3.8,10.1c-3.4,9.7-3.4,9.7,6.6,9.3c0.2,0,0.4,0,0.6,0
				c2.4,0.2,3.5-0.4,2.4-3.2C479.9,551.8,478.2,546.7,476,540.5z"/>
			<path class="st9" d="M146,413.9c0-6.5,0-12.9,0-19.4c0-1.9-0.1-3.4,2.5-3.4c2.5,0,2.6,1.5,2.6,3.4c0,4.1,0.1,8.2,0,12.3
				c-0.1,2.5,0.8,3.5,3.2,3.4c5.6-0.1,11.2-0.1,16.9,0c2.5,0.1,3.2-1,3.1-3.5c-0.1-4.1,0-8.2,0-12.3c0-1.9,0-3.4,2.6-3.3
				c2.3,0.1,2.2,1.5,2.2,3.1c0,13.3,0,26.6,0,39.9c0,1.8-0.4,2.9-2.5,2.9c-2.2,0-2.3-1.4-2.3-3.1c0-4.7-0.1-9.4,0-14.1
				c0.1-3.1-0.5-4.7-4-4.6c-5.2,0.2-10.5,0.2-15.7,0c-2.7-0.1-3.6,1-3.5,3.8c0.1,4.9,0,9.8,0.1,14.7c0,2.1-0.5,3.3-2.8,3.2
				c-2.2-0.1-2.3-1.5-2.3-3.1C146,427.2,146,420.6,146,413.9z"/>
			<path class="st5" d="M572.6,556.4c0-6.4,0.1-12.9,0-19.3c-0.1-2.8,0.8-3.8,3.5-3.7c6,0.2,12,0.1,18,0c1.9,0,3.3,0.3,3.2,2.8
				c-0.1,2.5-1.8,2-3.2,2c-3.9,0.1-7.9,0.3-11.8-0.1c-3.6-0.3-4.3,1.2-4.3,4.6c0,10.2-0.1,10.2,9.6,10.2c1.5,0,3-0.2,4.5,0
				c1.6,0.2,4.1-1.2,4.2,2.2c0.1,3.2-2.2,2.5-3.9,2.5c-3.6,0.1-7.1,0.2-10.7,0c-2.5-0.1-3.5,0.6-3.7,3.5c-0.7,13.2-0.8,13,11.8,13.3
				c2.4,0.1,7.2-2.6,7.2,2.2c0,4.8-4.7,2.2-7.2,2.3c-5.5,0.1-12.7,2.6-16.2-1c-3.2-3.4-0.7-10.8-0.9-16.4
				C572.5,559.9,572.6,558.1,572.6,556.4z"/>
			<path class="st5" d="M180.3,556.2c0-6.1,0.2-12.1-0.1-18.2c-0.1-3.4,0.7-5,4.3-4.8c5.4,0.3,10.9,0,16.3,0.1c1.6,0,4-1,4.1,2.3
				c0.2,3.4-2.2,2.4-3.9,2.5c-3.6,0.1-7.1,0.3-10.7,0c-4.1-0.4-4.9,1.3-4.9,5.3c0.2,9.6,0,9.6,9.1,9.6c2.2,0,4.5,0.1,6.7,0
				c1.6,0,2.3,0.6,2.3,2.4c0,1.8-0.8,2.4-2.4,2.4c-3.9,0-7.9,0.1-11.8,0c-2.7-0.1-3.9,0.5-4,3.8c-0.5,12.9-0.6,12.7,12.1,13
				c2.4,0.1,7-2.4,7,2.4c0,4.4-4.5,2-6.8,2.1c-5.6,0.3-13,2.1-16.3-0.8c-3.8-3.4-0.9-11.4-1.3-17.4
				C180.2,559.4,180.3,557.8,180.3,556.2z"/>
			<path class="st4" d="M239,430.5c3.8,0.9,7.3,2.2,11.1,2c4.4-0.2,9-0.3,10.1-6.1c1.1-5.7-2.8-7.9-7-9.6c-2.8-1.1-5.6-2.3-8.2-3.7
				c-4.8-2.7-6.9-7.1-6.1-12.7c0.8-5.5,4.3-8.1,9.4-9.5c4.8-1.3,9.3-0.1,13.8,0.9c1.5,0.3,3,0.9,2,3.2c-0.7,1.6-1.3,2.5-3.3,1.8
				c-3.4-1.2-6.9-1.7-10.5-1.2c-3.1,0.5-5.3,1.9-6,5.2c-0.7,3.5,0.7,6.3,3.6,7.8c3,1.6,6.2,2.7,9.3,4.1c7,3.2,9.7,7.9,8.5,14.5
				c-1,5.4-5.8,9.3-12.4,9.9c-3.7,0.4-7.5,0.2-11.2-0.5C239,436.2,237.4,434.5,239,430.5z"/>
			<path class="st5" d="M360.3,508.9c-2.8-0.4-5.5-0.8-8.3-1.3c-2.3-0.3-3.3-1.8-2.9-4.1c0.5-3.3,2.4-1.2,3.8-0.9
				c4.6,1,9.1,2.2,13.8,0.3c2.6-1.1,4.4-2.8,4.6-6c0.2-3-0.6-5.5-3.3-6.9c-2.5-1.3-5.1-2.4-7.7-3.6c-3.3-1.4-6.6-3-8.7-6.1
				c-4.4-6.4-1.7-15.2,5.5-17.8c5.3-1.9,10.7-1.2,16,0.3c1.6,0.5,2.5,1.2,1.7,3.3c-0.7,1.9-1.3,2.4-3.2,1.7c-3-1.1-6.1-1.8-9.4-1.5
				c-3.4,0.4-6.3,1.6-7.1,5.4c-0.8,3.8,0.9,6.4,4,8.1c1.8,1,3.7,1.9,5.6,2.6c9.4,3.7,13.1,8.4,11.9,15.2
				C375.6,504.9,369.7,508.7,360.3,508.9z"/>
			<path class="st4" d="M564.5,391.9c4-1.9,5.7-0.3,6.8,3.4c1.7,5.6,3.7,11,5.6,16.6c1.8,5.3,3.5,10.5,5.6,16.8
				c4-11.7,7.8-22.4,11.2-33.3c1.2-3.8,2.9-5.1,6.9-3.5c-4.9,14.3-9.7,28.5-14.6,42.8c-0.6,1.7-1.5,2.4-3.3,2.4
				c-2,0-2.9-0.9-3.5-2.9C574.3,420.1,569.4,406,564.5,391.9z"/>
			<path class="st4" d="M506.1,508.8c-1.9-0.3-4.8-0.7-7.8-1.2c-2.6-0.4-2.8-2.4-2.3-4.4c0.7-2.8,2.3-0.7,3.5-0.5
				c4.2,0.9,8.4,2.1,12.7,0.8c3.2-0.9,5.5-2.7,6-6.2c0.5-3.5-1.3-6-4.2-7.5c-3.5-1.8-7.2-3.2-10.7-5.1c-5.4-3-8-8.3-6.9-13.4
				c1.2-5.6,5.6-9.1,12-9.5c3.8-0.2,7.5,0.1,11.1,1.2c1.5,0.5,2.9,1,2.2,3.2c-0.6,2-1.4,2.7-3.7,1.8c-3.1-1.3-6.5-1.9-9.9-1.4
				c-3.2,0.5-5.8,2-6.4,5.6c-0.5,3.4,0.7,6.2,3.8,7.7c3,1.5,6.2,2.7,9.3,4.1c7,3.3,9.1,7.1,8.2,14.2c-0.7,5.5-5.2,9.4-12,10.3
				C509.9,508.7,508.6,508.7,506.1,508.8z"/>
			<path class="st4" d="M218.3,485.2c0-17.9,13.4-28,29.6-22.4c1.4,0.5,3.8,0.4,2.7,3.2c-0.8,2-1.7,2.8-4.2,1.9
				c-7.2-2.7-14.1-2.2-19.2,4.7c-4.3,5.9-4.6,18-0.6,24.5c3.4,5.5,8.6,7.1,14.6,6.8c1.5-0.1,2.9-0.8,4.4-0.8c1.4,0,3.5-1.9,4.1,1
				c0.5,2.4-0.9,3.3-3.1,3.8C229.7,512.2,218.3,503.2,218.3,485.2z"/>
			<path class="st4" d="M164.2,627.5c0-18,13.6-28.3,29.5-22.2c1.2,0.5,3.8,0.3,2.6,3.3c-0.8,2-1.8,2.5-3.9,1.8
				c-2.8-0.9-5.7-1.9-8.8-1.5c-9.9,1.2-14.8,9-13.8,21.5c0.8,10.7,6.5,16.1,16.4,15.6c1.9-0.1,3.7-0.6,5.6-0.7
				c1.3-0.1,3.1-1.4,3.7,1c0.5,2.1-0.6,3.1-2.6,3.6c-15.2,3.8-28.5-2.1-28.7-20.7C164.2,628.7,164.2,628.1,164.2,627.5z"/>
			<path class="st7" d="M269.1,556.3c0-6.5,0.1-12.9,0-19.4c0-2.3,0.4-3.7,3.1-3.6c6.2,0.1,12.4,0,18.5,0c1.6,0,2.9,0,3,2.4
				c0.1,2.9-1.7,2.5-3.4,2.5c-4.1,0-8.2,0.2-12.4,0c-2.6-0.1-3.4,0.7-3.6,3.6c-0.6,12.9-0.7,12.9,11.5,12.9c0.6,0,1.2-0.1,1.7,0
				c1.8,0.5,5-1.7,5,2.5c0,4.2-3.2,2.3-5,2.5c-4.2,0.6-9.8-1.9-12.3,1.1c-2.1,2.5-0.7,8.2-0.8,12.5c0,0.8,0,1.6,0,2.3
				c0.1,2.2-0.1,3.8-2.9,3.7c-2.5-0.1-2.5-1.8-2.5-3.6C269.1,569.2,269.1,562.8,269.1,556.3z"/>
			<path class="st6" d="M300.5,556.4c0-6.3,0.1-12.5,0-18.8c-0.1-2.8,0.3-4.4,3.6-4.2c6,0.2,12,0.1,18,0c1.9,0,3.3,0.1,3.2,2.7
				c-0.1,2.5-1.7,2.1-3.1,2.1c-4.3,0-8.6,0.1-12.9,0c-2.5-0.1-3.1,0.9-3.2,3.4c-0.8,13.1-0.9,13.1,11.8,13.1c1.1,0,2.2,0,3.4,0
				c1.6,0,2.9,0.2,2.9,2.4c0,2.2-1.1,2.6-2.8,2.6c-3.9,0-7.9,0.1-11.8,0c-2.8-0.1-3.6,1-3.5,3.7c0.2,4.3,0,8.6,0.1,12.9
				c0,1.8-0.4,2.9-2.5,2.9c-2.1,0-3.3-0.6-3-3c0-0.2,0-0.4,0-0.6C300.5,569.3,300.5,562.8,300.5,556.4z"/>
			<path class="st6" d="M596.1,605.6c-2.1,4.1-4,8.3-6.4,12.2c-5.4,8.9-9.5,18.1-7.8,29.1c0.3,1.7,0.3,3.6-2.3,3.7
				c-2.2,0-3.2-1-2.8-3.2c2.6-14.3-5.9-24.8-11.3-36.3c-0.8-1.7-1.8-3.4-2.9-5.5c3.3-1.5,5.5-1,7.1,2.5c2.9,6.1,6.1,12.1,9.3,18.5
				c6.7-6.4,6.5-18.5,15.7-22.3C595.1,604.6,595.6,605.1,596.1,605.6z"/>
			<path class="st8" d="M120.4,416.4c0-5.3-0.2-10.5,0.1-15.8c0.2-3.5-0.7-5.1-4.3-4.7c-2.2,0.3-4.5,0-6.7,0.1
				c-1.8,0.1-2.7-0.6-2.7-2.7c0-1.9,1.1-2.2,2.5-2.2c9.2,0,18.3,0,27.5,0c1.6,0,2.9,0.1,2.8,2.5c-0.1,2.3-1.5,2.4-3,2.4
				c-0.6,0-1.1,0-1.7,0c-9.1,0.2-9.1,0.2-9.1,10c0,9,0,18,0,26.9c0,1.8,0.6,4-2.5,4.2c-3.4,0.2-2.8-2.3-2.8-4.3
				C120.4,427.3,120.4,421.8,120.4,416.4z"/>
			<path class="st9" d="M109.9,558.7c0-3.9,0-7.8,0-11.7c0-8.7,0-8.7-8.1-8.8c-1.3,0-2.6,0-3.9,0c-1.3,0-2-0.6-2-2.1
				c0-1.6,0.4-2.7,2.1-2.7c9.5,0,19.1,0,28.6,0c1.8,0,2,1.2,2.1,2.7c0,1.5-0.6,2.1-2,2.1c-0.6,0-1.1,0-1.7,0
				c-10.1,0.4-10.1,0.4-10.1,10.7c0,8.6,0,17.2,0,25.8c0,1.9,1,4.6-2.5,4.5c-3.5-0.1-2.3-2.9-2.4-4.7
				C109.8,569.2,109.9,563.9,109.9,558.7z"/>
			<path class="st8" d="M204.8,626.9c0-6.1,0-12.1,0-18.2c0-1.9-0.5-4,2.5-4.1c3.3-0.1,2.9,2.2,2.9,4.3c0,10.4,0.2,20.8-0.1,31.1
				c-0.2,4.6,1.3,5.8,5.4,5.4c3.5-0.4,7.1-0.1,10.7-0.1c1.8,0,3.4,0.1,3.3,2.7c-0.1,2.2-1.5,2.4-3.1,2.4c-6.2,0-12.4-0.1-18.6,0
				c-2.6,0-3.1-1.4-3-3.7C204.9,640.2,204.8,633.6,204.8,626.9z"/>
			<path class="st9" d="M541,556.4c0-6.4,0-12.9,0-19.3c0-1.6-0.7-3.6,2.1-3.7c2.8-0.1,3,1.5,3,3.6c0,8,0,16,0,24
				c0,13.5,0,13.5,12.6,13.5c1.3,0,2.6,0,3.9,0c1.6,0,3,0.1,2.9,2.4c-0.1,2.3-1.5,2.3-3.1,2.3c-6.2,0-12.3-0.1-18.5,0
				c-2.7,0.1-3-1.3-3-3.6C541,569.3,541,562.8,541,556.4z"/>
			<path class="st9" d="M487.1,485.5c0,6.2,0,12.5,0,18.7c0,2.2,0.3,4.2-3,4.1c-2.9-0.1-2.8-1.7-2.8-3.8c0-12.9,0-25.7,0-38.6
				c0-2-0.2-3.8,2.7-3.8c3.2-0.1,3.1,1.9,3,4.1C487.1,472.7,487.1,479.1,487.1,485.5z"/>
			<path class="st10" d="M152,45.3c8.4,0,16.9,0.2,25.3-0.1c4.3-0.2,5,1.5,5.3,5.7c1.6,20.8-4.6,40.2-9,59.9
				c-7.1,32.2-14.5,64.3-21.6,96.4c-0.9,4-2.3,6-6.6,5.6c-4.5-0.4-9-0.3-13.5,0c-4.2,0.3-5-1.2-4-5.4c6.3-27.6,12.4-55.2,18.6-82.8
				c3.8-16.9,7.5-33.9,11.6-50.8c1.3-5.2-0.4-6-4.8-5.8c-9,0.2-18,0-27,0.1c-3.3,0.1-4.8-0.9-4.6-4.6c0.2-4.3,0.3-8.6,0-12.9
				c-0.3-4,1-5.6,5-5.4C135.1,45.5,143.6,45.3,152,45.3z"/>
			<path class="st10" d="M617.5,82.6c0-11.5,0.1-21.5-0.1-31.4c-0.1-3.5,0.8-4.8,4.4-4.8c3.7,0,4.3,1.6,4.3,5
				c-0.1,20,0,39.9-0.1,59.9c0,2.2,0.7,5.1-3,4.9c-2.8-0.1-5.8,0.9-6.9-3.7c-2.6-10.8-5.8-21.4-8.7-32.2c-0.4-1.6-0.9-3.2-2.2-4.6
				c0,11.9-0.1,23.8,0.1,35.7c0,3.3-0.5,5-4.2,5c-3.7,0-4.3-1.7-4.3-5c0.1-20,0-39.9,0.1-59.9c0-2.2-0.7-5.2,3-4.9
				c2.8,0.3,6.5-1.8,7.7,3.4c1.8,7.4,3.9,14.7,6,22C614.4,75,614.8,78.3,617.5,82.6z"/>
			<path class="st10" d="M467.6,80.7c0-10,0.1-19.9-0.1-29.9c0-3.2,0.8-4.7,4.1-4.5c4.5,0.3,9,0.1,13.5,0.3c3.6,0.2,6.4,1.9,8.4,5.1
				c3.3,5.6,2.8,21-1.3,26.2c-1.5,1.9-0.8,2.2,0.5,3.4c5.6,5.5,6.3,24.7,1.1,30.6c-2.9,3.2-6.8,3.9-10.8,4.1
				c-15.4,0.6-15.4,0.6-15.4-15.4C467.6,94,467.6,87.4,467.6,80.7z M477.3,95.7c0,1.8-0.1,3.5,0,5.3c0.2,2.5-1.1,5.9,3.3,5.8
				c3.7,0,6.3-1.4,6.4-5.6c0.1-3.9,0.2-7.8-0.1-11.7c-0.3-4-2.9-4.8-6.3-4.9c-4-0.1-3.2,2.8-3.3,5.2
				C477.2,91.8,477.3,93.7,477.3,95.7z M486.1,65.5c-0.1-1.8,0-4-0.4-6c-0.6-3-3-3.7-5.6-3.7c-3.2-0.1-2.8,2.4-2.8,4.5
				c0,3.7-0.1,7.4,0,11.1c0,1.8-0.6,4.2,2.2,4.5c2.1,0.2,4.2,0,5.5-2C486.6,71.3,485.7,68.5,486.1,65.5z"/>
			<path class="st11" d="M385.7,177.4c0-10.7,0-20.5,0-30.2c0-3,0-5.2,4-5.2c4.3-0.1,4.3,2.2,4.3,5.4c-0.1,19.8,0,39.5-0.1,59.3
				c0,2.1,0.9,5.1-2.8,5c-2.8-0.1-5.8,1-6.9-3.7c-2.4-10.1-5.3-20-8.1-29.9c-0.5-1.8-1.1-3.5-2.7-5.1c0,11.1,0,22.2,0,33.2
				c0,3.2,0.1,5.6-4.3,5.6c-4,0-4.5-1.8-4.5-5.3c0.1-19.8,0-39.5,0.1-59.3c0-2.1-1-5.3,2.7-5.1c3.2,0.2,7.2-1.8,8.5,3.9
				c1.9,8.6,4.4,17,6.8,25.4C383.2,173.3,383.2,175.3,385.7,177.4z"/>
			<path class="st12" d="M524.2,211.1c-9.9,1.7-9.9,1.7-12.6-7.2c-1.8-5.9-3.7-11.8-5.5-17.7c-0.6,0-1.1,0.1-1.7,0.1
				c0,6.4-0.3,12.8,0.1,19.2c0.4,5.2-1.2,6.9-6.2,6.5c-3.1-0.3-4.2-1.1-4.2-4.4c0.1-20.4,0.1-40.7,0-61.1c0-3.4,1.1-4.5,4.3-4.3
				c3.7,0.2,7.5,0,11.2,0.1c8.1,0.3,12.2,4,13,12.3c0.5,5,0.3,10.2,0.1,15.2c-0.1,3.2-0.9,6.7-3.8,8.1c-4.6,2.2-3.2,5.3-2.2,8.7
				C519.1,194.7,521.6,202.8,524.2,211.1z M504.3,162.1c0,2.1-0.1,4.3,0,6.4c0.1,2.2-0.7,5,2.9,5c2.7,0,5.1-1,5.3-4.1
				c0.3-4.7,0.4-9.4,0-14c-0.2-3.1-2.7-3.8-5.4-3.8c-3.3,0-2.7,2.5-2.8,4.6C504.2,158.1,504.3,160.1,504.3,162.1z"/>
			<path class="st11" d="M428.6,81.5c0,6.4,0.3,12.9-0.1,19.3c-0.6,10.4-5.7,15.2-15.5,15.3c-14.6,0.2-14.6,0.2-14.6-15.2
				c0-16.4,0.1-32.8-0.1-49.3c0-4.1,1.1-5.7,5.1-5.4c3.3,0.3,6.7,0,10.1,0.1c9.3,0.2,14.3,4.8,14.9,14.6
				C428.9,67.8,428.6,74.6,428.6,81.5C428.6,81.5,428.6,81.5,428.6,81.5z M408.6,81.2c0,6.8,0,13.7,0,20.5c0,4.8,2,6.1,6.3,4.4
				c3.3-1.3,3.7-4,3.7-7.1c0-10.8,0-21.5,0-32.3c0-2,0-3.9-0.2-5.9c-0.5-4.3-3.5-5.1-6.9-5.2c-4.1-0.1-2.9,3.3-2.9,5.5
				C408.5,67.9,408.6,74.6,408.6,81.2z"/>
			<path class="st13" d="M375.8,88.5c0,7.8-0.2,15.6,0.1,23.5c0.1,4.1-2,4.3-4.9,4.2c-2.7-0.1-5.2,0.4-5.2-4
				c0.1-20.5,0.1-41.1,0-61.6c0-3,0.9-4.3,3.9-4.2c3.2,0.1,6.4,0,9.6,0c10.6,0.1,14.7,4.1,15.2,15c0.2,4.5-0.1,9-0.3,13.5
				c-0.1,2.6-0.9,5.5-3.1,6.6c-4.9,2.6-3.9,6.1-2.5,10.2c2,6.1,3.9,12.2,5.6,18.4c0.5,1.8,3.2,5-0.3,5.7c-3,0.5-7.7,2.7-9.3-3.2
				c-2.1-7.3-4.3-14.6-6.5-21.9c-0.3-0.9-0.7-1.7-1-2.5C376.5,88.3,376.1,88.4,375.8,88.5z M384.5,66c-0.2-1.9-0.1-4.5-0.7-6.9
				c-0.7-3-3.3-3.4-5.8-3.4c-2.9,0.1-2.3,2.5-2.3,4.4c-0.1,4.3-0.1,8.6,0,12.8c0.1,1.9-0.9,4.6,2.5,4.8c2.9,0.1,5.3-0.8,5.8-4.1
				C384.4,71.3,384.4,69,384.5,66z"/>
			<path class="st11" d="M659.7,81.3c0.1,7.4,1,14.9-0.4,22.2c-1.6,8.3-5.9,12.1-13.9,12.5c-15.6,0.8-15.6,0.8-15.6-15.3
				c0-15.8,0.3-31.7-0.1-47.5c-0.1-5.8,1.7-7.7,7-6.9c2.2,0.3,4.5,0,6.7,0.1c10.7,0.1,15.1,3.7,16.2,15
				C660.3,68,659.7,74.7,659.7,81.3z M640,80.7c0,6.9-0.1,13.7,0.1,20.6c0,1.9-1.2,4.8,1.9,5.3c2.7,0.4,5.3,0,6.9-2.8
				c1-1.7,1.1-3.7,1.1-5.7c0-11.4,0-22.7,0-34.1c0-1.7-0.2-3.6-0.9-5.1c-1.3-3-4-3.3-6.7-3.1c-3.3,0.2-2.3,3-2.3,5
				C639.9,67.4,640,74.1,640,80.7z"/>
			<path class="st10" d="M442.1,171.5c0,11.9-0.1,23.4,0,34.9c0,3.2,0,5.5-4.3,5.5c-4-0.1-4-2.2-4-5.2c0.1-19.8,0-39.5,0.1-59.3
				c0-2.3-1-5.5,3.1-5.3c3.1,0.2,6.6-1.2,7.7,4.2c1.9,9,4.7,17.7,7.1,26.5c0.4,1.6,1,3.2,2.7,4.7c0-10.2,0.2-20.4-0.1-30.5
				c-0.1-3.9,1.2-5.2,4.9-4.9c2.3,0.2,3.4,0.9,3.4,3.4c0,20.9,0,41.9,0,62.8c0,2.5-0.9,3.5-3.3,3.4c-2.8-0.1-5.4,0.6-6.4-3.7
				c-2.5-10.4-5.5-20.7-8.4-31C444.1,175.3,444.2,173.2,442.1,171.5z"/>
			<path class="st12" d="M331.7,81.3c0-6.6-0.3-13.3,0.1-19.9c0.4-9.5,5.5-15.1,13.6-15.6c9.2-0.6,15.2,3.8,16.1,13.8
				c1.4,14.4,1.4,28.9,0,43.2c-1,10.2-7.2,14.7-16.6,13.9c-7.7-0.6-12.8-6.6-13.1-16.1C331.5,94.1,331.7,87.7,331.7,81.3
				C331.7,81.3,331.7,81.3,331.7,81.3z M341.7,80.8c0,6.5-0.1,12.9,0.1,19.4c0.1,3.5,1,6.9,5.3,6.7c3.9-0.2,4.9-3.3,5-6.6
				c0.1-12.7,0.1-25.4,0-38.2c0-3.5-1.2-6.8-5.4-6.7c-3.9,0.1-4.8,3.3-4.9,6.6C341.6,68.3,341.7,74.6,341.7,80.8z"/>
			<path class="st12" d="M548,207.9c-9.1,8-17.7,5.1-20.8-6.3c-1.5-5.6-0.9-11.3-0.9-16.9c-0.1-9.2-0.2-18.4,0.2-27.6
				c0.4-9.9,6-15.6,14.8-15.7c10.5-0.1,18.3,11.6,14.4,21.9c-1.2,3-3.9,1.4-5.9,1.7c-1.9,0.3-3.3-0.5-3.2-2.9c0.1-1.8,0-3.5-0.1-5.3
				c-0.2-3.1-1.3-5.3-4.7-5.4c-3.5-0.1-5.3,1.9-5.4,5.4c-0.2,5.1-0.1,10.2-0.1,15.3c0,8,0,16,0,24.1c0,3.4,0.9,6.5,4.8,6.6
				c3.9,0.1,4.9-2.9,5-6.3c0.1-2.9,0-5.9,0-8.8c0-1.6,0-3.3-1.9-3.7c-4.6-0.8-2.8-4.5-2.6-7c0.2-3.3,3.2-2.1,5-2.1
				c11.1,0.1,9-1.4,9.2,9.5c0.1,7.2,0.1,14.5,0,21.7c0,1.9,1.3,4.8-1.6,5.4C551.4,212.2,548.3,212.5,548,207.9z"/>
			<path class="st11" d="M576.6,46.6c4.5-1.1,6.2,0.7,6.8,5.2c3,19.9,6.4,39.7,9.6,59.5c0.3,1.8,1.8,4.9-1.9,4.7
				c-2.9-0.2-7.2,2.5-8.1-3.2c-0.2-1-0.2-1.9-0.4-2.9c-0.8-5.9-5.6-8.9-10.5-6.3c-3,1.6-1.5,4.9-2.2,7.4c-0.7,2.2,0.1,5.1-3.8,5.3
				c-6,0.3-6.5-0.1-5.5-6.4c3.1-19.1,6.4-38.1,9.3-57.3C570.6,47.9,571.7,44.9,576.6,46.6z M576.9,70.7c-0.5,0.1-1.1,0.1-1.6,0.2
				c-0.9,6.5-1.8,12.9-2.6,19.4c-0.3,2.3,0.2,4,2.8,3.6c1.8-0.2,4.9,1.1,4.6-2.4C579.3,84.6,578,77.7,576.9,70.7z"/>
			<path class="st11" d="M258.7,46.6c5.2-1.3,6.4,1.4,7.1,6.2c2.9,19.3,6.3,38.5,9.4,57.8c0.3,1.9,2.2,5.3-1.7,5.3
				c-2.9,0-7.6,2.7-8.1-3.7c-0.1-1.2-0.7-2.3-0.7-3.4c0.3-5.5-3-5.4-6.9-5.6c-4.7-0.3-5.1,2.4-5.5,6c-0.4,2.7,1,6.6-3.8,7
				c-5.9,0.5-6.5,0-5.5-6.1c3.1-19.7,6.5-39.3,9.4-59C252.9,46.5,255.2,45.7,258.7,46.6z M258.9,69.4c-0.4,0-0.8,0-1.2,0
				c-0.9,6.9-1.7,13.9-2.9,20.8c-0.5,3,0.3,4,3,3.8c2.2-0.1,4.9,0.5,4.3-3.4C261.1,83.6,260,76.5,258.9,69.4z"/>
			<path class="st11" d="M447.3,46.6c4.2-0.8,6.4,0.2,7.1,5c3,19.9,6.3,39.7,9.5,59.5c0.3,1.8,2,4.9-1.6,4.8c-2.8-0.1-7.1,2.7-8.2-3
				c-0.2-1.2-0.6-2.3-0.6-3.5c0.2-5.3-2.4-6.2-7-6.3c-5.2-0.1-5.2,2.9-5.6,6.6c-0.3,2.6,0.6,6.1-3.8,6.5c-5.9,0.5-6.5,0-5.6-6.1
				c3.2-19.6,6.5-39.2,9.5-58.9C441.7,46.5,443.9,45.8,447.3,46.6z M447.4,67.6c-2.5,8.7-2.6,16.2-4,23.4c-0.6,3,1.5,3,3.5,3
				c2-0.1,4.5,0.5,4-3C449.9,83.7,448.8,76.5,447.4,67.6z"/>
			<path class="st10" d="M356.8,211.6c-4.6,1.1-5.7-1.5-6-5.7c-0.5-6.8-3.3-8.5-9.6-6.8c-4.1,1.1-2.3,4.8-3,7.3
				c-0.8,3.2-1.1,5.6-5.4,5.5c-4.4-0.1-4.9-1.8-4.2-5.6c2.9-16.7,5.6-33.5,8.3-50.2c0.4-2.7,1.2-5.4,1.2-8.1c0-5.3,2.7-6.1,7.2-6.1
				c3.9,0.1,5.5,1,6.2,5.3c3,19.9,6.3,39.7,9.7,59.5C362,211,361,212.5,356.8,211.6z M345.2,164.8c-0.4,0-0.8,0-1.2,0
				c-1.1,7.3-2.1,14.5-3.2,21.8c-0.6,3.9,2.2,3.2,4.3,3.3c2.7,0.2,3.6-0.8,3.1-3.8C347,179.1,346.2,172,345.2,164.8z"/>
			<path class="st12" d="M253.3,177.5c0,6.1-0.1,12.1,0,18.2c0,3.6,1.1,6.9,5.1,7c4.4,0.1,4.9-3.4,4.9-7c0-2.3,0.2-4.7,0-7
				c-0.3-3.8,0.5-5.6,4.8-5.6c4,0.1,4.7,1.8,4.5,5.3c-0.2,3.7,0,7.4-0.3,11.1c-0.7,7.6-4.9,12-11.6,12.9c-7.5,1-13.2-2.2-15.8-9.2
				c-0.8-2.2-1.6-4.5-1.6-6.8c-0.1-13.1-0.4-26.2,0.1-39.3c0.3-9.3,5.2-14.7,12.4-15.7c9.9-1.4,15.9,3.6,16.6,14
				c0.1,1.9,0,3.9,0.2,5.9c0.3,3.7-0.3,5.6-4.7,5.7c-4.5,0-4.9-2.2-4.6-5.7c0.1-1.4,0-2.7,0-4.1c0-3.3-0.9-5.9-4.7-5.9
				c-3.6,0-5.1,2.5-5.2,5.6C253.2,163.8,253.3,170.6,253.3,177.5C253.3,177.5,253.3,177.5,253.3,177.5z"/>
			<path class="st12" d="M301.1,177c0-10.2,0.1-20.4,0-30.5c0-3.2,0.9-4.5,4.1-4.4c5.4,0.2,10.9,0.3,16.3,0c3.6-0.2,3.8,1.8,3.8,4.7
				c0,3.1-0.1,5-4,5.1c-10,0.1-10,0.4-10,11.1c0,1.2,0.1,2.4,0,3.5c-0.5,4.1,1.1,5.8,5,5.2c3.3-0.5,5.1,0.5,5.1,4.6
				c-0.1,3.8-1.2,5.5-4.9,4.8c-4.4-0.7-5.7,1.5-5.2,5.7c0.1,1.2,0,2.3,0,3.5c0,11.1,0,11.3,10.4,11.8c3.8,0.2,3.5,2.3,3.6,5
				c0.1,2.8,0,5.3-3.7,4.7c-0.2,0-0.4,0-0.6,0c-6.3-0.1-14.6,2.2-18.5-1.1c-4.2-3.5-1.1-12.4-1.3-19
				C300.9,186.8,301.1,181.9,301.1,177z"/>
			<path class="st13" d="M525.4,81c0-10,0.1-19.9-0.1-29.9c-0.1-3.5,0.9-5,4.4-4.8c5.2,0.2,10.5,0.2,15.7,0c3.5-0.1,3.9,1.8,3.9,4.8
				c0,2.8-0.1,4.7-3.8,4.8c-10.1,0.4-9.9,0.6-10.2,11.6c-0.2,5.6,0.1,9.7,7.1,8.5c3.1-0.5,3.1,2,3,4.3c-0.1,2.2,0.6,5.5-2.9,5
				c-7.7-1.2-7.6,3.6-7.1,9c0.1,0.6,0,1.2,0,1.8c0,10.2,0,10.3,9.5,10.5c3.5,0.1,4.5,1.2,4.4,4.8c-0.1,3.3-0.7,5.1-4.3,4.9
				c-5-0.3-10.1-0.2-15.1,0c-3.4,0.2-4.6-1-4.5-4.7C525.5,101.4,525.4,91.2,525.4,81z"/>
			<path class="st10" d="M406.1,176.6c0-10,0.1-20-0.1-30c-0.1-3.7,1.1-4.8,4.5-4.6c5.4,0.2,10.9,0.2,16.3,0
				c3.3-0.1,3.7,1.7,3.6,4.4c-0.1,2.4,0.6,5.2-3.4,5.3c-3.5,0.1-8.3-1.9-10.1,1c-1.7,2.8-0.3,7.6-0.8,11.4c-0.6,5.6,0.7,8.6,6.8,7.4
				c3.4-0.7,3.5,1.8,3.4,4.3c-0.1,2.4,0.8,5.7-3.3,5c-6.6-1.2-7.5,2.5-6.8,8c0.1,0.6,0,1.2,0,1.8c0,10.8,0,11,10.2,11.3
				c4,0.1,3.9,2.3,4,5.3c0.1,3.3-0.9,4.6-4.2,4.4c-5.2-0.2-10.5-0.2-15.7,0c-3.4,0.2-4.6-1-4.5-4.6
				C406.3,197,406.1,186.8,406.1,176.6z"/>
			<path class="st11" d="M466.9,176.3c0-10,0.1-19.9-0.1-29.9c0-3.3,1-4.5,4.2-4.4c5.4,0.2,10.9,0.2,16.3,0c3.4-0.1,3.6,1.9,3.4,4.4
				c-0.2,2.4,0.8,5.3-3.3,5.3c-3.3,0-7.6-1.6-9.7,0.9c-2.4,2.8-0.5,7.5-0.9,11.3c-0.5,5.1,0,9,6.5,7.7c3.2-0.6,3.6,1.7,3.5,4.4
				c-0.1,2.5,0.4,5.7-3.4,5c-6.5-1.2-7.2,2.5-6.6,7.7c0,0.4,0,0.8,0,1.2c0.1,3.7-1,8.1,0.6,10.9c1.9,3.3,6.5,1.2,10,1.3
				c4,0.1,3.1,2.9,3.3,5.3c0.2,2.6-0.1,4.6-3.5,4.4c-5.4-0.2-10.8-0.2-16.3,0c-3.2,0.1-4.2-1.2-4.2-4.4
				C467,197,466.9,186.7,466.9,176.3z"/>
			<path class="st12" d="M574.5,165.5c1.6-6.7,3.2-13.5,4.9-20.2c0.7-2.8,7.3-4.7,9.3-2.8c1.1,1.1,0.2,2.1,0,3.2
				c-1.6,6-2.9,12.1-4.8,18.1c-4.2,13.9-6.7,28.1-5.4,42.7c0.3,4-0.9,5.5-4.9,5.4c-3.5-0.2-5.8-0.5-5.3-5
				c2.3-20.5-4.7-39.3-9.4-58.6c-0.5-1.9-3.2-5.3,0.9-5.9c3.1-0.4,7.7-2.6,8.8,3.8c1.2,6.5,3,12.9,4.5,19.3
				C573.6,165.5,574,165.5,574.5,165.5z"/>
			<path class="st13" d="M305.2,80.9c0-9.8,0.2-19.6-0.1-29.4c-0.1-4.2,1.3-5.5,5.2-5.2c4.7,0.3,9.4,0.3,14,0c3.4-0.2,4.6,1,4.5,4.7
				c-0.1,3.2-0.4,4.9-4.2,4.9c-9.2,0.1-9.2,0.3-9.2,10.3c0,1.6,0.1,3.1,0,4.7c-0.4,3.8,1.1,5.5,4.8,5c3.5-0.4,5.4,0.3,5.4,4.9
				c0,4.4-2,4.9-5.1,4.6c-4-0.5-5.2,1.3-5.1,5.4c0.3,6.8-0.1,13.7,0.1,20.5c0.1,3.9-1.1,5.1-4.8,5c-3.3-0.2-5.7,0-5.6-4.8
				C305.4,101.3,305.2,91.1,305.2,80.9z"/>
			<path class="st13" d="M278.9,81.3c0-10.2,0.1-20.4-0.1-30.5c-0.1-3.3,1.1-4.5,4.2-4.4c5.2,0.2,10.5,0.2,15.7,0
				c3.7-0.1,3.6,2.3,3.6,5c0,2.6-0.2,4.3-3.5,4.5c-10.1,0.7-9.8,0.9-10.2,11.7c-0.2,5.8,0.5,9.5,7.3,8.4c3.5-0.6,3,2.5,3.1,4.8
				c0.1,2.6-0.2,5.1-3.4,4.5c-6.8-1.2-7.1,2.8-6.9,8.2c0.3,6-0.1,12.1,0.1,18.2c0.2,4.5-2.2,4.5-5.3,4.5c-3.1,0-4.9-0.4-4.8-4.4
				C279,101.6,278.9,91.5,278.9,81.3z"/>
			<path class="st13" d="M500.3,81.1c0-10.2,0.2-20.4-0.1-30.5c-0.1-4.2,2-4.3,4.9-4.2c3,0,5.5-0.2,5.4,4.4
				c-0.2,16.2,0.1,32.5-0.2,48.7c-0.1,5.4,1,8.2,6.7,7.2c4.5-0.9,5.9,1.2,5.5,5.8c-0.2,2.7-0.9,3.9-3.6,3.8c-4.9-0.2-9.7-0.2-14.6,0
				c-3.4,0.2-4-1.5-4-4.6C500.3,101.5,500.3,91.3,500.3,81.1z"/>
			<path class="st13" d="M276,176.8c0-10,0.2-19.9-0.1-29.9c-0.1-4.7,2.1-4.8,5.5-4.9c3.7-0.1,4.8,1.3,4.7,5
				c-0.2,15.8,0.2,31.7-0.2,47.5c-0.1,5.9,1.2,8.8,7.3,7.7c3.9-0.7,5.2,1.1,5.1,5.2c-0.1,3.3-1.1,4.5-4.2,4.4c-4.5-0.2-9-0.3-13.5,0
				c-3.9,0.3-4.7-1.6-4.6-5.2C276.1,196.7,276,186.7,276,176.8z"/>
			<path class="st14" d="M645,570.6c-3.6,3.9-8.2,4.9-13.2,4.2c-4.1-0.5-6.3-3.1-6.4-7.4c-0.1-4.8,2.7-7.5,6.3-9.4
				c1.3-0.7,2.1,0.4,2.8,1.2C638,562.9,641.5,566.7,645,570.6z"/>
			<path class="st14" d="M640.5,543.1c-0.4,4.1-3.1,7.4-6.2,7.4c-3.6,0-5-4.4-5.1-7.8c-0.1-3.6,2.5-5.6,5.9-5.5
				C638.7,537.2,640.5,539.4,640.5,543.1z"/>
			<path class="st15" d="M506.3,566.2c0.1-4.3-1.8-9.4,6.1-8.7c9.9,0.8,13.5,2.3,13.6,8.2c0.1,6.5-3.5,8.2-13.5,9.1
				C504.8,575.5,506.2,570.7,506.3,566.2z"/>
			<path class="st14" d="M506.2,544c-0.7-3.5,0-6.4,6.1-6c8.7,0.6,12.4,2.3,12.5,7.4c0.1,5.7-3.6,7.4-13,8.1
				C504.6,554,506.5,549.2,506.2,544z"/>
			<path class="st15" d="M364.7,555.8c-0.1,14.4-6.2,20.7-17.5,18.9c-4.9-0.8-8.2-3.6-9.9-8.4c-2.3-6.6-2.3-13.4,0-20
				c2-5.7,6.8-8.7,13.3-8.6c6.2,0.1,10.8,3.1,12.8,8.6C364.5,549.6,364.7,553.2,364.7,555.8z"/>
			<path class="st15" d="M423,555.8c0-3.3,0-6.6,0-9.9c0-7.9,0-7.9,7.9-7.6c10.7,0.4,16.5,6.6,16.6,17.7
				c0.1,11.1-6.1,18.1-16.6,18.6c-7.9,0.4-7.9,0.4-7.9-7.6C423,563.2,423,559.5,423,555.8z"/>
			<path class="st15" d="M280,414c0-4.9,0-9.7,0-14.6c0-1.8-0.2-3.5,2.4-3.5c6.7,0,13.8-0.8,18.4,5.8c4.6,6.6,4,14.1,1.6,21.2
				c-2.2,6.6-15.5,12-21.2,9.2c-1.6-0.8-1.3-2.2-1.3-3.5C279.9,423.7,280,418.8,280,414z"/>
			<path class="st15" d="M336.7,484.6c-0.2,12.8-5.1,19.1-14.1,19.3c-6.8,0.2-12-3.5-14-10.3c-1.7-5.5-1.7-11.2-0.1-16.8
				c2.2-7.5,7.5-11.1,15.5-10.5c6.5,0.5,11.2,5.1,12.3,12.3C336.7,481.1,336.7,483.5,336.7,484.6z"/>
			<path class="st14" d="M496.3,609.6c4.9,0.2,8.9-0.1,11.1,4.4c2.5,5-0.1,10.9-5.4,12.3c-1.8,0.5-3.7,0.4-5.5,0.7
				c-4.2,0.6-6.4-0.8-5.6-5.6c0.3-1.7,0.2-3.5,0-5.2C490.1,610.7,491.9,608.3,496.3,609.6z"/>
			<path class="st14" d="M384.9,546.9c1.2-3.2-2.9-9.4,5.3-8.8c8.6,0.5,12.2,2.5,12.4,8.4c0.2,6.3-3.7,8.8-12.2,9.4
				C382.4,556.4,385.7,550.7,384.9,546.9z"/>
			<path class="st14" d="M538.4,416.8c2.2-6.2,4.2-12.1,6.6-18.9c2.4,6.7,4.4,12.5,6.7,18.9C547.1,416.8,543,416.8,538.4,416.8z"/>
			<path class="st14" d="M284.2,611.8c2,5.7,3.8,10.7,5.7,15.8c0.9,2.3,0.5,3.3-2.2,3.5c-10.3,0.8-10.8,0.3-7.1-9.7
				C281.7,618.4,282.8,615.4,284.2,611.8z"/>
			<path class="st16" d="M243.8,540.3c2.1,6,4,11.4,6,16.8c0.8,2.1-0.1,2.8-2,2.8c-2.6,0-5.2,0-7.9,0c-2.4,0.1-2.9-0.9-2-3.2
				C239.9,551.5,241.7,546.2,243.8,540.3z"/>
			<path class="st16" d="M476,540.5c2.2,6.2,3.9,11.2,5.8,16.2c1.1,2.9,0,3.4-2.4,3.2c-0.2,0-0.4,0-0.6,0c-10,0.4-10,0.4-6.6-9.3
				C473.3,547.6,474.5,544.7,476,540.5z"/>
			<path class="st17" d="M477.3,95.7c0-2,0-3.9,0-5.9c0.1-2.4-0.7-5.3,3.3-5.2c3.4,0.1,6.1,0.9,6.3,4.9c0.2,3.9,0.2,7.8,0.1,11.7
				c-0.1,4.2-2.7,5.6-6.4,5.6c-4.4,0-3.2-3.3-3.3-5.8C477.2,99.2,477.3,97.4,477.3,95.7z"/>
			<path class="st17" d="M486.1,65.5c-0.3,3,0.6,5.9-1,8.3c-1.3,2-3.4,2.2-5.5,2c-2.8-0.3-2.2-2.6-2.2-4.5c-0.1-3.7,0-7.4,0-11.1
				c0-2.1-0.4-4.6,2.8-4.5c2.6,0,5,0.7,5.6,3.7C486.1,61.5,486,63.7,486.1,65.5z"/>
			<path class="st17" d="M504.3,162.1c0-2-0.1-3.9,0-5.9c0.1-2-0.5-4.5,2.8-4.6c2.7,0,5.2,0.7,5.4,3.8c0.4,4.6,0.3,9.4,0,14
				c-0.2,3-2.5,4.1-5.3,4.1c-3.6,0-2.9-2.8-2.9-5C504.2,166.4,504.3,164.2,504.3,162.1z"/>
			<path class="st18" d="M408.6,81.2c0-6.6-0.1-13.3,0-19.9c0-2.2-1.2-5.6,2.9-5.5c3.4,0.1,6.5,0.9,6.9,5.2c0.2,1.9,0.2,3.9,0.2,5.9
				c0,10.8,0,21.5,0,32.3c0,3.1-0.5,5.9-3.7,7.1c-4.3,1.7-6.3,0.4-6.3-4.4C408.5,94.9,408.6,88.1,408.6,81.2z"/>
			<path class="st17" d="M384.5,66c-0.2,2.9-0.1,5.3-0.5,7.6c-0.5,3.3-2.9,4.2-5.8,4.1c-3.3-0.1-2.4-2.8-2.5-4.8
				c-0.1-4.3-0.1-8.6,0-12.8c0-1.8-0.6-4.3,2.3-4.4c2.5-0.1,5.1,0.3,5.8,3.4C384.4,61.6,384.3,64.1,384.5,66z"/>
			<path class="st18" d="M640,80.7c0-6.7-0.1-13.3,0-20c0-1.9-1-4.7,2.3-5c2.7-0.2,5.4,0.2,6.7,3.1c0.7,1.5,0.9,3.4,0.9,5.1
				c0.1,11.4,0,22.7,0,34.1c0,2,0,3.9-1.1,5.7c-1.6,2.7-4.3,3.2-6.9,2.8c-3.1-0.5-1.9-3.4-1.9-5.3C639.9,94.4,640,87.6,640,80.7z"/>
			<path class="st2" d="M341.7,80.8c0-6.3-0.1-12.5,0.1-18.8c0.1-3.3,0.9-6.5,4.9-6.6c4.2-0.1,5.4,3.2,5.4,6.7
				c0.1,12.7,0.1,25.4,0,38.2c0,3.3-1,6.4-5,6.6c-4.4,0.2-5.2-3.2-5.3-6.7C341.5,93.8,341.7,87.3,341.7,80.8z"/>
			<path class="st17" d="M576.9,70.7c1.1,7,2.4,13.9,3.1,20.9c0.4,3.5-2.8,2.2-4.6,2.4c-2.6,0.3-3.1-1.3-2.8-3.6
				c0.9-6.5,1.8-12.9,2.6-19.4C575.9,70.9,576.4,70.8,576.9,70.7z"/>
			<path class="st17" d="M258.9,69.4c1.1,7.1,2.1,14.2,3.2,21.3c0.6,3.9-2.1,3.3-4.3,3.4c-2.7,0.1-3.5-0.8-3-3.8
				c1.2-6.9,2-13.9,2.9-20.8C258.1,69.4,258.5,69.4,258.9,69.4z"/>
			<path class="st17" d="M447.4,67.6c1.3,8.8,2.5,16.1,3.5,23.4c0.5,3.5-2,3-4,3c-1.9,0.1-4,0.1-3.5-3
				C444.8,83.8,444.9,76.3,447.4,67.6z"/>
			<path class="st17" d="M345.2,164.8c1,7.1,1.8,14.3,3,21.3c0.5,3-0.4,4-3.1,3.8c-2.2-0.1-4.9,0.6-4.3-3.3
				c1.1-7.3,2.1-14.5,3.2-21.8C344.4,164.9,344.8,164.9,345.2,164.8z"/>
		</g>
	</g>
</g>
<path class="st19" d="M792,63c0,221.3,0,442.7,0,664c-0.7,1.7-1.5,3.3-2.1,5c-9.6,27.1-28.1,45.5-55.5,54.9
	c-5.2,1.8-10.6,2.8-15.9,4.1c-215.6,0-431.3,0-646.9,0c-0.9-0.3-1.8-0.8-2.8-1c-17.7-2.9-33-10.5-46.1-22.8
	C12.3,757.6,5.4,745.8,0,733C0,507.7,0,282.3,0,57c0.5-1,1.1-2,1.6-3.1C9.3,34.5,22.5,19.7,40.8,9.5C47,6.1,53.9,3.8,60.5,1
	c223,0,446,0,669.1,0c1.2,0.6,2.3,1.3,3.6,1.7c22.1,6.9,38.7,20.6,50.1,40.4C786.8,49.4,789.1,56.3,792,63z M11.2,200.9
	c0,1,0,2.1,0,3.1c0,24.6,0,49.3,0,73.9c-0.1,20.6-0.2,41.2-0.2,61.8c0,32.4,0.1,64.8,0.2,97.2c0,22.3,0,44.7,0,67
	c-0.1,1.8-0.2,3.7-0.2,5.5c0,51.5,0,103,0,154.5c0,2.7,0.1,5.3,0.2,8c0,3.1,0,6.1,0,9.2c-0.1,8.8-0.5,17.7-0.1,26.5
	c0.9,20.8,10.1,37.5,26,50.9c9.9,8.9,21.7,14.4,34.8,16.3c8.9,1.3,18,1.2,27.1,1.2c39.2,0.1,78.4-0.1,117.7-0.1c3-0.7,6-1.3,9.1-2
	c1.6,0.7,3.1,2.1,4.7,2.1c11.9,0.1,23.7,0,35.6-0.1c20.8,0,41.6,0,62.5,0c32.2,0,64.5,0,96.7,0c3.4,0,6.7,0,10.1,0
	c9.7,0,19.5,0,29.2,0c1.7,0,3.4,0,5.1,0c25.9,0,51.7,0,77.6,0c1,0.1,2,0.2,3,0.2c52.2,0,104.5,0,156.7,0c1.8,0,3.7-0.2,5.5-0.3
	c2-0.3,4-0.4,5.9-0.8c14.7-3,27.9-9,38.4-19.9c3.3-3.7,6.8-7.3,9.8-11.3c12.5-17.1,13.7-36.6,12.3-56.7c0-4,0-8.1,0-12.1
	c0-17.6,0-35.2,0-52.8c0.1-1.2,0.2-2.3,0.2-3.5c0-59.1,0-118.2,0-177.3c0-1.2-0.1-2.3-0.2-3.5c0.1-1.8,0.2-3.6,0.2-5.5
	c0-49.6,0-99.3,0-148.9c0-1.8-0.1-3.7-0.2-5.5c0-1.8,0.1-3.7,0.1-5.5c0-38.1,0.1-76.2,0.1-114.3c0-1.8,0.1-3.7,0.1-5.5
	c-0.1-25.8,0.4-51.5-0.6-77.3c-0.4-10.5-5.1-20.4-12.5-28.6c-1.4-2.2-2.4-4.6-4.2-6.5C745.4,22.5,724.8,14,700.4,14
	c-180,0.1-360,0-540,0.1c-27.3,0-54.6,0.8-81.9,0.9C65.8,15,54.7,19.3,44.4,26.1c-3.3,2.1-6.4,4.7-9,7.5c-4.7,5-9,10.3-13.5,15.5
	c-7.1,10.4-11.5,21.8-11.5,34.3c-0.1,25.6,0.5,51.1,0.8,76.7C11.2,173.6,11.2,187.3,11.2,200.9z"/>
</svg>
