<?xml version="1.0" encoding="utf-8"?>
<!-- Generator: Adobe Illustrator 26.2.1, SVG Export Plug-In . SVG Version: 6.00 Build 0)  -->
<svg version="1.1" id="Layer_1" xmlns="http://www.w3.org/2000/svg" xmlns:xlink="http://www.w3.org/1999/xlink" x="0px" y="0px"
	 viewBox="0 0 792 792" style="enable-background:new 0 0 792 792;" xml:space="preserve">
<style type="text/css">
	.st0{fill:#FAFAE8;}
	.st1{fill:#D6CA96;}
	.st2{fill:#FDE3D3;}
	.st3{fill:#F4F6E2;}
	.st4{fill:#E5E8D4;}
	.st5{fill:#9E9E85;}
	.st6{fill:#BABE7F;}
	.st7{fill:#D3D5C3;}
	.st8{fill:#F7A78D;}
	.st9{fill:#F0DBC1;}
	.st10{fill:#694454;}
	.st11{fill:#FAE5D2;}
	.st12{fill:#E86C4B;}
	.st13{fill:#F4845C;}
	.st14{fill:#894340;}
	.st15{fill:#482837;}
	.st16{clip-path:url(#SVGID_00000165917175136472635760000010947845051262423468_);}
	.st17{fill:#CBAFD2;}
</style>
<path class="st0" d="M675.5,791h-560C51.7,791,0,739.3,0,675.5v-560C0,51.7,51.7,0,115.5,0h560C739.3,0,791,51.7,791,115.5v560
	C791,739.3,739.3,791,675.5,791z"/>
<path class="st1" d="M649.9,255.6c5.5,0.2,11.2-1.5,16.5,1.6c3.2,1.8,3.2,3.4,0.8,5.8c-2.9,3-6.4,5.3-9.5,8
	c-2.2,1.9-5.8,4.4-4.4,7.1c1.6,3,5.8,2.5,9.2,1.5c7-2,12.8-6.3,19.6-8.8c12.5-4.7,23.5-1.9,34.2,4.7c2.4,1.5,2.9,5,6.1,5.7
	c0,1.9,0,3.8,0,5.7c-3.5,2-7.4,2.6-11.4,2.9c-5.6,0.5-11.2,1.2-16.7,2.1c-1.7,0.3-4.3,0.8-4.4,3c-0.1,1.8,2.1,2.7,3.7,3.2
	c9.6,2.4,19.2,4.6,28.8,6.8c0,1.9,0,3.8,0,5.7c-0.6,0.2-1.3,0.3-1.7,0.7c-8.6,9.5-19.7,7.1-30,5.1c-5.7-1.1-11.1-0.9-16.7-0.7
	c-1.5,0.1-4.2,0.8-4.6,2.8c-0.5,2.5,1.9,3.3,3.8,4.2c1.8,0.8,3.5,1.7,5.4,2c9.3,1.6,18.4,4.1,27.8,5.2c2,0.2,5.1,0.7,6,3
	c1.1,2.9-1.1,5.1-3.1,7c-6.2,6-13.9,7.9-22.1,6.3c-8-1.6-16.1-2.6-24.1-3.9c-4.1-0.7-8.4-0.3-12.5,0c-1.5,0.1-3.4,0.7-3.4,2.8
	c0,1.5,1.2,2.8,2.7,3c3.3,0.4,6.2,2.2,9.6,2.6c10.3,1.3,20.6,3,30.8,4.9c7,1.3,8.3,4.8,4.3,10.7c-3.6,5.1-8.7,7.5-14.9,8.2
	c-8.5,0.9-16.5-2.6-24.9-2.1c-0.4-0.5-0.7-1.3-1.2-1.4c-9.3-1.3-18.4-4.3-28.1-3c-0.6,0-1.3,0-1.9,0c-1.7,0.2-3.9-1.2-4.7,1.6
	c-0.6,2.4,1.5,3.1,2.9,4.2c0.4,0.4,1.2,0.4,1.7,0.6l0,0c0.3,0.3,0.7,0.6,1,0.9c1.3,0,2.6,0,3.9,0c0.3,0.5,0.6,1.4,1,1.5
	c9.9,2.3,19.7,5.5,30,5.1c1.8,1.5,4,1.7,6.3,1.9c3.7,0.4,7.2,1.1,10.7,2.5c3.8,1.5,4,3.7,2,6.6c-0.9,1.3-1.9,2.5-3.1,3.5
	c-5.8,5.2-12.9,7.2-20.6,7.6c-1.7-0.6-2.1,1.1-3.1,1.7c-0.6-0.1-1.2-0.2-1.8-0.3c-1-2.7-3.2-1.5-5.1-1.5c-3.8-0.4-7.7-0.8-11.5-1.3
	c-4-2-8-3.7-12.6-3.8c-1-1.3-2.4-1-3.7-1.1c-0.9-2.6-3.2-1.5-5-1.7c-6.1-2.9-12.5-3.7-19.2-2.2c-1.5,0.4-3.5,0.1-3.8,2.2
	c-0.3,2.3,1.6,3.5,3.3,4.2c4.4,1.7,8.9,3.6,13.8,3.4c4.3,2.2,8.6,4.2,13.7,3.5c1.3,0.1,2.5,0.2,3.8,0.4c4.1,1.2,8.1,3.4,12.6,2.6
	c1.7,0.3,2.7,2.1,4.7,2c3.9-0.3,7,1.8,10.3,3.3c3.5,1.6,4.5,4.3,2.3,7.7c-0.7,1.1-1.3,2.1-2,3.2c-2.8,0.8-5.1,2.4-6.7,4.8
	c-1,0.1-1.9,0.2-2.9,0.2c-8.8,2.6-17.8,4.1-27.1,4.7c-8.6,0.5-16.7-2.6-25.2-1.9c-6.8-0.4-13.2-3.3-20.1-3.1
	c-2.7-2.4-5.6-4.7-8.1-7.3c-7.6-7.8-16.2-14.5-23.1-22.9c1.6-2.6,3.2-5.1,4.7-7.7c11.6-21.5,25.3-41.4,44.6-57.2
	c14.3-11.7,29.6-21.1,46.6-28.3c9-3.8,18.4-6.7,27.5-10.5c-4,0.2-8,0.7-11.8,1.7c-15.4,3.9-29.8,10-43.9,17.2
	c-13.7,7-26.3,15.6-37.4,26.1c-11.3,10.7-19.2,23.8-27.6,36.5c-3.4,5.1-4.9,11.2-9.6,15.5c-6.9-6.4-15.5-11.2-18.3-21.3
	c-2.5-8.8-5.7-17.5-8.6-26.2c2.7-4.2,1.7-9.5,4.2-13.8c1.1-2,1.6-4,4.4-4.2c3.2-0.3,4.5,2.1,5.7,4.3c2.4,4.2,4.3,8.8,7,12.8
	c1.7,2.6,2.6,7.8,7.1,6c4.3-1.7,2.3-6.2,1.7-9.7c-1.2-7.9-4-15.6-3.1-23.7c1.1-9.5,4.2-18.2,11.9-24.7c4-3.4,6.4-2.9,9.6,1.8
	c0.9,4.4,1.7,8.9,2.8,13.3c1,3.9,1.9,7.9,3.6,11.5c2.1,4.6,5.8,4.7,8.1,0.3c3.3-6.1,2-12.7,0.7-19.2c0-0.2-0.6-0.3-0.8-0.4
	c0-2.4,0-4.9,0-7.3c2.8-1.1,1.8-3.9,2.7-5.8c3.9-7,8.7-13.1,16.5-16.3c1.6,0.1,3.3,0.1,4.9,0.2l0,0c0,8.2,0,16.4,0,24.6
	c0,1.6,0.1,3.2,2.2,3.7c2.1,0.5,2.8-1.1,3.5-2.5c0.5-1.1,1-2.4,1-3.6c0.2-6.4,1.5-12.8,1.1-19.3c0-0.6,0.1-1.2,0.1-1.8
	c2.9-3.2,5.8-6.4,8.8-9.6c4.8-0.6,9-4.5,14.3-2.8c1.5,3,0.9,6.3,1.3,9.4c-0.1,3.8-1.7,7.4-1.2,11.2c0.2,1.2,0,2.6,1.7,2.9
	c1.3,0.2,2.6,0.1,3.5-1c2.1-2.4,3-5.1,2.7-8.3c2.7-1.1,2.6-3.4,2.8-5.7c2.4-4.2,5.2-8.1,9.6-10.6C645.2,257,648.4,258.4,649.9,255.6
	z"/>
<path class="st2" d="M493.1,604.3c-12.6,0.6-25.3,1.9-37.8,3.5c-11.6,1.5-23,0.3-34.4,1.5c-18.8,1.8-37.7,0.9-56.5,0.7
	c-12.9-0.2-26,0.7-38.5-1.3c-9-1.4-18.2,0.5-27-3c-3.5-1.4-7.7-0.9-11.4-0.8c-7.6,0.1-15-1.5-22.3-2.7c-8.9-1.5-17.9-1.6-26.8-3.9
	c-5.3-1.4-11-2.8-16.7-3.1c-7.6-0.5-14.9-2.8-22.3-4.1c-10.3-1.8-20.1-5.3-30.3-7.1c-11.6-2-22.7-5.7-34-8.4c-8.5-2-16.9-5-25.3-7.7
	c-8.3-2.7-16.6-5.2-24.8-8c-5.1-1.7-10.1-3.6-15.4-4.7c0-3.5,0-7,0-10.4c12.6-0.1,25.2-0.1,37.8-0.2c1.3,0,2.7,0,4,0
	c7.3,0.1,14.6,0,21.9,0.3c4,0.1,4.4-1.5,3-4.6c1-1.7,1.1-3.6,1.1-5.5c0.1-11.9-0.5-23.9,0.9-35.8c0.1-1.1-0.3-2.8,0.8-3
	c4.8-1,1.9-3.3,1.2-5.3c3.3,0,6.5,0,9.9,0c-0.3,1.9-1.6,1.7-2.4,2.1c-1.3,0.6-2.9,1-2.5,2.9c0.4,1.7,1.9,1.4,3.1,1.5
	c0.8,0,1.6,0,2.4,0c1.1,2.1,3,2.7,5.2,3c6.6,0.9,8.3,2.8,8.5,9.4c0.1,2.5-0.5,5.5,2.9,6.7c2.8,13.6,10,24.2,22.3,31.3
	c-0.2,1.9-1.4,3-3.2,2.7c-4.2-0.6-7.6,1.9-11.6,2.5c-2.6,0.4-7.1,1.4-7,4.6c0.1,2.7,4.1,3.7,7.1,4.4c9.2,2.4,18.5,4.1,28.1,5
	c17.3,1.8,34.5,4.5,52,4.4c1.9,0,3.8-0.2,5.7,0.6c1.2,0.5,2.5,0.6,3.5-0.7c1.6,0.1,3.2,0.2,4.8,0.3c1.2,2.6,2.9,1.9,4.8,0.9
	c1.6,0.1,3.1,0.1,4.7,0.2c0.4,2.5,0.7,4.9-1,7.2c-1.5,2.1-0.1,3.9,1.2,5.5c1.2,1.6,3,1.5,4.3,0.7c5.2-3.4,11.3-3.9,17.1-5.1
	c3-0.6,5-1.9,5.9-4.7c5.7-0.5,11.3,0.3,16.9,0.5c41.8,0.9,83.5,2.2,125.3,2.1c1.9,0.1,3.9,0.3,5.8,0.1c5.9-0.5,11.2,1.3,15.6,4.9
	C477.6,590.5,485.3,597.5,493.1,604.3z"/>
<path class="st2" d="M722.4,552.4c-8.3,2.6-16.5,5.6-24.6,8.7c-6.1,2.4-12.7,3.9-19.1,5.5c-6.8,1.7-13.4,4.1-20,6.1
	c-7.4,2.3-15,3.9-22.5,6c-11.6,3.3-23.6,5.5-35.4,8.2c-10.5,2.4-21.1,3.8-31.5,6.4c-9.3,2.3-18.9,2.3-28,4.8
	c-8.3,2.3-17.2,1.3-25.2,4.5c-0.9-1.8-2.2-3.6-1.9-5.7c0.9-7.2-3.2-11.7-8.3-16c-2.4-2-5.6-3.3-6.5-6.6c0.6-0.9,1.5-1,2.5-1.2
	c10.2-1.3,20.4-2.2,30.7-1.7c9.9,0.5,19.5-3.2,29.5-2.1c0.4,0,0.9-0.2,1.4-0.3c10-2.8,20.6-1.7,30.7-4.1c5.9-1.4,11.8-2.7,17.3-5
	c3.1-1.3,2.8-2.9,0.3-4.7c-4.3-3.1-9.5-3.8-14.3-4.4c-8.5-1.1-16.7-4.1-25.4-3.1c-2.1,0.2-2.9-1-2.8-2.9c5.3-2.2,10.6-4.3,15.8-6.7
	c16.2-7.5,27.2-21,20.8-40.5c0.3-1.2-0.1-2-1.4-2.2c-0.1-0.6-0.2-1.2-0.3-1.7c0.6,0.1,1.4,0,1.9,0.2c7.4,3.6,15.3,2.3,23.1,2.5
	c1.1,0,2.4-0.2,2.6-1.6c0.2-1.1-0.7-1.6-1.6-2c-0.7-0.3-1.6-0.4-1.3-1.6c2.1-0.9,4.4-0.2,6.6-0.4c2.1-0.2,4.7-0.4,4.9-2.7
	c0.2-2.4-2.6-1.6-4.1-2.2c-0.4-0.1-0.8-0.5-0.2-1.7c2.6,0,5.6,0,8.6,0c1.8,3.9,5.3,1.1,7.9,2c2.1,7.6,4.3,15.2,7.8,22.4
	c1.7,3.4,4.1,6.7,3.9,10.8c-5,0-10,0.1-15-0.1c-3.4-0.1-6.3,1.1-8.9,3c-5.7,4.3-9.5,10.1-11.7,16.8c-0.8,2.5,0.4,3.9,3.1,3.9
	c17.8,0.3,35.4,3.7,53.3,3c12.4-0.4,24.8-0.1,37.2-0.2C722.4,547.9,722.4,550.1,722.4,552.4z"/>
<path class="st0" d="M654.8,403.7c7.7-0.4,14.8-2.5,20.6-7.6c1.2-1,2.2-2.2,3.1-3.5c2-2.9,1.7-5.1-2-6.6c-3.5-1.4-7.1-2.1-10.7-2.5
	c-2.2-0.3-4.5-0.4-6.3-1.9c-0.5-2.1-2.5-3.2-3.5-4.9c-0.9-1.4-3.2-2.6-1.2-4.7c8.4-0.5,16.4,3,24.9,2.1c6.3-0.7,11.4-3,14.9-8.2
	c4.1-5.9,2.8-9.4-4.3-10.7c-10.2-1.9-20.5-3.5-30.8-4.9c-3.4-0.4-6.3-2.2-9.6-2.6c-1.5-0.2-2.7-1.4-2.7-3c-0.1-2,1.9-2.7,3.4-2.8
	c4.2-0.2,8.5-0.7,12.5,0c8,1.3,16.1,2.4,24.1,3.9c8.2,1.6,16-0.3,22.1-6.3c1.9-1.8,4.2-4.1,3.1-7c-0.9-2.3-4-2.8-6-3
	c-9.4-1.1-18.5-3.6-27.8-5.2c-1.9-0.3-3.6-1.2-5.4-2c-1.9-0.8-4.3-1.6-3.8-4.2c0.4-2,3-2.8,4.6-2.8c5.5-0.3,11-0.4,16.7,0.7
	c10.4,2,21.4,4.4,30-5.1c0.4-0.4,1.1-0.5,1.7-0.7c0,39.2,0,78.4,0,117.6c-9.2,1.6-16,7.3-23.2,12.4c-1.9,0-3-0.7-3-2.8
	c0-1.6-0.1-3.2-0.5-4.7c-3.1-12.3-10.9-22-19.3-31.2c-0.5-0.6-1.2-1.3-2-0.6c-0.9,0.8-0.3,1.7,0.3,2.5c3.4,4.2,7,8.2,10.2,12.5
	c6.5,8.7,10.1,18.3,9.6,29.2c-1.1,2.1-2.2,4.1-3.3,6.2c-5.5,10.8-6.3,22.9-9.7,34.2c-0.6-0.9-1.2-1.9-1.8-2.8c0-7.9,0-15.8,0-23.7
	c1.4-1.4,0.3-1.7-0.9-1.9c-0.1-3.9-1-7.6-1.6-11.4c-1.5-9.3-5.4-17.4-11-24.6c-2.6-3.3-3.7-8.3-8.8-9.5l0,0
	C657.6,408.9,653.7,407.1,654.8,403.7z"/>
<path class="st3" d="M722.4,38.2c-90.3,0-180.6,0-270.8-0.1c-3.4,0-5.9,0.6-7.2,3.9c-4.5-6.6-8.5-13.5-14.5-19.1c0-0.3,0-0.6,0-0.8
	c2.2-1.4,4.7-0.9,7.1-0.9c95.1,0,190.3,0,285.4,0C722.4,26.8,722.4,32.5,722.4,38.2z"/>
<path class="st4" d="M722.4,21.1c-95.1,0-190.3,0-285.4,0c-2.4,0-4.9-0.4-7.1,0.9c-3.6-3.2-7.2-6.3-10.7-9.5c-1-0.9-3-1.4-2.4-3.2
	c0.6-2,2.6-1.5,4.1-1.5c0.8,0,1.6,0,2.4,0c99.7,0,199.4,0,299,0C722.4,12.3,722.4,16.7,722.4,21.1z"/>
<path class="st5" d="M681.6,485.9c3.4-11.4,4.2-23.4,9.7-34.2c1.1-2.1,2.2-4.1,3.3-6.2c1.5-1.7,3.1-3.3,4.6-5
	c7.2-5.1,14-10.8,23.2-12.4c0,9.8,0,19.6,0,29.4c-5.6,6.2-11.4,12.2-18.9,16.2c-1.1,0.6-2.3,1.3-2.4,2.7c-1.2,0.2-1.8,0.8-1.8,2
	c-1.1,0.5-1.2,1.5-1.2,2.6c-2.7,2.7-4.8,5.7-4.8,9.7c0,0.5-0.1,1.1-0.1,1.6c-1.6,0.6-1.8,1.8-1.4,3.2c0,0.9-0.1,1.8-0.1,2.8
	c-0.2,1.5-0.7,3.3,0.7,4.4c1.2,1,2.3,3.9,4.2,0.6c4.8-2.8,6.6-7.9,9.4-12.2c4.2-6.7,8.7-13.2,16.5-16.5c0,8.5,0,17.1,0,25.6
	c-7.9,2.8-14.7,7.6-20.9,12.9c-5.2,4.5-11.1,8.5-13.2,15.5c-1.7,0-3.2,1.6-5,0.3c-5.8-4.2-12.3-7.1-18.9-9.7
	c0.3-4.1-2.2-7.4-3.9-10.8c-3.5-7.2-5.7-14.8-7.8-22.4c0-6.6,0.1-13.1,0.1-19.7c2.5-1.3,1.6-5.1,4.7-6.1c1.3,0.1,2.6,0.1,3.9,0.2
	c4.8,3.4,8,8.1,10.3,13.4c0.1,1.4,0.3,2.8,0.3,4.2c-0.1,5.6,0.5,11.3-0.8,16.9c-0.4,1.8-0.3,4.2,1.8,4.9c1.9,0.6,3-1.2,4-2.7
	C679.3,493.6,681.6,490.2,681.6,485.9z"/>
<path class="st6" d="M111.4,544.5c-1.3,0-2.7,0-4,0c-1-6.8-3.5-13.2-5.5-19.7c-1.6-5.2-4.8-7.8-10-8.6c-0.4-2.4-2.7-2.8-4.3-3.9
	c-6.1-3.9-12.3-7.5-17.9-12.2c0-7.9,0-15.8,0-23.7c1.7-0.3,2.5,0.9,3.6,1.9c4.2,3.9,8.6,7.7,13.8,12.3c-2.5-11.4-6.1-20.3-17.4-23.7
	c0-8.5,0-17.1,0-25.6c2.1,4,4.3,8,6.4,12c-1.9-20.2-0.6-40.3,0.2-60.7c5.8,5.7,8,13.2,11,20.2c-0.2,1.3,0.5,1.9,1.6,2.3
	c0,0.8,0,1.6,0.1,2.4c-1,1.3-0.1,1.8,1,2.2c0.1,1.5,0.2,3,0.4,4.5c0.2,2.4-1.3,5.1,1.6,6.8c0,2.1,0,4.3,0,6.4
	c-2.6,10.1-3.3,20.7-8.3,30.2c-0.7,1.3,0.2,2.6,0.9,4c2.6,5.2,5.6,10.3,7.4,15.7c2.4,7.3,6.8,13.8,8.4,21.4c0.1,0.6,1.2,1.1,2.1,1.9
	c-0.9-10.2-3-19.8-3.1-29.5c0.3-1.6,0.9-3.3-0.6-4.7c0-11.1,0-22.2,0-33.3c1.6-1.7,0.9-3.7,0.6-5.7c0.1-2.2,0.2-4.4,0.3-6.6
	c0.1-1.5,0.2-3,0.3-4.5c3.6,2.5,3.8,7.2,6.8,10.2c-0.1,1.3,0.6,1.9,1.7,2.3c0.5,1.4,0.9,2.9,1.4,4.3c-0.2,1.2,0.4,1.9,1.6,2.3
	c0.1,0.5,0.1,1,0.2,1.5c-0.1,1.2,0.7,1.9,1.7,2.4c-0.5,2,0.8,3.5,1.3,5.2c0,0.3,0,0.7,0,1c0.3,3,1.7,5.7,2.9,8.4
	c0.1,1,0.2,1.9,0.3,2.9c-0.5,1.1,0,1.8,1.1,2.3c1,14.8,1,29.4-4.3,43.6c-1,2.8-3.1,5.6-1.9,9c-4.5,1.5-3.8,5.1-3.6,8.5
	C108.9,535.2,113.2,539.3,111.4,544.5z"/>
<path class="st3" d="M322.4,31.6c-2.2-2.1-4.9-1.9-7.7-1.9c-81.7,0-163.4,0-245.1,0c0-3.8,0-7.6,0-11.4c84.8,0,169.6,0,254.4,0
	c2.8,0,5.5,0.1,8.1,1c0,0.6-0.1,1.2-0.1,1.7C327.2,23.2,326.5,28.8,322.4,31.6z"/>
<path class="st4" d="M332,19.2c-2.6-0.9-5.3-1-8.1-1c-84.8,0-169.6,0-254.4,0c0-3.5,0-7,0-10.4c89.2,0,178.3,0,267.5,0
	c1.8,0,3.6,0,5.3,0.4c1.4,0.3,3.2,1.4,0.7,2.7C338.9,13.2,336,16.8,332,19.2z"/>
<path class="st7" d="M722.4,7.8c-99.7,0-199.4,0-299,0c-0.8,0-1.6,0-2.4,0c-1.5,0.1-3.5-0.4-4.1,1.5c-0.6,1.8,1.5,2.3,2.4,3.2
	c3.5,3.3,7.1,6.4,10.7,9.5c0,0.3,0,0.6,0,0.9c0,0.7-0.1,1.4-0.1,2.1c-2.7-1.7-4.5-4.7-7.7-5.8C416.4,13,409.6,8,400.7,7.9
	c-15.2-0.3-30.3-0.1-45.5-0.2c0.3-0.5,0.5-1.3,1-1.5c14.2-4.7,28.6-4.5,43-1.1c1.8,0.4,3.4,1.4,5.7-0.4c-2.2-0.7-3.9-1.3-4.2-3.3
	c2.1-0.1,4.2-0.2,6.3-0.2c105.2,0,210.3,0,315.5,0C722.4,3.4,722.4,5.6,722.4,7.8z"/>
<path class="st7" d="M332,19.2c4-2.4,6.9-6.1,11-8.3c2.5-1.3,0.7-2.4-0.7-2.7c-1.7-0.4-3.5-0.4-5.3-0.4c-89.2,0-178.3,0-267.5,0
	c0-2.2,0-4.4,0-6.6c94.2,0,188.4,0,282.6,0c2.1,0,4.2,0.1,6.3,0.2c-0.3,2.4-2.6,2.4-4.1,3.3c-1,0.7-3.3,1.3-0.9,3.1
	c-1.3,0.8-2.7,1.6-4,2.5c-4.2,2.9-9.5,4.4-12.5,8.9c-1.6,0.7-3.1,1.4-4.7,2.1c0,0-0.3-0.3-0.3-0.3C332,20.4,332,19.8,332,19.2z"/>
<path class="st1" d="M664.4,519.1c6.6,2.6,13.1,5.5,18.9,9.7c1.8,1.3,3.3-0.3,5-0.3c1.1,0,2.4,0.2,3.3-0.2c7.2-2.9,14.3-2,21.4,0.1
	c3.1,0.9,5.8,3.4,9.4,2.9c0,4.7,0,9.5,0,14.2c-12.4,0-24.8-0.3-37.2,0.2c-17.9,0.6-35.5-2.7-53.3-3c-2.8-0.1-4-1.4-3.1-3.9
	c2.2-6.7,6-12.5,11.7-16.8c2.6-2,5.5-3.1,8.9-3C654.4,519.2,659.4,519.1,664.4,519.1z"/>
<path class="st5" d="M91.8,516.2c5.2,0.8,8.4,3.4,10,8.6c2,6.5,4.5,12.9,5.5,19.7c-12.6,0.1-25.2,0.1-37.8,0.2c0-2.2,0-4.4,0-6.6
	C73.7,527.7,80.1,519.3,91.8,516.2z"/>
<path class="st0" d="M358.4,1.4c-2.1-0.1-4.2-0.2-6.3-0.2c-94.2,0-188.4,0-282.6,0c0.2-0.3-0.5-1,0.5-1c1.3,0,2.6,0,3.9,0
	c214.7,0,429.4,0,644.1,0.1c1.4,0,3.3-1.1,4.4,0.9c-105.2,0-210.3,0-315.5,0c-2.1,0-4.2,0.1-6.3,0.2c-0.5,0-1.1,0-1.6,0
	c-0.4,0-0.8,0-1.2,0c-12.2,0-24.4,0-36.6,0c-0.4,0-0.8,0-1.2,0C359.5,1.4,359,1.4,358.4,1.4z"/>
<path class="st0" d="M722.4,531.5c-3.6,0.5-6.2-2-9.4-2.9c-7.2-2.2-14.2-3-21.4-0.1c-1,0.4-2.2,0.1-3.3,0.2c2.2-7,8-11.1,13.2-15.5
	c6.2-5.3,13-10.1,20.9-12.9C722.4,510.6,722.4,521,722.4,531.5z"/>
<path class="st3" d="M693.2,492.3c0-0.5,0.1-1.1,0.1-1.6c2.2,1.3-0.3,4.7,3.4,6.4c-2-6,2.3-10.7,1.4-16.1c0-1,0.1-2,1.2-2.6
	c1.2-0.1,1.8-0.8,1.8-2c0.2-1.5,1.4-2.2,2.4-2.7c7.5-4.1,13.3-10,18.9-16.2c0,5.7,0,11.4,0,17.1c-7.8,3.3-12.3,9.7-16.5,16.5
	c-2.7,4.4-4.5,9.4-9.4,12.2c-2.1-1.3-0.3-6.1-4.9-5c0-0.9,0.1-1.8,0.1-2.8C693.7,495,693.4,493.6,693.2,492.3z"/>
<path class="st3" d="M722.4,304.8c-9.6-2.3-19.2-4.5-28.8-6.8c-1.6-0.4-3.8-1.3-3.7-3.2c0.1-2.2,2.7-2.7,4.4-3
	c5.5-0.9,11.1-1.6,16.7-2.1c4-0.3,7.9-1,11.4-2.9C722.4,292.7,722.4,298.7,722.4,304.8z"/>
<path class="st3" d="M91.8,516.2c-11.7,3.1-18.1,11.5-22.2,21.9c0-12.6,0-25.3,0-37.9c5.6,4.6,11.8,8.3,17.9,12.2
	C89.1,513.4,91.4,513.9,91.8,516.2z"/>
<path class="st3" d="M69.6,467c11.3,3.4,14.9,12.3,17.4,23.7c-5.2-4.6-9.6-8.4-13.8-12.3c-1.1-1-1.9-2.1-3.6-1.9
	C69.6,473.3,69.6,470.1,69.6,467z"/>
<path class="st8" d="M499.5,574.3c0.9,3.4,4.1,4.7,6.5,6.6c5.1,4.3,9.2,8.8,8.3,16c-0.3,2.2,1,3.9,1.9,5.7c-0.4,7.5-1.4,7.9-8.3,4.4
	c-4.6-2.3-9.6-3-14.8-2.7c-7.8-6.8-15.5-13.8-23.5-20.5c-4.4-3.6-9.7-5.4-15.6-4.9c-1.9,0.2-3.8-0.1-5.8-0.1
	c-0.6-3.1-2.2-5.6-4.6-7.6c0.9-8-2.6-15.6-2.1-23.6c9.8,1,19.6,2.3,29.5,0.1c4.9-1.1,8.9,1,12.5,4.4c1.6,1.5,0.9,4.6,3.7,5.1
	C488.3,565,493.2,570.1,499.5,574.3z"/>
<path class="st9" d="M429.9,25c0-0.7,0.1-1.4,0.1-2.1c5.9,5.6,9.9,12.5,14.5,19.1c8.1,16.6,20.8,28.7,37.3,37.3
	c22.6,11.7,46,22.2,65.9,38.4c9.5,7.8,16.4,17.5,21.5,28.4c4.3,9.1,7.6,18.7,10.1,28.5c2.4,9.4,5.5,18.5,9.5,27.3
	c4.3,9.2,10.9,16.6,20.8,20.5c12.7,5.1,23.5,12.5,31.3,23.7c1.5,2.2,3.1,4.4,3.9,6.9c0.9,2.8,2.6,3.2,5.1,2.8
	c-1.5,2.8-4.7,1.4-6.8,2.7c-0.2-1.5,0-3.3-0.7-4.6c-6.3-12.4-15.7-21.6-28.9-26.8c-11.8-4.6-20.7-12.2-26.5-23.4
	c-7.1-13.8-9.7-28.9-14.7-43.4c-2.9-8.6-6.9-16.7-11.7-24.4c-6.8-11-16.9-18.6-27.5-25.8c-17.4-11.8-36.9-19.9-55.1-30.2
	c-12.9-7.3-23.9-16.5-31.6-29.2c-3.7-6.2-7.2-12.5-11.7-18.1C433.1,30,431.5,27.5,429.9,25z"/>
<path class="st6" d="M94.8,374c-3.7-2.8-8.5-3-12.3-5.7c-5.1-3.7-6.7-6.3-5.2-10.9c1-3,3.3-5.3,5.8-7.2c1.5-1,3.4-1.6,4.1-3.4
	c3.5-2,7-4,10.5-6c1.7,0.3,2.5-1.3,3.8-1.8c1.6-0.1,3.3-0.3,4.9-0.4c1.9,0.3,3.8,0.4,5.8-0.1c1.3,0.1,2.6,0.1,3.9,0.2
	c3.2,0.2,6.3,0.3,9.5,0.5c0.3,0.8,0.7,1.5,1.7,1.5c9.6,0.7,18.9,0.5,27.3-5.1c8.2-5.5,17.1-6.7,25.7-1.6c8.6,5.1,17.4,8.7,27.6,6.7
	c3.8-0.3,5.6,1.1,5.1,5.1c-0.2,1.5,0.3,3.1,0.5,4.6c0.7,5.4,3.7,10,5.3,15.2c-0.9-0.2-2-0.2-2.8-0.6c-9-4.7-18.7-7.2-28.6-9
	c-8.5-1.5-17.2-2.2-25.8-3.2c-17.7-2.2-35.4-0.9-53.1-1.2c-1.8,0-3.7,0.7-5.5,1.1c12.5-0.3,24.8,2.3,37.2,2.6
	c13.9,0.3,27.8,2.3,41.5,5c14.5,2.9,28.6,7.2,41.9,13.7c0.5,0.2,1,0.2,1.3,0.5c6.7,6.7,11.8,14.8,19.1,21c1.1,0.9,1.1,2.2,1.2,3.5
	c-4,5.7-9.6,9.8-14.8,14.4c-8,7.2-15.3,15-23.8,21.6c-0.7-0.3-1.6-1-2.1-0.7c-5,2.3-10.3,1.2-15.4,1.5c-1-2.4-3.2-1.7-5-1.9l0,0
	c-1.2-2-2.7-3.7-4.9-4.8c0-0.3-0.1-0.6-0.3-0.8c-2.4-3.4-2.9-7.9-6.5-10.5l0,0c-0.3-3-2-4.8-4.8-5.8c0,0,0,0,0,0
	c-2.3-4.9-7-5.6-11.8-6.2c-1,0-1.9,0-2.9-0.1c-2.3,0-4.5-0.1-6.8-0.1c-2.5-0.1-5-0.3-7.6-0.4c-0.6-1.6-1.7-1.8-3.2-1.2
	c-1.3-0.1-2.6-0.3-3.8-0.4c-0.7-1.1-1.8-0.9-2.9-1c-0.3-0.2-0.6-0.2-0.9-0.2l0.1,0c-0.2-1.1-0.9-1.7-2-1.6c-3.2-2.3-5.3-5.3-6.9-8.8
	c-3.5-7.6-8.1-14.2-17.1-16.4C100,372.9,97.2,374.4,94.8,374z"/>
<path class="st3" d="M99.1,481.2c0.2,9.7,2.3,19.3,3.1,29.5c-0.9-0.8-2-1.2-2.1-1.9c-1.6-7.6-6-14.1-8.4-21.4
	c-1.8-5.5-4.7-10.6-7.4-15.7c-0.7-1.3-1.6-2.7-0.9-4c5-9.5,5.7-20.1,8.3-30.2c1,0,2,0,3,0c3.2,1.1,1.7-1.5,1.9-2.5
	c0.3-1.8-0.5-4.3,2.8-4.1c-0.1,2.2-0.2,4.4-0.3,6.6c-2.3,1.7-1.8,3.6-0.6,5.7c0,11.1,0,22.2,0,33.3
	C97.3,478.3,96.9,479.9,99.1,481.2z"/>
<path class="st9" d="M114.1,236.4c2.8-4.4,7.2-7,11.7-9.3c13.2-6.7,27.1-11.9,41.1-16.9c12.6-4.5,24.7-10.4,34.1-20.3
	c0.5-0.5,1.4-0.6,2.1-0.9c0,0,0.1,0.1,0.1,0.1c-0.9,4.4-4.6,6.7-7.8,9.1c-10.4,8-22.9,12.2-35,16.9c-15,5.7-30.2,11-43.2,20.5
	C116.3,236.4,115.3,236.5,114.1,236.4L114.1,236.4z"/>
<path class="st9" d="M322.4,31.6c4-2.8,4.8-8.4,9.5-10.6c0,0,0.3,0.3,0.3,0.3c0.2,2-1,3.4-2.2,4.9c-1.9,2.2-4.1,4.3-4.7,7.3
	c-0.7,2.1-2.3,3.7-3.1,5.8c-2.3,6.4-4.3,13.1-7.7,19c-5.5,9.8-13.5,17.9-22.4,24.9c-3.1,2.5-6,5.7-10.5,6.3l-0.1-0.1
	c4.7-5.6,10.9-9.5,16.3-14.3c9.9-9,16.7-19.4,19.9-32.2C318.8,38.9,320.9,35.3,322.4,31.6z"/>
<path class="st9" d="M87.2,346.7c-0.7,1.9-2.6,2.5-4.1,3.4c0.1-2.9-0.9-5.5-2-8.1c-5.4-13.4-7.2-27.6-5.4-41.7
	c1.2-9.2,5-18.1,7.8-27.1c0.5-1.5,1.3-3.3,3.5-3.5c0,0,0,0,0,0c0.1,4.3-1.9,8.2-3.5,11.9c-4,8.7-4.7,18-6.1,27.2
	c-1.3,8.6,2,16.7,3.3,25C81.4,338.2,82.7,343.5,87.2,346.7z"/>
<path class="st9" d="M99.4,430.9c-3.3-0.2-2.5,2.3-2.8,4.1c-0.2,1,1.3,3.6-1.9,2.5c0.4-10.5,2.7-20.7,4.4-31
	c1.4-8.2,0.9-16.6-1.9-24.7c-0.9-2.6-1.7-5.3-2.5-7.9c2.4,0.4,5.2-1.1,7,1.7c-6.7,1.7-2,6-1.5,8.6c1.8,9,1.7,17.7-0.1,26.6
	c-1,5-2.1,10.4-0.6,15.6C99.6,428,99.5,429.5,99.4,430.9z"/>
<path class="st9" d="M235.2,119.7c1.2-5.4,6.5-7.1,10.2-10c7.7-6.1,16.7-10.3,25.3-15.1c0.9-0.5,2.2-0.3,3.3-0.4
	c0,0,0.1,0.1,0.1,0.1c-0.6,2.5-3,3.1-4.8,4.2c-6.7,4.1-14,7.1-20.5,11.7C244.1,113.3,240.7,117.9,235.2,119.7L235.2,119.7z"/>
<path class="st9" d="M87,269.6c-1-5.4,3.4-8.6,5.7-12.4c4.6-7.7,10.9-14,17.9-19.7c1.1-0.9,2.2-1.2,3.5-1.1c0,0,0,0,0,0
	c0,1.4-1,2.2-2.1,3c-8.4,7.1-15.7,15.1-20.9,24.9C90.2,266.2,90.1,269.2,87,269.6L87,269.6z"/>
<path class="st9" d="M212.9,171.9c-0.7-5.2,2.2-9.7,3.4-14.5c2-7.8,3.2-15.9,7.1-23.2c0.5-1,0.7-2.1,2.2-2.1c0,0,0,0,0,0
	c0,0.9,0.3,2-0.1,2.8c-3.8,9.5-5.4,19.6-8.3,29.4c-0.7,2.4-0.1,6.6-4.2,7.7L212.9,171.9z"/>
<path class="st9" d="M203.2,189c3-5.8,4.9-12.2,9.7-17.1c0,0,0.1,0.1,0.1,0.1c-0.1,6.5-4.5,11-7.6,16.1
	C205,188.7,204,188.8,203.2,189L203.2,189z"/>
<path class="st9" d="M225.5,132.1c0.4-4.3,5.9-11.4,9.6-12.4c0,0,0.1,0.1,0.1,0.1C233.2,124.8,229.4,128.5,225.5,132.1L225.5,132.1z
	"/>
<path class="st3" d="M91.8,431.1c-2.9-1.8-1.4-4.5-1.6-6.8C93.4,426,91.3,428.8,91.8,431.1z"/>
<path class="st9" d="M273.9,94.1c0.6-2.6,2.7-2.7,4.8-2.9c0,0,0.1,0.1,0.1,0.1C278.2,93.9,276.1,94.1,273.9,94.1L273.9,94.1z"/>
<path class="st9" d="M278.7,91.3c0.2-1.8,1.5-1.9,2.9-1.9c0,0,0.1,0.1,0.1,0.1c-0.1,1.8-1.5,1.9-2.9,1.9L278.7,91.3z"/>
<path class="st3" d="M88.8,415.2c-1.1-0.4-1.8-1.1-1.6-2.3C88.6,413.1,89,414,88.8,415.2z"/>
<path class="st3" d="M89.8,419.8c-1-0.4-2-0.9-1-2.2C89.8,418.1,89.9,418.9,89.8,419.8z"/>
<path class="st2" d="M553.1,295.3c-3.1-4.7-5.5-5.2-9.6-1.8c-7.7,6.5-10.8,15.2-11.9,24.7c-0.9,8.1,1.9,15.8,3.1,23.7
	c0.5,3.5,2.6,8-1.7,9.7c-4.5,1.8-5.4-3.4-7.1-6c-2.7-4.1-4.5-8.6-7-12.8c-1.2-2.1-2.5-4.5-5.7-4.3c-2.7,0.2-3.2,2.2-4.4,4.2
	c-2.5,4.4-1.5,9.6-4.2,13.8c-3.2-9.2-6.7-18.3-9.6-27.5c-3.9-12.4-7.8-24.7-14.8-35.9c-5.6-8.9-11.9-17-22.2-21.1
	c-13.5-5.3-26.8-10.6-38.7-19c-4.9-4-10-7.8-9.2-15.1c1.7-7.2,7.4-12.2,10.4-18.7c0.5-1.1,1.9-1,3-1.1c9.3-0.9,16.7-9.7,16-18.7
	c-0.4-5.1-2.3-6.9-7.4-7.1c-0.3-2.4,0.3-4.7,0.6-7c1.7-12.5,0.2-24.2-9.2-33.7c-2-2-2.4-3.7-1.2-6.1c4.3-9,0.6-16-5.5-20.8
	c-9.6-7.5-23.3-4.4-27.7,6.7c-1.7,4.2-4.6,5.2-8.3,5.7c-3.1,0.4-5.9,1.2-8.8,2.3c-11.7,4.4-26.9,16.8-25.6,35.1
	c0.3,5,0.4,10.1,0.6,15.1c0.1,0.3,0.2,0.6,0.4,0.9c0.2,1.3,0.5,2.6,0.7,3.9c-1.8-0.3-2.9,0.3-3.6,2.2c-3.9,9.7,5.4,23.6,14.9,23.4
	c2.5-0.1,3.8,0.6,5,3.2c2.1,4.5,4.7,8.8,8.6,12.2c-0.2,1.4-0.6,2.8-0.5,4.2c0.2,5.3-2.1,9.1-6.3,12.3c-5.6,4.3-11.3,8.5-17.5,12
	c-5.2,3-11.1,4.5-15.8,8.2c-8.8,2.7-16.7,6.8-22.9,13.6c-7.4,8.1-12.2,17.9-17.2,27.5c-4.6-2.9-5.2-7-4.4-12
	c2.5-15.3-1.7-29.2-16.9-36.3c-7.5-3.5-12.4-9.8-14.5-17.8c-1.8-7-4.6-13.2-11.8-16.5c-0.8-3.9,2.3-6.6,3.1-10.2
	c1.8-8.3,3.2-16.6,6.3-24.7c4.6-12,12.5-20.9,23-27.8c7.5-5,15.4-9.4,22.9-14.5c8.9-6,17.3-12.8,24-21.2c4.7-5.8,8.7-12.1,10.6-19.3
	c1.6-5.7,3.5-11.2,6.3-16.6c2.9-5.6,8-9.8,10.3-15.7c0,0,0,0,0,0c2.3,0.2,3.8-1.1,5.5-2.5c9.3-7.3,20-10.2,31.5-7.3
	c17.5,4.5,29.2,16.4,38.5,30.9c5.3,8.2,8.9,17.3,14.5,25.4c7.8,11.5,19.3,17.4,32,21.8c8.2,2.9,16.5,5.5,24.4,8.8
	c8,3.3,15.8,7.3,23,12.3c10.8,7.4,20.1,15.7,25.6,27.7c1.7,3.8,3,8.1,6.5,11c-0.3,8.8,4.6,16.4,6.1,24.8c1.2,6.9,4.1,13.5,6.5,20.2
	c2.2,6,5.2,11.5,9.8,16.4c3.5,3.7,8.2,5.9,11.5,9.8c0,0.6,0,1.1-0.1,1.7c-7.8,3.2-12.6,9.3-16.5,16.3c-3.8,0.6-2.6,3.6-2.7,5.8
	c0,2.4,0,4.9,0,7.3c-3,4.5-4.6,4.8-7.4,0.7C558.3,298.8,555.2,297.6,553.1,295.3z M368.6,94.3c-1.9,0.2-4.3-1.2-5.7,1.3
	c-1.5,2.6-0.7,4.9,1,7c1.7,2.1,2.9,3.6-1.5,4.4c-3.1,0.5-5.2,3.6-4,7c1.2,3.5,4.4,2.1,6.5,1.1c3.7-1.8,5.1-0.5,5.8,2.9
	c0.4,2,1.5,3.9,3.8,3.4c2.2-0.5,3.8-1.9,4-4.6c0.2-2.5-1.5-4-2.5-6.4c2.4,0.1,4.2-0.9,6.1-1.6c4-1.3,4.8-3.6,3.1-7.1
	c-0.2-1.2-0.6-2.2-1.9-0.8c-1,0-1.9,0-2.9,0c-0.1-2,0.4-4.5-3.1-3.3c-1.1,0.4-1.8-0.5-2.4-1.2C373.3,94.2,371.1,93.9,368.6,94.3z
	 M531.1,250.6c-0.9,7-1.7,7.6-8.3,6.6c-0.2,0-0.3-0.1-0.5-0.1c-2.4-0.8-4.8-0.3-5.8,1.9c-1.2,2.5,0.5,4.5,2.6,6
	c1.6,1.2,3.2,1.8,5.3,1.9c5.1,0.2,5.4,0.8,2.6,5c-1.4,2.1-1.5,4.2-0.1,6.2c1.3,1.8,2.8,4.1,5.2,3.6c2.3-0.4,3.2-2.9,4-5
	c2-5.8,2-5.9,8-3.3c1.8,0.8,3.6,1.6,5.4,0c1.9-1.8,1.8-4.1,0.9-6.2c-1.2-2.9-3.5-4.4-6.8-4.1c-1,0.1-2.4,0.4-3-0.9
	c-0.6-1.3,0.4-2.1,1.2-2.9c2.3-2.6,4-5.4,3.2-9c-0.4-1.7-1.2-3.4-3-4c-1.9-0.6-2.7,1-4,2c-2.3,1.9-2.6,5.4-5.5,6.8
	C530.9,253.9,532,252.2,531.1,250.6z M515.9,168.9c0.4-2.8-0.5-3.5-2.3-3.6c-2.3-0.2-3.8,0.8-4,3c-0.1,1.7,1.4,3.2,2.9,3.3
	C514.5,171.7,515.6,169.9,515.9,168.9z M327.1,252.2c-0.3-1.8-1.3-3-3-3.2c-1.8-0.2-3.2,1.1-3.3,2.7c-0.2,1.9,1.4,3.3,3.1,3.5
	C325.4,255.3,326.4,253.6,327.1,252.2z M344.5,131.9c-0.1-1.9-1.2-2.6-2.8-2.6c-1.8,0-3.1,1.1-3.5,2.7c-0.5,1.9,1.3,2.5,2.6,2.7
	C342.9,135,343.9,133.6,344.5,131.9z M506.4,317.3c0.3-1.5-0.9-2.4-2.4-2.7c-1.6-0.3-2.3,0.9-2.3,2.3c-0.1,1.6,0.7,2.7,2.4,2.9
	C505.7,320,506.4,319.2,506.4,317.3z M527.3,254.7c-0.1-0.2-0.1-0.6-0.3-0.7c-0.2-0.1-0.5,0.1-0.7,0.2c0.1,0.2,0.1,0.6,0.3,0.7
	C526.8,255,527.1,254.8,527.3,254.7z"/>
<path class="st10" d="M419.3,243c11.9,8.3,25.3,13.7,38.7,19c10.3,4,16.6,12.1,22.2,21.1c7,11.2,10.9,23.5,14.8,35.9
	c2.9,9.3,6.4,18.4,9.6,27.5c2.9,8.7,6.2,17.3,8.6,26.2c2.8,10,11.4,14.8,18.3,21.3c2,2.6,3.2,5.8,6.9,6.7
	c6.9,8.4,15.6,15.1,23.1,22.9c2.5,2.6,5.4,4.9,8.1,7.3c8.9,9.4,18.4,18.1,28,26.8c-4.1,7-10.5,12-16,17.8
	c-6.9-4.3-12.6-10.2-18.7-15.4c-8.9-7.6-17.9-15-26.5-22.8c-6.3-5.6-11.8-12.1-18.3-17.4c-16-13.1-28.5-28.5-35.3-47.9
	c-5.5-15.7-11-31.5-15.3-47.6c-1.2-4.3-1.1-9.3-4.5-13.7c-1.1,12.7-4.8,24.5-3.1,36.8c-1.9-0.3-1.8,1-2.1,2.3
	c-3.6,14.7-7.3,29.4-10.9,44.1c-1.3,5.2-2,10,1.7,15.2c6.2,8.6,11,18.1,14.7,28.1c-22,11.6-45.2,19.9-70.1,22.7
	c-9.9,1.1-19.8-0.7-29.1-4.4c0.2-3.7-0.6-7.1-1.5-10.7c-1.8-7.7-3.9-15.5-3.5-23.6c0.4-8-0.3-15.9,2-23.8c3.8-13.1,9-25.4,22.1-32.1
	c12.7-6.5,26.6-4.4,39.6-1.8c8,1.6,14.3-0.2,20.6-3.3c5.7-2.9,8.8-13.3,6.8-19c-9.3,11.6-22.4,9.9-34.6,8.5
	c-8.6-0.9-17.1-3.5-26-3.3c-4.5,0.1-8.6,1.9-13.2,2.2c-7.2,0.4-14.4,0.2-21.6-0.2c-8.7-0.4-17-6.5-19.8-14.6
	c-3.2-9.1-4.5-18.2-3-27.8c0.2-1,0.6-2.4-0.9-2.8c-1.1-0.2-1.6,0.9-2,1.7c-1.3,3.4-3.1,6.7-3.6,10.1c-0.9,7.2-3.5,14-5.8,20.7
	c-3.5,10-7,20.1-11.8,29.6c-4.8,9.6-9.6,19.2-17,27c-17.1,17.8-35.5,34.4-54.3,50.5c-11.7,10-23.4,20-35.1,30c-1.9,1.6-3.6,3.3-3,6
	c-0.4,0.1-0.7,0.2-1.1,0.3c-0.7-1.7-1.7-3.3-3-4.7c-4.6-5.1-9.2-10.3-13.8-15.4c2.3-1.5,3.2-4.4,5.3-5.8
	c7.7-5.3,13.9-12.1,20.5-18.5c8.5-6.6,15.8-14.5,23.8-21.6c5.1-4.6,10.8-8.7,14.8-14.4c6.1-3.6,10.2-9.5,15.9-13.6
	c2.7-1.9,4.2-4.6,5.2-7.7c2.9-8.7,6-17.4,9-26.1c1.9-4,4-7.8,4-12.4c0.9-0.2,1.2-0.9,1.5-1.7c4-11.5,8-23,11.9-34.5
	c5-9.6,9.8-19.3,17.2-27.5c6.2-6.8,14.1-10.9,22.9-13.6c2,0.3,4.1,1,6.1,0.9c12.9-0.3,25.7,0.5,38.7-2.4c13.3-3,26.2-6.2,38.1-12.6
	C417.6,246.8,419.4,245.6,419.3,243z"/>
<path class="st0" d="M434.7,32.5c4.5,5.7,8,12,11.7,18.1c7.7,12.7,18.6,21.9,31.6,29.2c18.2,10.3,37.8,18.4,55.1,30.2
	c10.6,7.2,20.7,14.8,27.5,25.8c4.8,7.7,8.8,15.8,11.7,24.4c4.9,14.4,7.6,29.6,14.7,43.4c5.8,11.2,14.7,18.8,26.5,23.4
	c13.2,5.2,22.6,14.4,28.9,26.8c0.7,1.3,0.5,3.1,0.7,4.6c-4.4,2.5-7.2,6.3-9.6,10.6c-3.7-0.6-3.7-4-4.9-6.4
	c-6.2-11.9-14.8-21.4-27.8-26.5c-8.3-3.3-14.3-9.4-20-15.9c-1.3-1.5-0.9-4.2-3.6-4.6c0.6-4.5-3-7.8-3.4-12c-0.1-0.7-1-1.1-1.9-1.1
	c-0.8,0-1.3,0.7-1,1.2c2.6,3.7,1.3,9.4,6.3,11.9c2.4,10.6,9.9,16.7,19.4,20.8c10.7,4.7,19.9,11,26,21.1c0.6,1,1.4,1.8,0.1,2.8
	c-5.3-1.6-9.4,2.3-14.3,2.8c-5.9-3.3-12.4-5.6-18-9.5c-2.8-1.9-5.4-3.9-7.5-6.5c-6.1-7.9-9.5-17.1-12.4-26.5
	c-4.3-13.9-6.6-28.5-12.8-41.8c-4.1-8.8-9.8-16.7-16.5-23.9c-8.5-9.2-19.2-15.3-30.2-20.9c-12.1-6.2-25.6-9.1-38.2-14.1
	c-15-5.9-26.9-14.8-33.3-29.8c-1.7-4-4.1-7.7-6.3-11.5c-4.2-7.3-9.7-13.6-15.2-19.9c-6.8-7.9-14.8-14-24.7-17.8
	c-0.1-1.9-1.5-1.9-2.9-1.9c-1,0-1.9,0-2.9,0c2.2-3.1,5.7-2.4,8.9-2.8c5.5-0.7,10.8,0.9,16.3,0.9c0.3,0.1,0.7,0,0.9,0.2
	c8.2,9,15.5,18.7,20.7,29.7c1.8,3.7,3.2,7.8,7.4,9.9c1,5,4.8,8,8.3,11.1c10.8,9.5,24.4,13,37.7,17.2c13.1,4.1,25.5,9.6,37.2,16.8
	c2.9,1.8,4.8,5.3,8.9,5.2c3.3,5,8.4,8.4,12.1,13.1c0.5,0.6,1.2,1.2,2,0.5c0.3-0.2,0.4-1.1,0.2-1.2c-4.5-4.4-7.2-10.8-14.2-12.4
	c-3-6.4-9.6-8.2-15-11.5c-13.4-8.1-28.7-11.7-43.3-16.9c-9.3-3.3-18.4-7-25.7-14c-2.7-2.6-4.6-6-8.1-7.8
	c-2.5-7.8-7.3-14.5-11.1-21.7c-3.1-5.8-8.2-10.3-11.2-16.2c0-1.2-0.7-1.9-1.9-1.9v0c-0.5-3.5,0.7-5.1,4.6-4.8
	C426.2,32.8,430.5,32.5,434.7,32.5z M548.3,144.1c11.8,16.6,15.6,35.9,21.9,54.1c0.1-4.8-1.6-9.1-2.5-13.6
	c-2.6-12.5-7.3-24.1-13.2-35.4C553.4,147.1,552.6,143.6,548.3,144.1z"/>
<path class="st2" d="M387.3,39.1c1,0,1.9,0,2.9,0c0.6,1.2,1.5,1.9,2.9,1.9c9.9,3.7,17.9,9.8,24.7,17.8c5.5,6.4,11,12.7,15.2,19.9
	c2.2,3.8,4.6,7.5,6.3,11.5c6.5,15,18.4,23.9,33.3,29.8c12.6,5,26.1,7.9,38.2,14.1c11,5.6,21.7,11.8,30.2,20.9
	c6.7,7.2,12.4,15,16.5,23.9c6.2,13.3,8.5,27.9,12.8,41.8c2.9,9.4,6.2,18.6,12.4,26.5c2.1,2.7,4.7,4.6,7.5,6.5
	c5.6,3.8,12.1,6.2,18,9.5c-2.9,3.2-5.8,6.4-8.8,9.6c-0.2-1.8-1.4-2.4-3-3.3c-3.8-2-8-3.4-11.4-5.6c-11.4-7.3-17.2-18.8-20.3-31.2
	c-2.3-9.3-5.8-18.3-7.5-27.8c-0.4-2.3-1.2-5.9-4.4-7.2c-1.4-9.6-6.4-17.6-12.6-24.7c-9.8-11.3-21.9-19.8-35.8-25.9
	c-10.3-4.5-20.8-8.5-31.5-11.8c-9.2-2.9-17.1-7.5-24-13.9c-5.8-5.4-9.1-12.4-12.6-19.3c-7.3-14.2-16.4-26.8-29.7-36.1
	c-8.3-5.8-17.3-9.8-27.8-9.7c-3.3,0-5.8,1.6-8.7,2.3c-7.4,1.9-14.3,5.2-18.7,12c0,0,0,0,0,0c-4.2-0.6-4.5,3.4-6.5,5.4
	c-4.9,4.8-7.7,10.9-10.3,17.2c-2.2,5.5-3.2,11.3-6,16.6c-7.4,13.6-18.9,23.3-31.5,31.8c-10.3,7-21.7,12.4-31.1,20.9
	c-9.5,8.6-15.4,19.1-18.1,31.2c-1.9,8.1-2.8,16.4-6.4,24.1c-0.6,1.3-0.4,3.1-0.6,4.6c-4.4,3.8-6.6,9-8.6,14.3
	c-4.3-0.8-5.6,3.7-8.8,4.9c-7,2.7-13.5,6.5-21.2,7.8c-7,1.1-13.5,4.4-20.4,6.2c-8.9,2.3-16.9,6.2-24.2,11.6
	c-8.8,6.5-14.9,14.8-20.2,24.4c-8.2,15-11.6,30.8-11.7,47.5l-0.3,0.2c-3.2-0.2-6.3-0.3-9.5-0.5c0-8.1-1.2-16.4,0.4-24.1
	c2.4-11.7,6.1-23.2,12.2-33.7c6.7-11.7,15.8-21.6,27.9-27.8c13.8-7,29-10.6,44-14.5c5.4-1.4,10.5-3.5,15.4-6.1
	c14.3-7.7,19.6-21.4,23.8-35.5c2.6-8.9,3.6-18.2,6.9-27c4.6-12.1,13.3-20.8,23.6-28.1c8.9-6.3,18.9-11.2,27.8-17.5
	c12.5-8.8,23.3-19.4,30.3-33c3.9-7.6,4.5-16.4,9-23.9C344,56.6,351.9,47.2,364,42c0.8,0,1.5-0.2,1.9-0.9c1.4,0,2.8,0,2.9-1.9
	C375,39.2,381.2,39.1,387.3,39.1z"/>
<path class="st2" d="M597.7,457.6c-9.6-8.7-19.1-17.4-28.1-26.8c6.9-0.2,13.3,2.7,20.1,3.1c0.9,3.3,4.2,1,6.1,2.6
	c7,5.8,15.1,4.6,23.1,2.8c7-1.5,13.7-5,21.2-3.7c8.5,6.3,13.6,15,17.4,24.5c-3,0.9-2.2,4.7-4.7,6.1c-0.6-0.8-1.5-1.2-2.5-1.2
	c-4.6,0.1-9.2,0.6-12.9-3.1c-0.8-0.8-1.8-0.5-2.4,0.5c-2.2-3.4-5.5-0.7-8.3-1.2c-7.3-1.5-14.3-4.9-22.1-3.8
	C602.4,457.8,600,459.1,597.7,457.6z"/>
<path class="st3" d="M538.4,400.7c-3.7-0.9-4.9-4.2-6.9-6.7c4.7-4.2,6.2-10.4,9.6-15.5c8.4-12.7,16.3-25.8,27.6-36.5
	c11.1-10.5,23.7-19.1,37.4-26.1c14.1-7.2,28.5-13.3,43.9-17.2c3.8-1,7.8-1.5,11.8-1.7c-9.1,3.8-18.5,6.7-27.5,10.5
	c-17,7.2-32.4,16.6-46.6,28.3c-19.4,15.9-33,35.7-44.6,57.2C541.6,395.6,539.9,398.1,538.4,400.7z"/>
<path class="st0" d="M651.7,426.1c0.7-1.1,1.3-2.1,2-3.2c2.1-3.4,1.2-6.1-2.3-7.7c-3.3-1.5-6.5-3.6-10.3-3.3c-2,0.2-3-1.7-4.7-2
	c-0.1-2.8-3.4-4.5-2.9-7.5c3.8,0.4,7.7,0.8,11.5,1.3c1,2.6,3.3,1.4,5.1,1.5c0.6,0.1,1.2,0.2,1.8,0.3c1.2,2.8,3,5.1,5.9,6.6l0,0
	c0.3,3.3,2.7,5.6,4.7,7.9c10.2,12.4,15,26.5,14.8,42.3c-1.1,3.1,2.1,7-2,9.5c-0.9-5.2-2.1-10.2-4.4-15c-3.7-7.9-9.6-14.4-14.1-21.6
	C654.6,432.2,651.7,429.9,651.7,426.1z"/>
<path class="st11" d="M651.7,426.1c0,3.8,3,6.1,4.8,8.9c4.6,7.3,10.4,13.7,14.1,21.6c2.3,4.9,3.6,9.9,4.4,15c-0.2,2.1-1.8,1.9-3.2,2
	c-2.3-5.3-5.5-9.9-10.3-13.4c-1-4.6-3.4-8.6-5.9-12.5c-3.5-5.6-8.5-10.5-10.6-17C646.6,428.5,648.8,426.9,651.7,426.1z"/>
<path class="st3" d="M654.8,372c-2.1,2.1,0.3,3.3,1.2,4.7c1,1.7,3,2.8,3.5,4.9c-10.4,0.4-20.1-2.8-30-5.1c-0.4-0.1-0.7-1-1-1.5
	c0.1-2.8-2.8-4.5-2.9-7.3c9.6-1.3,18.7,1.7,28.1,3C654.1,370.7,654.4,371.5,654.8,372z"/>
<path class="st3" d="M552.9,197.6c3.2,1.4,4,4.9,4.4,7.2c1.7,9.5,5.2,18.5,7.5,27.8c3.1,12.5,8.9,23.9,20.3,31.2
	c3.4,2.2,7.6,3.6,11.4,5.6c1.6,0.8,2.8,1.5,3,3.3c0,0.6-0.1,1.2-0.1,1.8c-3.2,0.7-4.6-3.5-7.8-2.9c0,0,0,0,0,0
	c-0.7-3-3.2-1.5-4.9-1.9c-3.2-3.9-8-6.1-11.5-9.8c-4.5-4.8-7.6-10.3-9.8-16.4c-2.5-6.7-5.3-13.3-6.5-20.2c-1.5-8.4-6.4-16-6.1-24.8
	C552.9,198.2,552.9,197.9,552.9,197.6z"/>
<path class="st11" d="M553.1,295.3c2.1,2.3,5.2,3.5,7,6.3c2.8,4.1,4.4,3.8,7.4-0.7c0.3,0.1,0.8,0.2,0.8,0.4c1.3,6.4,2.5,13-0.7,19.2
	c-2.3,4.4-6,4.3-8.1-0.3c-1.7-3.6-2.6-7.6-3.6-11.5C554.8,304.2,554,299.7,553.1,295.3z"/>
<path class="st3" d="M606.1,403.5c-4.9,0.2-9.4-1.7-13.8-3.4c-1.7-0.6-3.6-1.9-3.3-4.2c0.3-2,2.3-1.8,3.8-2.2
	c6.7-1.6,13-0.7,19.2,2.2c0.8,3,3.2,1.5,5,1.7c1.3,0.1,2.8-0.2,3.7,1.1c0,3.2,5.4,4.7,2.9,8.7c-1.3-0.1-2.5-0.2-3.8-0.4
	c-0.4-1.9-1.6-3.4-2.6-4.9c-1-1.5-2.3-1.9-3.5-0.6C611.5,403.9,608.7,403.3,606.1,403.5z"/>
<path class="st9" d="M622.6,260.3c1.3-1,0.5-1.8-0.1-2.8c-6.1-10.1-15.3-16.4-26-21.1c-9.4-4.2-17-10.2-19.4-20.8l0,0
	c2.8,0.3,2.4,3.1,3.6,4.6c5.6,6.5,11.6,12.6,20,15.9c13,5.1,21.6,14.6,27.8,26.5c1.2,2.3,1.3,5.8,4.9,6.4c-0.2,2.2-0.1,4.6-2.8,5.7
	c-0.3-4.1-1.9-7.6-4.6-10.8c-1.3,2,0.9,4.9-2.2,6C623.5,266.6,624.1,263.3,622.6,260.3z"/>
<path class="st9" d="M591.7,271.5c3.2-0.6,4.6,3.6,7.8,2.9c0.4,6.5-0.9,12.9-1.1,19.3c0,1.2-0.5,2.5-1,3.6c-0.6,1.4-1.4,3-3.5,2.5
	c-2-0.5-2.2-2.1-2.2-3.7C591.7,287.9,591.7,279.7,591.7,271.5z"/>
<path class="st11" d="M640.1,435.7c-7.5-1.4-14.2,2.1-21.2,3.7c-8,1.7-16.1,3-23.1-2.8c-1.9-1.6-5.2,0.7-6.1-2.6
	c8.5-0.7,16.6,2.5,25.2,1.9c9.3-0.6,18.2-2.1,27.1-4.7C641.7,432.8,639.5,433.6,640.1,435.7z"/>
<path class="st0" d="M640.1,435.7c-0.6-2,1.6-2.9,1.9-4.5c1-0.1,1.9-0.1,2.9-0.2c2.1,6.5,7,11.3,10.6,17c2.5,4,4.9,7.9,5.9,12.5
	c-1.3-0.1-2.6-0.1-3.9-0.2C653.7,450.7,648.6,442,640.1,435.7z"/>
<path class="st3" d="M623.8,269.7c3.2-1.1,0.9-4,2.2-6c2.7,3.2,4.3,6.7,4.6,10.8c0.2,3.1-0.6,5.9-2.7,8.3c-1,1.1-2.2,1.2-3.5,1
	c-1.8-0.3-1.6-1.6-1.7-2.9C622.1,277.1,623.8,273.5,623.8,269.7z"/>
<path class="st4" d="M623.6,407.3c2.5-4-2.8-5.5-2.9-8.7c4.6,0,8.6,1.8,12.6,3.8c-0.5,3,2.9,4.7,2.9,7.5
	C631.7,410.8,627.7,408.5,623.6,407.3z"/>
<path class="st4" d="M606.1,403.5c2.6-0.2,5.4,0.4,7.5-2c1.2-1.3,2.5-1,3.5,0.6c1.1,1.6,2.3,3,2.6,4.9
	C614.7,407.7,610.4,405.7,606.1,403.5z"/>
<path class="st0" d="M625.6,367.6c0.1,2.8,3,4.5,2.9,7.3c-1.3,0-2.6,0-3.9,0c-0.3-0.3-0.7-0.6-1-0.9c0,0,0,0,0,0
	c-0.7-2.1-1.1-4.3,0-6.4C624.3,367.6,624.9,367.6,625.6,367.6z"/>
<path class="st3" d="M623.6,367.6c-1.1,2.1-0.7,4.3,0,6.4c-0.6-0.2-1.3-0.2-1.7-0.6c-1.4-1.1-3.5-1.8-2.9-4.2
	C619.7,366.4,622,367.8,623.6,367.6z"/>
<path class="st9" d="M657.5,412c-2.9-1.4-4.7-3.7-5.9-6.6c1-0.6,1.4-2.2,3.1-1.7C653.7,407.1,657.6,408.9,657.5,412z"/>
<path class="st11" d="M567.5,293.5c0.2-2.3-1.1-5.2,2.7-5.8C569.3,289.6,570.3,292.4,567.5,293.5z"/>
<path class="st9" d="M586.8,269.6c1.7,0.4,4.2-1.1,4.9,1.9c-1.6-0.1-3.3-0.1-4.9-0.2C586.8,270.8,586.8,270.2,586.8,269.6z"/>
<path class="st4" d="M617,397.6c-1.8-0.2-4.2,1.3-5-1.7C613.8,396.1,616.1,395,617,397.6z"/>
<path class="st9" d="M649.9,405.1c-1.8-0.1-4,1.1-5.1-1.5C646.7,403.7,648.9,402.5,649.9,405.1z"/>
<path class="st3" d="M623.6,374c0.3,0.3,0.7,0.6,1,0.9C624.3,374.6,623.9,374.3,623.6,374z"/>
<path class="st12" d="M443.6,571.2c2.4,2,4,4.6,4.6,7.6c-41.8,0.1-83.5-1.2-125.3-2.1c-5.6-0.1-11.2-1-16.9-0.5
	c-9.2-1.2-18.3-2.4-27.5-3.6c-1.6-0.1-3.1-0.1-4.7-0.2c-1.4-1.4-3.1-1-4.8-0.9c-1.6-0.1-3.2-0.2-4.8-0.3c-1.5-1.5-3.5-1.4-5.3-1.7
	c-12.3-2.2-24.3-5.3-36.2-8.7c-11.5-3.3-22.3-8.1-33-13.2c-12.3-7.1-19.5-17.7-22.3-31.3c0.1-2.2,0.3-4.5,0.4-6.7
	c1.4,0.2,3-0.4,4.2,0.6c7.6,5.8,16.1,10.1,24.5,14.7c9,5,18.1,9.8,27.8,13.3c8.4,2.9,16.8,5.7,25.4,8c7.8,2.1,15.7,4.3,23.5,5.8
	c9.9,2,19.8,4.6,29.9,5.7c7.8,0.9,15.6,3.1,23.4,3.8c15.9,1.4,31.6,4.7,47.6,5.4c4.4,0.2,9-0.1,13.4,1.2c8.7,2.5,17.7,1.3,26.6,2.9
	C423.7,572.6,433.8,571.2,443.6,571.2z"/>
<path class="st8" d="M180.6,459.2c4.6,5.2,9.1,10.3,13.8,15.4c1.3,1.4,2.2,3,3,4.7c-9.6,3.5-17.4,9.8-25,16.1
	c-0.2-0.7-0.4-1.5-1.6-0.9c-4.4,2.1-8.9,3-13.9,2c-1.9-0.4-4.2-0.8-6,0.6c-0.8,0-1.6,0-2.4,0c-1.2-0.1-2.7,0.3-3.1-1.5
	c-0.4-1.9,1.2-2.3,2.5-2.9c0.8-0.4,2-0.1,2.4-2.1c-3.4,0-6.6,0-9.9,0c-0.3-0.1-0.6-0.1-0.9-0.1c-4.7-7.2,3.7-3.1,4.9-5.6
	c-2.2-1.6-4.8-0.8-7.3-0.9c-2.2-0.1-4.3-0.1-4.7-2.9c0.8-0.3,1.1-0.9,1.2-1.7c1.6,0,3.2-0.1,4.8-0.1c1.4-0.1,2.8,0.5,4.1-0.5
	c-3.1-4.8-0.7-14.6,4.6-18.5c0.3,0.1,0.6,0.1,0.9,0.1c1.9,3.1,4,2.3,6.1,0.2c0.9-0.1,1.8-0.3,2.6-0.4c2.7-0.6,5.9,0.2,7.9-2.5
	c1.9,0,3.8-0.1,5.7-0.1c1.1,1.1,2.5,0.8,3.9,0.8c1,0,1.9,0.1,2.9,0.1c0.9,0.9,1.8,1,2.9,0.3C180.2,458.9,180.4,459,180.6,459.2z
	 M152,473.6c5.2,0.2,9.5-0.9,12.8-4.5c0.9-1,2.1-2.1,1-3.7c-0.9-1.3-2.1-0.9-3.5-0.7c-3.5,0.7-7,0.9-10.4-0.3
	c-1.8-0.6-3.3-0.4-4.5,1.5c-1.3,2-1.9,4.2-1.1,6.2C147.5,474.9,150.3,473.1,152,473.6z"/>
<path class="st9" d="M189.7,547.7c10.7,5.1,21.6,9.9,33,13.2c11.9,3.4,24,6.5,36.2,8.7c1.9,0.3,3.9,0.2,5.3,1.7
	c-0.9,1.3-2.3,1.2-3.5,0.7c-1.9-0.8-3.8-0.6-5.7-0.6c-17.5,0.1-34.7-2.6-52-4.4c-9.6-1-18.8-2.7-28.1-5c-3-0.8-7-1.8-7.1-4.4
	c-0.2-3.2,4.3-4.3,7-4.6c4-0.5,7.4-3.1,11.6-2.5C188.3,550.7,189.5,549.6,189.7,547.7z"/>
<path class="st5" d="M111.4,544.5c1.8-5.2-2.4-9.4-2.6-14.2c-0.1-3.3-0.8-7,3.6-8.5c3.5,2.2,7.2,3.8,11.5,3.2
	c3.7,1.1,5.8,4.2,8.6,6.5c1.3,2.9,2.6,5.8,3.9,8.7c1.4,3,1,4.7-3,4.6C126,544.6,118.7,544.6,111.4,544.5z"/>
<path class="st8" d="M278.5,572.7c9.2,1.2,18.3,2.4,27.5,3.6c-0.9,2.8-2.9,4-5.9,4.7c-5.8,1.2-11.9,1.7-17.1,5.1
	c-1.3,0.9-3.1,0.9-4.3-0.7c-1.3-1.7-2.7-3.4-1.2-5.5C279.2,577.6,278.9,575.2,278.5,572.7z"/>
<path class="st0" d="M136.3,540.2c-1.3-2.9-2.6-5.8-3.9-8.7c1.7-1.3,1.1-3.2,1-4.9c-0.4-12.1-0.1-24.1,3-36c1-0.1,2-0.1,3-0.2
	c0.3,0,0.6,0,0.8,0.1c0.7,2,3.6,4.3-1.2,5.3c-1.1,0.2-0.6,1.9-0.8,3c-1.5,11.9-0.9,23.8-0.9,35.8
	C137.4,536.7,137.3,538.5,136.3,540.2z"/>
<path class="st11" d="M150.9,497.2c1.9-1.4,4.2-1,6-0.6c5,1,9.5,0,13.9-2c1.2-0.6,1.3,0.2,1.6,0.9c-2.9,4.3-3.3,9.3-4.5,14.2
	c-0.1,2.2-0.3,4.5-0.4,6.7c-3.3-1.3-2.8-4.2-2.9-6.7c-0.2-6.6-1.9-8.5-8.5-9.4C153.9,499.9,152,499.3,150.9,497.2z"/>
<path class="st9" d="M269.1,571.6c1.7-0.1,3.4-0.6,4.8,0.9C272,573.5,270.3,574.2,269.1,571.6z"/>
<path class="st12" d="M487.2,557.2c-2.8-0.5-2.1-3.6-3.7-5.1c-3.6-3.4-7.6-5.4-12.5-4.4c-9.9,2.1-19.6,0.9-29.5-0.1
	c0-3.6-3-4.3-5.5-4.6c-4-0.6-7.6-2.2-11.3-3.3c-8.4-2.5-16.7-5.6-25.1-8.2c-8.4-2.6-17.2-4.8-25.1-8.3
	c-13.3-5.9-26.8-10.8-40.2-16.2c-13.4-5.5-27.3-9.5-41.1-13.9c-13.4-4.3-27.3-7-41.1-8.6c-13.4-1.5-26.9-3.2-40.4-3.3
	c-3.5,0-7.1-0.1-10.6-0.1c2.5-2.1,4.9-4.3,8.3-4.9c5,0.1,9.1-2.8,13.9-3.5c25.4-4,50.8-7.1,76.5-7.6c1.5,0,3-0.1,3.9-1.4
	c3.4-4.9,8.2-8.8,11.2-14c5.4-3.2,8.3-9.1,13.5-12.6c10.5,7.5,21.9,13.7,33.8,18.7c6,13.9,16.4,24.2,28.7,32.6
	c5.9,4,12.6,6.9,20.3,4.1c10.5-3.9,21.3-6.6,32.2-9c2.3-0.5,4.8,0.1,7.1-1.1c4.2-2.2,8.9-1.7,13.2-0.5c4.9,1.4,9.6,2.5,14.6,2.2
	c12.9-0.7,25.8,1.2,38.7-2.5c6.8-1.9,14.4-3.7,22.1-0.6c3,1.2,5.9,2.2,8.5,4.6c-5.3-0.6-10,1.9-14.9,2.2c-6.4,0.4-12.4,2.5-18.7,3.4
	c-9.5,1.4-18.7,4.2-28.1,6.1c-5.7,1.1-11.5,2.4-17.1,3.8c-5.2,1.3-10.5,2.5-15.6,3.6c-8.1,1.8-16.4,3.6-24.4,5.6
	c-11.8,3-23.7,5.2-35.3,8.8c-1,0.3-2.7-0.4-2.6,1.2c0,1.6,1.7,1.4,3,1.7c4,0.8,8.1,1.5,12.1,2.5c8.2,1.9,16.2,4.3,24.4,5.9
	c9.6,2,19.4,3.2,29,5.2c3.4,0.7,6.9-0.3,10,0.9c7,2.7,14.5,2.8,21.6,3.2c18.5,1.1,36.9,0.5,54.9-6c16.5-6,30.5-13.9,39.2-29.5
	c3.3-5.9,7-12.1,14.7-13.7c2.5-0.4,2.8,2.5,4.7,3c0.1,0.6,0.2,1.2,0.3,1.7c-0.3,1.2,0.2,1.9,1.4,2.2c6.4,19.5-4.5,33-20.8,40.5
	c-5.2,2.4-10.5,4.5-15.8,6.7c-6,1.5-12,3.4-18.1,4.6C530.1,553.2,508.7,555.8,487.2,557.2z"/>
<path class="st9" d="M487.2,557.2c21.5-1.4,42.9-4,64.1-8c6.1-1.1,12.1-3,18.1-4.6c-0.1,1.9,0.7,3.1,2.8,2.9c8.7-1,17,2,25.4,3.1
	c4.8,0.6,10.1,1.3,14.3,4.4c2.6,1.9,2.8,3.5-0.3,4.7c-5.6,2.3-11.4,3.6-17.3,5c-10.2,2.4-20.7,1.3-30.7,4.1
	c-0.5,0.1-0.9,0.4-1.4,0.3c-9.9-1-19.5,2.6-29.5,2.1c-10.3-0.5-20.5,0.5-30.7,1.7c-1,0.1-1.9,0.3-2.5,1.2
	C493.2,570.1,488.3,565,487.2,557.2z"/>
<path class="st8" d="M604.3,493.5c-1.9-0.5-2.1-3.5-4.7-3c-0.2-1-1-1.5-1.8-2.1c-5.4-4-10.7-8.1-16.1-12.2c0-0.3-0.1-0.5-0.2-0.8
	c5.5-5.8,11.9-10.9,16-17.8c2.4,1.5,4.8,0.1,7-0.2c7.8-1.1,14.8,2.3,22.1,3.8c2.8,0.6,6.1-2.2,8.3,1.2c0.1,1.7,0,3.5,0.9,5
	c2.2,3.8,3.5,7.6-0.4,11.6c2.8,0.2,4.9,0.1,6.9,0.6c2,0.5,4.2,1.4,2.4,4.2c-3,0-6,0-8.6,0c-0.7,1.3-0.3,1.6,0.2,1.7
	c1.5,0.5,4.3-0.2,4.1,2.2c-0.2,2.4-2.9,2.5-4.9,2.7c-2.2,0.2-4.5-0.4-6.6,0.4c-0.4,1.2,0.6,1.3,1.3,1.6c0.9,0.4,1.8,0.9,1.6,2
	c-0.3,1.3-1.5,1.6-2.6,1.6c-7.8-0.2-15.7,1.1-23.1-2.5C605.7,493.5,604.9,493.6,604.3,493.5z M625.8,473.5c1,0,1.9,0.1,2.9,0
	c2.2-0.3,4-1.6,3.2-3.7c-0.8-2.1-0.3-6.3-4.4-5.5c-4.1,0.8-7.9,0.4-11.8-0.1c-1.2-0.2-2.7-0.5-3.4,1c-0.6,1.4,0.3,2.5,1.2,3.4
	C616.8,472,621,473.6,625.8,473.5z"/>
<path class="st11" d="M644.9,484c1.8-2.8-0.4-3.7-2.4-4.2c-2-0.5-4.1-0.4-6.9-0.6c3.9-4,2.6-7.8,0.4-11.6c-0.9-1.6-0.8-3.3-0.9-5
	c0.6-1,1.6-1.2,2.4-0.5c3.7,3.7,8.3,3.2,12.9,3.1c1,0,1.9,0.3,2.5,1.2c0,6.6-0.1,13.1-0.1,19.7C650.2,485.1,646.7,487.9,644.9,484z"
	/>
<path class="st8" d="M605.9,497.5c-1.2-0.3-1.7-1-1.4-2.2C605.8,495.5,606.2,496.3,605.9,497.5z"/>
<path class="st4" d="M671.8,473.8c1.4-0.2,3.1,0,3.2-2c4.1-2.5,0.9-6.4,2-9.5c2.9,0.7,1.7,3,1.9,4.7c0.6,5.4-1.2,10.9,1,16.2
	c0.6,0.9,1.2,1.9,1.8,2.8c0,4.3-2.3,7.7-4.6,11.2c-1,1.5-2,3.4-4,2.7c-2.1-0.7-2.2-3-1.8-4.9c1.2-5.6,0.7-11.3,0.8-16.9
	C672,476.6,671.9,475.2,671.8,473.8z"/>
<path class="st9" d="M679.8,483.1c-2.2-5.3-0.4-10.8-1-16.2c-0.2-1.7,1-4-1.9-4.7c0.2-15.8-4.5-29.9-14.8-42.3
	c-1.9-2.3-4.3-4.6-4.7-7.9c5.1,1.2,6.2,6.2,8.8,9.5c5.6,7.2,9.5,15.3,11,24.6c0.6,3.8,1.5,7.6,1.6,11.4c0,0.8,0.2,1.5,0.9,1.9
	C679.8,467.3,679.8,475.2,679.8,483.1z"/>
<path class="st9" d="M699.2,440.5c-1.5,1.7-3.1,3.3-4.6,5c0.6-10.9-3.1-20.6-9.6-29.2c-3.2-4.3-6.8-8.3-10.2-12.5
	c-0.6-0.8-1.2-1.7-0.3-2.5c0.8-0.7,1.4,0.1,2,0.6c8.4,9.2,16.2,18.8,19.3,31.2c0.4,1.5,0.5,3.1,0.5,4.7
	C696.2,439.8,697.4,440.5,699.2,440.5z"/>
<path class="st4" d="M679.8,459.4c-0.8-0.4-0.9-1.1-0.9-1.9C680.1,457.7,681.2,457.9,679.8,459.4z"/>
<path class="st4" d="M698.1,481c0.9,5.4-3.4,10.1-1.4,16.1c-3.6-1.7-1.1-5-3.4-6.4C693.3,486.7,695.4,483.7,698.1,481z"/>
<path class="st4" d="M691.7,498.2c4.6-1.1,2.8,3.8,4.9,5c-1.9,3.3-3.1,0.4-4.2-0.6C691,501.5,691.5,499.8,691.7,498.2z"/>
<path class="st4" d="M693.2,492.3c0.2,1.3,0.5,2.8-1.4,3.2C691.4,494,691.6,492.9,693.2,492.3z"/>
<path class="st4" d="M701.1,476.4c0,1.2-0.6,1.9-1.8,2C699.3,477.2,699.9,476.6,701.1,476.4z"/>
<path class="st0" d="M123.8,525c-4.3,0.6-8-0.9-11.5-3.2c-1.2-3.4,0.9-6.2,1.9-9c5.3-14.2,5.3-28.8,4.3-43.6
	c0.4-1.1,0.1-1.9-1.1-2.3c-0.1-1-0.2-1.9-0.3-2.9c2.4-8,4.7-16,7.3-23.9c3.5-10.4,6.2-21,6.1-32.1c0-1.6,0.1-3.1,0.9-4.5
	c1.3,0.1,2.6,0.3,3.8,0.4c0.6,1.6,1.9,1.4,3.2,1.2c2.5,0.1,5,0.3,7.6,0.4c2.2,4.7,4.1,9.5,4.5,14.6c0.6,8.7,1.6,17.4-2.1,25.9
	c-2,4.6-3.5,9.5-5.2,14.3c-1.3,2.2-2.6,4.4-3.9,6.6c-0.3,0.3-0.6,0.6-0.9,1c0,0.6,0,1.2,0,1.9c-3.4,2.4-5.4,5.4-4.8,9.6
	c-0.1,0.8-0.4,1.4-1.2,1.7c-2.9,0.8-1.4,3.1-1.8,4.8c-0.4,0.2-1.2,0.2-1.3,0.5c-3,6.7-4.6,13.9-5.3,21.1
	C123.3,513.3,123.8,519.2,123.8,525z"/>
<path class="st0" d="M99.7,426.5c-1.6-5.3-0.5-10.6,0.6-15.6c1.8-9,1.9-17.7,0.1-26.6c-0.5-2.5-5.2-6.8,1.5-8.6
	c9,2.2,13.6,8.8,17.1,16.4c1.6,3.5,3.7,6.5,6.9,8.8c0.1,1.2,0.9,1.7,2,1.6c0,0-0.1,0-0.1,0c0.3,0.3,0.5,0.7,0.8,1
	c1,12.6-3.2,24.3-6.5,36.2c-1,3.7-3.5,7.1-3.2,11.2c-1.2,0.1-1.9,0.8-1.8,2c0,0.6,0,1.2,0,1.8c-0.9,0-1.8,0-2.8,0
	c-0.5-1.7-1.8-3.3-1.3-5.2c0.2-1.4-0.2-2.2-1.7-2.4c-0.1-0.5-0.1-1-0.2-1.5c0.2-1.2-0.2-2.1-1.6-2.3c-0.5-1.4-0.9-2.9-1.4-4.3
	c0.2-1.3-0.2-2.2-1.7-2.3C103.5,433.7,103.2,429,99.7,426.5z"/>
<path class="st9" d="M117,454.6c0-0.6,0-1.2,0-1.8c1.2-0.1,1.9-0.7,1.8-2c-0.3-4.1,2.1-7.5,3.2-11.2c3.3-11.9,7.5-23.6,6.5-36.2
	c0-0.3,0.1-0.6,0.1-0.9c1.1,0.1,2.2-0.2,2.9,1c-0.8,1.4-0.9,3-0.9,4.5c0.1,11.1-2.6,21.6-6.1,32.1c-2.7,7.9-4.9,15.9-7.3,23.9
	c-1.2-2.7-2.6-5.4-2.9-8.4C115.6,456.3,116.9,456.9,117,454.6z"/>
<path class="st9" d="M98.5,443.2c-1.2-2-1.7-4,0.6-5.7C99.5,439.5,100.1,441.4,98.5,443.2z"/>
<path class="st9" d="M99.1,481.2c-2.3-1.3-1.8-3-0.6-4.7C100,477.9,99.5,479.6,99.1,481.2z"/>
<path class="st3" d="M117,454.6c-0.2,2.3-1.4,1.7-2.7,1c0-0.3,0-0.7,0-1C115.2,454.6,116.1,454.6,117,454.6z"/>
<path class="st3" d="M106.5,436.6c1.5,0.1,1.9,1,1.7,2.3C107.1,438.5,106.3,437.9,106.5,436.6z"/>
<path class="st9" d="M117.5,466.9c1.2,0.4,1.5,1.2,1.1,2.3C117.6,468.7,117,468.1,117.5,466.9z"/>
<path class="st3" d="M109.5,443.3c1.4,0.2,1.7,1,1.6,2.3C109.9,445.2,109.3,444.5,109.5,443.3z"/>
<path class="st3" d="M111.2,447.1c1.5,0.1,2,1,1.7,2.4C112,448.9,111.2,448.3,111.2,447.1z"/>
<path class="st4" d="M336.9,19.2c3-4.6,8.3-6,12.5-8.9c1.3-0.9,2.6-1.6,4-2.5c0.6,0,1.2,0,1.8-0.1c15.2,0,30.3-0.1,45.5,0.2
	c9,0.2,15.7,5.1,21.5,11.3c-6.1,0-12.2,0-18.3,0c-2.5,0-5,0.3-4.9,3.7c-7.8-4.4-15.9-7.8-25.1-7.5c-7.5,0.2-14,3.5-20.5,6.6
	c-0.2-2.5-2-2.8-4.1-2.8C345.2,19.2,341,19.2,336.9,19.2z"/>
<path class="st3" d="M398.9,23c-0.1-3.4,2.4-3.7,4.9-3.7c6.1-0.1,12.2,0,18.3,0c3.2,1.1,5,4.1,7.7,5.8c1.6,2.5,3.2,5,4.9,7.5
	c-4.3,0-8.6,0.2-12.8-0.1c-4-0.3-5.1,1.3-4.6,4.8C411.5,32.1,405.7,26.9,398.9,23z"/>
<path class="st1" d="M355.2,7.7c-0.6,0-1.2,0-1.8,0.1c-2.3-1.8-0.1-2.4,0.9-3.1c1.5-1,3.8-1,4.1-3.3c0.5,0,1.1,0,1.6,0
	c0.4,0.5,0.8,0.5,1.2,0c12.2,0,24.4,0,36.6,0c0.4,0.5,0.8,0.5,1.2,0c0.5,0,1.1,0,1.6,0c0.3,2,2,2.6,4.2,3.3
	c-2.2,1.8-3.9,0.8-5.7,0.4c-14.4-3.3-28.8-3.5-43,1.1C355.7,6.4,355.5,7.2,355.2,7.7z"/>
<path class="st3" d="M336.9,19.2c4.1,0,8.2,0,12.4,0c2.1,0,3.9,0.3,4.1,2.8c-2.8,1.5-5.3,3.3-7.6,5.5c-3.5,3.3-6.4,7.3-10.7,9.8
	c0.7-4.5-1.8-5.3-5.5-4.7c-1.4,0.2-2.8,0.6-4.1,0.8c0.6-3,2.9-5,4.7-7.3c1.2-1.5,2.4-2.9,2.2-4.9C333.8,20.6,335.4,19.9,336.9,19.2z
	"/>
<path class="st7" d="M399.1,1.4c-0.4,0.5-0.8,0.5-1.2,0C398.2,1.3,398.6,1.3,399.1,1.4z"/>
<path class="st7" d="M361.3,1.3c-0.4,0.5-0.8,0.5-1.2,0C360.4,1.3,360.8,1.3,361.3,1.3z"/>
<path class="st13" d="M201.1,481.1c3.5,0,7.1,0.1,10.6,0.1c13.6,0,27.1,1.7,40.4,3.3c13.8,1.6,27.7,4.3,41.1,8.6
	c13.8,4.4,27.7,8.4,41.1,13.9c13.4,5.4,27,10.4,40.2,16.2c7.9,3.5,16.6,5.7,25.1,8.3c8.4,2.6,16.6,5.6,25.1,8.2
	c3.8,1.1,7.4,2.7,11.3,3.3c2.5,0.4,5.5,1,5.5,4.6c-0.5,8,3,15.6,2.1,23.6c-9.8,0-19.9,1.4-29.5-0.2c-8.9-1.5-17.9-0.4-26.6-2.9
	c-4.4-1.3-9-1-13.4-1.2c-16-0.7-31.7-4-47.6-5.4c-7.8-0.7-15.5-2.9-23.4-3.8c-10.1-1.1-20-3.7-29.9-5.7c-7.8-1.6-15.7-3.7-23.5-5.8
	c-8.6-2.4-17.1-5.1-25.4-8c-9.8-3.4-18.8-8.3-27.8-13.3c-8.3-4.6-16.9-8.9-24.5-14.7c-1.2-0.9-2.8-0.4-4.2-0.6
	c1.2-4.8,1.5-9.9,4.5-14.2c7.7-6.4,15.4-12.7,25-16.1c0.4-0.1,0.7-0.2,1.1-0.3C199.1,480.1,199.8,480.9,201.1,481.1z"/>
<path class="st0" d="M325.3,33.5c1.4-0.3,2.8-0.6,4.1-0.8c3.8-0.7,6.3,0.2,5.5,4.7c-2.1,5.8-6.3,10.7-8.1,16.8
	c-2.6,8.8-5.7,17.4-11.4,24.9c-1.2,1.7-3.4,3.1-2.9,5.7c-1.7-0.2-2.5,0.8-3.5,1.9c-4.2,4.8-9.4,8.6-14.5,12.4
	c-10,7.6-21.3,13.2-31.7,20.1c-3.1,2-6.4,4-8.1,7.4c1.2,0.9,1.8,0.2,2.4-0.3c12.3-9,26.2-15.7,38.4-24.7c6.5-4.7,12.9-9.8,17.1-16.9
	c0.7-0.3,1.7-0.4,2.1-0.9c6.2-6.9,9.8-15,12.5-23.8c2.4-8,5.7-15.6,11.5-21.8c8.8-1.8,17.7-0.6,26.5-0.9c1.6-0.1,2.8,0.4,3.6,1.9
	c-0.1,1.9-1.5,1.9-2.9,1.9c-1.5-1.4-1.7-0.2-1.9,0.9c-12.1,5.3-20,14.6-26.6,25.5c-4.5,7.5-5.1,16.3-9,23.9
	c-7,13.7-17.8,24.2-30.3,33c-8.9,6.3-18.9,11.2-27.8,17.5c-10.3,7.2-19,16-23.6,28.1c-3.3,8.8-4.3,18.1-6.9,27
	c-4.2,14.1-9.5,27.8-23.8,35.5c-4.9,2.6-10,4.7-15.4,6.1c-15,3.8-30.2,7.5-44,14.5c-12.2,6.2-21.2,16-27.9,27.8
	c-6.1,10.5-9.7,22.1-12.2,33.7c-1.6,7.8-0.4,16.1-0.4,24.1c-1.3-0.1-2.6-0.1-3.9-0.2c-2-2.1-3.9-2.3-5.8,0.1
	c-1.6,0.1-3.3,0.3-4.9,0.4c-1.7-3.9-2.5-8-2.8-12.2c-1.8-20.4,2.4-39.4,12.6-57.3c10.4-18.1,26.5-29.5,45.3-37.3
	c13.4-5.6,27.5-9.5,41.2-14.5c23.7-8.6,32.5-28.1,37.3-50.2c1.6-7.6,3.7-15,6.7-22.3c2.1-5,6.5-8.4,8.7-13.3
	c-1.7-0.8-2.3,0.5-3.1,1.1c-6.5,5.7-9.7,13.4-11.9,21.2c-3.2,11.5-4.7,23.5-9.9,34.5c-2.9,6.2-6.3,12.1-11.6,16.5
	c-9,7.5-20,11.3-30.9,15.1c-10.9,3.8-22,6.9-32.5,11.6c-9.5,4.3-18,10-25.8,16.7c-8.9,7.6-15.2,17.1-19.7,27.4
	c-4.2,9.6-8.9,19.4-8.4,30.5c0,1-0.3,2.2-0.8,3.1c-2.1,4.2-1.8,9-0.6,13c1.8,6,1.8,12,2.5,18c-3.5,2-7,4-10.5,6
	c-4.5-3.2-5.8-8.5-6.5-12.9c-1.4-8.3-4.6-16.4-3.3-25c1.4-9.2,2.1-18.4,6.1-27.2c1.7-3.7,3.7-7.6,3.5-11.9c3.1-0.4,3.2-3.5,4.1-5.3
	c5.3-9.7,12.5-17.8,20.9-24.9c1-0.9,2-1.6,2.1-3c1.1,0,2.2-0.1,3.2-0.8c13-9.6,28.2-14.8,43.2-20.5c12.2-4.7,24.6-8.9,35-16.9
	c3.2-2.4,6.9-4.7,7.8-9.1c0.7-0.3,1.8-0.4,2.1-0.9c3.2-5.1,7.6-9.6,7.6-16.1c4.1-1.1,3.5-5.3,4.2-7.7c2.9-9.8,4.5-19.9,8.3-29.4
	c0.3-0.8,0.1-1.9,0.1-2.8c3.9-3.6,7.6-7.3,9.7-12.3c5.4-1.9,8.9-6.5,13.4-9.7c6.5-4.6,13.8-7.6,20.5-11.7c1.8-1.1,4.2-1.7,4.8-4.2
	c2.1-0.1,4.2-0.3,4.9-2.8c1.4,0,2.8-0.1,2.9-1.9c4.4-0.5,7.3-3.8,10.5-6.3c8.9-7,16.8-15.1,22.4-24.9c3.3-5.9,5.4-12.6,7.7-19
	C323,37.1,324.6,35.5,325.3,33.5z"/>
<path class="st1" d="M232.4,236.5c2-5.3,4.2-10.4,8.6-14.3c1.7,0.2,2.3-1.8,3.8-1.8c7.2,3.3,10,9.5,11.8,16.5
	c2.1,8,6.9,14.3,14.5,17.8c15.2,7.1,19.5,21.1,16.9,36.3c-0.8,4.9-0.2,9.1,4.4,12c-4,11.5-8,23-11.9,34.5c-0.3,0.8-0.6,1.4-1.5,1.7
	c-1.7-4.8-3.4-9.6-5.1-14.4c0.8-3.5-1.2-6.4-2.2-9.4c-4-12.7-8.2-25.3-12.4-38c-2.3-7.9-4.7-15.9-8.8-23.2
	c1.5,8.3,3.5,16.4,5.5,24.5c0.1,0.3,0.8,0.5,1.2,0.7c0.4,5.8,2.2,11.2,3.7,16.8c2.3,8.6,4.3,17.2,6.5,25.8c0.8,3.2,0.5,7.1,3.4,9.7
	c0,0.9,0.1,1.7,0.1,2.6c-1.3,1.3-0.1,1.7,0.9,2.1c-0.3,5.3,1.2,10.4,3.2,15.3c-3,8.7-6,17.4-9,26.1c-1,3-2.5,5.7-5.2,7.7
	c-5.7,4.1-9.7,10-15.9,13.6c-0.1-1.3-0.1-2.6-1.2-3.5c-7.3-6.2-12.4-14.3-19.1-21c-0.3-0.3-0.9-0.3-1.3-0.5c0.5-3.9-3-5.6-4.7-8.3
	c-1.6-5.1-4.6-9.7-5.3-15.2c-0.2-1.5-0.7-3.1-0.5-4.6c0.6-4-1.3-5.4-5.1-5.1c4.8-1.7,5.4-5.4,5.3-9.8c0-1.9,1.4-3.8,1.9-5.8
	c1.1-5,2.5-10.4-1-14.6c-5.6-6.7-6.6-14.2-5.9-22.2c0.6-6.7,3.3-12.8,9.2-16.4c11.9-7.3,14.1-18.6,14.8-30.8
	C232.2,239.6,232.3,238,232.4,236.5z"/>
<path class="st2" d="M232.1,241.1c-0.6,12.2-2.9,23.6-14.8,30.8c-5.9,3.6-8.6,9.7-9.2,16.4c-0.7,8,0.3,15.5,5.9,22.2
	c3.5,4.1,2.1,9.6,1,14.6c-0.4,2-1.9,3.9-1.9,5.8c0.1,4.4-0.5,8.1-5.3,9.8c-10.3,2-19-1.6-27.6-6.7c-8.6-5.1-17.5-4-25.7,1.6
	c-8.4,5.7-17.8,5.8-27.3,5.1c-0.9-0.1-1.4-0.7-1.7-1.5c0,0,0.3-0.2,0.3-0.2c2.5,0.9,3.1-0.3,2.8-2.5c-0.8-6.6,1.6-13,2.5-19.4
	c1-6.8,4-13.4,7-19.8c2.9-6.5,6.3-12.9,11.2-17.9c7.3-7.6,15.3-14.4,25.9-18c9.4-3.2,18.8-6.4,28.4-8.9c3.7-0.9,7.5-1.8,11.2-3.3
	C220.8,246.7,226.1,243.2,232.1,241.1z M177.1,315.6c0,3.3,2.5,4.8,6.1,2.9c3.7-1.9,5.2-1.8,6.1,2.6c0.4,2.1,2.4,4.7,5.4,2.9
	c2.1-1.4,4.6-3.9,2.7-6.5c-3.2-4.5-1.5-5.2,3-5.2c3.3,0,5.2-2.6,5.4-5.1c0.3-3-2.8-2.9-5.3-3.3c-4.5-0.7-9.9,0.4-12.6-5.2
	c-0.6-1.2-2.5-2.8-4.5-2.1c-2.1,0.7-1.6,2.9-2,4.5c-0.4,1.7,0.3,3.5,1.4,4.8c2.3,2.7,3.4,4.4-1.7,4.8
	C178.4,310.8,177,312.9,177.1,315.6z"/>
<path class="st2" d="M170.3,457.6c-1.9,0-3.8,0.1-5.7,0.1c-0.6-4.9-1.9-9.7-0.2-14.6c0.4-1.3-0.2-2.5-1.8-2.6c0-0.6,0-1.3,0-1.9
	c1.7-0.2,2-1.4,1.9-2.8c-0.4-6.1,0.7-12.3-0.8-18.4c-0.7-2.9-0.8-5.9,3.8-5.6c0,0,0,0,0,0c0.8,2.6-0.1,6.5,4.8,5.8c0,0,0,0,0,0
	c0.2,2.3-7.1,6.6,1.9,6.5c0.3,0,0.7,1,0.9,1.5c0.6,1.7,2.1,2.1,3.7,2.5c0.1,0.3,0.2,0.5,0.3,0.8c0.2,3,1.8,4.6,4.9,4.8c0,0,0,0,0,0
	c0.6,3.3,3.2,1.6,5,1.9c5.1-0.3,10.4,0.8,15.4-1.5c0.5-0.2,1.4,0.5,2.1,0.7c-6.6,6.4-12.9,13.2-20.5,18.5c-2.1,1.5-3,4.3-5.3,5.8
	c-0.2-0.2-0.4-0.3-0.7-0.3c-0.7-1.8-1.7-1.6-2.9-0.4c-1,0-1.9-0.1-2.9-0.1c-0.2-1.3,0.6-3.2-1.4-3.5
	C171,454.6,170.4,456.1,170.3,457.6z"/>
<path class="st9" d="M97.7,340.7c-0.7-6-0.7-12-2.5-18c-1.2-4-1.4-8.7,0.6-13c0.5-1,0.8-2.1,0.8-3.1c-0.5-11,4.2-20.8,8.4-30.5
	c4.5-10.3,10.8-19.8,19.7-27.4c7.9-6.8,16.3-12.4,25.8-16.7c10.5-4.8,21.7-7.8,32.5-11.6c10.9-3.8,21.9-7.6,30.9-15.1
	c5.3-4.4,8.7-10.3,11.6-16.5c5.2-11,6.7-23,9.9-34.5c2.2-7.8,5.4-15.5,11.9-21.2c0.8-0.7,1.3-1.9,3.1-1.1c-2.2,4.9-6.6,8.3-8.7,13.3
	c-3,7.2-5,14.6-6.7,22.3c-4.8,22.1-13.6,41.5-37.3,50.2c-13.7,5-27.8,9-41.2,14.5c-18.9,7.8-35,19.2-45.3,37.3
	c-10.2,17.9-14.4,37-12.6,57.3c0.4,4.1,1.2,8.3,2.8,12.2C100.2,339.5,99.4,341.1,97.7,340.7z"/>
<path class="st4" d="M218.7,365.6c1.7,2.7,5.2,4.4,4.7,8.3c-13.3-6.5-27.4-10.8-41.9-13.7c-13.7-2.7-27.5-4.7-41.5-5
	c-12.4-0.3-24.6-2.9-37.2-2.6c1.8-0.4,3.7-1.1,5.5-1.1c17.7,0.2,35.4-1.1,53.1,1.2c8.6,1.1,17.2,1.7,25.8,3.2
	c9.9,1.8,19.6,4.3,28.6,9C216.8,365.3,217.8,365.4,218.7,365.6z"/>
<path class="st11" d="M143.2,460.3c1.7-4.8,3.2-9.7,5.2-14.3c3.7-8.4,2.7-17.2,2.1-25.9c-0.3-5.1-2.3-9.9-4.5-14.6
	c2.3,0,4.5,0.1,6.8,0.1c1.2,5.8,5.3,10.5,6.1,16.6c0.9,6.9,1.5,13.7-0.3,20.5c-1.6,6-3.8,11.8-5.8,17.7c-1.7,0-3.3,0-5,0.1
	c-0.3,0-0.6-0.1-0.9-0.1C145.7,456.5,144.5,460.6,143.2,460.3z"/>
<path class="st3" d="M152.9,460.3c2-5.9,4.2-11.7,5.8-17.7c1.8-6.7,1.1-13.6,0.3-20.5c-0.8-6-4.9-10.8-6.1-16.6c1,0,1.9,0,2.9,0.1
	c1.1,2.7,3,4.9,4.2,7.7c3.5,8.3,2.4,16.7,2.6,25.2c0,0.6,0,1.3,0,1.9c-0.9,6.9-4.5,13-5.9,19.8c-0.9,0.1-1.8,0.3-2.6,0.4
	C153.7,460.5,153.3,460.4,152.9,460.3z"/>
<path class="st11" d="M162.6,438.5c-0.3-8.4,0.9-16.9-2.6-25.2c-1.2-2.8-3-5-4.2-7.7c4.7,0.6,9.4,1.2,11.8,6.2
	c-4.6-0.4-4.5,2.7-3.8,5.6c1.5,6.1,0.4,12.2,0.8,18.4C164.6,437.1,164.3,438.3,162.6,438.5z"/>
<path class="st11" d="M178.8,428.1c-1.6-0.3-3.1-0.7-3.7-2.5c-0.2-0.6-0.6-1.5-0.9-1.5c-9,0.1-1.7-4.2-1.9-6.5
	C175.9,420.2,176.4,424.7,178.8,428.1z"/>
<path class="st11" d="M172.3,417.6c-5,0.8-4-3.2-4.8-5.8C170.3,412.8,172,414.6,172.3,417.6z"/>
<path class="st11" d="M184,433.7c-3.1-0.2-4.7-1.8-4.9-4.8C181.2,430,182.7,431.7,184,433.7z"/>
<path class="st2" d="M106.4,338.5c1.9-2.4,3.8-2.2,5.8-0.1C110.3,338.9,108.3,338.8,106.4,338.5z"/>
<path class="st11" d="M189,435.6c-1.8-0.3-4.4,1.4-5-1.9C185.8,433.9,188,433.2,189,435.6z"/>
<path class="st9" d="M138.5,405.1c-1.3,0.2-2.6,0.4-3.2-1.2C136.8,403.4,138,403.5,138.5,405.1z"/>
<path class="st3" d="M127.8,402.4c-1.2,0.1-1.9-0.4-2-1.6C126.9,400.7,127.6,401.3,127.8,402.4z"/>
<path class="st3" d="M128.6,402.5c0,0.3,0,0.6-0.1,0.9c-0.3-0.3-0.6-0.7-0.8-1C128.1,402.3,128.4,402.4,128.6,402.5z"/>
<path class="st8" d="M432.1,182.3c5.1,0.2,7,2,7.4,7.1c0.7,9.1-6.7,17.8-16,18.7c-1.1,0.1-2.5,0.1-3,1.1c-3,6.5-8.7,11.5-10.4,18.7
	c-2.5-2.4-3.3,0.6-4.4,1.5c-6.6,5.8-14,7.1-22.1,3.8c-4.3-1.7-7.6-4.8-10.7-8.1c-3.8-3.4-6.4-7.8-8.6-12.2c-1.2-2.5-2.5-3.2-5-3.2
	c-9.5,0.2-18.8-13.7-14.9-23.4c0.7-1.8,1.8-2.4,3.6-2.2c3-0.3,3.9,2.3,5.7,3.8c0.7,0.6,1.2,1.7,2.3,1.5c1.3-0.3,1.5-1.5,1.5-2.7
	c0.3-3.9,0.6-7.8,0.7-11.7c0-2.4,1-4.1,2.3-6.2c2.7-4.1,8.1-4.4,10.7-8.3c3.6-2.5,6.7-5.6,11-7c1.7-0.6,3.9-0.4,5-2.3
	c2.9-0.1,5.8-0.1,8.7-0.2c5.2-0.2,10.4,1.1,14.9,3.1c7.1,3.2,10.1,9.8,10.5,17.3c0.2,4.6,1.1,9,1.9,13.5c0.3,1.8,1.4,3,2.7,3.6
	c1.9,0.8,1.9-1.6,2.7-2.5C429.5,184.6,430.6,183.2,432.1,182.3z M400.1,184.5c-0.5,0.2-1.5,0.3-1.6,0.5c-0.2,1.1,0.7,1,1.5,1
	c6.9,5.6,13.3,1.6,19.9-0.7c-0.7-1.3-1.8-0.9-2.6-1.1c-1.7-5.7-6.5-4.5-10.7-4.6C403.1,179.5,400.8,181,400.1,184.5
	C400.1,184.5,400.1,184.5,400.1,184.5z M382.1,186.2c0.3-0.3,0.9-0.9,0.8-0.9c-2.7-2.7-4.6-6.1-9.5-5.8c-5.2,0.3-8,3.6-11.4,6.5
	c-0.6,0.3-1.8,1.2-0.7,1.4C368.3,188.6,375.5,191.7,382.1,186.2z M416.8,174.7c0.1-0.3,0.2-0.7,0.3-1c-2.2-1.1-4.4-2.7-6.7-3.2
	c-3.8-0.8-7.9-1.7-11.4,1.4c-0.7,0.6-1,1.2-0.8,2c0.2,0.8,0.9,0.8,1.5,0.8C405.4,174.7,411.1,174.7,416.8,174.7z M364,176
	c4.9-1.7,10-1.1,15-1.2c1.4-0.1,3.7,1.1,4.1-1c0.3-1.8-2.1-2.6-3.5-3.3c-1.7-0.9-3.9-0.9-5.6-0.2C370.4,171.7,366.5,172.5,364,176z
	 M384.3,212.9c0,0.4,0,0.8,0,1.2c5,0.8,10,0.8,15,0.1c0-0.4,0-0.8,0-1.2C394.3,212.9,389.3,212.9,384.3,212.9z"/>
<path class="st14" d="M371.1,160.6c-2.5,3.9-8,4.2-10.7,8.3c-1.4,2.1-2.3,3.8-2.3,6.2c-0.1,3.9-0.4,7.8-0.7,11.7
	c-0.1,1.1-0.3,2.3-1.5,2.7c-1.1,0.3-1.6-0.9-2.3-1.5c-1.7-1.5-2.7-4.1-5.7-3.8c-0.2-1.3-0.5-2.6-0.7-3.9c0.1-0.1,0.2-0.3,0.2-0.4
	c-0.1-0.2-0.4-0.4-0.5-0.6c-0.2-5-0.2-10.1-0.6-15.1c-1.3-18.3,13.9-30.7,25.6-35.1c2.8-1.1,5.7-1.9,8.8-2.3
	c3.6-0.5,6.6-1.5,8.3-5.7c4.4-11.1,18.1-14.2,27.7-6.7c6.1,4.8,9.8,11.9,5.5,20.8c-1.2,2.5-0.8,4.1,1.2,6.1
	c9.3,9.5,10.9,21.2,9.2,33.7c-0.3,2.3-0.9,4.6-0.6,7c-1.5,0.9-2.6,2.3-3.7,3.6c-0.8,0.9-0.8,3.4-2.7,2.5c-1.3-0.6-2.4-1.8-2.7-3.6
	c-0.8-4.5-1.7-8.9-1.9-13.5c-0.3-7.5-3.3-14-10.5-17.3c-4.5-2-9.6-3.3-14.9-3.1c-2.9,0.1-5.8,0.1-8.7,0.2c-0.4-1.5,1.2-1.8,1.9-2.7
	c-10.6,0.3-21.4,6.6-22.6,13.9C367.8,160.7,369.1,159.2,371.1,160.6z"/>
<path class="st15" d="M372.9,225.2c3.1,3.3,6.4,6.4,10.7,8.1c8.1,3.2,15.5,1.9,22.1-3.8c1.1-0.9,1.9-4,4.4-1.5
	c-0.8,7.3,4.3,11.1,9.2,15c0.1,2.6-1.7,3.8-3.8,4.9c-12,6.4-24.9,9.7-38.1,12.6c-12.9,2.9-25.8,2-38.7,2.4c-2,0.1-4.1-0.6-6.1-0.9
	c4.8-3.7,10.7-5.2,15.8-8.2c6.2-3.5,11.9-7.7,17.5-12c4.2-3.3,6.6-7,6.3-12.3C372.3,228,372.7,226.6,372.9,225.2z"/>
<path class="st0" d="M552.9,197.6c0,0.3,0,0.6,0,1c-3.5-2.9-4.8-7.2-6.5-11c-5.5-12.1-14.8-20.3-25.6-27.7c-7.3-5-15-8.9-23-12.3
	c-8-3.3-16.3-5.9-24.4-8.8c-12.7-4.4-24.1-10.3-32-21.8c-5.5-8.1-9.2-17.2-14.5-25.4c-9.3-14.5-21.1-26.4-38.5-30.9
	c-11.5-3-22.2-0.1-31.5,7.3c-1.7,1.3-3.2,2.6-5.5,2.5c4.3-6.8,11.2-10.1,18.7-12c2.9-0.7,5.4-2.3,8.7-2.3
	c10.6-0.1,19.5,3.9,27.8,9.7c13.4,9.3,22.4,22,29.7,36.1c3.5,6.8,6.8,13.9,12.6,19.3c6.9,6.4,14.8,11.1,24,13.9
	c10.7,3.3,21.2,7.3,31.5,11.8c13.9,6.1,26,14.7,35.8,25.9C546.5,179.9,551.5,188,552.9,197.6z"/>
<path class="st0" d="M244.9,220.4c-1.6,0-2.1,2-3.8,1.8c0.2-1.6-0.1-3.3,0.6-4.6c3.6-7.7,4.5-16,6.4-24.1
	c2.8-12.1,8.7-22.6,18.1-31.2c9.4-8.5,20.7-13.9,31.1-20.9c12.6-8.5,24.1-18.2,31.5-31.8c2.9-5.3,3.8-11.1,6-16.6
	c2.6-6.3,5.3-12.4,10.3-17.2c2-2,2.3-6,6.5-5.4c-2.3,6-7.5,10.1-10.3,15.7c-2.7,5.3-4.7,10.8-6.3,16.6c-2,7.2-6,13.5-10.6,19.3
	c-6.8,8.4-15.1,15.2-24,21.2c-7.5,5-15.4,9.5-22.9,14.5c-10.5,7-18.4,15.8-23,27.8c-3.1,8.1-4.5,16.4-6.3,24.7
	C247.2,213.8,244,216.5,244.9,220.4z"/>
<path class="st8" d="M531.1,250.6c0.9,1.7-0.2,3.3,1.4,4.5c2.9-1.4,3.2-4.9,5.5-6.8c1.2-1,2.1-2.7,4-2c1.8,0.6,2.7,2.2,3,4
	c0.8,3.6-0.9,6.4-3.2,9c-0.7,0.8-1.7,1.6-1.2,2.9c0.6,1.3,1.9,1,3,0.9c3.4-0.3,5.7,1.2,6.8,4.1c0.8,2.1,1,4.4-0.9,6.2
	c-1.8,1.6-3.5,0.8-5.4,0c-6-2.6-6-2.5-8,3.3c-0.7,2.1-1.7,4.5-4,5c-2.4,0.5-3.9-1.8-5.2-3.6c-1.4-2-1.3-4,0.1-6.2
	c2.8-4.2,2.5-4.9-2.6-5c-2.1-0.1-3.7-0.7-5.3-1.9c-2.1-1.5-3.7-3.5-2.6-6c1-2.2,3.4-2.7,5.8-1.9c0.2,0.1,0.3,0.1,0.5,0.1
	C529.4,258.2,530.2,257.6,531.1,250.6z"/>
<path class="st8" d="M385.4,101.6c1.7,3.5,0.9,5.8-3.1,7.1c-1.9,0.6-3.7,1.7-6.1,1.6c1,2.4,2.7,3.9,2.5,6.4c-0.2,2.7-1.8,4.2-4,4.6
	c-2.3,0.5-3.4-1.4-3.8-3.4c-0.7-3.4-2.2-4.7-5.8-2.9c-2.1,1.1-5.3,2.5-6.5-1.1c-1.2-3.3,0.9-6.4,4-7c4.4-0.8,3.2-2.2,1.5-4.4
	c-1.7-2.1-2.5-4.4-1-7c1.4-2.4,3.7-1.1,5.7-1.3c2.4,7.4,6.6,9.7,11.9,6.5c1,0,1.9,0,2.9,0C383.9,101.5,384.6,101.7,385.4,101.6z"/>
<path class="st9" d="M380.5,100.8c-5.3,3.2-9.4,0.9-11.9-6.5c2.5-0.5,4.7-0.1,6.4,2c0.6,0.7,1.2,1.6,2.4,1.2
	C380.9,96.4,380.4,98.8,380.5,100.8z"/>
<path class="st0" d="M515.9,168.9c-0.3,1-1.4,2.8-3.4,2.6c-1.4-0.1-3-1.5-2.9-3.3c0.2-2.2,1.7-3.2,4-3
	C515.4,165.4,516.3,166.2,515.9,168.9z"/>
<path class="st0" d="M327.1,252.2c-0.8,1.3-1.7,3-3.3,2.9c-1.7-0.1-3.3-1.5-3.1-3.5c0.2-1.6,1.5-2.9,3.3-2.7
	C325.8,249.2,326.8,250.4,327.1,252.2z"/>
<path class="st0" d="M344.5,131.9c-0.6,1.6-1.6,3.1-3.7,2.8c-1.4-0.2-3.1-0.8-2.6-2.7c0.4-1.6,1.7-2.7,3.5-2.7
	C343.3,129.3,344.4,130,344.5,131.9z"/>
<path class="st0" d="M506.4,317.3c0,1.8-0.7,2.7-2.3,2.5c-1.7-0.2-2.5-1.3-2.4-2.9c0.1-1.4,0.7-2.6,2.3-2.3
	C505.5,314.9,506.7,315.8,506.4,317.3z"/>
<path class="st8" d="M527.3,254.7c-0.3,0.1-0.6,0.3-0.7,0.2c-0.2-0.1-0.2-0.4-0.3-0.7c0.3-0.1,0.6-0.3,0.7-0.2
	C527.2,254.1,527.2,254.5,527.3,254.7z"/>
<path class="st9" d="M385.4,101.6c-0.8,0.1-1.5-0.1-1.9-0.8C384.8,99.4,385.1,100.4,385.4,101.6z"/>
<path class="st8" d="M347,179.5c0.2,0.2,0.4,0.4,0.5,0.6c0,0.1-0.1,0.2-0.2,0.4C347.2,180.1,347.1,179.8,347,179.5z"/>
<path class="st13" d="M581.8,476.3c5.3,4.1,10.7,8.1,16.1,12.2c0.8,0.6,1.5,1.1,1.8,2.1c-7.7,1.6-11.4,7.8-14.7,13.7
	c-8.7,15.6-22.8,23.5-39.2,29.5c-18,6.5-36.3,7.1-54.9,6c-7.1-0.4-14.6-0.5-21.6-3.2c-3.1-1.2-6.6-0.2-10-0.9
	c-9.6-2-19.4-3.2-29-5.2c-8.2-1.7-16.3-4-24.4-5.9c-4-0.9-8-1.7-12.1-2.5c-1.3-0.2-2.9-0.1-3-1.7c0-1.6,1.7-0.9,2.6-1.2
	c11.6-3.7,23.6-5.9,35.3-8.8c8-2,16.3-3.8,24.4-5.6c5.2-1.2,10.5-2.3,15.6-3.6c5.6-1.4,11.4-2.7,17.1-3.8c9.4-1.8,18.6-4.7,28.1-6.1
	c6.3-0.9,12.3-3,18.7-3.4c5-0.3,9.6-2.8,14.9-2.2c-2.6-2.4-5.5-3.4-8.5-4.6c-7.7-3.1-15.3-1.3-22.1,0.6c-12.9,3.7-25.8,1.8-38.7,2.5
	c-5,0.3-9.8-0.8-14.6-2.2c-4.2-1.2-8.9-1.7-13.2,0.5c-2.3,1.2-4.7,0.6-7.1,1.1c-10.9,2.4-21.8,5.1-32.2,9
	c-7.7,2.9-14.4-0.1-20.3-4.1c-12.4-8.4-22.7-18.7-28.7-32.6c0.6-0.1,1.3-0.2,1.9-0.3c9.4,3.7,19.2,5.6,29.1,4.4
	c24.9-2.9,48.1-11.1,70.1-22.7c6.3,4.6,8.9,11.6,12.3,18c1.1,2,1.5,4.8,4.6,4.8c9.1,0,18.2,1,27.3,1.9c2.9,0.1,5.8,0.2,8.7,0.3
	l-0.1,0.1c3.2,3,7.2,1.1,10.7,1.7c0.6,0.1,1.3,0.1,1.9,0.2c0.5,0.8,1.2,0.9,2,0.6c1,0.1,1.9,0.2,2.9,0.3c0.6,0.9,1.3,0.9,2,0.2
	c0.8,0,1.6,0,2.4,0c0.4,0.4,0.8,1.3,1.3,1.3c8.3,0.6,16.2,3.4,24.4,4.8c3.8,0.8,6.7,3.6,9.6,5.7
	C576.9,479.7,579.2,479.3,581.8,476.3z"/>
<path class="st15" d="M364.1,455.6c-0.6,0.1-1.3,0.2-1.9,0.3c-11.9-5.1-23.3-11.2-33.8-18.7c1.2-3.3,2.3-6.5,3.5-9.8
	c2.7-5.1,5.1-10.5,8.2-15.4c2.9-4.5,4.2-8.7,2.1-14.1c-1-2.6-1.6-5.7-2.5-8.5c-2.7-8.7-4.3-17.7-7.9-26.1c-0.1-1.2-0.1-2.4-0.2-3.6
	c-2-6.7-4.1-13.4-6.2-20.6c-2.8,3.1-3,6.2-4,9c-2.2,6.3-6.3,12-7.2,18.8l-0.3,0.3c-0.5-0.4-0.7-0.1-0.8,0.4
	c-1.2,2.1-2.5,4.2-2.8,6.7c-0.9,1.8-1.7,3.6-2.6,5.4c-7.4,15.1-13.8,30.8-27.8,41.6c-0.7,0.5-1.2,1-1.2,1.9
	c-0.6,0.3-1.2,0.5-0.9,1.3l0-0.2c-3.4-0.2-3.9,3.1-5.7,4.7c-0.7,0.3-1.7,0.3-2.2,0.8c-8.7,8.5-18.7,15.4-27.9,23.2
	c-3,2.2-6,4.4-9.1,6.6c-7.8,5.6-15.7,11.1-23.5,16.7c-3.4,0.6-5.8,2.8-8.3,4.9c-1.3-0.1-2-1-2.6-2c-0.6-2.8,1.1-4.4,3-6
	c11.7-10,23.5-19.9,35.1-30c18.8-16.1,37.2-32.7,54.3-50.5c7.4-7.7,12.2-17.4,17-27c4.8-9.6,8.3-19.6,11.8-29.6
	c2.3-6.7,4.9-13.5,5.8-20.7c0.4-3.5,2.3-6.8,3.6-10.1c0.3-0.9,0.9-2,2-1.7c1.5,0.3,1.1,1.8,0.9,2.8c-1.6,9.5-0.2,18.7,3,27.8
	c2.8,8.1,11.1,14.2,19.8,14.6c7.2,0.3,14.3,0.6,21.6,0.2c4.6-0.3,8.7-2.1,13.2-2.2c8.9-0.1,17.4,2.4,26,3.3
	c12.2,1.3,25.3,3.1,34.6-8.5c2,5.7-1.1,16.1-6.8,19c-6.2,3.1-12.6,4.9-20.6,3.3c-13-2.6-26.9-4.7-39.6,1.8
	c-13.1,6.7-18.3,19-22.1,32.1c-2.3,7.9-1.6,15.8-2,23.8c-0.4,8.1,1.7,15.8,3.5,23.6C363.5,448.4,364.2,451.9,364.1,455.6z"/>
<path class="st2" d="M507.4,461.9c-9.1-0.9-18.1-1.9-27.3-1.9c-3,0-3.5-2.8-4.6-4.8c-3.4-6.4-6.1-13.4-12.3-18
	c-3.7-10-8.5-19.4-14.7-28.1c-3.7-5.2-3-10-1.7-15.2c3.6-14.7,7.3-29.4,10.9-44.1c0.3-1.3,0.2-2.6,2.1-2.3c0.4,0.7,0.9,1.3,1.2,2
	c5.5,12.5,10.8,25.1,16.4,37.6c5.1,11.4,11.1,22.1,21.1,30.4c6,5,11.4,10.6,17.1,15.9c-2.2,0.2-3.3,1.7-4.1,3.5
	c-2.4,5.5-4.6,11.1-6.1,17C504.7,457.1,502.8,460.2,507.4,461.9z"/>
<path class="st15" d="M515.6,433.5c-5.7-5.3-11.1-10.9-17.1-15.9c-9.9-8.3-16-19-21.1-30.4c-5.6-12.5-10.9-25.1-16.4-37.6
	c-0.3-0.7-0.8-1.3-1.2-2c-1.7-12.3,2-24.1,3.1-36.8c3.4,4.4,3.3,9.4,4.5,13.7c4.4,16.1,9.8,31.9,15.3,47.6
	c6.8,19.4,19.3,34.9,35.3,47.9c6.5,5.3,12,11.8,18.3,17.4c8.7,7.8,17.7,15.2,26.5,22.8c6.2,5.2,11.8,11.1,18.7,15.4
	c0.1,0.3,0.1,0.5,0.2,0.8c-2.6,3-5,3.4-8.6,0.7c-2.9-2.1-5.7-4.9-9.6-5.7c-6.1-5.9-13.4-10.3-20.2-15.2
	c-7.1-5.8-14.2-11.6-21.2-17.3C519.9,437.2,518.4,434.5,515.6,433.5z"/>
<path class="st0" d="M275.1,351.5c-1.9-4.9-3.4-9.9-3.2-15.3c0.1-0.8,0-1.6-0.9-2.1c0-0.9-0.1-1.7-0.1-2.6c0.4-2.5-0.7-5.7,3-6.9
	c1.7,4.8,3.4,9.6,5.1,14.4C279.1,343.7,276.9,347.6,275.1,351.5z"/>
<path class="st3" d="M368.9,39.2c-0.7-1.5-2-2-3.6-1.9c-8.8,0.3-17.7-0.8-26.5,0.9c22-26.9,53-24,73.6-1c-5.5,0-10.8-1.7-16.3-0.9
	c-3.1,0.4-6.6-0.3-8.9,2.8C381.2,39.1,375,39.2,368.9,39.2z"/>
<path class="st9" d="M412.5,37.2c-20.6-23-51.6-26-73.6,1C333,44.4,329.7,52,327.3,60c-2.6,8.7-6.3,16.9-12.5,23.8
	c-0.5,0.5-1.4,0.6-2.1,0.9l0,0c-0.5-2.6,1.6-4,2.9-5.7c5.6-7.5,8.8-16.2,11.4-24.9c1.8-6.1,5.9-10.9,8.1-16.8
	c4.3-2.4,7.2-6.4,10.7-9.8c2.3-2.2,4.8-4,7.6-5.5c6.5-3.1,13-6.4,20.5-6.6c9.2-0.2,17.3,3.1,25.1,7.5c6.8,4,12.5,9.2,18.4,14.3
	c0,0,0,0,0,0c0,1.2,0.7,1.9,1.9,1.9c3,5.9,8.1,10.4,11.2,16.2c3.8,7.2,8.7,13.8,11.1,21.7c0,0,0,0,0,0c-4.2-2.1-5.6-6.2-7.4-9.9
	c-5.3-11-12.5-20.7-20.7-29.7C413.2,37.3,412.8,37.3,412.5,37.2z"/>
<path class="st9" d="M533.5,127.4c-4,0.1-6-3.4-8.9-5.2c-11.7-7.2-24.1-12.6-37.2-16.8c-13.3-4.2-26.9-7.7-37.7-17.2
	c-3.6-3.1-7.3-6.2-8.3-11.1c0,0,0,0,0,0c3.5,1.8,5.4,5.2,8.1,7.8c7.3,7,16.4,10.7,25.7,14c14.6,5.2,29.9,8.8,43.3,16.9
	C523.9,119.1,530.6,120.9,533.5,127.4L533.5,127.4z"/>
<path class="st9" d="M548.3,144.1c4.4-0.5,5.1,3,6.2,5.2c5.9,11.2,10.7,22.8,13.2,35.4c0.9,4.5,2.6,8.8,2.5,13.6
	C563.8,179.9,560.1,160.7,548.3,144.1z"/>
<path class="st9" d="M533.6,127.3c7,1.7,9.7,8,14.2,12.4c0.2,0.2,0,1-0.2,1.2c-0.8,0.7-1.5,0.1-2-0.5
	C541.9,135.8,536.8,132.4,533.6,127.3C533.5,127.4,533.6,127.3,533.6,127.3z"/>
<path class="st9" d="M577.1,215.6c-5-2.5-3.6-8.2-6.3-11.9c-0.3-0.5,0.2-1.2,1-1.2c0.9,0,1.8,0.4,1.9,1.1
	C574.1,207.8,577.8,211.1,577.1,215.6C577.1,215.6,577.1,215.6,577.1,215.6z"/>
<path class="st3" d="M393.1,41c-1.4,0-2.4-0.6-2.9-1.9C391.6,39.1,393,39.1,393.1,41z"/>
<path class="st3" d="M419.2,39.2c-1.2-0.1-1.9-0.7-1.9-1.9C418.6,37.3,419.2,37.9,419.2,39.2z"/>
<path class="st0" d="M232.1,241.1c-6,2.1-11.3,5.6-17.2,7.9c-3.7,1.5-7.5,2.3-11.2,3.3c-9.7,2.5-19,5.6-28.4,8.9
	c-10.6,3.6-18.6,10.4-25.9,18c-4.9,5.1-8.2,11.5-11.2,17.9c-2.9,6.4-6,13-7,19.8c-0.9,6.4-3.4,12.7-2.5,19.4
	c0.3,2.2-0.3,3.4-2.8,2.5c0.1-16.7,3.5-32.5,11.7-47.5c5.2-9.6,11.4-17.9,20.2-24.4c7.3-5.4,15.3-9.3,24.2-11.6
	c6.9-1.8,13.5-5,20.4-6.2c7.8-1.3,14.2-5,21.2-7.8c3.2-1.3,4.5-5.7,8.8-4.9C232.3,238,232.2,239.6,232.1,241.1z"/>
<path class="st3" d="M364,42c0.2-1.2,0.4-2.3,1.9-0.9C365.5,41.8,364.8,42,364,42z"/>
<path class="st11" d="M152,473.6c-1.7-0.6-4.5,1.3-5.7-1.4c-0.8-2-0.2-4.2,1.1-6.2c1.2-1.9,2.7-2.1,4.5-1.5c3.5,1.1,7,0.9,10.4,0.3
	c1.3-0.3,2.6-0.6,3.5,0.7c1.1,1.6-0.1,2.7-1,3.7C161.5,472.7,157.2,473.8,152,473.6z"/>
<path class="st11" d="M156.7,460.2c1.3-6.8,5-12.9,5.9-19.8c1.7,0.2,2.3,1.4,1.8,2.6c-1.7,4.9-0.5,9.8,0.2,14.6
	C162.6,460.4,159.4,459.6,156.7,460.2z"/>
<path class="st9" d="M143.2,460.3c1.3,0.2,2.5-3.9,3.9-0.1c-5.3,3.9-7.8,13.8-4.6,18.5c-1.3,1-2.7,0.4-4.1,0.5
	c-0.7-3.2,1.4-6.3,0-9.5c0-0.6,0-1.2,0-1.9c0.3-0.3,0.6-0.6,0.9-1C140.6,464.8,141.9,462.6,143.2,460.3z"/>
<path class="st9" d="M130.6,485.9c0.4-1.7-1-4,1.8-4.8c0.4,2.8,2.5,2.8,4.7,2.9c2.4,0.1,5-0.7,7.3,0.9c-1.2,2.5-9.6-1.6-4.9,5.6
	c-1,0.1-2,0.1-3,0.2C135.3,488.2,132.3,487.8,130.6,485.9z"/>
<path class="st11" d="M138.3,469.8c1.4,3.2-0.7,6.3,0,9.5c-1.6,0-3.2,0.1-4.8,0.1C133,475.2,135,472.2,138.3,469.8z"/>
<path class="st11" d="M170.3,457.6c0.2-1.5,0.7-3,2.5-2.7c2,0.3,1.2,2.2,1.4,3.5C172.8,458.4,171.4,458.7,170.3,457.6z"/>
<path class="st9" d="M152.9,460.3c0.4,0.1,0.8,0.2,1.2,0.3c-2.1,2.1-4.2,2.9-6.1-0.2C149.6,460.4,151.3,460.3,152.9,460.3z"/>
<path class="st11" d="M177.1,458.5c1.1-1.3,2.1-1.4,2.9,0.4C178.9,459.5,177.9,459.4,177.1,458.5z"/>
<path class="st11" d="M130.6,485.9c1.7,1.8,4.7,2.2,5.8,4.8c-3,11.8-3.3,23.9-3,36c0,1.6,0.6,3.5-1,4.9c-2.7-2.3-4.9-5.4-8.6-6.5
	c0-5.8-0.5-11.7,0.1-17.5c0.8-7.2,2.3-14.4,5.3-21.1C129.4,486.1,130.1,486.1,130.6,485.9z"/>
<path class="st5" d="M209.4,476.2c7.8-5.6,15.7-11.1,23.5-16.7c3-2.2,6-4.4,9.1-6.6c0.7,2.7,3.5,2.2,5.2,2.5
	c8.3,1.1,16.2,3.1,23.2,7.7c4,2.7,6.9,1.9,9.8-1.7c7.1-8.8,16.6-13,27.9-13.5c2.4,0.2,4.9-0.1,6.8,1.8c-3,5.2-7.8,9.1-11.2,14
	c-0.9,1.3-2.4,1.4-3.9,1.4c-25.7,0.4-51.2,3.6-76.5,7.6C218.5,473.4,214.3,476.3,209.4,476.2z"/>
<path class="st11" d="M314.9,449.7c-1.9-1.9-4.4-1.6-6.8-1.8c1-3.3,2.1-6.6,3.1-9.9c1.9-5.8,5.5-9.8,12-10.5
	c2.9-0.3,5.8-0.2,8.7-0.3c-1.2,3.3-2.3,6.5-3.5,9.8C323.1,440.6,320.3,446.5,314.9,449.7z"/>
<path class="st11" d="M625.8,473.5c-4.8,0-9-1.5-12.3-5c-0.8-0.9-1.8-2-1.2-3.4c0.7-1.5,2.2-1.1,3.4-1c4,0.6,7.8,1,11.8,0.1
	c4.1-0.8,3.5,3.4,4.4,5.5c0.8,2.1-1,3.4-3.2,3.7C627.8,473.6,626.8,473.5,625.8,473.5z"/>
<path class="st11" d="M139.3,467c-0.3,0.3-0.6,0.6-0.9,1C138.7,467.6,139,467.3,139.3,467z"/>
<path class="st3" d="M118.9,450.8c0,1.2-0.6,1.8-1.8,2C117.1,451.6,117.7,450.9,118.9,450.8z"/>
<path class="st9" d="M312.7,84.7c-4.2,7.1-10.6,12.2-17.1,16.9c-12.3,9-26.1,15.6-38.4,24.7c-0.6,0.4-1.2,1.1-2.4,0.3
	c1.8-3.5,5.1-5.4,8.1-7.4c10.5-6.9,21.7-12.5,31.7-20.1c5.1-3.8,10.3-7.6,14.5-12.4C310.1,85.4,311,84.4,312.7,84.7
	C312.7,84.7,312.7,84.7,312.7,84.7z"/>
<path class="st3" d="M273.9,324.7c-3.8,1.1-2.6,4.3-3,6.9c-2.9-2.6-2.6-6.5-3.4-9.7c-2.3-8.6-4.2-17.2-6.5-25.8
	c-1.5-5.5-3.3-11-3.7-16.8c0.2-1.1,0.6-2.1,2-2c4.1,12.7,8.4,25.3,12.4,38C272.7,318.3,274.7,321.2,273.9,324.7z"/>
<path class="st9" d="M259.4,277.3c-1.4,0-1.8,0.9-2,2c-0.4-0.2-1.1-0.4-1.2-0.7c-2.1-8.1-4.1-16.2-5.5-24.5
	C254.7,261.4,257,269.3,259.4,277.3z"/>
<path class="st3" d="M271.1,334.2c0.8,0.5,0.9,1.2,0.9,2.1C270.9,335.8,269.8,335.5,271.1,334.2z"/>
<path class="st8" d="M177.1,315.6c-0.1-2.7,1.3-4.8,4-5c5.1-0.3,4-2.1,1.7-4.8c-1.1-1.3-1.8-3.2-1.4-4.8c0.4-1.5-0.1-3.7,2-4.5
	c2-0.7,3.9,0.8,4.5,2.1c2.7,5.6,8,4.5,12.6,5.2c2.5,0.4,5.5,0.3,5.3,3.3c-0.2,2.5-2.1,5.1-5.4,5.1c-4.5,0-6.2,0.7-3,5.2
	c1.9,2.6-0.6,5.1-2.7,6.5c-2.9,1.9-5-0.8-5.4-2.9c-0.8-4.4-2.4-4.5-6.1-2.6C179.6,320.3,177.1,318.8,177.1,315.6z"/>
<path class="st13" d="M371.1,160.6c-2-1.4-3.3,0.1-4.8,1.8c1.2-7.3,12-13.7,22.6-13.9c-0.7,0.9-2.3,1.2-1.9,2.7
	c-1.1,1.9-3.3,1.8-5,2.3C377.8,155,374.7,158.2,371.1,160.6z"/>
<path class="st13" d="M362.1,186c3.3-2.9,6.1-6.2,11.4-6.5c4.9-0.2,6.8,3.1,9.5,5.8c0,0-0.5,0.6-0.8,0.9
	C375.4,186.1,368.8,186.1,362.1,186z"/>
<path class="st13" d="M400.1,184.5c0.7-3.5,3-5,6.5-4.9c4.2,0.1,9-1.2,10.7,4.6C411.6,186,405.9,186.3,400.1,184.5z"/>
<path class="st14" d="M416.8,174.7c-5.7,0-11.4,0-17.1,0c-0.6,0-1.3,0.1-1.5-0.8c-0.2-0.8,0.1-1.4,0.8-2c3.5-3.1,7.6-2.2,11.4-1.4
	c2.4,0.5,4.5,2.1,6.7,3.2C417,174,416.9,174.3,416.8,174.7z"/>
<path class="st14" d="M364,176c2.6-3.6,6.4-4.3,9.9-5.7c1.7-0.7,3.9-0.7,5.6,0.2c1.5,0.7,3.9,1.5,3.5,3.3c-0.3,2-2.7,0.9-4.1,1
	C373.9,175,368.9,174.3,364,176z"/>
<path class="st14" d="M400.1,184.5c5.8,1.8,11.5,1.5,17.2-0.3c0.9,0.2,2-0.2,2.6,1.1c-6.6,2.3-13,6.3-19.9,0.7
	C400,185.5,400.1,185,400.1,184.5L400.1,184.5z"/>
<path class="st14" d="M362.1,186c6.7,0.1,13.3,0.2,20,0.2c-6.6,5.4-13.8,2.4-20.7,1.1C360.3,187.2,361.5,186.3,362.1,186z"/>
<path class="st14" d="M384.3,212.9c5,0,10,0,15,0c0,0.4,0,0.8,0,1.2c-5,0.7-10,0.8-15-0.1C384.3,213.7,384.3,213.3,384.3,212.9z"/>
<path class="st13" d="M400.1,184.5c0,0.5,0,1-0.1,1.5c-0.8,0-1.7,0-1.5-1.1C398.6,184.7,399.5,184.6,400.1,184.5z"/>
<path class="st11" d="M522.2,438.8c7.1,5.8,14.2,11.6,21.2,17.3c-0.3,1.5,0.2,2.7,1,4c1.7,3.1,0.6,4.8-3,4.9c-1.1,0-2.3,0.1-3.4,0.2
	c-0.8,0-1.6,0-2.4,0c-0.6-1-1.2-1.2-2-0.2c-1-0.1-1.9-0.2-2.9-0.3c-0.3-1.3-0.8-2-2-0.6c-0.6-0.1-1.3-0.1-1.9-0.2
	c-3.1-3.5-7.2-1.1-10.7-1.7c0,0,0.1-0.1,0.1-0.1c0-2.7-0.1-5.3,0.9-7.9C518.9,449.2,520.5,444,522.2,438.8z"/>
<path class="st0" d="M522.2,438.8c-1.7,5.2-3.3,10.4-5.2,15.5c-1,2.6-0.9,5.3-0.9,7.9c-2.9-0.1-5.8-0.2-8.7-0.3
	c-4.6-1.8-2.8-4.8-2-8c1.5-5.9,3.7-11.4,6.1-17c0.8-1.8,1.9-3.3,4.1-3.5C518.4,434.5,519.9,437.2,522.2,438.8z"/>
<path class="st9" d="M538,465.3c1.1-0.1,2.3-0.2,3.4-0.2c3.6-0.1,4.7-1.8,3-4.9c-0.7-1.3-1.3-2.5-1-4c6.9,4.9,14.1,9.3,20.2,15.2
	c-8.2-1.4-16-4.1-24.4-4.8C538.8,466.5,538.4,465.7,538,465.3z"/>
<path class="st9" d="M516,462.3c3.6,0.6,7.7-1.9,10.7,1.7C523.2,463.4,519.2,465.3,516,462.3z"/>
<path class="st9" d="M528.7,464.2c1.1-1.4,1.6-0.7,2,0.6C529.9,465.1,529.2,465,528.7,464.2z"/>
<path class="st9" d="M533.5,465.1c0.8-1,1.4-0.8,2,0.2C534.8,466,534.1,466,533.5,465.1z"/>
<path class="st6" d="M331.8,427.3c-2.9,0.1-5.8,0-8.7,0.3c-6.5,0.7-10.1,4.7-12,10.5c-1.1,3.3-2.1,6.6-3.1,9.9
	c-11.3,0.5-20.8,4.7-27.9,13.5c-2.9,3.6-5.8,4.4-9.8,1.7c-7-4.7-14.9-6.6-23.2-7.7c-1.7-0.2-4.4,0.2-5.2-2.5
	c9.2-7.8,19.2-14.8,27.9-23.2c0.5-0.5,1.5-0.6,2.2-0.8c-0.8,8.4,2.1,16.3,2.9,24.6c0.9-9.8,1.3-19.6,2.9-29.3c0,0,0,0.2,0,0.2
	c0.3-0.4,0.6-0.9,0.9-1.3c0-0.9,0.5-1.4,1.2-1.9c14-10.8,20.4-26.5,27.8-41.6c0.9-1.8,1.7-3.6,2.6-5.4c1.9,0.1,3.3-0.9,4.8-1.8
	c5.4-3.3,10.8-6.7,16.8-9c3.6,8.4,5.2,17.5,7.9,26.1c0.9,2.8,1.4,5.9,2.5,8.5c2.1,5.4,0.8,9.5-2.1,14.1
	C337,416.8,334.6,422.2,331.8,427.3z"/>
<path class="st6" d="M314.2,366.7c0.9-6.8,5-12.4,7.2-18.8c1-2.7,1.2-5.9,4-9c2.2,7.2,4.2,13.9,6.2,20.6
	C324.8,359.6,320,364.3,314.2,366.7z"/>
<path class="st3" d="M314.2,366.7c5.8-2.5,10.6-7.1,17.5-7.1c0.1,1.2,0.1,2.4,0.2,3.6c-6,2.3-11.4,5.7-16.8,9
	c-1.5,0.9-2.9,2-4.8,1.8c0.3-2.5,1.6-4.6,2.8-6.7c0.3-0.1,0.5-0.2,0.8-0.4L314.2,366.7z"/>
<path class="st4" d="M277.8,424.1c-1.6,9.7-2,19.5-2.9,29.3c-0.8-8.3-3.6-16.3-2.9-24.6C273.9,427.2,274.3,423.9,277.8,424.1z"/>
<path class="st6" d="M313.9,367c-0.3,0.1-0.5,0.2-0.8,0.4C313.2,366.9,313.3,366.6,313.9,367z"/>
<path class="st4" d="M278.6,423c-0.3,0.4-0.6,0.9-0.9,1.3C277.4,423.4,278,423.2,278.6,423z"/>
<g>
	<defs>
		<rect id="SVGID_1_" width="792" height="792"/>
	</defs>
	<clipPath id="SVGID_00000077303999752907210510000017017817268081788321_">
		<use xlink:href="#SVGID_1_"  style="overflow:visible;"/>
	</clipPath>
	<g style="clip-path:url(#SVGID_00000077303999752907210510000017017817268081788321_);">
		<defs>
			<path id="SVGID_00000116947424262284911150000010953435644398028457_" d="M104.5,0h583C745.2,0,792,46.8,792,104.5v583
				c0,57.7-46.8,104.5-104.5,104.5h-583C46.8,792,0,745.2,0,687.5v-583C0,46.8,46.8,0,104.5,0z"/>
		</defs>
		<clipPath id="SVGID_00000063620852965997490670000001002050187487001533_">
			<use xlink:href="#SVGID_00000116947424262284911150000010953435644398028457_"  style="overflow:visible;"/>
		</clipPath>
	</g>
</g>
<path class="st17" d="M792,63c0,221.3,0,442.7,0,664c-0.7,1.7-1.5,3.3-2.1,5c-9.6,27.1-28.1,45.5-55.5,54.9
	c-5.2,1.8-10.6,2.8-15.9,4.1c-215.6,0-431.3,0-646.9,0c-0.9-0.3-1.8-0.8-2.8-1c-17.7-2.9-33-10.5-46.1-22.8
	C12.3,757.6,5.4,745.8,0,733C0,507.7,0,282.3,0,57c0.5-1,1.1-2,1.6-3.1C9.3,34.5,22.5,19.7,40.8,9.5C47,6.1,53.9,3.8,60.5,1
	c223,0,446,0,669.1,0c1.2,0.6,2.3,1.3,3.6,1.7c22.1,6.9,38.7,20.6,50.1,40.4C786.8,49.4,789.1,56.3,792,63z M11.2,200.9
	c0,1,0,2.1,0,3.1c0,24.6,0,49.3,0,73.9c-0.1,20.6-0.2,41.2-0.2,61.8c0,32.4,0.1,64.8,0.2,97.2c0,22.3,0,44.7,0,67
	c-0.1,1.8-0.2,3.7-0.2,5.5c0,51.5,0,103,0,154.5c0,2.7,0.1,5.3,0.2,8c0,3.1,0,6.1,0,9.2c-0.1,8.8-0.5,17.7-0.1,26.5
	c0.9,20.8,10.1,37.5,26,50.9c9.9,8.9,21.7,14.4,34.8,16.3c8.9,1.3,18,1.2,27.1,1.2c39.2,0.1,78.4-0.1,117.7-0.1c3-0.7,6-1.3,9.1-2
	c1.6,0.7,3.1,2.1,4.7,2.1c11.9,0.1,23.7,0,35.6-0.1c20.8,0,41.6,0,62.5,0c32.2,0,64.5,0,96.7,0c3.4,0,6.7,0,10.1,0
	c9.7,0,19.5,0,29.2,0c1.7,0,3.4,0,5.1,0c25.9,0,51.7,0,77.6,0c1,0.1,2,0.2,3,0.2c52.2,0,104.5,0,156.7,0c1.8,0,3.7-0.2,5.5-0.3
	c2-0.3,4-0.4,5.9-0.8c14.7-3,27.9-9,38.4-19.9c3.3-3.7,6.8-7.3,9.8-11.3c12.5-17.1,13.7-36.6,12.3-56.7c0-4,0-8.1,0-12.1
	c0-17.6,0-35.2,0-52.8c0.1-1.2,0.2-2.3,0.2-3.5c0-59.1,0-118.2,0-177.3c0-1.2-0.1-2.3-0.2-3.5c0.1-1.8,0.2-3.6,0.2-5.5
	c0-49.6,0-99.3,0-148.9c0-1.8-0.1-3.7-0.2-5.5c0-1.8,0.1-3.7,0.1-5.5c0-38.1,0.1-76.2,0.1-114.3c0-1.8,0.1-3.7,0.1-5.5
	c-0.1-25.8,0.4-51.5-0.6-77.3c-0.4-10.5-5.1-20.4-12.5-28.6c-1.4-2.2-2.4-4.6-4.2-6.5C745.4,22.5,724.8,14,700.4,14
	c-180,0.1-360,0-540,0.1c-27.3,0-54.6,0.8-81.9,0.9C65.8,15,54.7,19.3,44.4,26.1c-3.3,2.1-6.4,4.7-9,7.5c-4.7,5-9,10.3-13.5,15.5
	c-7.1,10.4-11.5,21.8-11.5,34.3c-0.1,25.6,0.5,51.1,0.8,76.7C11.2,173.6,11.2,187.3,11.2,200.9z"/>
<g>
	<g>
		<path d="M47,704.5V640h10.8v64.5H47z M64.4,681.9l-5.3-30.5h-2.8l0.7-11.4h6.5l4.6,28.8h0.4l1.2,13.1H64.4z M67,681.9l1.3-13.1
			h0.5l4.6-28.8h6.5l0.7,11.4h-2.8l-5.3,30.5H67z M79.1,704.5V640H90v64.5H79.1z"/>
		<path d="M121.2,705.4c-6.7,0-11.9-2.2-15.6-6.5s-5.5-10.5-5.5-18.4c0-8,1.8-14.1,5.5-18.5c3.7-4.3,8.9-6.5,15.6-6.5
			c6.7,0,11.9,2.2,15.6,6.5c3.7,4.3,5.5,10.5,5.5,18.5c0,7.9-1.8,14.1-5.5,18.4C133.1,703.2,127.9,705.4,121.2,705.4z M121.2,693.7
			c2.9,0,5.1-1.2,6.6-3.5c1.6-2.3,2.3-5.6,2.3-9.8c0-4.3-0.8-7.6-2.3-9.9c-1.6-2.3-3.8-3.5-6.6-3.5c-2.8,0-5,1.2-6.6,3.5
			s-2.4,5.6-2.4,9.9c0,4.2,0.8,7.5,2.4,9.8C116.2,692.5,118.4,693.7,121.2,693.7z"/>
		<path d="M149.9,667.6v-11.3h43.7v11.3H149.9z M161.1,681v-39.2h11.9V681H161.1z M183.8,705.4c-8,0-13.8-1.7-17.4-5
			c-3.6-3.3-5.4-8.7-5.4-16v-6.3h11.9v5.1c0,3.7,0.9,6.3,2.7,8c1.8,1.7,4.8,2.5,9,2.5c1.3,0,2.8-0.1,4.3-0.2
			c1.5-0.2,3.3-0.4,5.3-0.7l1.1,11.5c-1.9,0.4-3.8,0.6-5.6,0.8S185.9,705.4,183.8,705.4z"/>
		<path d="M207,704.5v-68.1h11.9v68.1H207z M234.5,704.5v-29.1c0-2.7-0.6-4.8-1.7-6.2s-2.8-2.2-4.9-2.2c-6,0-9,4.2-9,12.7l-2.7-14.6
			h3.9c0.4-3.2,1.5-5.7,3.2-7.2c1.7-1.6,4.3-2.4,7.7-2.4c4.9,0,8.7,1.5,11.4,4.6c2.7,3.1,4,7.4,4,13.1v31.3H234.5z"/>
		<path d="M283.1,705.4c-8.1,0-14.3-2.2-18.7-6.5c-4.4-4.3-6.6-10.5-6.6-18.6c0-7.9,1.9-14,5.6-18.3c3.7-4.4,9-6.5,15.8-6.5
			c6.7,0,11.8,2,15.4,6c3.6,4,5.5,9.9,5.5,17.6c0,2.2-0.1,4.3-0.3,6.2h-34.2v-8.5h22.8c0-3.2-0.8-5.7-2.4-7.4
			c-1.6-1.7-3.8-2.6-6.7-2.6c-3.1,0-5.5,1.1-7.2,3.4c-1.7,2.3-2.6,5.5-2.6,9.7c0,4.5,1.3,8,3.8,10.4s6.1,3.5,10.8,3.5
			c2.1,0,4.2-0.1,6.2-0.3c2.1-0.2,4.1-0.5,6.3-0.9l1.1,11.6c-3,0.5-5.7,0.9-8.2,1C287.2,705.3,285,705.4,283.1,705.4z"/>
		<path d="M308.6,704.5v-10.5h32.6v10.5H308.6z M310.3,666.9v-10.5h17.6l0.9,10.5H310.3z M318.4,704.5v-48.1h10.1l1.8,13.8v34.3
			H318.4z M330.3,683.8l-2.7-16.6h4c0.5-7.8,4.4-11.8,11.9-11.8c4.4,0,7.8,1.7,10.2,5s3.5,8.2,3.5,14.5h-11.9c0-2.8-0.5-4.9-1.5-6.1
			c-1-1.2-2.6-1.9-4.9-1.9c-2.9,0-5.1,1.5-6.5,4.4C331,674.3,330.3,678.4,330.3,683.8z"/>
		<path d="M391.4,705.4c-19.9,0-29.8-11.1-29.8-33.2c0-10.5,2.5-18.6,7.5-24.4c5-5.8,12.1-8.7,21.3-8.7c4.1,0,7.8,0.7,11,2.1
			c3.2,1.4,5.6,3.3,7.3,5.9l-6.5,8.8c-1.3-1.7-3-3-5-3.9c-2-0.9-4.2-1.4-6.6-1.4c-5,0-9.1,1.8-12.1,5.5c-3,3.7-4.5,8.9-4.5,15.6
			c0,14.8,6.4,22.3,19.1,22.3c4.2,0,8.4-0.9,12.6-2.7l2,11.1C402.4,704.3,397.1,705.4,391.4,705.4z"/>
		<path d="M430.5,705.4c-5,0-8.8-1.3-11.6-3.8s-4.1-6.1-4.1-10.7c0-5.4,1.8-9.5,5.4-12.4c3.6-2.9,8.7-4.3,15.3-4.3
			c2.5,0,4.8,0.1,6.6,0.4c1.9,0.3,3.7,0.7,5.6,1.3l-1.9,9.6c-1.9-0.5-3.6-0.7-5.1-0.8c-1.5-0.1-3.1-0.1-4.7-0.1
			c-6.2,0-9.2,1.8-9.2,5.4c0,1.6,0.6,2.9,1.7,3.7c1.1,0.9,2.7,1.3,4.9,1.3c2.6,0,4.7-0.5,6.5-1.5c1.7-1,3-2.3,3.9-3.8
			s1.3-3.1,1.3-4.8v-3l1.7,12.4H443l1.5-1.5c-0.1,2.8-0.7,5.1-1.8,7c-1.1,1.9-2.7,3.3-4.8,4.2C435.8,704.9,433.3,705.4,430.5,705.4z
			 M446.2,704.9l-1-14.3l-0.2-6.3V675c0-2.6-1.1-4.5-3.2-5.7c-2.1-1.2-5.3-1.9-9.5-2l-11.9-0.3l0.9-11.2l10.2,0.1
			c8.4,0.1,14.7,1.8,18.8,5.2c4.1,3.3,6.2,8.2,6.2,14.5v17.8l6.5,1v10L446.2,704.9z"/>
		<path d="M466.8,704.5v-10.5h32.6v10.5H466.8z M468.6,666.9v-10.5h17.6l0.9,10.5H468.6z M476.7,704.5v-48.1h10.1l1.8,13.8v34.3
			H476.7z M488.5,683.8l-2.7-16.6h4c0.5-7.8,4.4-11.8,11.9-11.8c4.4,0,7.8,1.7,10.2,5s3.5,8.2,3.5,14.5h-11.9c0-2.8-0.5-4.9-1.5-6.1
			c-1-1.2-2.6-1.9-4.9-1.9c-2.9,0-5.1,1.5-6.5,4.4C489.2,674.3,488.5,678.4,488.5,683.8z"/>
		<path d="M546.9,705.4c-8.1,0-14.3-2.2-18.7-6.5c-4.4-4.3-6.6-10.5-6.6-18.6c0-7.9,1.9-14,5.6-18.3c3.7-4.4,9-6.5,15.8-6.5
			c6.7,0,11.8,2,15.4,6c3.6,4,5.5,9.9,5.5,17.6c0,2.2-0.1,4.3-0.3,6.2h-34.2v-8.5h22.8c0-3.2-0.8-5.7-2.4-7.4
			c-1.6-1.7-3.8-2.6-6.7-2.6c-3.1,0-5.5,1.1-7.2,3.4c-1.7,2.3-2.6,5.5-2.6,9.7c0,4.5,1.3,8,3.8,10.4s6.1,3.5,10.8,3.5
			c2.1,0,4.2-0.1,6.2-0.3c2.1-0.2,4.1-0.5,6.3-0.9l1.1,11.6c-3,0.5-5.7,0.9-8.2,1C550.9,705.3,548.8,705.4,546.9,705.4z"/>
	</g>
</g>
<g>
	<g>
		<path d="M586.2,704.5l18-64.5h14.2l18,64.5H624l-12.2-48.7h-0.8l-12.2,48.7H586.2z M595.3,692.2v-11.1h31.6v11.1H595.3z"/>
		<path d="M644.4,725.4v-69h11l0.9,10.2v58.9H644.4z M668.7,705.4c-3.3,0-5.9-0.8-7.8-2.4s-3.2-4-3.6-7.2h-4.1l3.2-15.3
			c0,4.7,0.7,8.1,2,10.2c1.3,2.1,3.7,3.2,7.1,3.2c3.1,0,5.5-1.1,7.1-3.4c1.6-2.2,2.4-5.6,2.4-10c0-4.3-0.8-7.6-2.5-9.9
			c-1.6-2.3-4-3.5-7-3.5c-3,0-5.3,1.1-6.8,3.2c-1.5,2.1-2.3,5.6-2.3,10.2l-2.7-15.4h3.4c0.6-3.2,1.8-5.7,3.6-7.2
			c1.8-1.6,4.5-2.4,8.1-2.4c5.8,0,10.4,2.2,13.6,6.5c3.2,4.4,4.8,10.5,4.8,18.5c0,8-1.6,14.2-4.8,18.5
			C679,703.2,674.5,705.4,668.7,705.4z"/>
		<path d="M697.1,725.4v-69h11l0.9,10.2v58.9H697.1z M721.4,705.4c-3.3,0-5.9-0.8-7.8-2.4s-3.2-4-3.6-7.2h-4.1l3.2-15.3
			c0,4.7,0.7,8.1,2,10.2c1.3,2.1,3.7,3.2,7.1,3.2c3.1,0,5.5-1.1,7.1-3.4c1.6-2.2,2.4-5.6,2.4-10c0-4.3-0.8-7.6-2.5-9.9
			c-1.6-2.3-4-3.5-7-3.5c-3,0-5.3,1.1-6.8,3.2c-1.5,2.1-2.3,5.6-2.3,10.2l-2.7-15.4h3.4c0.6-3.2,1.8-5.7,3.6-7.2
			c1.8-1.6,4.5-2.4,8.1-2.4c5.8,0,10.4,2.2,13.6,6.5c3.2,4.4,4.8,10.5,4.8,18.5c0,8-1.6,14.2-4.8,18.5
			C731.7,703.2,727.2,705.4,721.4,705.4z"/>
	</g>
</g>
</svg>
