<?xml version="1.0" encoding="utf-8"?>
<!-- Generator: Adobe Illustrator 26.2.1, SVG Export Plug-In . SVG Version: 6.00 Build 0)  -->
<svg version="1.1" id="Layer_1" xmlns="http://www.w3.org/2000/svg" xmlns:xlink="http://www.w3.org/1999/xlink" x="0px" y="0px"
	 viewBox="0 0 792 792" style="enable-background:new 0 0 792 792;" xml:space="preserve">
<style type="text/css">
	.st0{fill:#451B60;}
</style>
<path class="st0" d="M-36,54.8c51.4,0,97.1,0.6,142.7-0.4c11.4-0.2,15.9,14.5,21.7,26.8c41.9,88,81.4,180,128.1,265.4
	c16.4-37.1,33.5-70.8,47.6-108.3C349.9,117.2,414.3,60.6,491.9,57.5c96.1-3.9,192.2-0.9,292.1-0.9C759,116.6,735.8,172,713,227.9
	c-5.8,14.2-13.5,10.7-20.8,10.7c-57.4,0.2-114.8,0.8-172.2-0.1c-43.6-0.7-80.2,21.9-108.5,88.8c-26.3,62.3-56.1,119.7-84.9,178.2
	c-7.8,15.8-11.2,31.7-10.9,53c0.6,56.5-0.4,113.1,0.5,169.7c0.4,24.7-2.3,35.1-17.4,33.8c-28.3-2.5-56.6-1.9-84.9-0.2
	c-13.1,0.8-17.4-6.7-17.1-30.9c0.8-53.7-0.6-107.5,0.6-161.2c0.7-30.5-4.3-52.7-15.5-75.2C110.1,351.4,39.2,207-36,54.8z"/>
<path class="st0" d="M430.5,396.9c11.9,123,45.9,176.6,112.1,178.2c43.6,1.1,87.3-0.7,130.9,0.9c13.4,0.5,16.2-7.7,16.2-30.9
	c0.1-71.2,0.6-71.2-38.1-71.2c-51.3,0-102.5,0-159.5,0c24.6-54.4,46.6-103.3,69-151.7c3.8-8.2,10.1-4.5,15.3-4.5
	c71.2-0.2,142.4,0.5,213.5-0.7c13.9-0.2,18.2,6.4,18.1,33c-0.8,125.8-0.5,251.7-0.2,377.5c0,19-0.2,31.8-14.1,31.2
	c-94.8-3.8-189.8,6.9-284.6-6c-49.2-6.7-93.3-41.7-130.8-102c-17.7-28.5-20.7-100.4-5.8-133.3c6.9-15.2,14.1-29.7,21.3-44.5
	C405.4,448.8,417.1,424.6,430.5,396.9z"/>
</svg>
